<?xml version="1.0" encoding="utf-8" standalone="no"?>
<!DOCTYPE svg PUBLIC "-//W3C//DTD SVG 1.1//EN"
  "http://www.w3.org/Graphics/SVG/1.1/DTD/svg11.dtd">
<!-- Created with matplotlib (https://matplotlib.org/) -->
<svg height="576pt" version="1.1" viewBox="0 0 576 576" width="576pt" xmlns="http://www.w3.org/2000/svg" xmlns:xlink="http://www.w3.org/1999/xlink">
 <defs>
  <style type="text/css">
*{stroke-linecap:butt;stroke-linejoin:round;}
  </style>
 </defs>
 <g id="figure_1">
  <g id="patch_1">
   <path d="M 0 576 
L 576 576 
L 576 0 
L 0 0 
z
" style="fill:#ffffff;"/>
  </g>
  <g id="axes_1">
   <g id="patch_2">
    <path d="M 72 504 
L 518.4 504 
L 518.4 69.12 
L 72 69.12 
z
" style="fill:#ffffff;"/>
   </g>
   <g id="matplotlib.axis_1">
    <g id="xtick_1">
     <g id="line2d_1">
      <defs>
       <path d="M 0 0 
L 0 6 
" id="m8baf733b26" style="stroke:#262626;stroke-width:1.25;"/>
      </defs>
      <g>
       <use style="fill:#262626;stroke:#262626;stroke-width:1.25;" x="72" xlink:href="#m8baf733b26" y="504"/>
      </g>
     </g>
     <g id="text_1">
      <!-- 0 -->
      <defs>
       <path d="M 4.15625 35.296875 
Q 4.15625 48 6.765625 55.734375 
Q 9.375 63.484375 14.515625 67.671875 
Q 19.671875 71.875 27.484375 71.875 
Q 33.25 71.875 37.59375 69.546875 
Q 41.9375 67.234375 44.765625 62.859375 
Q 47.609375 58.5 49.21875 52.21875 
Q 50.828125 45.953125 50.828125 35.296875 
Q 50.828125 22.703125 48.234375 14.96875 
Q 45.65625 7.234375 40.5 3 
Q 35.359375 -1.21875 27.484375 -1.21875 
Q 17.140625 -1.21875 11.234375 6.203125 
Q 4.15625 15.140625 4.15625 35.296875 
z
M 13.1875 35.296875 
Q 13.1875 17.671875 17.3125 11.828125 
Q 21.4375 6 27.484375 6 
Q 33.546875 6 37.671875 11.859375 
Q 41.796875 17.71875 41.796875 35.296875 
Q 41.796875 52.984375 37.671875 58.78125 
Q 33.546875 64.59375 27.390625 64.59375 
Q 21.34375 64.59375 17.71875 59.46875 
Q 13.1875 52.9375 13.1875 35.296875 
z
" id="ArialMT-48"/>
      </defs>
      <g style="fill:#262626;" transform="translate(66.647598 527.278789)scale(0.1925 -0.1925)">
       <use xlink:href="#ArialMT-48"/>
      </g>
     </g>
    </g>
    <g id="xtick_2">
     <g id="line2d_2">
      <g>
       <use style="fill:#262626;stroke:#262626;stroke-width:1.25;" x="183.6" xlink:href="#m8baf733b26" y="504"/>
      </g>
     </g>
     <g id="text_2">
      <!-- 20 -->
      <defs>
       <path d="M 50.34375 8.453125 
L 50.34375 0 
L 3.03125 0 
Q 2.9375 3.171875 4.046875 6.109375 
Q 5.859375 10.9375 9.828125 15.625 
Q 13.8125 20.3125 21.34375 26.46875 
Q 33.015625 36.03125 37.109375 41.625 
Q 41.21875 47.21875 41.21875 52.203125 
Q 41.21875 57.421875 37.46875 61 
Q 33.734375 64.59375 27.734375 64.59375 
Q 21.390625 64.59375 17.578125 60.78125 
Q 13.765625 56.984375 13.71875 50.25 
L 4.6875 51.171875 
Q 5.609375 61.28125 11.65625 66.578125 
Q 17.71875 71.875 27.9375 71.875 
Q 38.234375 71.875 44.234375 66.15625 
Q 50.25 60.453125 50.25 52 
Q 50.25 47.703125 48.484375 43.546875 
Q 46.734375 39.40625 42.65625 34.8125 
Q 38.578125 30.21875 29.109375 22.21875 
Q 21.1875 15.578125 18.9375 13.203125 
Q 16.703125 10.84375 15.234375 8.453125 
z
" id="ArialMT-50"/>
      </defs>
      <g style="fill:#262626;" transform="translate(172.895195 527.278789)scale(0.1925 -0.1925)">
       <use xlink:href="#ArialMT-50"/>
       <use x="55.615234" xlink:href="#ArialMT-48"/>
      </g>
     </g>
    </g>
    <g id="xtick_3">
     <g id="line2d_3">
      <g>
       <use style="fill:#262626;stroke:#262626;stroke-width:1.25;" x="295.2" xlink:href="#m8baf733b26" y="504"/>
      </g>
     </g>
     <g id="text_3">
      <!-- 40 -->
      <defs>
       <path d="M 32.328125 0 
L 32.328125 17.140625 
L 1.265625 17.140625 
L 1.265625 25.203125 
L 33.9375 71.578125 
L 41.109375 71.578125 
L 41.109375 25.203125 
L 50.78125 25.203125 
L 50.78125 17.140625 
L 41.109375 17.140625 
L 41.109375 0 
z
M 32.328125 25.203125 
L 32.328125 57.46875 
L 9.90625 25.203125 
z
" id="ArialMT-52"/>
      </defs>
      <g style="fill:#262626;" transform="translate(284.495195 527.278789)scale(0.1925 -0.1925)">
       <use xlink:href="#ArialMT-52"/>
       <use x="55.615234" xlink:href="#ArialMT-48"/>
      </g>
     </g>
    </g>
    <g id="xtick_4">
     <g id="line2d_4">
      <g>
       <use style="fill:#262626;stroke:#262626;stroke-width:1.25;" x="406.8" xlink:href="#m8baf733b26" y="504"/>
      </g>
     </g>
     <g id="text_4">
      <!-- 60 -->
      <defs>
       <path d="M 49.75 54.046875 
L 41.015625 53.375 
Q 39.84375 58.546875 37.703125 60.890625 
Q 34.125 64.65625 28.90625 64.65625 
Q 24.703125 64.65625 21.53125 62.3125 
Q 17.390625 59.28125 14.984375 53.46875 
Q 12.59375 47.65625 12.5 36.921875 
Q 15.671875 41.75 20.265625 44.09375 
Q 24.859375 46.4375 29.890625 46.4375 
Q 38.671875 46.4375 44.84375 39.96875 
Q 51.03125 33.5 51.03125 23.25 
Q 51.03125 16.5 48.125 10.71875 
Q 45.21875 4.9375 40.140625 1.859375 
Q 35.0625 -1.21875 28.609375 -1.21875 
Q 17.625 -1.21875 10.6875 6.859375 
Q 3.765625 14.9375 3.765625 33.5 
Q 3.765625 54.25 11.421875 63.671875 
Q 18.109375 71.875 29.4375 71.875 
Q 37.890625 71.875 43.28125 67.140625 
Q 48.6875 62.40625 49.75 54.046875 
z
M 13.875 23.1875 
Q 13.875 18.65625 15.796875 14.5 
Q 17.71875 10.359375 21.1875 8.171875 
Q 24.65625 6 28.46875 6 
Q 34.03125 6 38.03125 10.484375 
Q 42.046875 14.984375 42.046875 22.703125 
Q 42.046875 30.125 38.078125 34.390625 
Q 34.125 38.671875 28.125 38.671875 
Q 22.171875 38.671875 18.015625 34.390625 
Q 13.875 30.125 13.875 23.1875 
z
" id="ArialMT-54"/>
      </defs>
      <g style="fill:#262626;" transform="translate(396.095195 527.278789)scale(0.1925 -0.1925)">
       <use xlink:href="#ArialMT-54"/>
       <use x="55.615234" xlink:href="#ArialMT-48"/>
      </g>
     </g>
    </g>
    <g id="xtick_5">
     <g id="line2d_5">
      <g>
       <use style="fill:#262626;stroke:#262626;stroke-width:1.25;" x="518.4" xlink:href="#m8baf733b26" y="504"/>
      </g>
     </g>
     <g id="text_5">
      <!-- 80 -->
      <defs>
       <path d="M 17.671875 38.8125 
Q 12.203125 40.828125 9.5625 44.53125 
Q 6.9375 48.25 6.9375 53.421875 
Q 6.9375 61.234375 12.546875 66.546875 
Q 18.171875 71.875 27.484375 71.875 
Q 36.859375 71.875 42.578125 66.421875 
Q 48.296875 60.984375 48.296875 53.171875 
Q 48.296875 48.1875 45.671875 44.5 
Q 43.0625 40.828125 37.75 38.8125 
Q 44.34375 36.671875 47.78125 31.875 
Q 51.21875 27.09375 51.21875 20.453125 
Q 51.21875 11.28125 44.71875 5.03125 
Q 38.234375 -1.21875 27.640625 -1.21875 
Q 17.046875 -1.21875 10.546875 5.046875 
Q 4.046875 11.328125 4.046875 20.703125 
Q 4.046875 27.6875 7.59375 32.390625 
Q 11.140625 37.109375 17.671875 38.8125 
z
M 15.921875 53.71875 
Q 15.921875 48.640625 19.1875 45.40625 
Q 22.46875 42.1875 27.6875 42.1875 
Q 32.765625 42.1875 36.015625 45.375 
Q 39.265625 48.578125 39.265625 53.21875 
Q 39.265625 58.0625 35.90625 61.359375 
Q 32.5625 64.65625 27.59375 64.65625 
Q 22.5625 64.65625 19.234375 61.421875 
Q 15.921875 58.203125 15.921875 53.71875 
z
M 13.09375 20.65625 
Q 13.09375 16.890625 14.875 13.375 
Q 16.65625 9.859375 20.171875 7.921875 
Q 23.6875 6 27.734375 6 
Q 34.03125 6 38.125 10.046875 
Q 42.234375 14.109375 42.234375 20.359375 
Q 42.234375 26.703125 38.015625 30.859375 
Q 33.796875 35.015625 27.4375 35.015625 
Q 21.234375 35.015625 17.15625 30.90625 
Q 13.09375 26.8125 13.09375 20.65625 
z
" id="ArialMT-56"/>
      </defs>
      <g style="fill:#262626;" transform="translate(507.695195 527.278789)scale(0.1925 -0.1925)">
       <use xlink:href="#ArialMT-56"/>
       <use x="55.615234" xlink:href="#ArialMT-48"/>
      </g>
     </g>
    </g>
    <g id="text_6">
     <!-- Average Absolute Relative Turning Angle (deg) -->
     <defs>
      <path d="M -0.140625 0 
L 27.34375 71.578125 
L 37.546875 71.578125 
L 66.84375 0 
L 56.0625 0 
L 47.703125 21.6875 
L 17.78125 21.6875 
L 9.90625 0 
z
M 20.515625 29.390625 
L 44.78125 29.390625 
L 37.3125 49.21875 
Q 33.890625 58.25 32.234375 64.0625 
Q 30.859375 57.171875 28.375 50.390625 
z
" id="ArialMT-65"/>
      <path d="M 21 0 
L 1.265625 51.859375 
L 10.546875 51.859375 
L 21.6875 20.796875 
Q 23.484375 15.765625 25 10.359375 
Q 26.171875 14.453125 28.265625 20.21875 
L 39.796875 51.859375 
L 48.828125 51.859375 
L 29.203125 0 
z
" id="ArialMT-118"/>
      <path d="M 42.09375 16.703125 
L 51.171875 15.578125 
Q 49.03125 7.625 43.21875 3.21875 
Q 37.40625 -1.171875 28.375 -1.171875 
Q 17 -1.171875 10.328125 5.828125 
Q 3.65625 12.84375 3.65625 25.484375 
Q 3.65625 38.578125 10.390625 45.796875 
Q 17.140625 53.03125 27.875 53.03125 
Q 38.28125 53.03125 44.875 45.953125 
Q 51.46875 38.875 51.46875 26.03125 
Q 51.46875 25.25 51.421875 23.6875 
L 12.75 23.6875 
Q 13.234375 15.140625 17.578125 10.59375 
Q 21.921875 6.0625 28.421875 6.0625 
Q 33.25 6.0625 36.671875 8.59375 
Q 40.09375 11.140625 42.09375 16.703125 
z
M 13.234375 30.90625 
L 42.1875 30.90625 
Q 41.609375 37.453125 38.875 40.71875 
Q 34.671875 45.796875 27.984375 45.796875 
Q 21.921875 45.796875 17.796875 41.75 
Q 13.671875 37.703125 13.234375 30.90625 
z
" id="ArialMT-101"/>
      <path d="M 6.5 0 
L 6.5 51.859375 
L 14.40625 51.859375 
L 14.40625 44 
Q 17.4375 49.515625 20 51.265625 
Q 22.5625 53.03125 25.640625 53.03125 
Q 30.078125 53.03125 34.671875 50.203125 
L 31.640625 42.046875 
Q 28.421875 43.953125 25.203125 43.953125 
Q 22.3125 43.953125 20.015625 42.21875 
Q 17.71875 40.484375 16.75 37.40625 
Q 15.28125 32.71875 15.28125 27.15625 
L 15.28125 0 
z
" id="ArialMT-114"/>
      <path d="M 40.4375 6.390625 
Q 35.546875 2.25 31.03125 0.53125 
Q 26.515625 -1.171875 21.34375 -1.171875 
Q 12.796875 -1.171875 8.203125 3 
Q 3.609375 7.171875 3.609375 13.671875 
Q 3.609375 17.484375 5.34375 20.625 
Q 7.078125 23.78125 9.890625 25.6875 
Q 12.703125 27.59375 16.21875 28.5625 
Q 18.796875 29.25 24.03125 29.890625 
Q 34.671875 31.15625 39.703125 32.90625 
Q 39.75 34.71875 39.75 35.203125 
Q 39.75 40.578125 37.25 42.78125 
Q 33.890625 45.75 27.25 45.75 
Q 21.046875 45.75 18.09375 43.578125 
Q 15.140625 41.40625 13.71875 35.890625 
L 5.125 37.0625 
Q 6.296875 42.578125 8.984375 45.96875 
Q 11.671875 49.359375 16.75 51.1875 
Q 21.828125 53.03125 28.515625 53.03125 
Q 35.15625 53.03125 39.296875 51.46875 
Q 43.453125 49.90625 45.40625 47.53125 
Q 47.359375 45.171875 48.140625 41.546875 
Q 48.578125 39.3125 48.578125 33.453125 
L 48.578125 21.734375 
Q 48.578125 9.46875 49.140625 6.21875 
Q 49.703125 2.984375 51.375 0 
L 42.1875 0 
Q 40.828125 2.734375 40.4375 6.390625 
z
M 39.703125 26.03125 
Q 34.90625 24.078125 25.34375 22.703125 
Q 19.921875 21.921875 17.671875 20.9375 
Q 15.4375 19.96875 14.203125 18.09375 
Q 12.984375 16.21875 12.984375 13.921875 
Q 12.984375 10.40625 15.640625 8.0625 
Q 18.3125 5.71875 23.4375 5.71875 
Q 28.515625 5.71875 32.46875 7.9375 
Q 36.421875 10.15625 38.28125 14.015625 
Q 39.703125 17 39.703125 22.796875 
z
" id="ArialMT-97"/>
      <path d="M 4.984375 -4.296875 
L 13.53125 -5.5625 
Q 14.0625 -9.515625 16.5 -11.328125 
Q 19.78125 -13.765625 25.4375 -13.765625 
Q 31.546875 -13.765625 34.859375 -11.328125 
Q 38.1875 -8.890625 39.359375 -4.5 
Q 40.046875 -1.8125 39.984375 6.78125 
Q 34.234375 0 25.640625 0 
Q 14.9375 0 9.078125 7.71875 
Q 3.21875 15.4375 3.21875 26.21875 
Q 3.21875 33.640625 5.90625 39.90625 
Q 8.59375 46.1875 13.6875 49.609375 
Q 18.796875 53.03125 25.6875 53.03125 
Q 34.859375 53.03125 40.828125 45.609375 
L 40.828125 51.859375 
L 48.921875 51.859375 
L 48.921875 7.03125 
Q 48.921875 -5.078125 46.453125 -10.125 
Q 44 -15.1875 38.640625 -18.109375 
Q 33.296875 -21.046875 25.484375 -21.046875 
Q 16.21875 -21.046875 10.5 -16.875 
Q 4.78125 -12.703125 4.984375 -4.296875 
z
M 12.25 26.859375 
Q 12.25 16.65625 16.296875 11.96875 
Q 20.359375 7.28125 26.46875 7.28125 
Q 32.515625 7.28125 36.609375 11.9375 
Q 40.71875 16.609375 40.71875 26.5625 
Q 40.71875 36.078125 36.5 40.90625 
Q 32.28125 45.75 26.3125 45.75 
Q 20.453125 45.75 16.34375 40.984375 
Q 12.25 36.234375 12.25 26.859375 
z
" id="ArialMT-103"/>
      <path id="ArialMT-32"/>
      <path d="M 14.703125 0 
L 6.546875 0 
L 6.546875 71.578125 
L 15.328125 71.578125 
L 15.328125 46.046875 
Q 20.90625 53.03125 29.546875 53.03125 
Q 34.328125 53.03125 38.59375 51.09375 
Q 42.875 49.171875 45.625 45.671875 
Q 48.390625 42.1875 49.953125 37.25 
Q 51.515625 32.328125 51.515625 26.703125 
Q 51.515625 13.375 44.921875 6.09375 
Q 38.328125 -1.171875 29.109375 -1.171875 
Q 19.921875 -1.171875 14.703125 6.5 
z
M 14.59375 26.3125 
Q 14.59375 17 17.140625 12.84375 
Q 21.296875 6.0625 28.375 6.0625 
Q 34.125 6.0625 38.328125 11.0625 
Q 42.53125 16.0625 42.53125 25.984375 
Q 42.53125 36.140625 38.5 40.96875 
Q 34.46875 45.796875 28.765625 45.796875 
Q 23 45.796875 18.796875 40.796875 
Q 14.59375 35.796875 14.59375 26.3125 
z
" id="ArialMT-98"/>
      <path d="M 3.078125 15.484375 
L 11.765625 16.84375 
Q 12.5 11.625 15.84375 8.84375 
Q 19.1875 6.0625 25.203125 6.0625 
Q 31.25 6.0625 34.171875 8.515625 
Q 37.109375 10.984375 37.109375 14.3125 
Q 37.109375 17.28125 34.515625 19 
Q 32.71875 20.171875 25.53125 21.96875 
Q 15.875 24.421875 12.140625 26.203125 
Q 8.40625 27.984375 6.46875 31.125 
Q 4.546875 34.28125 4.546875 38.09375 
Q 4.546875 41.546875 6.125 44.5 
Q 7.71875 47.46875 10.453125 49.421875 
Q 12.5 50.921875 16.03125 51.96875 
Q 19.578125 53.03125 23.640625 53.03125 
Q 29.734375 53.03125 34.34375 51.265625 
Q 38.96875 49.515625 41.15625 46.5 
Q 43.359375 43.5 44.1875 38.484375 
L 35.59375 37.3125 
Q 35.015625 41.3125 32.203125 43.546875 
Q 29.390625 45.796875 24.265625 45.796875 
Q 18.21875 45.796875 15.625 43.796875 
Q 13.03125 41.796875 13.03125 39.109375 
Q 13.03125 37.40625 14.109375 36.03125 
Q 15.1875 34.625 17.484375 33.6875 
Q 18.796875 33.203125 25.25 31.453125 
Q 34.578125 28.953125 38.25 27.359375 
Q 41.9375 25.78125 44.03125 22.75 
Q 46.140625 19.734375 46.140625 15.234375 
Q 46.140625 10.84375 43.578125 6.953125 
Q 41.015625 3.078125 36.171875 0.953125 
Q 31.34375 -1.171875 25.25 -1.171875 
Q 15.140625 -1.171875 9.84375 3.03125 
Q 4.546875 7.234375 3.078125 15.484375 
z
" id="ArialMT-115"/>
      <path d="M 3.328125 25.921875 
Q 3.328125 40.328125 11.328125 47.265625 
Q 18.015625 53.03125 27.640625 53.03125 
Q 38.328125 53.03125 45.109375 46.015625 
Q 51.90625 39.015625 51.90625 26.65625 
Q 51.90625 16.65625 48.90625 10.90625 
Q 45.90625 5.171875 40.15625 2 
Q 34.421875 -1.171875 27.640625 -1.171875 
Q 16.75 -1.171875 10.03125 5.8125 
Q 3.328125 12.796875 3.328125 25.921875 
z
M 12.359375 25.921875 
Q 12.359375 15.96875 16.703125 11.015625 
Q 21.046875 6.0625 27.640625 6.0625 
Q 34.1875 6.0625 38.53125 11.03125 
Q 42.875 16.015625 42.875 26.21875 
Q 42.875 35.84375 38.5 40.796875 
Q 34.125 45.75 27.640625 45.75 
Q 21.046875 45.75 16.703125 40.8125 
Q 12.359375 35.890625 12.359375 25.921875 
z
" id="ArialMT-111"/>
      <path d="M 6.390625 0 
L 6.390625 71.578125 
L 15.1875 71.578125 
L 15.1875 0 
z
" id="ArialMT-108"/>
      <path d="M 40.578125 0 
L 40.578125 7.625 
Q 34.515625 -1.171875 24.125 -1.171875 
Q 19.53125 -1.171875 15.546875 0.578125 
Q 11.578125 2.34375 9.640625 5 
Q 7.71875 7.671875 6.9375 11.53125 
Q 6.390625 14.109375 6.390625 19.734375 
L 6.390625 51.859375 
L 15.1875 51.859375 
L 15.1875 23.09375 
Q 15.1875 16.21875 15.71875 13.8125 
Q 16.546875 10.359375 19.234375 8.375 
Q 21.921875 6.390625 25.875 6.390625 
Q 29.828125 6.390625 33.296875 8.421875 
Q 36.765625 10.453125 38.203125 13.9375 
Q 39.65625 17.4375 39.65625 24.078125 
L 39.65625 51.859375 
L 48.4375 51.859375 
L 48.4375 0 
z
" id="ArialMT-117"/>
      <path d="M 25.78125 7.859375 
L 27.046875 0.09375 
Q 23.34375 -0.6875 20.40625 -0.6875 
Q 15.625 -0.6875 12.984375 0.828125 
Q 10.359375 2.34375 9.28125 4.8125 
Q 8.203125 7.28125 8.203125 15.1875 
L 8.203125 45.015625 
L 1.765625 45.015625 
L 1.765625 51.859375 
L 8.203125 51.859375 
L 8.203125 64.703125 
L 16.9375 69.96875 
L 16.9375 51.859375 
L 25.78125 51.859375 
L 25.78125 45.015625 
L 16.9375 45.015625 
L 16.9375 14.703125 
Q 16.9375 10.9375 17.40625 9.859375 
Q 17.875 8.796875 18.921875 8.15625 
Q 19.96875 7.515625 21.921875 7.515625 
Q 23.390625 7.515625 25.78125 7.859375 
z
" id="ArialMT-116"/>
      <path d="M 7.859375 0 
L 7.859375 71.578125 
L 39.59375 71.578125 
Q 49.171875 71.578125 54.140625 69.640625 
Q 59.125 67.71875 62.109375 62.828125 
Q 65.09375 57.953125 65.09375 52.046875 
Q 65.09375 44.4375 60.15625 39.203125 
Q 55.21875 33.984375 44.921875 32.5625 
Q 48.6875 30.765625 50.640625 29 
Q 54.78125 25.203125 58.5 19.484375 
L 70.953125 0 
L 59.03125 0 
L 49.5625 14.890625 
Q 45.40625 21.34375 42.71875 24.75 
Q 40.046875 28.171875 37.921875 29.53125 
Q 35.796875 30.90625 33.59375 31.453125 
Q 31.984375 31.78125 28.328125 31.78125 
L 17.328125 31.78125 
L 17.328125 0 
z
M 17.328125 39.984375 
L 37.703125 39.984375 
Q 44.1875 39.984375 47.84375 41.328125 
Q 51.515625 42.671875 53.421875 45.625 
Q 55.328125 48.578125 55.328125 52.046875 
Q 55.328125 57.125 51.640625 60.390625 
Q 47.953125 63.671875 39.984375 63.671875 
L 17.328125 63.671875 
z
" id="ArialMT-82"/>
      <path d="M 6.640625 61.46875 
L 6.640625 71.578125 
L 15.4375 71.578125 
L 15.4375 61.46875 
z
M 6.640625 0 
L 6.640625 51.859375 
L 15.4375 51.859375 
L 15.4375 0 
z
" id="ArialMT-105"/>
      <path d="M 25.921875 0 
L 25.921875 63.140625 
L 2.34375 63.140625 
L 2.34375 71.578125 
L 59.078125 71.578125 
L 59.078125 63.140625 
L 35.40625 63.140625 
L 35.40625 0 
z
" id="ArialMT-84"/>
      <path d="M 6.59375 0 
L 6.59375 51.859375 
L 14.5 51.859375 
L 14.5 44.484375 
Q 20.21875 53.03125 31 53.03125 
Q 35.6875 53.03125 39.625 51.34375 
Q 43.5625 49.65625 45.515625 46.921875 
Q 47.46875 44.1875 48.25 40.4375 
Q 48.734375 37.984375 48.734375 31.890625 
L 48.734375 0 
L 39.9375 0 
L 39.9375 31.546875 
Q 39.9375 36.921875 38.90625 39.578125 
Q 37.890625 42.234375 35.28125 43.8125 
Q 32.671875 45.40625 29.15625 45.40625 
Q 23.53125 45.40625 19.453125 41.84375 
Q 15.375 38.28125 15.375 28.328125 
L 15.375 0 
z
" id="ArialMT-110"/>
      <path d="M 23.390625 -21.046875 
Q 16.109375 -11.859375 11.078125 0.4375 
Q 6.0625 12.75 6.0625 25.921875 
Q 6.0625 37.546875 9.8125 48.1875 
Q 14.203125 60.546875 23.390625 72.796875 
L 29.6875 72.796875 
Q 23.78125 62.640625 21.875 58.296875 
Q 18.890625 51.5625 17.1875 44.234375 
Q 15.09375 35.109375 15.09375 25.875 
Q 15.09375 2.390625 29.6875 -21.046875 
z
" id="ArialMT-40"/>
      <path d="M 40.234375 0 
L 40.234375 6.546875 
Q 35.296875 -1.171875 25.734375 -1.171875 
Q 19.53125 -1.171875 14.328125 2.25 
Q 9.125 5.671875 6.265625 11.796875 
Q 3.421875 17.921875 3.421875 25.875 
Q 3.421875 33.640625 6 39.96875 
Q 8.59375 46.296875 13.765625 49.65625 
Q 18.953125 53.03125 25.34375 53.03125 
Q 30.03125 53.03125 33.6875 51.046875 
Q 37.359375 49.078125 39.65625 45.90625 
L 39.65625 71.578125 
L 48.390625 71.578125 
L 48.390625 0 
z
M 12.453125 25.875 
Q 12.453125 15.921875 16.640625 10.984375 
Q 20.84375 6.0625 26.5625 6.0625 
Q 32.328125 6.0625 36.34375 10.765625 
Q 40.375 15.484375 40.375 25.140625 
Q 40.375 35.796875 36.265625 40.765625 
Q 32.171875 45.75 26.171875 45.75 
Q 20.3125 45.75 16.375 40.96875 
Q 12.453125 36.1875 12.453125 25.875 
z
" id="ArialMT-100"/>
      <path d="M 12.359375 -21.046875 
L 6.0625 -21.046875 
Q 20.65625 2.390625 20.65625 25.875 
Q 20.65625 35.0625 18.5625 44.09375 
Q 16.890625 51.421875 13.921875 58.15625 
Q 12.015625 62.546875 6.0625 72.796875 
L 12.359375 72.796875 
Q 21.53125 60.546875 25.921875 48.1875 
Q 29.6875 37.546875 29.6875 25.921875 
Q 29.6875 12.75 24.625 0.4375 
Q 19.578125 -11.859375 12.359375 -21.046875 
z
" id="ArialMT-41"/>
     </defs>
     <g style="fill:#262626;opacity:0.7;" transform="translate(128.0225 546.752227)scale(0.16 -0.16)">
      <use xlink:href="#ArialMT-65"/>
      <use x="66.683594" xlink:href="#ArialMT-118"/>
      <use x="116.683594" xlink:href="#ArialMT-101"/>
      <use x="172.298828" xlink:href="#ArialMT-114"/>
      <use x="205.599609" xlink:href="#ArialMT-97"/>
      <use x="261.214844" xlink:href="#ArialMT-103"/>
      <use x="316.830078" xlink:href="#ArialMT-101"/>
      <use x="372.445312" xlink:href="#ArialMT-32"/>
      <use x="400.150391" xlink:href="#ArialMT-65"/>
      <use x="466.849609" xlink:href="#ArialMT-98"/>
      <use x="522.464844" xlink:href="#ArialMT-115"/>
      <use x="572.464844" xlink:href="#ArialMT-111"/>
      <use x="628.080078" xlink:href="#ArialMT-108"/>
      <use x="650.296875" xlink:href="#ArialMT-117"/>
      <use x="705.912109" xlink:href="#ArialMT-116"/>
      <use x="733.695312" xlink:href="#ArialMT-101"/>
      <use x="789.310547" xlink:href="#ArialMT-32"/>
      <use x="817.09375" xlink:href="#ArialMT-82"/>
      <use x="889.310547" xlink:href="#ArialMT-101"/>
      <use x="944.925781" xlink:href="#ArialMT-108"/>
      <use x="967.142578" xlink:href="#ArialMT-97"/>
      <use x="1022.757812" xlink:href="#ArialMT-116"/>
      <use x="1050.541016" xlink:href="#ArialMT-105"/>
      <use x="1072.757812" xlink:href="#ArialMT-118"/>
      <use x="1122.757812" xlink:href="#ArialMT-101"/>
      <use x="1178.373047" xlink:href="#ArialMT-32"/>
      <use x="1206.140625" xlink:href="#ArialMT-84"/>
      <use x="1267.177734" xlink:href="#ArialMT-117"/>
      <use x="1322.792969" xlink:href="#ArialMT-114"/>
      <use x="1356.09375" xlink:href="#ArialMT-110"/>
      <use x="1411.708984" xlink:href="#ArialMT-105"/>
      <use x="1433.925781" xlink:href="#ArialMT-110"/>
      <use x="1489.541016" xlink:href="#ArialMT-103"/>
      <use x="1545.15625" xlink:href="#ArialMT-32"/>
      <use x="1572.861328" xlink:href="#ArialMT-65"/>
      <use x="1639.560547" xlink:href="#ArialMT-110"/>
      <use x="1695.175781" xlink:href="#ArialMT-103"/>
      <use x="1750.791016" xlink:href="#ArialMT-108"/>
      <use x="1773.007812" xlink:href="#ArialMT-101"/>
      <use x="1828.623047" xlink:href="#ArialMT-32"/>
      <use x="1856.40625" xlink:href="#ArialMT-40"/>
      <use x="1889.707031" xlink:href="#ArialMT-100"/>
      <use x="1945.322266" xlink:href="#ArialMT-101"/>
      <use x="2000.9375" xlink:href="#ArialMT-103"/>
      <use x="2056.552734" xlink:href="#ArialMT-41"/>
     </g>
    </g>
   </g>
   <g id="matplotlib.axis_2">
    <g id="ytick_1">
     <g id="line2d_6">
      <defs>
       <path d="M 0 0 
L -6 0 
" id="m9a6b1d7f45" style="stroke:#262626;stroke-width:1.25;"/>
      </defs>
      <g>
       <use style="fill:#262626;stroke:#262626;stroke-width:1.25;" x="72" xlink:href="#m9a6b1d7f45" y="100.182857"/>
      </g>
     </g>
     <g id="text_7">
      <!-- 0.5 -->
      <defs>
       <path d="M 9.078125 0 
L 9.078125 10.015625 
L 19.09375 10.015625 
L 19.09375 0 
z
" id="ArialMT-46"/>
       <path d="M 4.15625 18.75 
L 13.375 19.53125 
Q 14.40625 12.796875 18.140625 9.390625 
Q 21.875 6 27.15625 6 
Q 33.5 6 37.890625 10.78125 
Q 42.28125 15.578125 42.28125 23.484375 
Q 42.28125 31 38.0625 35.34375 
Q 33.84375 39.703125 27 39.703125 
Q 22.75 39.703125 19.328125 37.765625 
Q 15.921875 35.84375 13.96875 32.765625 
L 5.71875 33.84375 
L 12.640625 70.609375 
L 48.25 70.609375 
L 48.25 62.203125 
L 19.671875 62.203125 
L 15.828125 42.96875 
Q 22.265625 47.46875 29.34375 47.46875 
Q 38.71875 47.46875 45.15625 40.96875 
Q 51.609375 34.46875 51.609375 24.265625 
Q 51.609375 14.546875 45.953125 7.46875 
Q 39.0625 -1.21875 27.15625 -1.21875 
Q 17.390625 -1.21875 11.203125 4.25 
Q 5.03125 9.71875 4.15625 18.75 
z
" id="ArialMT-53"/>
      </defs>
      <g style="fill:#262626;" transform="translate(35.7425 107.072252)scale(0.1925 -0.1925)">
       <use xlink:href="#ArialMT-48"/>
       <use x="55.615234" xlink:href="#ArialMT-46"/>
       <use x="83.398438" xlink:href="#ArialMT-53"/>
      </g>
     </g>
    </g>
    <g id="ytick_2">
     <g id="line2d_7">
      <g>
       <use style="fill:#262626;stroke:#262626;stroke-width:1.25;" x="72" xlink:href="#m9a6b1d7f45" y="162.308571"/>
      </g>
     </g>
     <g id="text_8">
      <!-- 1.0 -->
      <defs>
       <path d="M 37.25 0 
L 28.46875 0 
L 28.46875 56 
Q 25.296875 52.984375 20.140625 49.953125 
Q 14.984375 46.921875 10.890625 45.40625 
L 10.890625 53.90625 
Q 18.265625 57.375 23.78125 62.296875 
Q 29.296875 67.234375 31.59375 71.875 
L 37.25 71.875 
z
" id="ArialMT-49"/>
      </defs>
      <g style="fill:#262626;" transform="translate(35.7425 169.197966)scale(0.1925 -0.1925)">
       <use xlink:href="#ArialMT-49"/>
       <use x="55.615234" xlink:href="#ArialMT-46"/>
       <use x="83.398438" xlink:href="#ArialMT-48"/>
      </g>
     </g>
    </g>
    <g id="ytick_3">
     <g id="line2d_8">
      <g>
       <use style="fill:#262626;stroke:#262626;stroke-width:1.25;" x="72" xlink:href="#m9a6b1d7f45" y="224.434286"/>
      </g>
     </g>
     <g id="text_9">
      <!-- 1.5 -->
      <g style="fill:#262626;" transform="translate(35.7425 231.32368)scale(0.1925 -0.1925)">
       <use xlink:href="#ArialMT-49"/>
       <use x="55.615234" xlink:href="#ArialMT-46"/>
       <use x="83.398438" xlink:href="#ArialMT-53"/>
      </g>
     </g>
    </g>
    <g id="ytick_4">
     <g id="line2d_9">
      <g>
       <use style="fill:#262626;stroke:#262626;stroke-width:1.25;" x="72" xlink:href="#m9a6b1d7f45" y="286.56"/>
      </g>
     </g>
     <g id="text_10">
      <!-- 2.0 -->
      <g style="fill:#262626;" transform="translate(35.7425 293.449395)scale(0.1925 -0.1925)">
       <use xlink:href="#ArialMT-50"/>
       <use x="55.615234" xlink:href="#ArialMT-46"/>
       <use x="83.398438" xlink:href="#ArialMT-48"/>
      </g>
     </g>
    </g>
    <g id="ytick_5">
     <g id="line2d_10">
      <g>
       <use style="fill:#262626;stroke:#262626;stroke-width:1.25;" x="72" xlink:href="#m9a6b1d7f45" y="348.685714"/>
      </g>
     </g>
     <g id="text_11">
      <!-- 3.0 -->
      <defs>
       <path d="M 4.203125 18.890625 
L 12.984375 20.0625 
Q 14.5 12.59375 18.140625 9.296875 
Q 21.78125 6 27 6 
Q 33.203125 6 37.46875 10.296875 
Q 41.75 14.59375 41.75 20.953125 
Q 41.75 27 37.796875 30.921875 
Q 33.84375 34.859375 27.734375 34.859375 
Q 25.25 34.859375 21.53125 33.890625 
L 22.515625 41.609375 
Q 23.390625 41.5 23.921875 41.5 
Q 29.546875 41.5 34.03125 44.421875 
Q 38.53125 47.359375 38.53125 53.46875 
Q 38.53125 58.296875 35.25 61.46875 
Q 31.984375 64.65625 26.8125 64.65625 
Q 21.6875 64.65625 18.265625 61.421875 
Q 14.84375 58.203125 13.875 51.765625 
L 5.078125 53.328125 
Q 6.6875 62.15625 12.390625 67.015625 
Q 18.109375 71.875 26.609375 71.875 
Q 32.46875 71.875 37.390625 69.359375 
Q 42.328125 66.84375 44.9375 62.5 
Q 47.5625 58.15625 47.5625 53.265625 
Q 47.5625 48.640625 45.0625 44.828125 
Q 42.578125 41.015625 37.703125 38.765625 
Q 44.046875 37.3125 47.5625 32.6875 
Q 51.078125 28.078125 51.078125 21.140625 
Q 51.078125 11.765625 44.234375 5.25 
Q 37.40625 -1.265625 26.953125 -1.265625 
Q 17.53125 -1.265625 11.296875 4.34375 
Q 5.078125 9.96875 4.203125 18.890625 
z
" id="ArialMT-51"/>
      </defs>
      <g style="fill:#262626;" transform="translate(35.7425 355.575109)scale(0.1925 -0.1925)">
       <use xlink:href="#ArialMT-51"/>
       <use x="55.615234" xlink:href="#ArialMT-46"/>
       <use x="83.398438" xlink:href="#ArialMT-48"/>
      </g>
     </g>
    </g>
    <g id="ytick_6">
     <g id="line2d_11">
      <g>
       <use style="fill:#262626;stroke:#262626;stroke-width:1.25;" x="72" xlink:href="#m9a6b1d7f45" y="410.811429"/>
      </g>
     </g>
     <g id="text_12">
      <!-- 4.0 -->
      <g style="fill:#262626;" transform="translate(35.7425 417.700823)scale(0.1925 -0.1925)">
       <use xlink:href="#ArialMT-52"/>
       <use x="55.615234" xlink:href="#ArialMT-46"/>
       <use x="83.398438" xlink:href="#ArialMT-48"/>
      </g>
     </g>
    </g>
    <g id="ytick_7">
     <g id="line2d_12">
      <g>
       <use style="fill:#262626;stroke:#262626;stroke-width:1.25;" x="72" xlink:href="#m9a6b1d7f45" y="472.937143"/>
      </g>
     </g>
     <g id="text_13">
      <!-- 6.0 -->
      <g style="fill:#262626;" transform="translate(35.7425 479.826537)scale(0.1925 -0.1925)">
       <use xlink:href="#ArialMT-54"/>
       <use x="55.615234" xlink:href="#ArialMT-46"/>
       <use x="83.398438" xlink:href="#ArialMT-48"/>
      </g>
     </g>
    </g>
    <g id="text_14">
     <!-- Days in Vitro (DIV) -->
     <defs>
      <path d="M 7.71875 0 
L 7.71875 71.578125 
L 32.375 71.578125 
Q 40.71875 71.578125 45.125 70.5625 
Q 51.265625 69.140625 55.609375 65.4375 
Q 61.28125 60.640625 64.078125 53.1875 
Q 66.890625 45.75 66.890625 36.1875 
Q 66.890625 28.03125 64.984375 21.734375 
Q 63.09375 15.4375 60.109375 11.296875 
Q 57.125 7.171875 53.578125 4.796875 
Q 50.046875 2.4375 45.046875 1.21875 
Q 40.046875 0 33.546875 0 
z
M 17.1875 8.453125 
L 32.46875 8.453125 
Q 39.546875 8.453125 43.578125 9.765625 
Q 47.609375 11.078125 50 13.484375 
Q 53.375 16.84375 55.25 22.53125 
Q 57.125 28.21875 57.125 36.328125 
Q 57.125 47.5625 53.4375 53.59375 
Q 49.75 59.625 44.484375 61.671875 
Q 40.671875 63.140625 32.234375 63.140625 
L 17.1875 63.140625 
z
" id="ArialMT-68"/>
      <path d="M 6.203125 -19.96875 
L 5.21875 -11.71875 
Q 8.109375 -12.5 10.25 -12.5 
Q 13.1875 -12.5 14.9375 -11.515625 
Q 16.703125 -10.546875 17.828125 -8.796875 
Q 18.65625 -7.46875 20.515625 -2.25 
Q 20.75 -1.515625 21.296875 -0.09375 
L 1.609375 51.859375 
L 11.078125 51.859375 
L 21.875 21.828125 
Q 23.96875 16.109375 25.640625 9.8125 
Q 27.15625 15.875 29.25 21.625 
L 40.328125 51.859375 
L 49.125 51.859375 
L 29.390625 -0.875 
Q 26.21875 -9.421875 24.46875 -12.640625 
Q 22.125 -17 19.09375 -19.015625 
Q 16.0625 -21.046875 11.859375 -21.046875 
Q 9.328125 -21.046875 6.203125 -19.96875 
z
" id="ArialMT-121"/>
      <path d="M 28.171875 0 
L 0.4375 71.578125 
L 10.6875 71.578125 
L 29.296875 19.578125 
Q 31.546875 13.328125 33.0625 7.859375 
Q 34.71875 13.71875 36.921875 19.578125 
L 56.25 71.578125 
L 65.921875 71.578125 
L 37.890625 0 
z
" id="ArialMT-86"/>
      <path d="M 9.328125 0 
L 9.328125 71.578125 
L 18.796875 71.578125 
L 18.796875 0 
z
" id="ArialMT-73"/>
     </defs>
     <g style="fill:#262626;opacity:0.7;" transform="translate(28.375 352.79125)rotate(-90)scale(0.16 -0.16)">
      <use xlink:href="#ArialMT-68"/>
      <use x="72.216797" xlink:href="#ArialMT-97"/>
      <use x="127.832031" xlink:href="#ArialMT-121"/>
      <use x="177.832031" xlink:href="#ArialMT-115"/>
      <use x="227.832031" xlink:href="#ArialMT-32"/>
      <use x="255.615234" xlink:href="#ArialMT-105"/>
      <use x="277.832031" xlink:href="#ArialMT-110"/>
      <use x="333.447266" xlink:href="#ArialMT-32"/>
      <use x="361.230469" xlink:href="#ArialMT-86"/>
      <use x="427.914062" xlink:href="#ArialMT-105"/>
      <use x="450.130859" xlink:href="#ArialMT-116"/>
      <use x="477.914062" xlink:href="#ArialMT-114"/>
      <use x="511.214844" xlink:href="#ArialMT-111"/>
      <use x="566.830078" xlink:href="#ArialMT-32"/>
      <use x="594.613281" xlink:href="#ArialMT-40"/>
      <use x="627.914062" xlink:href="#ArialMT-68"/>
      <use x="700.130859" xlink:href="#ArialMT-73"/>
      <use x="727.914062" xlink:href="#ArialMT-86"/>
      <use x="794.613281" xlink:href="#ArialMT-41"/>
     </g>
    </g>
   </g>
   <g id="PolyCollection_1">
    <defs>
     <path d="M 98.73955 -473.602333 
L 98.73955 -478.031953 
L 101.814598 -478.179698 
L 104.889645 -478.324926 
L 107.964693 -478.466853 
L 111.039741 -478.604947 
L 114.114789 -478.738977 
L 117.189836 -478.869046 
L 120.264884 -478.995606 
L 123.339932 -479.119459 
L 126.414979 -479.241737 
L 129.490027 -479.363857 
L 132.565075 -479.487458 
L 135.640122 -479.61431 
L 138.71517 -479.746219 
L 141.790218 -479.884902 
L 144.865266 -480.031867 
L 147.940313 -480.188283 
L 151.015361 -480.354868 
L 154.090409 -480.531773 
L 157.165456 -480.718506 
L 160.240504 -480.913875 
L 163.315552 -481.115957 
L 166.390599 -481.322124 
L 169.465647 -481.529083 
L 172.540695 -481.732971 
L 175.615743 -481.92948 
L 178.69079 -482.114001 
L 181.765838 -482.281807 
L 184.840886 -482.428231 
L 187.915933 -482.548863 
L 190.990981 -482.639729 
L 194.066029 -482.697457 
L 197.141077 -482.719421 
L 200.216124 -482.703852 
L 203.291172 -482.649905 
L 206.36622 -482.557693 
L 209.441267 -482.428276 
L 212.516315 -482.263611 
L 215.591363 -482.066461 
L 218.66641 -481.840284 
L 221.741458 -481.589085 
L 224.816506 -481.317262 
L 227.891554 -481.029446 
L 230.966601 -480.73033 
L 234.041649 -480.424524 
L 237.116697 -480.11641 
L 240.191744 -479.810035 
L 243.266792 -479.509008 
L 246.34184 -479.216447 
L 249.416888 -478.934933 
L 252.491935 -478.666505 
L 255.566983 -478.412672 
L 258.642031 -478.174442 
L 261.717078 -477.95238 
L 264.792126 -477.746658 
L 267.867174 -477.557133 
L 270.942221 -477.383405 
L 274.017269 -477.224893 
L 277.092317 -477.080896 
L 280.167365 -476.950641 
L 283.242412 -476.833336 
L 286.31746 -476.7282 
L 289.392508 -476.63449 
L 292.467555 -476.551513 
L 295.542603 -476.478633 
L 298.617651 -476.415271 
L 301.692699 -476.360895 
L 304.767746 -476.315011 
L 307.842794 -476.277149 
L 310.917842 -476.246851 
L 313.992889 -476.223652 
L 317.067937 -476.207078 
L 320.142985 -476.196629 
L 323.218032 -476.191778 
L 326.29308 -476.191969 
L 329.368128 -476.196617 
L 332.443176 -476.205115 
L 335.518223 -476.216838 
L 338.593271 -476.231155 
L 341.668319 -476.247437 
L 344.743366 -476.265069 
L 347.818414 -476.283461 
L 350.893462 -476.302057 
L 353.96851 -476.32034 
L 357.043557 -476.337844 
L 360.118605 -476.354153 
L 363.193653 -476.368904 
L 366.2687 -476.381789 
L 369.343748 -476.392549 
L 372.418796 -476.400975 
L 375.493843 -476.406904 
L 378.568891 -476.410211 
L 381.643939 -476.410812 
L 384.718987 -476.408655 
L 387.794034 -476.403722 
L 390.869082 -476.396027 
L 393.94413 -476.385614 
L 397.019177 -476.372562 
L 400.094225 -476.356982 
L 403.169273 -476.339021 
L 403.169273 -475.295265 
L 403.169273 -475.295265 
L 400.094225 -475.277303 
L 397.019177 -475.261724 
L 393.94413 -475.248672 
L 390.869082 -475.238259 
L 387.794034 -475.230564 
L 384.718987 -475.225631 
L 381.643939 -475.223474 
L 378.568891 -475.224075 
L 375.493843 -475.227382 
L 372.418796 -475.233311 
L 369.343748 -475.241737 
L 366.2687 -475.252497 
L 363.193653 -475.265381 
L 360.118605 -475.280133 
L 357.043557 -475.296441 
L 353.96851 -475.313946 
L 350.893462 -475.332229 
L 347.818414 -475.350824 
L 344.743366 -475.369217 
L 341.668319 -475.386849 
L 338.593271 -475.403131 
L 335.518223 -475.417448 
L 332.443176 -475.429171 
L 329.368128 -475.437669 
L 326.29308 -475.442317 
L 323.218032 -475.442508 
L 320.142985 -475.437657 
L 317.067937 -475.427208 
L 313.992889 -475.410633 
L 310.917842 -475.387435 
L 307.842794 -475.357136 
L 304.767746 -475.319275 
L 301.692699 -475.273391 
L 298.617651 -475.219015 
L 295.542603 -475.155653 
L 292.467555 -475.082773 
L 289.392508 -474.999795 
L 286.31746 -474.906085 
L 283.242412 -474.80095 
L 280.167365 -474.683645 
L 277.092317 -474.55339 
L 274.017269 -474.409392 
L 270.942221 -474.250881 
L 267.867174 -474.077153 
L 264.792126 -473.887627 
L 261.717078 -473.681906 
L 258.642031 -473.459843 
L 255.566983 -473.221614 
L 252.491935 -472.96778 
L 249.416888 -472.699353 
L 246.34184 -472.417839 
L 243.266792 -472.125277 
L 240.191744 -471.824251 
L 237.116697 -471.517875 
L 234.041649 -471.209762 
L 230.966601 -470.903956 
L 227.891554 -470.60484 
L 224.816506 -470.317023 
L 221.741458 -470.045201 
L 218.66641 -469.794002 
L 215.591363 -469.567824 
L 212.516315 -469.370675 
L 209.441267 -469.206009 
L 206.36622 -469.076593 
L 203.291172 -468.984381 
L 200.216124 -468.930434 
L 197.141077 -468.914864 
L 194.066029 -468.936829 
L 190.990981 -468.994557 
L 187.915933 -469.085422 
L 184.840886 -469.206055 
L 181.765838 -469.352479 
L 178.69079 -469.520285 
L 175.615743 -469.704806 
L 172.540695 -469.901314 
L 169.465647 -470.105203 
L 166.390599 -470.312162 
L 163.315552 -470.518328 
L 160.240504 -470.720411 
L 157.165456 -470.915779 
L 154.090409 -471.102513 
L 151.015361 -471.279418 
L 147.940313 -471.446002 
L 144.865266 -471.602419 
L 141.790218 -471.749384 
L 138.71517 -471.888067 
L 135.640122 -472.019975 
L 132.565075 -472.146828 
L 129.490027 -472.270428 
L 126.414979 -472.392549 
L 123.339932 -472.514827 
L 120.264884 -472.63868 
L 117.189836 -472.76524 
L 114.114789 -472.895309 
L 111.039741 -473.029339 
L 107.964693 -473.167433 
L 104.889645 -473.309359 
L 101.814598 -473.454588 
L 98.73955 -473.602333 
z
" id="mb58c12d461" style="stroke:#494949;stroke-width:1.5;"/>
    </defs>
    <g clip-path="url(#pf420461fc7)">
     <use style="fill:#5875a4;stroke:#494949;stroke-width:1.5;" x="0" xlink:href="#mb58c12d461" y="576"/>
    </g>
   </g>
   <g id="PolyCollection_2">
    <defs>
     <path d="M 90.063056 -412.021869 
L 90.063056 -415.360988 
L 92.628353 -415.45864 
L 95.19365 -415.556596 
L 97.758948 -415.654838 
L 100.324245 -415.753414 
L 102.889542 -415.852432 
L 105.454839 -415.952047 
L 108.020136 -416.05245 
L 110.585434 -416.153854 
L 113.150731 -416.256475 
L 115.716028 -416.360524 
L 118.281325 -416.466186 
L 120.846623 -416.573615 
L 123.41192 -416.682922 
L 125.977217 -416.794166 
L 128.542514 -416.907356 
L 131.107812 -417.022448 
L 133.673109 -417.139348 
L 136.238406 -417.257913 
L 138.803703 -417.377961 
L 141.369 -417.499274 
L 143.934298 -417.621606 
L 146.499595 -417.744688 
L 149.064892 -417.86823 
L 151.630189 -417.991925 
L 154.195487 -418.115446 
L 156.760784 -418.238444 
L 159.326081 -418.360541 
L 161.891378 -418.481324 
L 164.456676 -418.600334 
L 167.021973 -418.717058 
L 169.58727 -418.830921 
L 172.152567 -418.941275 
L 174.717865 -419.0474 
L 177.283162 -419.148498 
L 179.848459 -419.243697 
L 182.413756 -419.332062 
L 184.979053 -419.412606 
L 187.544351 -419.484307 
L 190.109648 -419.546133 
L 192.674945 -419.597067 
L 195.240242 -419.636136 
L 197.80554 -419.662444 
L 200.370837 -419.675199 
L 202.936134 -419.673746 
L 205.501431 -419.65759 
L 208.066729 -419.626424 
L 210.632026 -419.580138 
L 213.197323 -419.518837 
L 215.76262 -419.442843 
L 218.327917 -419.35269 
L 220.893215 -419.249118 
L 223.458512 -419.133056 
L 226.023809 -419.005599 
L 228.589106 -418.867986 
L 231.154404 -418.721567 
L 233.719701 -418.567773 
L 236.284998 -418.408085 
L 238.850295 -418.244 
L 241.415593 -418.076998 
L 243.98089 -417.90852 
L 246.546187 -417.739932 
L 249.111484 -417.572513 
L 251.676781 -417.40743 
L 254.242079 -417.245724 
L 256.807376 -417.088303 
L 259.372673 -416.935933 
L 261.93797 -416.789237 
L 264.503268 -416.648692 
L 267.068565 -416.514639 
L 269.633862 -416.387284 
L 272.199159 -416.266709 
L 274.764457 -416.152883 
L 277.329754 -416.045673 
L 279.895051 -415.944856 
L 282.460348 -415.850136 
L 285.025645 -415.761154 
L 287.590943 -415.677505 
L 290.15624 -415.598752 
L 292.721537 -415.524435 
L 295.286834 -415.45409 
L 297.852132 -415.387254 
L 300.417429 -415.323479 
L 302.982726 -415.26234 
L 305.548023 -415.20344 
L 308.113321 -415.146418 
L 310.678618 -415.090951 
L 313.243915 -415.036757 
L 315.809212 -414.983594 
L 318.374509 -414.931264 
L 320.939807 -414.879607 
L 323.505104 -414.828502 
L 326.070401 -414.777861 
L 328.635698 -414.72763 
L 331.200996 -414.677783 
L 333.766293 -414.628322 
L 336.33159 -414.57927 
L 338.896887 -414.530673 
L 341.462185 -414.482595 
L 344.027482 -414.435116 
L 344.027482 -412.947741 
L 344.027482 -412.947741 
L 341.462185 -412.900262 
L 338.896887 -412.852184 
L 336.33159 -412.803587 
L 333.766293 -412.754535 
L 331.200996 -412.705074 
L 328.635698 -412.655228 
L 326.070401 -412.604996 
L 323.505104 -412.554355 
L 320.939807 -412.50325 
L 318.374509 -412.451593 
L 315.809212 -412.399263 
L 313.243915 -412.3461 
L 310.678618 -412.291906 
L 308.113321 -412.236439 
L 305.548023 -412.179417 
L 302.982726 -412.120517 
L 300.417429 -412.059378 
L 297.852132 -411.995603 
L 295.286834 -411.928767 
L 292.721537 -411.858422 
L 290.15624 -411.784105 
L 287.590943 -411.705352 
L 285.025645 -411.621703 
L 282.460348 -411.532721 
L 279.895051 -411.438001 
L 277.329754 -411.337184 
L 274.764457 -411.229974 
L 272.199159 -411.116148 
L 269.633862 -410.995573 
L 267.068565 -410.868218 
L 264.503268 -410.734165 
L 261.93797 -410.59362 
L 259.372673 -410.446924 
L 256.807376 -410.294554 
L 254.242079 -410.137133 
L 251.676781 -409.975427 
L 249.111484 -409.810344 
L 246.546187 -409.642925 
L 243.98089 -409.474338 
L 241.415593 -409.305859 
L 238.850295 -409.138857 
L 236.284998 -408.974772 
L 233.719701 -408.815084 
L 231.154404 -408.66129 
L 228.589106 -408.514871 
L 226.023809 -408.377258 
L 223.458512 -408.249801 
L 220.893215 -408.133739 
L 218.327917 -408.030167 
L 215.76262 -407.940014 
L 213.197323 -407.86402 
L 210.632026 -407.802719 
L 208.066729 -407.756434 
L 205.501431 -407.725267 
L 202.936134 -407.709111 
L 200.370837 -407.707658 
L 197.80554 -407.720413 
L 195.240242 -407.746721 
L 192.674945 -407.78579 
L 190.109648 -407.836724 
L 187.544351 -407.89855 
L 184.979053 -407.970251 
L 182.413756 -408.050795 
L 179.848459 -408.13916 
L 177.283162 -408.234359 
L 174.717865 -408.335457 
L 172.152567 -408.441582 
L 169.58727 -408.551936 
L 167.021973 -408.665799 
L 164.456676 -408.782523 
L 161.891378 -408.901533 
L 159.326081 -409.022316 
L 156.760784 -409.144413 
L 154.195487 -409.267411 
L 151.630189 -409.390932 
L 149.064892 -409.514627 
L 146.499595 -409.63817 
L 143.934298 -409.761251 
L 141.369 -409.883584 
L 138.803703 -410.004896 
L 136.238406 -410.124944 
L 133.673109 -410.243509 
L 131.107812 -410.360409 
L 128.542514 -410.475501 
L 125.977217 -410.588692 
L 123.41192 -410.699936 
L 120.846623 -410.809242 
L 118.281325 -410.916671 
L 115.716028 -411.022333 
L 113.150731 -411.126382 
L 110.585434 -411.229004 
L 108.020136 -411.330407 
L 105.454839 -411.430811 
L 102.889542 -411.530426 
L 100.324245 -411.629443 
L 97.758948 -411.728019 
L 95.19365 -411.826261 
L 92.628353 -411.924217 
L 90.063056 -412.021869 
z
" id="md687335e25" style="stroke:#494949;stroke-width:1.5;"/>
    </defs>
    <g clip-path="url(#pf420461fc7)">
     <use style="fill:#cc8963;stroke:#494949;stroke-width:1.5;" x="0" xlink:href="#md687335e25" y="576"/>
    </g>
   </g>
   <g id="PolyCollection_3">
    <defs>
     <path d="M 90.151419 -350.282176 
L 90.151419 -352.849253 
L 94.091351 -353.010502 
L 98.031284 -353.177243 
L 101.971216 -353.351145 
L 105.911148 -353.534437 
L 109.85108 -353.729417 
L 113.791013 -353.937964 
L 117.730945 -354.161164 
L 121.670877 -354.399172 
L 125.610809 -354.65135 
L 129.550742 -354.916647 
L 133.490674 -355.194136 
L 137.430606 -355.483535 
L 141.370538 -355.785538 
L 145.310471 -356.101806 
L 149.250403 -356.434532 
L 153.190335 -356.785595 
L 157.130267 -357.155436 
L 161.0702 -357.541881 
L 165.010132 -357.939183 
L 168.950064 -358.337565 
L 172.889996 -358.72344 
L 176.829929 -359.080376 
L 180.769861 -359.390709 
L 184.709793 -359.637527 
L 188.649725 -359.806708 
L 192.589658 -359.888588 
L 196.52959 -359.878978 
L 200.469522 -359.779344 
L 204.409454 -359.596139 
L 208.349387 -359.339499 
L 212.289319 -359.021582 
L 216.229251 -358.654927 
L 220.169183 -358.251151 
L 224.109116 -357.820169 
L 228.049048 -357.37002 
L 231.98898 -356.907172 
L 235.928912 -356.437139 
L 239.868845 -355.96515 
L 243.808777 -355.496668 
L 247.748709 -355.037627 
L 251.688641 -354.594352 
L 255.628574 -354.173214 
L 259.568506 -353.780142 
L 263.508438 -353.420133 
L 267.44837 -353.096862 
L 271.388303 -352.812476 
L 275.328235 -352.567584 
L 279.268167 -352.361406 
L 283.208099 -352.192037 
L 287.148032 -352.056742 
L 291.087964 -351.952232 
L 295.027896 -351.87489 
L 298.967828 -351.820919 
L 302.907761 -351.786444 
L 306.847693 -351.767567 
L 310.787625 -351.760427 
L 314.727557 -351.761273 
L 318.66749 -351.766571 
L 322.607422 -351.773143 
L 326.547354 -351.778315 
L 330.487286 -351.780061 
L 334.427218 -351.777097 
L 338.367151 -351.768913 
L 342.307083 -351.755722 
L 346.247015 -351.738332 
L 350.186947 -351.717962 
L 354.12688 -351.696023 
L 358.066812 -351.673919 
L 362.006744 -351.652872 
L 365.946676 -351.633808 
L 369.886609 -351.617313 
L 373.826541 -351.603636 
L 377.766473 -351.592747 
L 381.706405 -351.58441 
L 385.646338 -351.578268 
L 389.58627 -351.573919 
L 393.526202 -351.570973 
L 397.466134 -351.569095 
L 401.406067 -351.568029 
L 405.345999 -351.567609 
L 409.285931 -351.567764 
L 413.225863 -351.568521 
L 417.165796 -351.570003 
L 421.105728 -351.572425 
L 425.04566 -351.57609 
L 428.985592 -351.581365 
L 432.925525 -351.588653 
L 436.865457 -351.59834 
L 440.805389 -351.610726 
L 444.745321 -351.625942 
L 448.685254 -351.64387 
L 452.625186 -351.664074 
L 456.565118 -351.685764 
L 460.50505 -351.707813 
L 464.444983 -351.728833 
L 468.384915 -351.74731 
L 472.324847 -351.761775 
L 476.264779 -351.771002 
L 480.204712 -351.774173 
L 480.204712 -351.357256 
L 480.204712 -351.357256 
L 476.264779 -351.360427 
L 472.324847 -351.369654 
L 468.384915 -351.384119 
L 464.444983 -351.402595 
L 460.50505 -351.423615 
L 456.565118 -351.445664 
L 452.625186 -351.467354 
L 448.685254 -351.487558 
L 444.745321 -351.505487 
L 440.805389 -351.520703 
L 436.865457 -351.533089 
L 432.925525 -351.542776 
L 428.985592 -351.550064 
L 425.04566 -351.555339 
L 421.105728 -351.559003 
L 417.165796 -351.561426 
L 413.225863 -351.562908 
L 409.285931 -351.563665 
L 405.345999 -351.56382 
L 401.406067 -351.5634 
L 397.466134 -351.562334 
L 393.526202 -351.560456 
L 389.58627 -351.55751 
L 385.646338 -351.55316 
L 381.706405 -351.547019 
L 377.766473 -351.538681 
L 373.826541 -351.527792 
L 369.886609 -351.514116 
L 365.946676 -351.49762 
L 362.006744 -351.478557 
L 358.066812 -351.457509 
L 354.12688 -351.435406 
L 350.186947 -351.413467 
L 346.247015 -351.393096 
L 342.307083 -351.375707 
L 338.367151 -351.362516 
L 334.427218 -351.354332 
L 330.487286 -351.351368 
L 326.547354 -351.353114 
L 322.607422 -351.358285 
L 318.66749 -351.364857 
L 314.727557 -351.370156 
L 310.787625 -351.371002 
L 306.847693 -351.363862 
L 302.907761 -351.344985 
L 298.967828 -351.310509 
L 295.027896 -351.256539 
L 291.087964 -351.179196 
L 287.148032 -351.074687 
L 283.208099 -350.939392 
L 279.268167 -350.770023 
L 275.328235 -350.563845 
L 271.388303 -350.318952 
L 267.44837 -350.034566 
L 263.508438 -349.711295 
L 259.568506 -349.351286 
L 255.628574 -348.958215 
L 251.688641 -348.537076 
L 247.748709 -348.093802 
L 243.808777 -347.634761 
L 239.868845 -347.166279 
L 235.928912 -346.69429 
L 231.98898 -346.224257 
L 228.049048 -345.761409 
L 224.109116 -345.311259 
L 220.169183 -344.880278 
L 216.229251 -344.476501 
L 212.289319 -344.109847 
L 208.349387 -343.791929 
L 204.409454 -343.535289 
L 200.469522 -343.352085 
L 196.52959 -343.25245 
L 192.589658 -343.242841 
L 188.649725 -343.32472 
L 184.709793 -343.493901 
L 180.769861 -343.74072 
L 176.829929 -344.051052 
L 172.889996 -344.407989 
L 168.950064 -344.793863 
L 165.010132 -345.192246 
L 161.0702 -345.589548 
L 157.130267 -345.975992 
L 153.190335 -346.345834 
L 149.250403 -346.696897 
L 145.310471 -347.029623 
L 141.370538 -347.345891 
L 137.430606 -347.647894 
L 133.490674 -347.937293 
L 129.550742 -348.214782 
L 125.610809 -348.480079 
L 121.670877 -348.732256 
L 117.730945 -348.970265 
L 113.791013 -349.193465 
L 109.85108 -349.402012 
L 105.911148 -349.596992 
L 101.971216 -349.780284 
L 98.031284 -349.954186 
L 94.091351 -350.120926 
L 90.151419 -350.282176 
z
" id="ma22e538359" style="stroke:#494949;stroke-width:1.5;"/>
    </defs>
    <g clip-path="url(#pf420461fc7)">
     <use style="fill:#5f9e6e;stroke:#494949;stroke-width:1.5;" x="0" xlink:href="#ma22e538359" y="576"/>
    </g>
   </g>
   <g id="PolyCollection_4">
    <defs>
     <path d="M 87.212815 -288.569645 
L 87.212815 -290.310355 
L 89.761789 -290.427014 
L 92.310762 -290.543788 
L 94.859736 -290.65756 
L 97.408709 -290.765118 
L 99.957682 -290.863367 
L 102.506656 -290.949579 
L 105.055629 -291.021658 
L 107.604603 -291.078392 
L 110.153576 -291.119683 
L 112.702549 -291.146725 
L 115.251523 -291.162099 
L 117.800496 -291.169793 
L 120.34947 -291.175108 
L 122.898443 -291.184475 
L 125.447416 -291.205171 
L 127.99639 -291.244959 
L 130.545363 -291.311666 
L 133.094337 -291.412726 
L 135.64331 -291.554714 
L 138.192284 -291.742905 
L 140.741257 -291.980873 
L 143.29023 -292.270187 
L 145.839204 -292.610196 
L 148.388177 -292.997955 
L 150.937151 -293.428295 
L 153.486124 -293.894031 
L 156.035097 -294.386317 
L 158.584071 -294.895101 
L 161.133044 -295.409647 
L 163.682018 -295.919071 
L 166.230991 -296.412832 
L 168.779964 -296.881139 
L 171.328938 -297.315234 
L 173.877911 -297.707549 
L 176.426885 -298.051761 
L 178.975858 -298.342769 
L 181.524831 -298.57666 
L 184.073805 -298.75069 
L 186.622778 -298.86333 
L 189.171752 -298.914372 
L 191.720725 -298.905077 
L 194.269699 -298.838314 
L 196.818672 -298.718635 
L 199.367645 -298.552215 
L 201.916619 -298.346624 
L 204.465592 -298.110398 
L 207.014566 -297.85245 
L 209.563539 -297.581358 
L 212.112512 -297.304638 
L 214.661486 -297.028091 
L 217.210459 -296.755333 
L 219.759433 -296.487592 
L 222.308406 -296.223806 
L 224.857379 -295.961035 
L 227.406353 -295.695129 
L 229.955326 -295.42157 
L 232.5043 -295.136361 
L 235.053273 -294.836841 
L 237.602246 -294.522297 
L 240.15122 -294.194295 
L 242.700193 -293.856663 
L 245.249167 -293.515148 
L 247.79814 -293.176793 
L 250.347114 -292.849122 
L 252.896087 -292.53927 
L 255.44506 -292.253176 
L 257.994034 -291.994957 
L 260.543007 -291.766537 
L 263.091981 -291.567589 
L 265.640954 -291.395758 
L 268.189927 -291.247131 
L 270.738901 -291.116861 
L 273.287874 -290.999847 
L 275.836848 -290.891367 
L 278.385821 -290.787587 
L 280.934794 -290.685882 
L 283.483768 -290.584958 
L 286.032741 -290.484772 
L 288.581715 -290.386307 
L 291.130688 -290.291239 
L 293.679661 -290.201573 
L 296.228635 -290.119299 
L 298.777608 -290.046115 
L 301.326582 -289.983233 
L 303.875555 -289.931288 
L 306.424529 -289.890335 
L 308.973502 -289.859898 
L 311.522475 -289.839069 
L 314.071449 -289.826613 
L 316.620422 -289.821061 
L 319.169396 -289.820796 
L 321.718369 -289.824117 
L 324.267342 -289.829294 
L 326.816316 -289.834627 
L 329.365289 -289.838508 
L 331.914263 -289.839498 
L 334.463236 -289.836412 
L 337.012209 -289.828401 
L 339.561183 -289.815017 
L 339.561183 -289.064983 
L 339.561183 -289.064983 
L 337.012209 -289.051599 
L 334.463236 -289.043588 
L 331.914263 -289.040502 
L 329.365289 -289.041492 
L 326.816316 -289.045373 
L 324.267342 -289.050706 
L 321.718369 -289.055883 
L 319.169396 -289.059204 
L 316.620422 -289.058939 
L 314.071449 -289.053387 
L 311.522475 -289.040931 
L 308.973502 -289.020102 
L 306.424529 -288.989665 
L 303.875555 -288.948712 
L 301.326582 -288.896767 
L 298.777608 -288.833885 
L 296.228635 -288.760701 
L 293.679661 -288.678427 
L 291.130688 -288.588761 
L 288.581715 -288.493693 
L 286.032741 -288.395228 
L 283.483768 -288.295042 
L 280.934794 -288.194118 
L 278.385821 -288.092413 
L 275.836848 -287.988633 
L 273.287874 -287.880153 
L 270.738901 -287.763139 
L 268.189927 -287.632869 
L 265.640954 -287.484242 
L 263.091981 -287.312411 
L 260.543007 -287.113463 
L 257.994034 -286.885043 
L 255.44506 -286.626824 
L 252.896087 -286.34073 
L 250.347114 -286.030878 
L 247.79814 -285.703207 
L 245.249167 -285.364852 
L 242.700193 -285.023337 
L 240.15122 -284.685705 
L 237.602246 -284.357703 
L 235.053273 -284.043159 
L 232.5043 -283.743639 
L 229.955326 -283.45843 
L 227.406353 -283.184871 
L 224.857379 -282.918965 
L 222.308406 -282.656194 
L 219.759433 -282.392408 
L 217.210459 -282.124667 
L 214.661486 -281.851909 
L 212.112512 -281.575362 
L 209.563539 -281.298642 
L 207.014566 -281.02755 
L 204.465592 -280.769602 
L 201.916619 -280.533376 
L 199.367645 -280.327785 
L 196.818672 -280.161365 
L 194.269699 -280.041686 
L 191.720725 -279.974923 
L 189.171752 -279.965628 
L 186.622778 -280.01667 
L 184.073805 -280.12931 
L 181.524831 -280.30334 
L 178.975858 -280.537231 
L 176.426885 -280.828239 
L 173.877911 -281.172451 
L 171.328938 -281.564766 
L 168.779964 -281.998861 
L 166.230991 -282.467168 
L 163.682018 -282.960929 
L 161.133044 -283.470353 
L 158.584071 -283.984899 
L 156.035097 -284.493683 
L 153.486124 -284.985969 
L 150.937151 -285.451705 
L 148.388177 -285.882045 
L 145.839204 -286.269804 
L 143.29023 -286.609813 
L 140.741257 -286.899127 
L 138.192284 -287.137095 
L 135.64331 -287.325286 
L 133.094337 -287.467274 
L 130.545363 -287.568334 
L 127.99639 -287.635041 
L 125.447416 -287.674829 
L 122.898443 -287.695525 
L 120.34947 -287.704892 
L 117.800496 -287.710207 
L 115.251523 -287.717901 
L 112.702549 -287.733275 
L 110.153576 -287.760317 
L 107.604603 -287.801608 
L 105.055629 -287.858342 
L 102.506656 -287.930421 
L 99.957682 -288.016633 
L 97.408709 -288.114882 
L 94.859736 -288.22244 
L 92.310762 -288.336212 
L 89.761789 -288.452986 
L 87.212815 -288.569645 
z
" id="m3cce9c5204" style="stroke:#494949;stroke-width:1.5;"/>
    </defs>
    <g clip-path="url(#pf420461fc7)">
     <use style="fill:#b55d60;stroke:#494949;stroke-width:1.5;" x="0" xlink:href="#m3cce9c5204" y="576"/>
    </g>
   </g>
   <g id="PolyCollection_5">
    <defs>
     <path d="M 103.86511 -227.156802 
L 103.86511 -227.47177 
L 107.265575 -227.487678 
L 110.666041 -227.505532 
L 114.066506 -227.530961 
L 117.466972 -227.571575 
L 120.867437 -227.637283 
L 124.267902 -227.741302 
L 127.668368 -227.901423 
L 131.068833 -228.140399 
L 134.469299 -228.484031 
L 137.869764 -228.956047 
L 141.27023 -229.570316 
L 144.670695 -230.32277 
L 148.071161 -231.186712 
L 151.471626 -232.114831 
L 154.872092 -233.048873 
L 158.272557 -233.934349 
L 161.673023 -234.734769 
L 165.073488 -235.439403 
L 168.473953 -236.061273 
L 171.874419 -236.626493 
L 175.274884 -237.159938 
L 178.67535 -237.673338 
L 182.075815 -238.159961 
L 185.476281 -238.596454 
L 188.876746 -238.949372 
L 192.277212 -239.182975 
L 195.677677 -239.265848 
L 199.078143 -239.175649 
L 202.478608 -238.902424 
L 205.879073 -238.450819 
L 209.279539 -237.84078 
L 212.680004 -237.105805 
L 216.08047 -236.288257 
L 219.480935 -235.432475 
L 222.881401 -234.577654 
L 226.281866 -233.752862 
L 229.682332 -232.975733 
L 233.082797 -232.254723 
L 236.483263 -231.593301 
L 239.883728 -230.993815 
L 243.284194 -230.459383 
L 246.684659 -229.993454 
L 250.085124 -229.597911 
L 253.48559 -229.271099 
L 256.886055 -229.006853 
L 260.286521 -228.794979 
L 263.686986 -228.622977 
L 267.087452 -228.478498 
L 270.487917 -228.351789 
L 273.888383 -228.237379 
L 277.288848 -228.134365 
L 280.689314 -228.045111 
L 284.089779 -227.972793 
L 287.490244 -227.91877 
L 290.89071 -227.880863 
L 294.291175 -227.853247 
L 297.691641 -227.827945 
L 301.092106 -227.797276 
L 304.492572 -227.756264 
L 307.893037 -227.704106 
L 311.293503 -227.644219 
L 314.693968 -227.582962 
L 318.094434 -227.527564 
L 321.494899 -227.484014 
L 324.895365 -227.45555 
L 328.29583 -227.442103 
L 331.696295 -227.440708 
L 335.096761 -227.446666 
L 338.497226 -227.455052 
L 341.897692 -227.462109 
L 345.298157 -227.466074 
L 348.698623 -227.467184 
L 352.099088 -227.466874 
L 355.499554 -227.466571 
L 358.900019 -227.466654 
L 362.300485 -227.466095 
L 365.70095 -227.462904 
L 369.101415 -227.455131 
L 372.501881 -227.441851 
L 375.902346 -227.423666 
L 379.302812 -227.402515 
L 382.703277 -227.380972 
L 386.103743 -227.361407 
L 389.504208 -227.345389 
L 392.904674 -227.333504 
L 396.305139 -227.325546 
L 399.705605 -227.320897 
L 403.10607 -227.31893 
L 406.506536 -227.319296 
L 409.907001 -227.322062 
L 413.307466 -227.327682 
L 416.707932 -227.336801 
L 420.108397 -227.34991 
L 423.508863 -227.366911 
L 426.909328 -227.386731 
L 430.309794 -227.407184 
L 433.710259 -227.425243 
L 437.110725 -227.437723 
L 440.51119 -227.442188 
L 440.51119 -227.186384 
L 440.51119 -227.186384 
L 437.110725 -227.190848 
L 433.710259 -227.203328 
L 430.309794 -227.221388 
L 426.909328 -227.241841 
L 423.508863 -227.26166 
L 420.108397 -227.278661 
L 416.707932 -227.291771 
L 413.307466 -227.30089 
L 409.907001 -227.306509 
L 406.506536 -227.309275 
L 403.10607 -227.309641 
L 399.705605 -227.307674 
L 396.305139 -227.303025 
L 392.904674 -227.295067 
L 389.504208 -227.283183 
L 386.103743 -227.267164 
L 382.703277 -227.247599 
L 379.302812 -227.226056 
L 375.902346 -227.204906 
L 372.501881 -227.18672 
L 369.101415 -227.17344 
L 365.70095 -227.165667 
L 362.300485 -227.162477 
L 358.900019 -227.161917 
L 355.499554 -227.162001 
L 352.099088 -227.161697 
L 348.698623 -227.161387 
L 345.298157 -227.162498 
L 341.897692 -227.166463 
L 338.497226 -227.173519 
L 335.096761 -227.181905 
L 331.696295 -227.187864 
L 328.29583 -227.186469 
L 324.895365 -227.173021 
L 321.494899 -227.144558 
L 318.094434 -227.101008 
L 314.693968 -227.045609 
L 311.293503 -226.984352 
L 307.893037 -226.924465 
L 304.492572 -226.872307 
L 301.092106 -226.831296 
L 297.691641 -226.800627 
L 294.291175 -226.775324 
L 290.89071 -226.747708 
L 287.490244 -226.709801 
L 284.089779 -226.655778 
L 280.689314 -226.583461 
L 277.288848 -226.494206 
L 273.888383 -226.391192 
L 270.487917 -226.276782 
L 267.087452 -226.150073 
L 263.686986 -226.005594 
L 260.286521 -225.833593 
L 256.886055 -225.621718 
L 253.48559 -225.357473 
L 250.085124 -225.03066 
L 246.684659 -224.635117 
L 243.284194 -224.169188 
L 239.883728 -223.634756 
L 236.483263 -223.035271 
L 233.082797 -222.373848 
L 229.682332 -221.652839 
L 226.281866 -220.875709 
L 222.881401 -220.050918 
L 219.480935 -219.196097 
L 216.08047 -218.340315 
L 212.680004 -217.522766 
L 209.279539 -216.787791 
L 205.879073 -216.177752 
L 202.478608 -215.726147 
L 199.078143 -215.452922 
L 195.677677 -215.362723 
L 192.277212 -215.445596 
L 188.876746 -215.6792 
L 185.476281 -216.032118 
L 182.075815 -216.46861 
L 178.67535 -216.955234 
L 175.274884 -217.468633 
L 171.874419 -218.002078 
L 168.473953 -218.567299 
L 165.073488 -219.189169 
L 161.673023 -219.893802 
L 158.272557 -220.694222 
L 154.872092 -221.579698 
L 151.471626 -222.51374 
L 148.071161 -223.44186 
L 144.670695 -224.305802 
L 141.27023 -225.058255 
L 137.869764 -225.672524 
L 134.469299 -226.144541 
L 131.068833 -226.488172 
L 127.668368 -226.727148 
L 124.267902 -226.887269 
L 120.867437 -226.991289 
L 117.466972 -227.056997 
L 114.066506 -227.097611 
L 110.666041 -227.12304 
L 107.265575 -227.140893 
L 103.86511 -227.156802 
z
" id="m3416057926" style="stroke:#494949;stroke-width:1.5;"/>
    </defs>
    <g clip-path="url(#pf420461fc7)">
     <use style="fill:#857aab;stroke:#494949;stroke-width:1.5;" x="0" xlink:href="#m3416057926" y="576"/>
    </g>
   </g>
   <g id="PolyCollection_6">
    <defs>
     <path d="M 100.984913 -164.693166 
L 100.984913 -165.683977 
L 102.611952 -165.719337 
L 104.238991 -165.748216 
L 105.866029 -165.770337 
L 107.493068 -165.785963 
L 109.120107 -165.795833 
L 110.747145 -165.801041 
L 112.374184 -165.802895 
L 114.001223 -165.802771 
L 115.628262 -165.801987 
L 117.2553 -165.801738 
L 118.882339 -165.80307 
L 120.509378 -165.806938 
L 122.136416 -165.814304 
L 123.763455 -165.826293 
L 125.390494 -165.844362 
L 127.017532 -165.870469 
L 128.644571 -165.907184 
L 130.27161 -165.95773 
L 131.898649 -166.02589 
L 133.525687 -166.115786 
L 135.152726 -166.231513 
L 136.779765 -166.376674 
L 138.406803 -166.553887 
L 140.033842 -166.764343 
L 141.660881 -167.007537 
L 143.287919 -167.281255 
L 144.914958 -167.58188 
L 146.541997 -167.905027 
L 148.169036 -168.246429 
L 149.796074 -168.602956 
L 151.423113 -168.973586 
L 153.050152 -169.360129 
L 154.67719 -169.767534 
L 156.304229 -170.203657 
L 157.931268 -170.678455 
L 159.558306 -171.202662 
L 161.185345 -171.786119 
L 162.812384 -172.435974 
L 164.439422 -173.155039 
L 166.066461 -173.940561 
L 167.6935 -174.783624 
L 169.320539 -175.669288 
L 170.947577 -176.577459 
L 172.574616 -177.484347 
L 174.201655 -178.36427 
L 175.828693 -179.19152 
L 177.455732 -179.942 
L 179.082771 -180.594455 
L 180.709809 -181.131187 
L 182.336848 -181.538338 
L 183.963887 -181.805876 
L 185.590926 -181.927485 
L 187.217964 -181.90055 
L 188.845003 -181.726311 
L 190.472042 -181.410172 
L 192.09908 -180.962018 
L 193.726119 -180.396361 
L 195.353158 -179.732112 
L 196.980196 -178.991863 
L 198.607235 -178.200685 
L 200.234274 -177.384549 
L 201.861313 -176.568581 
L 203.488351 -175.775411 
L 205.11539 -175.02382 
L 206.742429 -174.327843 
L 208.369467 -173.696382 
L 209.996506 -173.133289 
L 211.623545 -172.637828 
L 213.250583 -172.205394 
L 214.877622 -171.828394 
L 216.504661 -171.4972 
L 218.1317 -171.201136 
L 219.758738 -170.929464 
L 221.385777 -170.672313 
L 223.012816 -170.421512 
L 224.639854 -170.171236 
L 226.266893 -169.918399 
L 227.893932 -169.66272 
L 229.52097 -169.406449 
L 231.148009 -169.153774 
L 232.775048 -168.909996 
L 234.402086 -168.680602 
L 236.029125 -168.470351 
L 237.656164 -168.282528 
L 239.283203 -168.118455 
L 240.910241 -167.977306 
L 242.53728 -167.856232 
L 244.164319 -167.750761 
L 245.791357 -167.655379 
L 247.418396 -167.564205 
L 249.045435 -167.471671 
L 250.672473 -167.373091 
L 252.299512 -167.26509 
L 253.926551 -167.145821 
L 255.55359 -167.014996 
L 257.180628 -166.873738 
L 258.807667 -166.724305 
L 260.434706 -166.569748 
L 262.061744 -166.413539 
L 262.061744 -163.963604 
L 262.061744 -163.963604 
L 260.434706 -163.807395 
L 258.807667 -163.652837 
L 257.180628 -163.503405 
L 255.55359 -163.362147 
L 253.926551 -163.231322 
L 252.299512 -163.112053 
L 250.672473 -163.004052 
L 249.045435 -162.905472 
L 247.418396 -162.812938 
L 245.791357 -162.721764 
L 244.164319 -162.626381 
L 242.53728 -162.520911 
L 240.910241 -162.399837 
L 239.283203 -162.258688 
L 237.656164 -162.094615 
L 236.029125 -161.906792 
L 234.402086 -161.69654 
L 232.775048 -161.467146 
L 231.148009 -161.223369 
L 229.52097 -160.970694 
L 227.893932 -160.714422 
L 226.266893 -160.458744 
L 224.639854 -160.205907 
L 223.012816 -159.955631 
L 221.385777 -159.70483 
L 219.758738 -159.447679 
L 218.1317 -159.176007 
L 216.504661 -158.879943 
L 214.877622 -158.548749 
L 213.250583 -158.171749 
L 211.623545 -157.739315 
L 209.996506 -157.243854 
L 208.369467 -156.680761 
L 206.742429 -156.0493 
L 205.11539 -155.353323 
L 203.488351 -154.601732 
L 201.861313 -153.808562 
L 200.234274 -152.992594 
L 198.607235 -152.176458 
L 196.980196 -151.38528 
L 195.353158 -150.645031 
L 193.726119 -149.980781 
L 192.09908 -149.415125 
L 190.472042 -148.966971 
L 188.845003 -148.650832 
L 187.217964 -148.476593 
L 185.590926 -148.449658 
L 183.963887 -148.571267 
L 182.336848 -148.838804 
L 180.709809 -149.245956 
L 179.082771 -149.782688 
L 177.455732 -150.435142 
L 175.828693 -151.185623 
L 174.201655 -152.012872 
L 172.574616 -152.892796 
L 170.947577 -153.799684 
L 169.320539 -154.707855 
L 167.6935 -155.593519 
L 166.066461 -156.436581 
L 164.439422 -157.222104 
L 162.812384 -157.941169 
L 161.185345 -158.591024 
L 159.558306 -159.174481 
L 157.931268 -159.698688 
L 156.304229 -160.173485 
L 154.67719 -160.609609 
L 153.050152 -161.017013 
L 151.423113 -161.403556 
L 149.796074 -161.774187 
L 148.169036 -162.130714 
L 146.541997 -162.472116 
L 144.914958 -162.795263 
L 143.287919 -163.095888 
L 141.660881 -163.369605 
L 140.033842 -163.6128 
L 138.406803 -163.823256 
L 136.779765 -164.000469 
L 135.152726 -164.14563 
L 133.525687 -164.261356 
L 131.898649 -164.351252 
L 130.27161 -164.419413 
L 128.644571 -164.469959 
L 127.017532 -164.506674 
L 125.390494 -164.532781 
L 123.763455 -164.55085 
L 122.136416 -164.562839 
L 120.509378 -164.570205 
L 118.882339 -164.574073 
L 117.2553 -164.575405 
L 115.628262 -164.575155 
L 114.001223 -164.574372 
L 112.374184 -164.574248 
L 110.747145 -164.576102 
L 109.120107 -164.58131 
L 107.493068 -164.59118 
L 105.866029 -164.606806 
L 104.238991 -164.628927 
L 102.611952 -164.657806 
L 100.984913 -164.693166 
z
" id="m33f95b897d" style="stroke:#494949;stroke-width:1.5;"/>
    </defs>
    <g clip-path="url(#pf420461fc7)">
     <use style="fill:#8d7866;stroke:#494949;stroke-width:1.5;" x="0" xlink:href="#m33f95b897d" y="576"/>
    </g>
   </g>
   <g id="PolyCollection_7">
    <defs>
     <path d="M 158.998979 -95.726027 
L 158.998979 -110.399688 
L 159.550091 -110.689763 
L 160.101204 -110.976382 
L 160.652316 -111.25972 
L 161.203429 -111.540153 
L 161.754541 -111.818243 
L 162.305653 -112.094732 
L 162.856766 -112.370523 
L 163.407878 -112.646659 
L 163.958991 -112.924301 
L 164.510103 -113.2047 
L 165.061215 -113.489174 
L 165.612328 -113.779076 
L 166.16344 -114.075765 
L 166.714553 -114.380582 
L 167.265665 -114.69482 
L 167.816777 -115.019695 
L 168.36789 -115.356326 
L 168.919002 -115.70571 
L 169.470115 -116.068695 
L 170.021227 -116.445969 
L 170.572339 -116.838031 
L 171.123452 -117.245179 
L 171.674564 -117.66749 
L 172.225677 -118.104805 
L 172.776789 -118.556712 
L 173.327901 -119.022532 
L 173.879014 -119.501307 
L 174.430126 -119.991785 
L 174.981239 -120.492411 
L 175.532351 -121.001319 
L 176.083463 -121.516329 
L 176.634576 -122.034945 
L 177.185688 -122.554361 
L 177.736801 -123.071467 
L 178.287913 -123.582874 
L 178.839025 -124.084931 
L 179.390138 -124.573759 
L 179.94125 -125.045291 
L 180.492363 -125.49532 
L 181.043475 -125.919552 
L 181.594587 -126.313669 
L 182.1457 -126.673397 
L 182.696812 -126.99458 
L 183.247925 -127.273251 
L 183.799037 -127.505715 
L 184.350149 -127.688618 
L 184.901262 -127.819029 
L 185.452374 -127.894503 
L 186.003487 -127.913143 
L 186.554599 -127.873656 
L 187.105711 -127.775395 
L 187.656824 -127.618388 
L 188.207936 -127.403354 
L 188.759048 -127.13171 
L 189.310161 -126.805559 
L 189.861273 -126.427659 
L 190.412386 -126.00139 
L 190.963498 -125.530699 
L 191.51461 -125.02003 
L 192.065723 -124.474258 
L 192.616835 -123.898594 
L 193.167948 -123.298504 
L 193.71906 -122.679608 
L 194.270172 -122.047584 
L 194.821285 -121.408072 
L 195.372397 -120.766577 
L 195.92351 -120.128382 
L 196.474622 -119.498459 
L 197.025734 -118.881398 
L 197.576847 -118.281338 
L 198.127959 -117.701914 
L 198.679072 -117.146212 
L 199.230184 -116.616736 
L 199.781296 -116.115393 
L 200.332409 -115.643485 
L 200.883521 -115.201716 
L 201.434634 -114.790209 
L 201.985746 -114.408537 
L 202.536858 -114.055759 
L 203.087971 -113.730471 
L 203.639083 -113.430859 
L 204.190196 -113.154759 
L 204.741308 -112.899724 
L 205.29242 -112.663093 
L 205.843533 -112.442056 
L 206.394645 -112.233727 
L 206.945758 -112.035209 
L 207.49687 -111.84366 
L 208.047982 -111.656349 
L 208.599095 -111.470713 
L 209.150207 -111.284404 
L 209.70132 -111.095329 
L 210.252432 -110.901681 
L 210.803544 -110.701966 
L 211.354657 -110.495015 
L 211.905769 -110.279996 
L 212.456882 -110.056411 
L 213.007994 -109.824088 
L 213.559106 -109.583165 
L 213.559106 -96.542549 
L 213.559106 -96.542549 
L 213.007994 -96.301627 
L 212.456882 -96.069303 
L 211.905769 -95.845718 
L 211.354657 -95.630699 
L 210.803544 -95.423748 
L 210.252432 -95.224033 
L 209.70132 -95.030385 
L 209.150207 -94.84131 
L 208.599095 -94.655001 
L 208.047982 -94.469365 
L 207.49687 -94.282054 
L 206.945758 -94.090505 
L 206.394645 -93.891987 
L 205.843533 -93.683658 
L 205.29242 -93.462621 
L 204.741308 -93.22599 
L 204.190196 -92.970956 
L 203.639083 -92.694856 
L 203.087971 -92.395243 
L 202.536858 -92.069955 
L 201.985746 -91.717178 
L 201.434634 -91.335505 
L 200.883521 -90.923998 
L 200.332409 -90.482229 
L 199.781296 -90.010321 
L 199.230184 -89.508978 
L 198.679072 -88.979502 
L 198.127959 -88.4238 
L 197.576847 -87.844376 
L 197.025734 -87.244317 
L 196.474622 -86.627256 
L 195.92351 -85.997333 
L 195.372397 -85.359137 
L 194.821285 -84.717642 
L 194.270172 -84.07813 
L 193.71906 -83.446106 
L 193.167948 -82.82721 
L 192.616835 -82.22712 
L 192.065723 -81.651457 
L 191.51461 -81.105684 
L 190.963498 -80.595016 
L 190.412386 -80.124324 
L 189.861273 -79.698055 
L 189.310161 -79.320156 
L 188.759048 -78.994004 
L 188.207936 -78.722361 
L 187.656824 -78.507327 
L 187.105711 -78.350319 
L 186.554599 -78.252058 
L 186.003487 -78.212571 
L 185.452374 -78.231211 
L 184.901262 -78.306685 
L 184.350149 -78.437096 
L 183.799037 -78.62 
L 183.247925 -78.852463 
L 182.696812 -79.131134 
L 182.1457 -79.452317 
L 181.594587 -79.812046 
L 181.043475 -80.206163 
L 180.492363 -80.630394 
L 179.94125 -81.080423 
L 179.390138 -81.551955 
L 178.839025 -82.040783 
L 178.287913 -82.54284 
L 177.736801 -83.054247 
L 177.185688 -83.571354 
L 176.634576 -84.090769 
L 176.083463 -84.609385 
L 175.532351 -85.124395 
L 174.981239 -85.633303 
L 174.430126 -86.133929 
L 173.879014 -86.624407 
L 173.327901 -87.103182 
L 172.776789 -87.569003 
L 172.225677 -88.02091 
L 171.674564 -88.458224 
L 171.123452 -88.880535 
L 170.572339 -89.287683 
L 170.021227 -89.679745 
L 169.470115 -90.057019 
L 168.919002 -90.420005 
L 168.36789 -90.769388 
L 167.816777 -91.106019 
L 167.265665 -91.430895 
L 166.714553 -91.745132 
L 166.16344 -92.049949 
L 165.612328 -92.346639 
L 165.061215 -92.63654 
L 164.510103 -92.921014 
L 163.958991 -93.201413 
L 163.407878 -93.479055 
L 162.856766 -93.755191 
L 162.305653 -94.030982 
L 161.754541 -94.307472 
L 161.203429 -94.585562 
L 160.652316 -94.865994 
L 160.101204 -95.149332 
L 159.550091 -95.435951 
L 158.998979 -95.726027 
z
" id="m49578406b4" style="stroke:#494949;stroke-width:1.5;"/>
    </defs>
    <g clip-path="url(#pf420461fc7)">
     <use style="fill:#d095bf;stroke:#494949;stroke-width:1.5;" x="0" xlink:href="#m49578406b4" y="576"/>
    </g>
   </g>
   <g id="line2d_13">
    <path clip-path="url(#pf420461fc7)" d="M 158.438315 95.330507 
L 158.438315 105.035207 
" style="fill:none;stroke:#494949;stroke-dasharray:3.375,3.375;stroke-dashoffset:0;stroke-width:1.5;"/>
   </g>
   <g id="line2d_14">
    <path clip-path="url(#pf420461fc7)" d="M 193.391516 93.371346 
L 193.391516 106.994368 
" style="fill:none;stroke:#494949;stroke-dasharray:6.75,6.75;stroke-dashoffset:0;stroke-width:1.5;"/>
   </g>
   <g id="line2d_15">
    <path clip-path="url(#pf420461fc7)" d="M 211.495915 93.800854 
L 211.495915 106.56486 
" style="fill:none;stroke:#494949;stroke-dasharray:3.375,3.375;stroke-dashoffset:0;stroke-width:1.5;"/>
   </g>
   <g id="line2d_16">
    <path clip-path="url(#pf420461fc7)" d="M 158.888069 157.68615 
L 158.888069 166.930993 
" style="fill:none;stroke:#494949;stroke-dasharray:3.375,3.375;stroke-dashoffset:0;stroke-width:1.5;"/>
   </g>
   <g id="line2d_17">
    <path clip-path="url(#pf420461fc7)" d="M 202.084561 156.386077 
L 202.084561 168.231065 
" style="fill:none;stroke:#494949;stroke-dasharray:6.75,6.75;stroke-dashoffset:0;stroke-width:1.5;"/>
   </g>
   <g id="line2d_18">
    <path clip-path="url(#pf420461fc7)" d="M 237.783239 157.801526 
L 237.783239 166.815617 
" style="fill:none;stroke:#494949;stroke-dasharray:3.375,3.375;stroke-dashoffset:0;stroke-width:1.5;"/>
   </g>
   <g id="line2d_19">
    <path clip-path="url(#pf420461fc7)" d="M 161.082747 218.517881 
L 161.082747 230.350691 
" style="fill:none;stroke:#494949;stroke-dasharray:3.375,3.375;stroke-dashoffset:0;stroke-width:1.5;"/>
   </g>
   <g id="line2d_20">
    <path clip-path="url(#pf420461fc7)" d="M 190.272585 216.275702 
L 190.272585 232.59287 
" style="fill:none;stroke:#494949;stroke-dasharray:6.75,6.75;stroke-dashoffset:0;stroke-width:1.5;"/>
   </g>
   <g id="line2d_21">
    <path clip-path="url(#pf420461fc7)" d="M 216.725245 217.415965 
L 216.725245 231.452607 
" style="fill:none;stroke:#494949;stroke-dasharray:3.375,3.375;stroke-dashoffset:0;stroke-width:1.5;"/>
   </g>
   <g id="line2d_22">
    <path clip-path="url(#pf420461fc7)" d="M 169.695411 279.193272 
L 169.695411 293.926728 
" style="fill:none;stroke:#494949;stroke-dasharray:3.375,3.375;stroke-dashoffset:0;stroke-width:1.5;"/>
   </g>
   <g id="line2d_23">
    <path clip-path="url(#pf420461fc7)" d="M 196.532689 277.374151 
L 196.532689 295.745849 
" style="fill:none;stroke:#494949;stroke-dasharray:6.75,6.75;stroke-dashoffset:0;stroke-width:1.5;"/>
   </g>
   <g id="line2d_24">
    <path clip-path="url(#pf420461fc7)" d="M 222.998031 279.844032 
L 222.998031 293.275968 
" style="fill:none;stroke:#494949;stroke-dasharray:3.375,3.375;stroke-dashoffset:0;stroke-width:1.5;"/>
   </g>
   <g id="line2d_25">
    <path clip-path="url(#pf420461fc7)" d="M 176.179236 338.938518 
L 176.179236 358.43291 
" style="fill:none;stroke:#494949;stroke-dasharray:3.375,3.375;stroke-dashoffset:0;stroke-width:1.5;"/>
   </g>
   <g id="line2d_26">
    <path clip-path="url(#pf420461fc7)" d="M 196.076802 336.853667 
L 196.076802 360.517761 
" style="fill:none;stroke:#494949;stroke-dasharray:6.75,6.75;stroke-dashoffset:0;stroke-width:1.5;"/>
   </g>
   <g id="line2d_27">
    <path clip-path="url(#pf420461fc7)" d="M 213.65762 338.99211 
L 213.65762 358.379318 
" style="fill:none;stroke:#494949;stroke-dasharray:3.375,3.375;stroke-dashoffset:0;stroke-width:1.5;"/>
   </g>
   <g id="line2d_28">
    <path clip-path="url(#pf420461fc7)" d="M 176.871517 396.205534 
L 176.871517 425.417323 
" style="fill:none;stroke:#494949;stroke-dasharray:3.375,3.375;stroke-dashoffset:0;stroke-width:1.5;"/>
   </g>
   <g id="line2d_29">
    <path clip-path="url(#pf420461fc7)" d="M 189.550388 394.439066 
L 189.550388 427.183791 
" style="fill:none;stroke:#494949;stroke-dasharray:6.75,6.75;stroke-dashoffset:0;stroke-width:1.5;"/>
   </g>
   <g id="line2d_30">
    <path clip-path="url(#pf420461fc7)" d="M 204.64686 401.074532 
L 204.64686 420.548325 
" style="fill:none;stroke:#494949;stroke-dasharray:3.375,3.375;stroke-dashoffset:0;stroke-width:1.5;"/>
   </g>
   <g id="line2d_31">
    <path clip-path="url(#pf420461fc7)" d="M 174.965399 455.681885 
L 174.965399 490.192401 
" style="fill:none;stroke:#494949;stroke-dasharray:3.375,3.375;stroke-dashoffset:0;stroke-width:1.5;"/>
   </g>
   <g id="line2d_32">
    <path clip-path="url(#pf420461fc7)" d="M 186.085451 448.33536 
L 186.085451 497.538926 
" style="fill:none;stroke:#494949;stroke-dasharray:6.75,6.75;stroke-dashoffset:0;stroke-width:1.5;"/>
   </g>
   <g id="line2d_33">
    <path clip-path="url(#pf420461fc7)" d="M 191.214918 450.69398 
L 191.214918 495.180306 
" style="fill:none;stroke:#494949;stroke-dasharray:3.375,3.375;stroke-dashoffset:0;stroke-width:1.5;"/>
   </g>
   <g id="patch_3">
    <path d="M 72 504 
L 518.4 504 
" style="fill:none;stroke:#262626;stroke-linecap:square;stroke-linejoin:miter;stroke-width:1.25;"/>
   </g>
  </g>
 </g>
 <defs>
  <clipPath id="pf420461fc7">
   <rect height="434.88" width="446.4" x="72" y="69.12"/>
  </clipPath>
 </defs>
</svg>
