<?xml version="1.0" encoding="utf-8" standalone="no"?>
<!DOCTYPE svg PUBLIC "-//W3C//DTD SVG 1.1//EN"
  "http://www.w3.org/Graphics/SVG/1.1/DTD/svg11.dtd">
<!-- Created with matplotlib (https://matplotlib.org/) -->
<svg height="576pt" version="1.1" viewBox="0 0 576 576" width="576pt" xmlns="http://www.w3.org/2000/svg" xmlns:xlink="http://www.w3.org/1999/xlink">
 <defs>
  <style type="text/css">
*{stroke-linecap:butt;stroke-linejoin:round;}
  </style>
 </defs>
 <g id="figure_1">
  <g id="patch_1">
   <path d="M 0 576 
L 576 576 
L 576 0 
L 0 0 
z
" style="fill:#ffffff;"/>
  </g>
  <g id="axes_1">
   <g id="patch_2">
    <path d="M 72 504 
L 518.4 504 
L 518.4 69.12 
L 72 69.12 
z
" style="fill:#ffffff;"/>
   </g>
   <g id="matplotlib.axis_1">
    <g id="xtick_1">
     <g id="line2d_1">
      <defs>
       <path d="M 0 0 
L 0 6 
" id="m672c5be8fe" style="stroke:#262626;stroke-width:1.25;"/>
      </defs>
      <g>
       <use style="fill:#262626;stroke:#262626;stroke-width:1.25;" x="72" xlink:href="#m672c5be8fe" y="504"/>
      </g>
     </g>
     <g id="text_1">
      <!-- 1.0 -->
      <defs>
       <path d="M 37.25 0 
L 28.46875 0 
L 28.46875 56 
Q 25.296875 52.984375 20.140625 49.953125 
Q 14.984375 46.921875 10.890625 45.40625 
L 10.890625 53.90625 
Q 18.265625 57.375 23.78125 62.296875 
Q 29.296875 67.234375 31.59375 71.875 
L 37.25 71.875 
z
" id="ArialMT-49"/>
       <path d="M 9.078125 0 
L 9.078125 10.015625 
L 19.09375 10.015625 
L 19.09375 0 
z
" id="ArialMT-46"/>
       <path d="M 4.15625 35.296875 
Q 4.15625 48 6.765625 55.734375 
Q 9.375 63.484375 14.515625 67.671875 
Q 19.671875 71.875 27.484375 71.875 
Q 33.25 71.875 37.59375 69.546875 
Q 41.9375 67.234375 44.765625 62.859375 
Q 47.609375 58.5 49.21875 52.21875 
Q 50.828125 45.953125 50.828125 35.296875 
Q 50.828125 22.703125 48.234375 14.96875 
Q 45.65625 7.234375 40.5 3 
Q 35.359375 -1.21875 27.484375 -1.21875 
Q 17.140625 -1.21875 11.234375 6.203125 
Q 4.15625 15.140625 4.15625 35.296875 
z
M 13.1875 35.296875 
Q 13.1875 17.671875 17.3125 11.828125 
Q 21.4375 6 27.484375 6 
Q 33.546875 6 37.671875 11.859375 
Q 41.796875 17.71875 41.796875 35.296875 
Q 41.796875 52.984375 37.671875 58.78125 
Q 33.546875 64.59375 27.390625 64.59375 
Q 21.34375 64.59375 17.71875 59.46875 
Q 13.1875 52.9375 13.1875 35.296875 
z
" id="ArialMT-48"/>
      </defs>
      <g style="fill:#262626;" transform="translate(58.62125 527.278789)scale(0.1925 -0.1925)">
       <use xlink:href="#ArialMT-49"/>
       <use x="55.615234" xlink:href="#ArialMT-46"/>
       <use x="83.398438" xlink:href="#ArialMT-48"/>
      </g>
     </g>
    </g>
    <g id="xtick_2">
     <g id="line2d_2">
      <g>
       <use style="fill:#262626;stroke:#262626;stroke-width:1.25;" x="146.4" xlink:href="#m672c5be8fe" y="504"/>
      </g>
     </g>
     <g id="text_2">
      <!-- 1.2 -->
      <defs>
       <path d="M 50.34375 8.453125 
L 50.34375 0 
L 3.03125 0 
Q 2.9375 3.171875 4.046875 6.109375 
Q 5.859375 10.9375 9.828125 15.625 
Q 13.8125 20.3125 21.34375 26.46875 
Q 33.015625 36.03125 37.109375 41.625 
Q 41.21875 47.21875 41.21875 52.203125 
Q 41.21875 57.421875 37.46875 61 
Q 33.734375 64.59375 27.734375 64.59375 
Q 21.390625 64.59375 17.578125 60.78125 
Q 13.765625 56.984375 13.71875 50.25 
L 4.6875 51.171875 
Q 5.609375 61.28125 11.65625 66.578125 
Q 17.71875 71.875 27.9375 71.875 
Q 38.234375 71.875 44.234375 66.15625 
Q 50.25 60.453125 50.25 52 
Q 50.25 47.703125 48.484375 43.546875 
Q 46.734375 39.40625 42.65625 34.8125 
Q 38.578125 30.21875 29.109375 22.21875 
Q 21.1875 15.578125 18.9375 13.203125 
Q 16.703125 10.84375 15.234375 8.453125 
z
" id="ArialMT-50"/>
      </defs>
      <g style="fill:#262626;" transform="translate(133.02125 527.278789)scale(0.1925 -0.1925)">
       <use xlink:href="#ArialMT-49"/>
       <use x="55.615234" xlink:href="#ArialMT-46"/>
       <use x="83.398438" xlink:href="#ArialMT-50"/>
      </g>
     </g>
    </g>
    <g id="xtick_3">
     <g id="line2d_3">
      <g>
       <use style="fill:#262626;stroke:#262626;stroke-width:1.25;" x="220.8" xlink:href="#m672c5be8fe" y="504"/>
      </g>
     </g>
     <g id="text_3">
      <!-- 1.4 -->
      <defs>
       <path d="M 32.328125 0 
L 32.328125 17.140625 
L 1.265625 17.140625 
L 1.265625 25.203125 
L 33.9375 71.578125 
L 41.109375 71.578125 
L 41.109375 25.203125 
L 50.78125 25.203125 
L 50.78125 17.140625 
L 41.109375 17.140625 
L 41.109375 0 
z
M 32.328125 25.203125 
L 32.328125 57.46875 
L 9.90625 25.203125 
z
" id="ArialMT-52"/>
      </defs>
      <g style="fill:#262626;" transform="translate(207.42125 527.278789)scale(0.1925 -0.1925)">
       <use xlink:href="#ArialMT-49"/>
       <use x="55.615234" xlink:href="#ArialMT-46"/>
       <use x="83.398438" xlink:href="#ArialMT-52"/>
      </g>
     </g>
    </g>
    <g id="xtick_4">
     <g id="line2d_4">
      <g>
       <use style="fill:#262626;stroke:#262626;stroke-width:1.25;" x="295.2" xlink:href="#m672c5be8fe" y="504"/>
      </g>
     </g>
     <g id="text_4">
      <!-- 1.6 -->
      <defs>
       <path d="M 49.75 54.046875 
L 41.015625 53.375 
Q 39.84375 58.546875 37.703125 60.890625 
Q 34.125 64.65625 28.90625 64.65625 
Q 24.703125 64.65625 21.53125 62.3125 
Q 17.390625 59.28125 14.984375 53.46875 
Q 12.59375 47.65625 12.5 36.921875 
Q 15.671875 41.75 20.265625 44.09375 
Q 24.859375 46.4375 29.890625 46.4375 
Q 38.671875 46.4375 44.84375 39.96875 
Q 51.03125 33.5 51.03125 23.25 
Q 51.03125 16.5 48.125 10.71875 
Q 45.21875 4.9375 40.140625 1.859375 
Q 35.0625 -1.21875 28.609375 -1.21875 
Q 17.625 -1.21875 10.6875 6.859375 
Q 3.765625 14.9375 3.765625 33.5 
Q 3.765625 54.25 11.421875 63.671875 
Q 18.109375 71.875 29.4375 71.875 
Q 37.890625 71.875 43.28125 67.140625 
Q 48.6875 62.40625 49.75 54.046875 
z
M 13.875 23.1875 
Q 13.875 18.65625 15.796875 14.5 
Q 17.71875 10.359375 21.1875 8.171875 
Q 24.65625 6 28.46875 6 
Q 34.03125 6 38.03125 10.484375 
Q 42.046875 14.984375 42.046875 22.703125 
Q 42.046875 30.125 38.078125 34.390625 
Q 34.125 38.671875 28.125 38.671875 
Q 22.171875 38.671875 18.015625 34.390625 
Q 13.875 30.125 13.875 23.1875 
z
" id="ArialMT-54"/>
      </defs>
      <g style="fill:#262626;" transform="translate(281.82125 527.278789)scale(0.1925 -0.1925)">
       <use xlink:href="#ArialMT-49"/>
       <use x="55.615234" xlink:href="#ArialMT-46"/>
       <use x="83.398438" xlink:href="#ArialMT-54"/>
      </g>
     </g>
    </g>
    <g id="xtick_5">
     <g id="line2d_5">
      <g>
       <use style="fill:#262626;stroke:#262626;stroke-width:1.25;" x="369.6" xlink:href="#m672c5be8fe" y="504"/>
      </g>
     </g>
     <g id="text_5">
      <!-- 1.8 -->
      <defs>
       <path d="M 17.671875 38.8125 
Q 12.203125 40.828125 9.5625 44.53125 
Q 6.9375 48.25 6.9375 53.421875 
Q 6.9375 61.234375 12.546875 66.546875 
Q 18.171875 71.875 27.484375 71.875 
Q 36.859375 71.875 42.578125 66.421875 
Q 48.296875 60.984375 48.296875 53.171875 
Q 48.296875 48.1875 45.671875 44.5 
Q 43.0625 40.828125 37.75 38.8125 
Q 44.34375 36.671875 47.78125 31.875 
Q 51.21875 27.09375 51.21875 20.453125 
Q 51.21875 11.28125 44.71875 5.03125 
Q 38.234375 -1.21875 27.640625 -1.21875 
Q 17.046875 -1.21875 10.546875 5.046875 
Q 4.046875 11.328125 4.046875 20.703125 
Q 4.046875 27.6875 7.59375 32.390625 
Q 11.140625 37.109375 17.671875 38.8125 
z
M 15.921875 53.71875 
Q 15.921875 48.640625 19.1875 45.40625 
Q 22.46875 42.1875 27.6875 42.1875 
Q 32.765625 42.1875 36.015625 45.375 
Q 39.265625 48.578125 39.265625 53.21875 
Q 39.265625 58.0625 35.90625 61.359375 
Q 32.5625 64.65625 27.59375 64.65625 
Q 22.5625 64.65625 19.234375 61.421875 
Q 15.921875 58.203125 15.921875 53.71875 
z
M 13.09375 20.65625 
Q 13.09375 16.890625 14.875 13.375 
Q 16.65625 9.859375 20.171875 7.921875 
Q 23.6875 6 27.734375 6 
Q 34.03125 6 38.125 10.046875 
Q 42.234375 14.109375 42.234375 20.359375 
Q 42.234375 26.703125 38.015625 30.859375 
Q 33.796875 35.015625 27.4375 35.015625 
Q 21.234375 35.015625 17.15625 30.90625 
Q 13.09375 26.8125 13.09375 20.65625 
z
" id="ArialMT-56"/>
      </defs>
      <g style="fill:#262626;" transform="translate(356.22125 527.278789)scale(0.1925 -0.1925)">
       <use xlink:href="#ArialMT-49"/>
       <use x="55.615234" xlink:href="#ArialMT-46"/>
       <use x="83.398438" xlink:href="#ArialMT-56"/>
      </g>
     </g>
    </g>
    <g id="xtick_6">
     <g id="line2d_6">
      <g>
       <use style="fill:#262626;stroke:#262626;stroke-width:1.25;" x="444" xlink:href="#m672c5be8fe" y="504"/>
      </g>
     </g>
     <g id="text_6">
      <!-- 2.0 -->
      <g style="fill:#262626;" transform="translate(430.62125 527.278789)scale(0.1925 -0.1925)">
       <use xlink:href="#ArialMT-50"/>
       <use x="55.615234" xlink:href="#ArialMT-46"/>
       <use x="83.398438" xlink:href="#ArialMT-48"/>
      </g>
     </g>
    </g>
    <g id="xtick_7">
     <g id="line2d_7">
      <g>
       <use style="fill:#262626;stroke:#262626;stroke-width:1.25;" x="518.4" xlink:href="#m672c5be8fe" y="504"/>
      </g>
     </g>
     <g id="text_7">
      <!-- 2.2 -->
      <g style="fill:#262626;" transform="translate(505.02125 527.278789)scale(0.1925 -0.1925)">
       <use xlink:href="#ArialMT-50"/>
       <use x="55.615234" xlink:href="#ArialMT-46"/>
       <use x="83.398438" xlink:href="#ArialMT-50"/>
      </g>
     </g>
    </g>
    <g id="text_8">
     <!-- Average Tortuosity Per Cell -->
     <defs>
      <path d="M -0.140625 0 
L 27.34375 71.578125 
L 37.546875 71.578125 
L 66.84375 0 
L 56.0625 0 
L 47.703125 21.6875 
L 17.78125 21.6875 
L 9.90625 0 
z
M 20.515625 29.390625 
L 44.78125 29.390625 
L 37.3125 49.21875 
Q 33.890625 58.25 32.234375 64.0625 
Q 30.859375 57.171875 28.375 50.390625 
z
" id="ArialMT-65"/>
      <path d="M 21 0 
L 1.265625 51.859375 
L 10.546875 51.859375 
L 21.6875 20.796875 
Q 23.484375 15.765625 25 10.359375 
Q 26.171875 14.453125 28.265625 20.21875 
L 39.796875 51.859375 
L 48.828125 51.859375 
L 29.203125 0 
z
" id="ArialMT-118"/>
      <path d="M 42.09375 16.703125 
L 51.171875 15.578125 
Q 49.03125 7.625 43.21875 3.21875 
Q 37.40625 -1.171875 28.375 -1.171875 
Q 17 -1.171875 10.328125 5.828125 
Q 3.65625 12.84375 3.65625 25.484375 
Q 3.65625 38.578125 10.390625 45.796875 
Q 17.140625 53.03125 27.875 53.03125 
Q 38.28125 53.03125 44.875 45.953125 
Q 51.46875 38.875 51.46875 26.03125 
Q 51.46875 25.25 51.421875 23.6875 
L 12.75 23.6875 
Q 13.234375 15.140625 17.578125 10.59375 
Q 21.921875 6.0625 28.421875 6.0625 
Q 33.25 6.0625 36.671875 8.59375 
Q 40.09375 11.140625 42.09375 16.703125 
z
M 13.234375 30.90625 
L 42.1875 30.90625 
Q 41.609375 37.453125 38.875 40.71875 
Q 34.671875 45.796875 27.984375 45.796875 
Q 21.921875 45.796875 17.796875 41.75 
Q 13.671875 37.703125 13.234375 30.90625 
z
" id="ArialMT-101"/>
      <path d="M 6.5 0 
L 6.5 51.859375 
L 14.40625 51.859375 
L 14.40625 44 
Q 17.4375 49.515625 20 51.265625 
Q 22.5625 53.03125 25.640625 53.03125 
Q 30.078125 53.03125 34.671875 50.203125 
L 31.640625 42.046875 
Q 28.421875 43.953125 25.203125 43.953125 
Q 22.3125 43.953125 20.015625 42.21875 
Q 17.71875 40.484375 16.75 37.40625 
Q 15.28125 32.71875 15.28125 27.15625 
L 15.28125 0 
z
" id="ArialMT-114"/>
      <path d="M 40.4375 6.390625 
Q 35.546875 2.25 31.03125 0.53125 
Q 26.515625 -1.171875 21.34375 -1.171875 
Q 12.796875 -1.171875 8.203125 3 
Q 3.609375 7.171875 3.609375 13.671875 
Q 3.609375 17.484375 5.34375 20.625 
Q 7.078125 23.78125 9.890625 25.6875 
Q 12.703125 27.59375 16.21875 28.5625 
Q 18.796875 29.25 24.03125 29.890625 
Q 34.671875 31.15625 39.703125 32.90625 
Q 39.75 34.71875 39.75 35.203125 
Q 39.75 40.578125 37.25 42.78125 
Q 33.890625 45.75 27.25 45.75 
Q 21.046875 45.75 18.09375 43.578125 
Q 15.140625 41.40625 13.71875 35.890625 
L 5.125 37.0625 
Q 6.296875 42.578125 8.984375 45.96875 
Q 11.671875 49.359375 16.75 51.1875 
Q 21.828125 53.03125 28.515625 53.03125 
Q 35.15625 53.03125 39.296875 51.46875 
Q 43.453125 49.90625 45.40625 47.53125 
Q 47.359375 45.171875 48.140625 41.546875 
Q 48.578125 39.3125 48.578125 33.453125 
L 48.578125 21.734375 
Q 48.578125 9.46875 49.140625 6.21875 
Q 49.703125 2.984375 51.375 0 
L 42.1875 0 
Q 40.828125 2.734375 40.4375 6.390625 
z
M 39.703125 26.03125 
Q 34.90625 24.078125 25.34375 22.703125 
Q 19.921875 21.921875 17.671875 20.9375 
Q 15.4375 19.96875 14.203125 18.09375 
Q 12.984375 16.21875 12.984375 13.921875 
Q 12.984375 10.40625 15.640625 8.0625 
Q 18.3125 5.71875 23.4375 5.71875 
Q 28.515625 5.71875 32.46875 7.9375 
Q 36.421875 10.15625 38.28125 14.015625 
Q 39.703125 17 39.703125 22.796875 
z
" id="ArialMT-97"/>
      <path d="M 4.984375 -4.296875 
L 13.53125 -5.5625 
Q 14.0625 -9.515625 16.5 -11.328125 
Q 19.78125 -13.765625 25.4375 -13.765625 
Q 31.546875 -13.765625 34.859375 -11.328125 
Q 38.1875 -8.890625 39.359375 -4.5 
Q 40.046875 -1.8125 39.984375 6.78125 
Q 34.234375 0 25.640625 0 
Q 14.9375 0 9.078125 7.71875 
Q 3.21875 15.4375 3.21875 26.21875 
Q 3.21875 33.640625 5.90625 39.90625 
Q 8.59375 46.1875 13.6875 49.609375 
Q 18.796875 53.03125 25.6875 53.03125 
Q 34.859375 53.03125 40.828125 45.609375 
L 40.828125 51.859375 
L 48.921875 51.859375 
L 48.921875 7.03125 
Q 48.921875 -5.078125 46.453125 -10.125 
Q 44 -15.1875 38.640625 -18.109375 
Q 33.296875 -21.046875 25.484375 -21.046875 
Q 16.21875 -21.046875 10.5 -16.875 
Q 4.78125 -12.703125 4.984375 -4.296875 
z
M 12.25 26.859375 
Q 12.25 16.65625 16.296875 11.96875 
Q 20.359375 7.28125 26.46875 7.28125 
Q 32.515625 7.28125 36.609375 11.9375 
Q 40.71875 16.609375 40.71875 26.5625 
Q 40.71875 36.078125 36.5 40.90625 
Q 32.28125 45.75 26.3125 45.75 
Q 20.453125 45.75 16.34375 40.984375 
Q 12.25 36.234375 12.25 26.859375 
z
" id="ArialMT-103"/>
      <path id="ArialMT-32"/>
      <path d="M 25.921875 0 
L 25.921875 63.140625 
L 2.34375 63.140625 
L 2.34375 71.578125 
L 59.078125 71.578125 
L 59.078125 63.140625 
L 35.40625 63.140625 
L 35.40625 0 
z
" id="ArialMT-84"/>
      <path d="M 3.328125 25.921875 
Q 3.328125 40.328125 11.328125 47.265625 
Q 18.015625 53.03125 27.640625 53.03125 
Q 38.328125 53.03125 45.109375 46.015625 
Q 51.90625 39.015625 51.90625 26.65625 
Q 51.90625 16.65625 48.90625 10.90625 
Q 45.90625 5.171875 40.15625 2 
Q 34.421875 -1.171875 27.640625 -1.171875 
Q 16.75 -1.171875 10.03125 5.8125 
Q 3.328125 12.796875 3.328125 25.921875 
z
M 12.359375 25.921875 
Q 12.359375 15.96875 16.703125 11.015625 
Q 21.046875 6.0625 27.640625 6.0625 
Q 34.1875 6.0625 38.53125 11.03125 
Q 42.875 16.015625 42.875 26.21875 
Q 42.875 35.84375 38.5 40.796875 
Q 34.125 45.75 27.640625 45.75 
Q 21.046875 45.75 16.703125 40.8125 
Q 12.359375 35.890625 12.359375 25.921875 
z
" id="ArialMT-111"/>
      <path d="M 25.78125 7.859375 
L 27.046875 0.09375 
Q 23.34375 -0.6875 20.40625 -0.6875 
Q 15.625 -0.6875 12.984375 0.828125 
Q 10.359375 2.34375 9.28125 4.8125 
Q 8.203125 7.28125 8.203125 15.1875 
L 8.203125 45.015625 
L 1.765625 45.015625 
L 1.765625 51.859375 
L 8.203125 51.859375 
L 8.203125 64.703125 
L 16.9375 69.96875 
L 16.9375 51.859375 
L 25.78125 51.859375 
L 25.78125 45.015625 
L 16.9375 45.015625 
L 16.9375 14.703125 
Q 16.9375 10.9375 17.40625 9.859375 
Q 17.875 8.796875 18.921875 8.15625 
Q 19.96875 7.515625 21.921875 7.515625 
Q 23.390625 7.515625 25.78125 7.859375 
z
" id="ArialMT-116"/>
      <path d="M 40.578125 0 
L 40.578125 7.625 
Q 34.515625 -1.171875 24.125 -1.171875 
Q 19.53125 -1.171875 15.546875 0.578125 
Q 11.578125 2.34375 9.640625 5 
Q 7.71875 7.671875 6.9375 11.53125 
Q 6.390625 14.109375 6.390625 19.734375 
L 6.390625 51.859375 
L 15.1875 51.859375 
L 15.1875 23.09375 
Q 15.1875 16.21875 15.71875 13.8125 
Q 16.546875 10.359375 19.234375 8.375 
Q 21.921875 6.390625 25.875 6.390625 
Q 29.828125 6.390625 33.296875 8.421875 
Q 36.765625 10.453125 38.203125 13.9375 
Q 39.65625 17.4375 39.65625 24.078125 
L 39.65625 51.859375 
L 48.4375 51.859375 
L 48.4375 0 
z
" id="ArialMT-117"/>
      <path d="M 3.078125 15.484375 
L 11.765625 16.84375 
Q 12.5 11.625 15.84375 8.84375 
Q 19.1875 6.0625 25.203125 6.0625 
Q 31.25 6.0625 34.171875 8.515625 
Q 37.109375 10.984375 37.109375 14.3125 
Q 37.109375 17.28125 34.515625 19 
Q 32.71875 20.171875 25.53125 21.96875 
Q 15.875 24.421875 12.140625 26.203125 
Q 8.40625 27.984375 6.46875 31.125 
Q 4.546875 34.28125 4.546875 38.09375 
Q 4.546875 41.546875 6.125 44.5 
Q 7.71875 47.46875 10.453125 49.421875 
Q 12.5 50.921875 16.03125 51.96875 
Q 19.578125 53.03125 23.640625 53.03125 
Q 29.734375 53.03125 34.34375 51.265625 
Q 38.96875 49.515625 41.15625 46.5 
Q 43.359375 43.5 44.1875 38.484375 
L 35.59375 37.3125 
Q 35.015625 41.3125 32.203125 43.546875 
Q 29.390625 45.796875 24.265625 45.796875 
Q 18.21875 45.796875 15.625 43.796875 
Q 13.03125 41.796875 13.03125 39.109375 
Q 13.03125 37.40625 14.109375 36.03125 
Q 15.1875 34.625 17.484375 33.6875 
Q 18.796875 33.203125 25.25 31.453125 
Q 34.578125 28.953125 38.25 27.359375 
Q 41.9375 25.78125 44.03125 22.75 
Q 46.140625 19.734375 46.140625 15.234375 
Q 46.140625 10.84375 43.578125 6.953125 
Q 41.015625 3.078125 36.171875 0.953125 
Q 31.34375 -1.171875 25.25 -1.171875 
Q 15.140625 -1.171875 9.84375 3.03125 
Q 4.546875 7.234375 3.078125 15.484375 
z
" id="ArialMT-115"/>
      <path d="M 6.640625 61.46875 
L 6.640625 71.578125 
L 15.4375 71.578125 
L 15.4375 61.46875 
z
M 6.640625 0 
L 6.640625 51.859375 
L 15.4375 51.859375 
L 15.4375 0 
z
" id="ArialMT-105"/>
      <path d="M 6.203125 -19.96875 
L 5.21875 -11.71875 
Q 8.109375 -12.5 10.25 -12.5 
Q 13.1875 -12.5 14.9375 -11.515625 
Q 16.703125 -10.546875 17.828125 -8.796875 
Q 18.65625 -7.46875 20.515625 -2.25 
Q 20.75 -1.515625 21.296875 -0.09375 
L 1.609375 51.859375 
L 11.078125 51.859375 
L 21.875 21.828125 
Q 23.96875 16.109375 25.640625 9.8125 
Q 27.15625 15.875 29.25 21.625 
L 40.328125 51.859375 
L 49.125 51.859375 
L 29.390625 -0.875 
Q 26.21875 -9.421875 24.46875 -12.640625 
Q 22.125 -17 19.09375 -19.015625 
Q 16.0625 -21.046875 11.859375 -21.046875 
Q 9.328125 -21.046875 6.203125 -19.96875 
z
" id="ArialMT-121"/>
      <path d="M 7.71875 0 
L 7.71875 71.578125 
L 34.71875 71.578125 
Q 41.84375 71.578125 45.609375 70.90625 
Q 50.875 70.015625 54.4375 67.546875 
Q 58.015625 65.09375 60.1875 60.640625 
Q 62.359375 56.203125 62.359375 50.875 
Q 62.359375 41.75 56.546875 35.421875 
Q 50.734375 29.109375 35.546875 29.109375 
L 17.1875 29.109375 
L 17.1875 0 
z
M 17.1875 37.546875 
L 35.6875 37.546875 
Q 44.875 37.546875 48.734375 40.96875 
Q 52.59375 44.390625 52.59375 50.59375 
Q 52.59375 55.078125 50.3125 58.265625 
Q 48.046875 61.46875 44.34375 62.5 
Q 41.9375 63.140625 35.5 63.140625 
L 17.1875 63.140625 
z
" id="ArialMT-80"/>
      <path d="M 58.796875 25.09375 
L 68.265625 22.703125 
Q 65.28125 11.03125 57.546875 4.90625 
Q 49.8125 -1.21875 38.625 -1.21875 
Q 27.046875 -1.21875 19.796875 3.484375 
Q 12.546875 8.203125 8.765625 17.140625 
Q 4.984375 26.078125 4.984375 36.328125 
Q 4.984375 47.515625 9.25 55.828125 
Q 13.53125 64.15625 21.40625 68.46875 
Q 29.296875 72.796875 38.765625 72.796875 
Q 49.515625 72.796875 56.828125 67.328125 
Q 64.15625 61.859375 67.046875 51.953125 
L 57.71875 49.75 
Q 55.21875 57.5625 50.484375 61.125 
Q 45.75 64.703125 38.578125 64.703125 
Q 30.328125 64.703125 24.78125 60.734375 
Q 19.234375 56.78125 16.984375 50.109375 
Q 14.75 43.453125 14.75 36.375 
Q 14.75 27.25 17.40625 20.4375 
Q 20.0625 13.625 25.671875 10.25 
Q 31.296875 6.890625 37.84375 6.890625 
Q 45.796875 6.890625 51.3125 11.46875 
Q 56.84375 16.0625 58.796875 25.09375 
z
" id="ArialMT-67"/>
      <path d="M 6.390625 0 
L 6.390625 71.578125 
L 15.1875 71.578125 
L 15.1875 0 
z
" id="ArialMT-108"/>
     </defs>
     <g style="fill:#262626;opacity:0.7;" transform="translate(197.405 546.752227)scale(0.16 -0.16)">
      <use xlink:href="#ArialMT-65"/>
      <use x="66.683594" xlink:href="#ArialMT-118"/>
      <use x="116.683594" xlink:href="#ArialMT-101"/>
      <use x="172.298828" xlink:href="#ArialMT-114"/>
      <use x="205.599609" xlink:href="#ArialMT-97"/>
      <use x="261.214844" xlink:href="#ArialMT-103"/>
      <use x="316.830078" xlink:href="#ArialMT-101"/>
      <use x="372.445312" xlink:href="#ArialMT-32"/>
      <use x="400.212891" xlink:href="#ArialMT-84"/>
      <use x="461.125" xlink:href="#ArialMT-111"/>
      <use x="516.740234" xlink:href="#ArialMT-114"/>
      <use x="550.041016" xlink:href="#ArialMT-116"/>
      <use x="577.824219" xlink:href="#ArialMT-117"/>
      <use x="633.439453" xlink:href="#ArialMT-111"/>
      <use x="689.054688" xlink:href="#ArialMT-115"/>
      <use x="739.054688" xlink:href="#ArialMT-105"/>
      <use x="761.271484" xlink:href="#ArialMT-116"/>
      <use x="789.054688" xlink:href="#ArialMT-121"/>
      <use x="839.054688" xlink:href="#ArialMT-32"/>
      <use x="866.837891" xlink:href="#ArialMT-80"/>
      <use x="933.537109" xlink:href="#ArialMT-101"/>
      <use x="989.152344" xlink:href="#ArialMT-114"/>
      <use x="1022.453125" xlink:href="#ArialMT-32"/>
      <use x="1050.236328" xlink:href="#ArialMT-67"/>
      <use x="1122.453125" xlink:href="#ArialMT-101"/>
      <use x="1178.068359" xlink:href="#ArialMT-108"/>
      <use x="1200.285156" xlink:href="#ArialMT-108"/>
     </g>
    </g>
   </g>
   <g id="matplotlib.axis_2">
    <g id="ytick_1">
     <g id="line2d_8">
      <defs>
       <path d="M 0 0 
L -6 0 
" id="m3cf1007e55" style="stroke:#262626;stroke-width:1.25;"/>
      </defs>
      <g>
       <use style="fill:#262626;stroke:#262626;stroke-width:1.25;" x="72" xlink:href="#m3cf1007e55" y="100.182857"/>
      </g>
     </g>
     <g id="text_9">
      <!-- 0.5 -->
      <defs>
       <path d="M 4.15625 18.75 
L 13.375 19.53125 
Q 14.40625 12.796875 18.140625 9.390625 
Q 21.875 6 27.15625 6 
Q 33.5 6 37.890625 10.78125 
Q 42.28125 15.578125 42.28125 23.484375 
Q 42.28125 31 38.0625 35.34375 
Q 33.84375 39.703125 27 39.703125 
Q 22.75 39.703125 19.328125 37.765625 
Q 15.921875 35.84375 13.96875 32.765625 
L 5.71875 33.84375 
L 12.640625 70.609375 
L 48.25 70.609375 
L 48.25 62.203125 
L 19.671875 62.203125 
L 15.828125 42.96875 
Q 22.265625 47.46875 29.34375 47.46875 
Q 38.71875 47.46875 45.15625 40.96875 
Q 51.609375 34.46875 51.609375 24.265625 
Q 51.609375 14.546875 45.953125 7.46875 
Q 39.0625 -1.21875 27.15625 -1.21875 
Q 17.390625 -1.21875 11.203125 4.25 
Q 5.03125 9.71875 4.15625 18.75 
z
" id="ArialMT-53"/>
      </defs>
      <g style="fill:#262626;" transform="translate(35.7425 107.072252)scale(0.1925 -0.1925)">
       <use xlink:href="#ArialMT-48"/>
       <use x="55.615234" xlink:href="#ArialMT-46"/>
       <use x="83.398438" xlink:href="#ArialMT-53"/>
      </g>
     </g>
    </g>
    <g id="ytick_2">
     <g id="line2d_9">
      <g>
       <use style="fill:#262626;stroke:#262626;stroke-width:1.25;" x="72" xlink:href="#m3cf1007e55" y="162.308571"/>
      </g>
     </g>
     <g id="text_10">
      <!-- 1.0 -->
      <g style="fill:#262626;" transform="translate(35.7425 169.197966)scale(0.1925 -0.1925)">
       <use xlink:href="#ArialMT-49"/>
       <use x="55.615234" xlink:href="#ArialMT-46"/>
       <use x="83.398438" xlink:href="#ArialMT-48"/>
      </g>
     </g>
    </g>
    <g id="ytick_3">
     <g id="line2d_10">
      <g>
       <use style="fill:#262626;stroke:#262626;stroke-width:1.25;" x="72" xlink:href="#m3cf1007e55" y="224.434286"/>
      </g>
     </g>
     <g id="text_11">
      <!-- 1.5 -->
      <g style="fill:#262626;" transform="translate(35.7425 231.32368)scale(0.1925 -0.1925)">
       <use xlink:href="#ArialMT-49"/>
       <use x="55.615234" xlink:href="#ArialMT-46"/>
       <use x="83.398438" xlink:href="#ArialMT-53"/>
      </g>
     </g>
    </g>
    <g id="ytick_4">
     <g id="line2d_11">
      <g>
       <use style="fill:#262626;stroke:#262626;stroke-width:1.25;" x="72" xlink:href="#m3cf1007e55" y="286.56"/>
      </g>
     </g>
     <g id="text_12">
      <!-- 2.0 -->
      <g style="fill:#262626;" transform="translate(35.7425 293.449395)scale(0.1925 -0.1925)">
       <use xlink:href="#ArialMT-50"/>
       <use x="55.615234" xlink:href="#ArialMT-46"/>
       <use x="83.398438" xlink:href="#ArialMT-48"/>
      </g>
     </g>
    </g>
    <g id="ytick_5">
     <g id="line2d_12">
      <g>
       <use style="fill:#262626;stroke:#262626;stroke-width:1.25;" x="72" xlink:href="#m3cf1007e55" y="348.685714"/>
      </g>
     </g>
     <g id="text_13">
      <!-- 3.0 -->
      <defs>
       <path d="M 4.203125 18.890625 
L 12.984375 20.0625 
Q 14.5 12.59375 18.140625 9.296875 
Q 21.78125 6 27 6 
Q 33.203125 6 37.46875 10.296875 
Q 41.75 14.59375 41.75 20.953125 
Q 41.75 27 37.796875 30.921875 
Q 33.84375 34.859375 27.734375 34.859375 
Q 25.25 34.859375 21.53125 33.890625 
L 22.515625 41.609375 
Q 23.390625 41.5 23.921875 41.5 
Q 29.546875 41.5 34.03125 44.421875 
Q 38.53125 47.359375 38.53125 53.46875 
Q 38.53125 58.296875 35.25 61.46875 
Q 31.984375 64.65625 26.8125 64.65625 
Q 21.6875 64.65625 18.265625 61.421875 
Q 14.84375 58.203125 13.875 51.765625 
L 5.078125 53.328125 
Q 6.6875 62.15625 12.390625 67.015625 
Q 18.109375 71.875 26.609375 71.875 
Q 32.46875 71.875 37.390625 69.359375 
Q 42.328125 66.84375 44.9375 62.5 
Q 47.5625 58.15625 47.5625 53.265625 
Q 47.5625 48.640625 45.0625 44.828125 
Q 42.578125 41.015625 37.703125 38.765625 
Q 44.046875 37.3125 47.5625 32.6875 
Q 51.078125 28.078125 51.078125 21.140625 
Q 51.078125 11.765625 44.234375 5.25 
Q 37.40625 -1.265625 26.953125 -1.265625 
Q 17.53125 -1.265625 11.296875 4.34375 
Q 5.078125 9.96875 4.203125 18.890625 
z
" id="ArialMT-51"/>
      </defs>
      <g style="fill:#262626;" transform="translate(35.7425 355.575109)scale(0.1925 -0.1925)">
       <use xlink:href="#ArialMT-51"/>
       <use x="55.615234" xlink:href="#ArialMT-46"/>
       <use x="83.398438" xlink:href="#ArialMT-48"/>
      </g>
     </g>
    </g>
    <g id="ytick_6">
     <g id="line2d_13">
      <g>
       <use style="fill:#262626;stroke:#262626;stroke-width:1.25;" x="72" xlink:href="#m3cf1007e55" y="410.811429"/>
      </g>
     </g>
     <g id="text_14">
      <!-- 4.0 -->
      <g style="fill:#262626;" transform="translate(35.7425 417.700823)scale(0.1925 -0.1925)">
       <use xlink:href="#ArialMT-52"/>
       <use x="55.615234" xlink:href="#ArialMT-46"/>
       <use x="83.398438" xlink:href="#ArialMT-48"/>
      </g>
     </g>
    </g>
    <g id="ytick_7">
     <g id="line2d_14">
      <g>
       <use style="fill:#262626;stroke:#262626;stroke-width:1.25;" x="72" xlink:href="#m3cf1007e55" y="472.937143"/>
      </g>
     </g>
     <g id="text_15">
      <!-- 6.0 -->
      <g style="fill:#262626;" transform="translate(35.7425 479.826537)scale(0.1925 -0.1925)">
       <use xlink:href="#ArialMT-54"/>
       <use x="55.615234" xlink:href="#ArialMT-46"/>
       <use x="83.398438" xlink:href="#ArialMT-48"/>
      </g>
     </g>
    </g>
    <g id="text_16">
     <!-- Days in Vitro (DIV) -->
     <defs>
      <path d="M 7.71875 0 
L 7.71875 71.578125 
L 32.375 71.578125 
Q 40.71875 71.578125 45.125 70.5625 
Q 51.265625 69.140625 55.609375 65.4375 
Q 61.28125 60.640625 64.078125 53.1875 
Q 66.890625 45.75 66.890625 36.1875 
Q 66.890625 28.03125 64.984375 21.734375 
Q 63.09375 15.4375 60.109375 11.296875 
Q 57.125 7.171875 53.578125 4.796875 
Q 50.046875 2.4375 45.046875 1.21875 
Q 40.046875 0 33.546875 0 
z
M 17.1875 8.453125 
L 32.46875 8.453125 
Q 39.546875 8.453125 43.578125 9.765625 
Q 47.609375 11.078125 50 13.484375 
Q 53.375 16.84375 55.25 22.53125 
Q 57.125 28.21875 57.125 36.328125 
Q 57.125 47.5625 53.4375 53.59375 
Q 49.75 59.625 44.484375 61.671875 
Q 40.671875 63.140625 32.234375 63.140625 
L 17.1875 63.140625 
z
" id="ArialMT-68"/>
      <path d="M 6.59375 0 
L 6.59375 51.859375 
L 14.5 51.859375 
L 14.5 44.484375 
Q 20.21875 53.03125 31 53.03125 
Q 35.6875 53.03125 39.625 51.34375 
Q 43.5625 49.65625 45.515625 46.921875 
Q 47.46875 44.1875 48.25 40.4375 
Q 48.734375 37.984375 48.734375 31.890625 
L 48.734375 0 
L 39.9375 0 
L 39.9375 31.546875 
Q 39.9375 36.921875 38.90625 39.578125 
Q 37.890625 42.234375 35.28125 43.8125 
Q 32.671875 45.40625 29.15625 45.40625 
Q 23.53125 45.40625 19.453125 41.84375 
Q 15.375 38.28125 15.375 28.328125 
L 15.375 0 
z
" id="ArialMT-110"/>
      <path d="M 28.171875 0 
L 0.4375 71.578125 
L 10.6875 71.578125 
L 29.296875 19.578125 
Q 31.546875 13.328125 33.0625 7.859375 
Q 34.71875 13.71875 36.921875 19.578125 
L 56.25 71.578125 
L 65.921875 71.578125 
L 37.890625 0 
z
" id="ArialMT-86"/>
      <path d="M 23.390625 -21.046875 
Q 16.109375 -11.859375 11.078125 0.4375 
Q 6.0625 12.75 6.0625 25.921875 
Q 6.0625 37.546875 9.8125 48.1875 
Q 14.203125 60.546875 23.390625 72.796875 
L 29.6875 72.796875 
Q 23.78125 62.640625 21.875 58.296875 
Q 18.890625 51.5625 17.1875 44.234375 
Q 15.09375 35.109375 15.09375 25.875 
Q 15.09375 2.390625 29.6875 -21.046875 
z
" id="ArialMT-40"/>
      <path d="M 9.328125 0 
L 9.328125 71.578125 
L 18.796875 71.578125 
L 18.796875 0 
z
" id="ArialMT-73"/>
      <path d="M 12.359375 -21.046875 
L 6.0625 -21.046875 
Q 20.65625 2.390625 20.65625 25.875 
Q 20.65625 35.0625 18.5625 44.09375 
Q 16.890625 51.421875 13.921875 58.15625 
Q 12.015625 62.546875 6.0625 72.796875 
L 12.359375 72.796875 
Q 21.53125 60.546875 25.921875 48.1875 
Q 29.6875 37.546875 29.6875 25.921875 
Q 29.6875 12.75 24.625 0.4375 
Q 19.578125 -11.859375 12.359375 -21.046875 
z
" id="ArialMT-41"/>
     </defs>
     <g style="fill:#262626;opacity:0.7;" transform="translate(28.375 352.79125)rotate(-90)scale(0.16 -0.16)">
      <use xlink:href="#ArialMT-68"/>
      <use x="72.216797" xlink:href="#ArialMT-97"/>
      <use x="127.832031" xlink:href="#ArialMT-121"/>
      <use x="177.832031" xlink:href="#ArialMT-115"/>
      <use x="227.832031" xlink:href="#ArialMT-32"/>
      <use x="255.615234" xlink:href="#ArialMT-105"/>
      <use x="277.832031" xlink:href="#ArialMT-110"/>
      <use x="333.447266" xlink:href="#ArialMT-32"/>
      <use x="361.230469" xlink:href="#ArialMT-86"/>
      <use x="427.914062" xlink:href="#ArialMT-105"/>
      <use x="450.130859" xlink:href="#ArialMT-116"/>
      <use x="477.914062" xlink:href="#ArialMT-114"/>
      <use x="511.214844" xlink:href="#ArialMT-111"/>
      <use x="566.830078" xlink:href="#ArialMT-32"/>
      <use x="594.613281" xlink:href="#ArialMT-40"/>
      <use x="627.914062" xlink:href="#ArialMT-68"/>
      <use x="700.130859" xlink:href="#ArialMT-73"/>
      <use x="727.914062" xlink:href="#ArialMT-86"/>
      <use x="794.613281" xlink:href="#ArialMT-41"/>
     </g>
    </g>
   </g>
   <g id="PolyCollection_1">
    <defs>
     <path d="M 73.230748 -467.79491 
L 73.230748 -483.839376 
L 73.870925 -484.305201 
L 74.511102 -484.761775 
L 75.15128 -485.205273 
L 75.791457 -485.631911 
L 76.431634 -486.038005 
L 77.071811 -486.420026 
L 77.711989 -486.774664 
L 78.352166 -487.098878 
L 78.992343 -487.389949 
L 79.63252 -487.645518 
L 80.272698 -487.863628 
L 80.912875 -488.042752 
L 81.553052 -488.181813 
L 82.193229 -488.280197 
L 82.833406 -488.337755 
L 83.473584 -488.354804 
L 84.113761 -488.332108 
L 84.753938 -488.27086 
L 85.394115 -488.172655 
L 86.034293 -488.039453 
L 86.67447 -487.87354 
L 87.314647 -487.677484 
L 87.954824 -487.454089 
L 88.595001 -487.206343 
L 89.235179 -486.937366 
L 89.875356 -486.650366 
L 90.515533 -486.34858 
L 91.15571 -486.035236 
L 91.795888 -485.713503 
L 92.436065 -485.386454 
L 93.076242 -485.057028 
L 93.716419 -484.727999 
L 94.356597 -484.40195 
L 94.996774 -484.081252 
L 95.636951 -483.768046 
L 96.277128 -483.464232 
L 96.917305 -483.171461 
L 97.557483 -482.891133 
L 98.19766 -482.624394 
L 98.837837 -482.372141 
L 99.478014 -482.135031 
L 100.118192 -481.913482 
L 100.758369 -481.70769 
L 101.398546 -481.517636 
L 102.038723 -481.343106 
L 102.6789 -481.183699 
L 103.319078 -481.038844 
L 103.959255 -480.907823 
L 104.599432 -480.789782 
L 105.239609 -480.683753 
L 105.879787 -480.588673 
L 106.519964 -480.503406 
L 107.160141 -480.426761 
L 107.800318 -480.357514 
L 108.440495 -480.294429 
L 109.080673 -480.236279 
L 109.72085 -480.181864 
L 110.361027 -480.130032 
L 111.001204 -480.079692 
L 111.641382 -480.029832 
L 112.281559 -479.979533 
L 112.921736 -479.927976 
L 113.561913 -479.874454 
L 114.202091 -479.818375 
L 114.842268 -479.759263 
L 115.482445 -479.696765 
L 116.122622 -479.630642 
L 116.762799 -479.560769 
L 117.402977 -479.487125 
L 118.043154 -479.40979 
L 118.683331 -479.32893 
L 119.323508 -479.244792 
L 119.963686 -479.157689 
L 120.603863 -479.067991 
L 121.24404 -478.97611 
L 121.884217 -478.882491 
L 122.524394 -478.787599 
L 123.164572 -478.691908 
L 123.804749 -478.595889 
L 124.444926 -478.499999 
L 125.085103 -478.404676 
L 125.725281 -478.310324 
L 126.365458 -478.217309 
L 127.005635 -478.125953 
L 127.645812 -478.036528 
L 128.285989 -477.94925 
L 128.926167 -477.864281 
L 129.566344 -477.781728 
L 130.206521 -477.70164 
L 130.846698 -477.624016 
L 131.486876 -477.548807 
L 132.127053 -477.47592 
L 132.76723 -477.40523 
L 133.407407 -477.336582 
L 134.047585 -477.269806 
L 134.687762 -477.204719 
L 135.327939 -477.141142 
L 135.968116 -477.078901 
L 136.608293 -477.017839 
L 136.608293 -474.616446 
L 136.608293 -474.616446 
L 135.968116 -474.555385 
L 135.327939 -474.493144 
L 134.687762 -474.429566 
L 134.047585 -474.36448 
L 133.407407 -474.297703 
L 132.76723 -474.229056 
L 132.127053 -474.158366 
L 131.486876 -474.085479 
L 130.846698 -474.01027 
L 130.206521 -473.932646 
L 129.566344 -473.852558 
L 128.926167 -473.770005 
L 128.285989 -473.685036 
L 127.645812 -473.597758 
L 127.005635 -473.508332 
L 126.365458 -473.416976 
L 125.725281 -473.323962 
L 125.085103 -473.22961 
L 124.444926 -473.134286 
L 123.804749 -473.038397 
L 123.164572 -472.942378 
L 122.524394 -472.846687 
L 121.884217 -472.751795 
L 121.24404 -472.658176 
L 120.603863 -472.566295 
L 119.963686 -472.476596 
L 119.323508 -472.389494 
L 118.683331 -472.305355 
L 118.043154 -472.224496 
L 117.402977 -472.14716 
L 116.762799 -472.073517 
L 116.122622 -472.003643 
L 115.482445 -471.937521 
L 114.842268 -471.875023 
L 114.202091 -471.815911 
L 113.561913 -471.759831 
L 112.921736 -471.706309 
L 112.281559 -471.654753 
L 111.641382 -471.604454 
L 111.001204 -471.554594 
L 110.361027 -471.504254 
L 109.72085 -471.452421 
L 109.080673 -471.398007 
L 108.440495 -471.339857 
L 107.800318 -471.276772 
L 107.160141 -471.207525 
L 106.519964 -471.130879 
L 105.879787 -471.045612 
L 105.239609 -470.950533 
L 104.599432 -470.844503 
L 103.959255 -470.726462 
L 103.319078 -470.595441 
L 102.6789 -470.450587 
L 102.038723 -470.291179 
L 101.398546 -470.116649 
L 100.758369 -469.926596 
L 100.118192 -469.720804 
L 99.478014 -469.499255 
L 98.837837 -469.262144 
L 98.19766 -469.009892 
L 97.557483 -468.743153 
L 96.917305 -468.462825 
L 96.277128 -468.170054 
L 95.636951 -467.86624 
L 94.996774 -467.553034 
L 94.356597 -467.232335 
L 93.716419 -466.906287 
L 93.076242 -466.577257 
L 92.436065 -466.247831 
L 91.795888 -465.920782 
L 91.15571 -465.59905 
L 90.515533 -465.285706 
L 89.875356 -464.98392 
L 89.235179 -464.696919 
L 88.595001 -464.427943 
L 87.954824 -464.180196 
L 87.314647 -463.956802 
L 86.67447 -463.760746 
L 86.034293 -463.594833 
L 85.394115 -463.46163 
L 84.753938 -463.363425 
L 84.113761 -463.302178 
L 83.473584 -463.279482 
L 82.833406 -463.296531 
L 82.193229 -463.354089 
L 81.553052 -463.452472 
L 80.912875 -463.591533 
L 80.272698 -463.770658 
L 79.63252 -463.988768 
L 78.992343 -464.244337 
L 78.352166 -464.535408 
L 77.711989 -464.859622 
L 77.071811 -465.21426 
L 76.431634 -465.596281 
L 75.791457 -466.002374 
L 75.15128 -466.429013 
L 74.511102 -466.872511 
L 73.870925 -467.329084 
L 73.230748 -467.79491 
z
" id="m01a2d39f0d" style="stroke:#494949;stroke-width:1.5;"/>
    </defs>
    <g clip-path="url(#p99960b2a2c)">
     <use style="fill:#5875a4;stroke:#494949;stroke-width:1.5;" x="0" xlink:href="#m01a2d39f0d" y="576"/>
    </g>
   </g>
   <g id="PolyCollection_2">
    <defs>
     <path d="M 72.755057 -404.680126 
L 72.755057 -422.702731 
L 73.274726 -423.165325 
L 73.794396 -423.610016 
L 74.314065 -424.033365 
L 74.833734 -424.432271 
L 75.353403 -424.804027 
L 75.873073 -425.146365 
L 76.392742 -425.457495 
L 76.912411 -425.736115 
L 77.432081 -425.981421 
L 77.95175 -426.19309 
L 78.471419 -426.371258 
L 78.991089 -426.516485 
L 79.510758 -426.629703 
L 80.030427 -426.712163 
L 80.550097 -426.765377 
L 81.069766 -426.791053 
L 81.589435 -426.791031 
L 82.109105 -426.767226 
L 82.628774 -426.72157 
L 83.148443 -426.655966 
L 83.668113 -426.572241 
L 84.187782 -426.472126 
L 84.707451 -426.357222 
L 85.227121 -426.228997 
L 85.74679 -426.08878 
L 86.266459 -425.937768 
L 86.786129 -425.777035 
L 87.305798 -425.607557 
L 87.825467 -425.430227 
L 88.345137 -425.245886 
L 88.864806 -425.055342 
L 89.384475 -424.859395 
L 89.904144 -424.658857 
L 90.423814 -424.454566 
L 90.943483 -424.247399 
L 91.463152 -424.038272 
L 91.982822 -423.82814 
L 92.502491 -423.617992 
L 93.02216 -423.40883 
L 93.54183 -423.201658 
L 94.061499 -422.997459 
L 94.581168 -422.797166 
L 95.100838 -422.601646 
L 95.620507 -422.411668 
L 96.140176 -422.227886 
L 96.659846 -422.050821 
L 97.179515 -421.880842 
L 97.699184 -421.718161 
L 98.218854 -421.562826 
L 98.738523 -421.414727 
L 99.258192 -421.273598 
L 99.777862 -421.139031 
L 100.297531 -421.010493 
L 100.8172 -420.887343 
L 101.33687 -420.768855 
L 101.856539 -420.654236 
L 102.376208 -420.542656 
L 102.895878 -420.433261 
L 103.415547 -420.325199 
L 103.935216 -420.217634 
L 104.454885 -420.109765 
L 104.974555 -420.000836 
L 105.494224 -419.89015 
L 106.013893 -419.777075 
L 106.533563 -419.661053 
L 107.053232 -419.541603 
L 107.572901 -419.41833 
L 108.092571 -419.290925 
L 108.61224 -419.159173 
L 109.131909 -419.02295 
L 109.651579 -418.882234 
L 110.171248 -418.737101 
L 110.690917 -418.58773 
L 111.210587 -418.434399 
L 111.730256 -418.27749 
L 112.249925 -418.117477 
L 112.769595 -417.954926 
L 113.289264 -417.790482 
L 113.808933 -417.624857 
L 114.328603 -417.458816 
L 114.848272 -417.293159 
L 115.367941 -417.128701 
L 115.887611 -416.966252 
L 116.40728 -416.806596 
L 116.926949 -416.650467 
L 117.446619 -416.498536 
L 117.966288 -416.351386 
L 118.485957 -416.209503 
L 119.005626 -416.073265 
L 119.525296 -415.942935 
L 120.044965 -415.818657 
L 120.564634 -415.700463 
L 121.084304 -415.588277 
L 121.603973 -415.481928 
L 122.123642 -415.381159 
L 122.643312 -415.285652 
L 123.162981 -415.195037 
L 123.68265 -415.108917 
L 124.20232 -415.026886 
L 124.20232 -412.355971 
L 124.20232 -412.355971 
L 123.68265 -412.27394 
L 123.162981 -412.18782 
L 122.643312 -412.097205 
L 122.123642 -412.001698 
L 121.603973 -411.900929 
L 121.084304 -411.79458 
L 120.564634 -411.682394 
L 120.044965 -411.5642 
L 119.525296 -411.439922 
L 119.005626 -411.309592 
L 118.485957 -411.173354 
L 117.966288 -411.031471 
L 117.446619 -410.884321 
L 116.926949 -410.73239 
L 116.40728 -410.576261 
L 115.887611 -410.416605 
L 115.367941 -410.254156 
L 114.848272 -410.089699 
L 114.328603 -409.924042 
L 113.808933 -409.758001 
L 113.289264 -409.592376 
L 112.769595 -409.427931 
L 112.249925 -409.26538 
L 111.730256 -409.105368 
L 111.210587 -408.948458 
L 110.690917 -408.795128 
L 110.171248 -408.645756 
L 109.651579 -408.500623 
L 109.131909 -408.359907 
L 108.61224 -408.223684 
L 108.092571 -408.091932 
L 107.572901 -407.964527 
L 107.053232 -407.841254 
L 106.533563 -407.721804 
L 106.013893 -407.605782 
L 105.494224 -407.492707 
L 104.974555 -407.382021 
L 104.454885 -407.273093 
L 103.935216 -407.165223 
L 103.415547 -407.057659 
L 102.895878 -406.949596 
L 102.376208 -406.840201 
L 101.856539 -406.728621 
L 101.33687 -406.614003 
L 100.8172 -406.495514 
L 100.297531 -406.372364 
L 99.777862 -406.243826 
L 99.258192 -406.10926 
L 98.738523 -405.96813 
L 98.218854 -405.820031 
L 97.699184 -405.664696 
L 97.179515 -405.502015 
L 96.659846 -405.332036 
L 96.140176 -405.154971 
L 95.620507 -404.971189 
L 95.100838 -404.781212 
L 94.581168 -404.585691 
L 94.061499 -404.385398 
L 93.54183 -404.181199 
L 93.02216 -403.974027 
L 92.502491 -403.764865 
L 91.982822 -403.554717 
L 91.463152 -403.344585 
L 90.943483 -403.135458 
L 90.423814 -402.928291 
L 89.904144 -402.724 
L 89.384475 -402.523462 
L 88.864806 -402.327515 
L 88.345137 -402.136971 
L 87.825467 -401.95263 
L 87.305798 -401.7753 
L 86.786129 -401.605822 
L 86.266459 -401.445089 
L 85.74679 -401.294077 
L 85.227121 -401.15386 
L 84.707451 -401.025636 
L 84.187782 -400.910732 
L 83.668113 -400.810616 
L 83.148443 -400.726892 
L 82.628774 -400.661287 
L 82.109105 -400.615631 
L 81.589435 -400.591826 
L 81.069766 -400.591804 
L 80.550097 -400.61748 
L 80.030427 -400.670694 
L 79.510758 -400.753155 
L 78.991089 -400.866372 
L 78.471419 -401.011599 
L 77.95175 -401.189768 
L 77.432081 -401.401436 
L 76.912411 -401.646742 
L 76.392742 -401.925362 
L 75.873073 -402.236492 
L 75.353403 -402.578831 
L 74.833734 -402.950586 
L 74.314065 -403.349492 
L 73.794396 -403.772841 
L 73.274726 -404.217532 
L 72.755057 -404.680126 
z
" id="m23ed393911" style="stroke:#494949;stroke-width:1.5;"/>
    </defs>
    <g clip-path="url(#p99960b2a2c)">
     <use style="fill:#cc8963;stroke:#494949;stroke-width:1.5;" x="0" xlink:href="#m23ed393911" y="576"/>
    </g>
   </g>
   <g id="PolyCollection_3">
    <defs>
     <path d="M 73.096912 -343.07431 
L 73.096912 -360.057118 
L 74.948726 -361.322062 
L 76.800541 -362.492736 
L 78.652355 -363.498305 
L 80.504169 -364.274471 
L 82.355983 -364.770627 
L 84.207797 -364.955774 
L 86.059611 -364.822254 
L 87.911425 -364.386686 
L 89.763239 -363.687937 
L 91.615053 -362.782416 
L 93.466868 -361.737442 
L 95.318682 -360.623684 
L 97.170496 -359.507787 
L 99.02231 -358.446206 
L 100.874124 -357.48096 
L 102.725938 -356.637726 
L 104.577752 -355.926215 
L 106.429566 -355.342479 
L 108.281381 -354.872519 
L 110.133195 -354.496451 
L 111.985009 -354.192515 
L 113.836823 -353.940343 
L 115.688637 -353.723151 
L 117.540451 -353.528728 
L 119.392265 -353.349387 
L 121.244079 -353.181142 
L 123.095894 -353.022516 
L 124.947708 -352.873314 
L 126.799522 -352.733662 
L 128.651336 -352.603434 
L 130.50315 -352.482082 
L 132.354964 -352.368779 
L 134.206778 -352.262713 
L 136.058592 -352.163385 
L 137.910406 -352.070788 
L 139.762221 -351.985434 
L 141.614035 -351.908223 
L 143.465849 -351.840229 
L 145.317663 -351.782456 
L 147.169477 -351.735648 
L 149.021291 -351.70017 
L 150.873105 -351.67596 
L 152.724919 -351.66255 
L 154.576734 -351.659096 
L 156.428548 -351.664413 
L 158.280362 -351.67699 
L 160.132176 -351.695006 
L 161.98399 -351.716358 
L 163.835804 -351.738737 
L 165.687618 -351.759763 
L 167.539432 -351.777178 
L 169.391247 -351.789071 
L 171.243061 -351.7941 
L 173.094875 -351.791649 
L 174.946689 -351.781892 
L 176.798503 -351.765741 
L 178.650317 -351.744686 
L 180.502131 -351.720555 
L 182.353945 -351.695247 
L 184.205759 -351.670492 
L 186.057574 -351.647664 
L 187.909388 -351.62769 
L 189.761202 -351.611033 
L 191.613016 -351.597757 
L 193.46483 -351.58762 
L 195.316644 -351.580195 
L 197.168458 -351.57497 
L 199.020272 -351.571434 
L 200.872087 -351.569133 
L 202.723901 -351.56769 
L 204.575715 -351.566818 
L 206.427529 -351.566311 
L 208.279343 -351.566028 
L 210.131157 -351.565878 
L 211.982971 -351.565805 
L 213.834785 -351.565782 
L 215.686599 -351.565797 
L 217.538414 -351.565859 
L 219.390228 -351.56599 
L 221.242042 -351.566242 
L 223.093856 -351.566695 
L 224.94567 -351.567481 
L 226.797484 -351.568792 
L 228.649298 -351.570899 
L 230.501112 -351.574159 
L 232.352927 -351.579014 
L 234.204741 -351.585966 
L 236.056555 -351.595534 
L 237.908369 -351.608168 
L 239.760183 -351.624156 
L 241.611997 -351.643503 
L 243.463811 -351.665829 
L 245.315625 -351.6903 
L 247.16744 -351.715624 
L 249.019254 -351.740127 
L 250.871068 -351.761923 
L 252.722882 -351.779139 
L 254.574696 -351.790186 
L 256.42651 -351.793994 
L 256.42651 -351.337434 
L 256.42651 -351.337434 
L 254.574696 -351.341242 
L 252.722882 -351.352289 
L 250.871068 -351.369506 
L 249.019254 -351.391301 
L 247.16744 -351.415805 
L 245.315625 -351.441128 
L 243.463811 -351.4656 
L 241.611997 -351.487926 
L 239.760183 -351.507273 
L 237.908369 -351.523261 
L 236.056555 -351.535895 
L 234.204741 -351.545462 
L 232.352927 -351.552415 
L 230.501112 -351.55727 
L 228.649298 -351.56053 
L 226.797484 -351.562636 
L 224.94567 -351.563947 
L 223.093856 -351.564733 
L 221.242042 -351.565187 
L 219.390228 -351.565438 
L 217.538414 -351.56557 
L 215.686599 -351.565631 
L 213.834785 -351.565647 
L 211.982971 -351.565623 
L 210.131157 -351.565551 
L 208.279343 -351.5654 
L 206.427529 -351.565117 
L 204.575715 -351.56461 
L 202.723901 -351.563739 
L 200.872087 -351.562296 
L 199.020272 -351.559994 
L 197.168458 -351.556459 
L 195.316644 -351.551234 
L 193.46483 -351.543808 
L 191.613016 -351.533672 
L 189.761202 -351.520396 
L 187.909388 -351.503739 
L 186.057574 -351.483764 
L 184.205759 -351.460936 
L 182.353945 -351.436181 
L 180.502131 -351.410874 
L 178.650317 -351.386743 
L 176.798503 -351.365688 
L 174.946689 -351.349537 
L 173.094875 -351.339779 
L 171.243061 -351.337328 
L 169.391247 -351.342357 
L 167.539432 -351.354251 
L 165.687618 -351.371666 
L 163.835804 -351.392692 
L 161.98399 -351.415071 
L 160.132176 -351.436423 
L 158.280362 -351.454439 
L 156.428548 -351.467016 
L 154.576734 -351.472333 
L 152.724919 -351.468879 
L 150.873105 -351.455468 
L 149.021291 -351.431259 
L 147.169477 -351.39578 
L 145.317663 -351.348973 
L 143.465849 -351.2912 
L 141.614035 -351.223205 
L 139.762221 -351.145995 
L 137.910406 -351.060641 
L 136.058592 -350.968044 
L 134.206778 -350.868715 
L 132.354964 -350.76265 
L 130.50315 -350.649347 
L 128.651336 -350.527994 
L 126.799522 -350.397766 
L 124.947708 -350.258115 
L 123.095894 -350.108913 
L 121.244079 -349.950286 
L 119.392265 -349.782042 
L 117.540451 -349.602701 
L 115.688637 -349.408278 
L 113.836823 -349.191085 
L 111.985009 -348.938914 
L 110.133195 -348.634978 
L 108.281381 -348.25891 
L 106.429566 -347.78895 
L 104.577752 -347.205213 
L 102.725938 -346.493702 
L 100.874124 -345.650468 
L 99.02231 -344.685223 
L 97.170496 -343.623641 
L 95.318682 -342.507745 
L 93.466868 -341.393986 
L 91.615053 -340.349012 
L 89.763239 -339.443492 
L 87.911425 -338.744743 
L 86.059611 -338.309175 
L 84.207797 -338.175654 
L 82.355983 -338.360801 
L 80.504169 -338.856958 
L 78.652355 -339.633124 
L 76.800541 -340.638693 
L 74.948726 -341.809366 
L 73.096912 -343.07431 
z
" id="mb9bf181c30" style="stroke:#494949;stroke-width:1.5;"/>
    </defs>
    <g clip-path="url(#p99960b2a2c)">
     <use style="fill:#5f9e6e;stroke:#494949;stroke-width:1.5;" x="0" xlink:href="#mb9bf181c30" y="576"/>
    </g>
   </g>
   <g id="PolyCollection_4">
    <defs>
     <path d="M 72.945604 -282.752965 
L 72.945604 -296.127035 
L 74.590699 -297.291313 
L 76.235793 -298.447367 
L 77.880888 -299.542127 
L 79.525983 -300.521752 
L 81.171077 -301.336444 
L 82.816172 -301.945046 
L 84.461266 -302.318813 
L 86.106361 -302.443842 
L 87.751456 -302.321896 
L 89.39655 -301.969587 
L 91.041645 -301.416153 
L 92.686739 -300.700225 
L 94.331834 -299.866079 
L 95.976929 -298.95983 
L 97.622023 -298.025966 
L 99.267118 -297.104471 
L 100.912212 -296.228672 
L 102.557307 -295.423869 
L 104.202402 -294.706713 
L 105.847496 -294.085318 
L 107.492591 -293.560019 
L 109.137685 -293.124692 
L 110.78278 -292.768489 
L 112.427875 -292.477789 
L 114.072969 -292.238142 
L 115.718064 -292.035951 
L 117.363158 -291.859703 
L 119.008253 -291.700629 
L 120.653348 -291.552784 
L 122.298442 -291.412652 
L 123.943537 -291.278456 
L 125.588631 -291.149393 
L 127.233726 -291.024979 
L 128.878821 -290.904635 
L 130.523915 -290.787552 
L 132.16901 -290.672787 
L 133.814104 -290.559511 
L 135.459199 -290.447264 
L 137.104294 -290.336152 
L 138.749388 -290.226916 
L 140.394483 -290.12085 
L 142.039577 -290.019635 
L 143.684672 -289.925094 
L 145.329767 -289.838972 
L 146.974861 -289.762743 
L 148.619956 -289.697498 
L 150.26505 -289.643903 
L 151.910145 -289.602223 
L 153.55524 -289.57238 
L 155.200334 -289.554034 
L 156.845429 -289.546653 
L 158.490523 -289.54957 
L 160.135618 -289.562004 
L 161.780713 -289.583066 
L 163.425807 -289.611737 
L 165.070902 -289.646836 
L 166.715996 -289.686989 
L 168.361091 -289.730593 
L 170.006186 -289.775803 
L 171.65128 -289.820534 
L 173.296375 -289.86251 
L 174.941469 -289.899348 
L 176.586564 -289.928708 
L 178.231659 -289.948482 
L 179.876753 -289.957021 
L 181.521848 -289.953352 
L 183.166942 -289.937342 
L 184.812037 -289.909776 
L 186.457131 -289.872316 
L 188.102226 -289.827336 
L 189.747321 -289.77766 
L 191.392415 -289.726241 
L 193.03751 -289.675846 
L 194.682604 -289.628791 
L 196.327699 -289.586767 
L 197.972794 -289.550775 
L 199.617888 -289.521162 
L 201.262983 -289.497733 
L 202.908077 -289.47991 
L 204.553172 -289.466901 
L 206.198267 -289.457851 
L 207.843361 -289.451966 
L 209.488456 -289.448596 
L 211.13355 -289.447283 
L 212.778645 -289.447769 
L 214.42374 -289.449989 
L 216.068834 -289.454028 
L 217.713929 -289.460068 
L 219.359023 -289.468309 
L 221.004118 -289.478884 
L 222.649213 -289.491765 
L 224.294307 -289.506682 
L 225.939402 -289.523065 
L 227.584496 -289.540044 
L 229.229591 -289.556491 
L 230.874686 -289.571131 
L 232.51978 -289.582702 
L 234.164875 -289.59013 
L 235.809969 -289.59269 
L 235.809969 -289.28731 
L 235.809969 -289.28731 
L 234.164875 -289.28987 
L 232.51978 -289.297298 
L 230.874686 -289.308869 
L 229.229591 -289.323509 
L 227.584496 -289.339956 
L 225.939402 -289.356935 
L 224.294307 -289.373318 
L 222.649213 -289.388235 
L 221.004118 -289.401116 
L 219.359023 -289.411691 
L 217.713929 -289.419932 
L 216.068834 -289.425972 
L 214.42374 -289.430011 
L 212.778645 -289.432231 
L 211.13355 -289.432717 
L 209.488456 -289.431404 
L 207.843361 -289.428034 
L 206.198267 -289.422149 
L 204.553172 -289.413099 
L 202.908077 -289.40009 
L 201.262983 -289.382267 
L 199.617888 -289.358838 
L 197.972794 -289.329225 
L 196.327699 -289.293233 
L 194.682604 -289.251209 
L 193.03751 -289.204154 
L 191.392415 -289.153759 
L 189.747321 -289.10234 
L 188.102226 -289.052664 
L 186.457131 -289.007684 
L 184.812037 -288.970224 
L 183.166942 -288.942658 
L 181.521848 -288.926648 
L 179.876753 -288.922979 
L 178.231659 -288.931518 
L 176.586564 -288.951292 
L 174.941469 -288.980652 
L 173.296375 -289.01749 
L 171.65128 -289.059466 
L 170.006186 -289.104197 
L 168.361091 -289.149407 
L 166.715996 -289.193011 
L 165.070902 -289.233164 
L 163.425807 -289.268263 
L 161.780713 -289.296934 
L 160.135618 -289.317996 
L 158.490523 -289.33043 
L 156.845429 -289.333347 
L 155.200334 -289.325966 
L 153.55524 -289.30762 
L 151.910145 -289.277777 
L 150.26505 -289.236097 
L 148.619956 -289.182502 
L 146.974861 -289.117257 
L 145.329767 -289.041028 
L 143.684672 -288.954906 
L 142.039577 -288.860365 
L 140.394483 -288.75915 
L 138.749388 -288.653084 
L 137.104294 -288.543848 
L 135.459199 -288.432736 
L 133.814104 -288.320489 
L 132.16901 -288.207213 
L 130.523915 -288.092448 
L 128.878821 -287.975365 
L 127.233726 -287.855021 
L 125.588631 -287.730607 
L 123.943537 -287.601544 
L 122.298442 -287.467348 
L 120.653348 -287.327216 
L 119.008253 -287.179371 
L 117.363158 -287.020297 
L 115.718064 -286.844049 
L 114.072969 -286.641858 
L 112.427875 -286.402211 
L 110.78278 -286.111511 
L 109.137685 -285.755308 
L 107.492591 -285.319981 
L 105.847496 -284.794682 
L 104.202402 -284.173287 
L 102.557307 -283.456131 
L 100.912212 -282.651328 
L 99.267118 -281.775529 
L 97.622023 -280.854034 
L 95.976929 -279.92017 
L 94.331834 -279.013921 
L 92.686739 -278.179775 
L 91.041645 -277.463847 
L 89.39655 -276.910413 
L 87.751456 -276.558104 
L 86.106361 -276.436158 
L 84.461266 -276.561187 
L 82.816172 -276.934954 
L 81.171077 -277.543556 
L 79.525983 -278.358248 
L 77.880888 -279.337873 
L 76.235793 -280.432633 
L 74.590699 -281.588687 
L 72.945604 -282.752965 
z
" id="meb37ed444c" style="stroke:#494949;stroke-width:1.5;"/>
    </defs>
    <g clip-path="url(#p99960b2a2c)">
     <use style="fill:#b55d60;stroke:#494949;stroke-width:1.5;" x="0" xlink:href="#meb37ed444c" y="576"/>
    </g>
   </g>
   <g id="PolyCollection_5">
    <defs>
     <path d="M 73.259516 -221.228556 
L 73.259516 -233.400016 
L 77.502449 -234.424314 
L 81.745381 -235.213548 
L 85.988313 -235.668519 
L 90.231246 -235.73527 
L 94.474178 -235.416438 
L 98.71711 -234.768943 
L 102.960043 -233.889317 
L 107.202975 -232.891739 
L 111.445907 -231.885493 
L 115.68884 -230.957547 
L 119.931772 -230.163396 
L 124.174704 -229.526262 
L 128.417636 -229.042592 
L 132.660569 -228.69084 
L 136.903501 -228.440733 
L 141.146433 -228.261063 
L 145.389366 -228.12505 
L 149.632298 -228.013086 
L 153.87523 -227.913254 
L 158.118163 -227.820239 
L 162.361095 -227.733367 
L 166.604027 -227.65442 
L 170.84696 -227.585774 
L 175.089892 -227.529144 
L 179.332824 -227.485043 
L 183.575756 -227.4528 
L 187.818689 -227.430936 
L 192.061621 -227.417592 
L 196.304553 -227.410857 
L 200.547486 -227.408893 
L 204.790418 -227.409941 
L 209.03335 -227.412303 
L 213.276283 -227.414415 
L 217.519215 -227.415035 
L 221.762147 -227.413464 
L 226.00508 -227.409712 
L 230.248012 -227.404476 
L 234.490944 -227.398926 
L 238.733876 -227.394335 
L 242.976809 -227.391679 
L 247.219741 -227.39135 
L 251.462673 -227.393056 
L 255.705606 -227.395931 
L 259.948538 -227.398807 
L 264.19147 -227.400545 
L 268.434403 -227.400334 
L 272.677335 -227.397885 
L 276.920267 -227.393477 
L 281.1632 -227.387861 
L 285.406132 -227.382028 
L 289.649064 -227.376924 
L 293.891996 -227.373163 
L 298.134929 -227.370852 
L 302.377861 -227.369573 
L 306.620793 -227.368532 
L 310.863726 -227.366842 
L 315.106658 -227.363814 
L 319.34959 -227.359166 
L 323.592523 -227.353085 
L 327.835455 -227.346126 
L 332.078387 -227.339012 
L 336.32132 -227.332421 
L 340.564252 -227.326835 
L 344.807184 -227.322473 
L 349.050116 -227.31932 
L 353.293049 -227.317202 
L 357.535981 -227.315877 
L 361.778913 -227.315104 
L 366.021846 -227.314683 
L 370.264778 -227.314468 
L 374.50771 -227.314369 
L 378.750643 -227.314335 
L 382.993575 -227.314344 
L 387.236507 -227.314407 
L 391.47944 -227.314565 
L 395.722372 -227.314906 
L 399.965304 -227.315589 
L 404.208236 -227.316867 
L 408.451169 -227.319104 
L 412.694101 -227.322757 
L 416.937033 -227.328316 
L 421.179966 -227.336179 
L 425.422898 -227.346469 
L 429.66583 -227.358864 
L 433.908763 -227.372476 
L 438.151695 -227.3859 
L 442.394627 -227.397433 
L 446.637559 -227.405476 
L 450.880492 -227.408966 
L 455.123424 -227.407713 
L 459.366356 -227.402485 
L 463.609289 -227.394805 
L 467.852221 -227.386498 
L 472.095153 -227.37917 
L 476.338086 -227.373778 
L 480.581018 -227.37045 
L 484.82395 -227.368574 
L 489.066883 -227.367114 
L 493.309815 -227.365014 
L 493.309815 -227.263557 
L 493.309815 -227.263557 
L 489.066883 -227.261457 
L 484.82395 -227.259997 
L 480.581018 -227.258122 
L 476.338086 -227.254794 
L 472.095153 -227.249402 
L 467.852221 -227.242073 
L 463.609289 -227.233766 
L 459.366356 -227.226086 
L 455.123424 -227.220859 
L 450.880492 -227.219605 
L 446.637559 -227.223095 
L 442.394627 -227.231138 
L 438.151695 -227.242672 
L 433.908763 -227.256095 
L 429.66583 -227.269708 
L 425.422898 -227.282102 
L 421.179966 -227.292393 
L 416.937033 -227.300255 
L 412.694101 -227.305815 
L 408.451169 -227.309468 
L 404.208236 -227.311704 
L 399.965304 -227.312983 
L 395.722372 -227.313666 
L 391.47944 -227.314007 
L 387.236507 -227.314164 
L 382.993575 -227.314227 
L 378.750643 -227.314237 
L 374.50771 -227.314202 
L 370.264778 -227.314103 
L 366.021846 -227.313889 
L 361.778913 -227.313467 
L 357.535981 -227.312694 
L 353.293049 -227.311369 
L 349.050116 -227.309252 
L 344.807184 -227.306098 
L 340.564252 -227.301736 
L 336.32132 -227.29615 
L 332.078387 -227.28956 
L 327.835455 -227.282446 
L 323.592523 -227.275486 
L 319.34959 -227.269406 
L 315.106658 -227.264758 
L 310.863726 -227.261729 
L 306.620793 -227.260039 
L 302.377861 -227.258999 
L 298.134929 -227.257719 
L 293.891996 -227.255409 
L 289.649064 -227.251648 
L 285.406132 -227.246543 
L 281.1632 -227.240711 
L 276.920267 -227.235094 
L 272.677335 -227.230687 
L 268.434403 -227.228237 
L 264.19147 -227.228026 
L 259.948538 -227.229764 
L 255.705606 -227.23264 
L 251.462673 -227.235515 
L 247.219741 -227.237221 
L 242.976809 -227.236892 
L 238.733876 -227.234237 
L 234.490944 -227.229645 
L 230.248012 -227.224096 
L 226.00508 -227.21886 
L 221.762147 -227.215107 
L 217.519215 -227.213536 
L 213.276283 -227.214156 
L 209.03335 -227.216269 
L 204.790418 -227.21863 
L 200.547486 -227.219678 
L 196.304553 -227.217714 
L 192.061621 -227.210979 
L 187.818689 -227.197636 
L 183.575756 -227.175771 
L 179.332824 -227.143529 
L 175.089892 -227.099427 
L 170.84696 -227.042798 
L 166.604027 -226.974151 
L 162.361095 -226.895204 
L 158.118163 -226.808332 
L 153.87523 -226.715318 
L 149.632298 -226.615486 
L 145.389366 -226.503521 
L 141.146433 -226.367508 
L 136.903501 -226.187839 
L 132.660569 -225.937731 
L 128.417636 -225.585979 
L 124.174704 -225.10231 
L 119.931772 -224.465176 
L 115.68884 -223.671024 
L 111.445907 -222.743079 
L 107.202975 -221.736832 
L 102.960043 -220.739255 
L 98.71711 -219.859628 
L 94.474178 -219.212134 
L 90.231246 -218.893302 
L 85.988313 -218.960053 
L 81.745381 -219.415023 
L 77.502449 -220.204257 
L 73.259516 -221.228556 
z
" id="mebcac8ddd4" style="stroke:#494949;stroke-width:1.5;"/>
    </defs>
    <g clip-path="url(#p99960b2a2c)">
     <use style="fill:#857aab;stroke:#494949;stroke-width:1.5;" x="0" xlink:href="#mebcac8ddd4" y="576"/>
    </g>
   </g>
   <g id="PolyCollection_6">
    <defs>
     <path d="M 74.139992 -162.074424 
L 74.139992 -168.302719 
L 74.91349 -169.136568 
L 75.686989 -170.106691 
L 76.460487 -171.209137 
L 77.233985 -172.432187 
L 78.007484 -173.756272 
L 78.780982 -175.154824 
L 79.554481 -176.595959 
L 80.327979 -178.044766 
L 81.101477 -179.465822 
L 81.874976 -180.825477 
L 82.648474 -182.093528 
L 83.421972 -183.244044 
L 84.195471 -184.255307 
L 84.968969 -185.109079 
L 85.742467 -185.789562 
L 86.515966 -186.282531 
L 87.289464 -186.575034 
L 88.062962 -186.655946 
L 88.836461 -186.517381 
L 89.609959 -186.156739 
L 90.383458 -185.578913 
L 91.156956 -184.798104 
L 91.930454 -183.838679 
L 92.703953 -182.734696 
L 93.477451 -181.527977 
L 94.250949 -180.264902 
L 95.024448 -178.992393 
L 95.797946 -177.753726 
L 96.571444 -176.584831 
L 97.344943 -175.511656 
L 98.118441 -174.548935 
L 98.89194 -173.700436 
L 99.665438 -172.960533 
L 100.438936 -172.316711 
L 101.212435 -171.752536 
L 101.985933 -171.2506 
L 102.759431 -170.795008 
L 103.53293 -170.373144 
L 104.306428 -169.976576 
L 105.079926 -169.601167 
L 105.853425 -169.246552 
L 106.626923 -168.915224 
L 107.400422 -168.611455 
L 108.17392 -168.340217 
L 108.947418 -168.106205 
L 109.720917 -167.912981 
L 110.494415 -167.762255 
L 111.267913 -167.653322 
L 112.041412 -167.582711 
L 112.81491 -167.544108 
L 113.588408 -167.528638 
L 114.361907 -167.525498 
L 115.135405 -167.522921 
L 115.908904 -167.509366 
L 116.682402 -167.474768 
L 117.4559 -167.411703 
L 118.229399 -167.316267 
L 119.002897 -167.188561 
L 119.776395 -167.032668 
L 120.549894 -166.856107 
L 121.323392 -166.668826 
L 122.09689 -166.481867 
L 122.870389 -166.305908 
L 123.643887 -166.149907 
L 124.417386 -166.020068 
L 125.190884 -165.919265 
L 125.964382 -165.846989 
L 126.737881 -165.79978 
L 127.511379 -165.772019 
L 128.284877 -165.756925 
L 129.058376 -165.747571 
L 129.831874 -165.737781 
L 130.605372 -165.722786 
L 131.378871 -165.699597 
L 132.152369 -165.66708 
L 132.925868 -165.625783 
L 133.699366 -165.577562 
L 134.472864 -165.52511 
L 135.246363 -165.471454 
L 136.019861 -165.419511 
L 136.793359 -165.37175 
L 137.566858 -165.330001 
L 138.340356 -165.295401 
L 139.113854 -165.268476 
L 139.887353 -165.24929 
L 140.660851 -165.237633 
L 141.434349 -165.233185 
L 142.207848 -165.235622 
L 142.981346 -165.244635 
L 143.754845 -165.25987 
L 144.528343 -165.280798 
L 145.301841 -165.306564 
L 146.07534 -165.335858 
L 146.848838 -165.36686 
L 147.622336 -165.397301 
L 148.395835 -165.424649 
L 149.169333 -165.446397 
L 149.942831 -165.460408 
L 150.71633 -165.465243 
L 150.71633 -164.9119 
L 150.71633 -164.9119 
L 149.942831 -164.916735 
L 149.169333 -164.930746 
L 148.395835 -164.952494 
L 147.622336 -164.979842 
L 146.848838 -165.010283 
L 146.07534 -165.041285 
L 145.301841 -165.070579 
L 144.528343 -165.096345 
L 143.754845 -165.117273 
L 142.981346 -165.132508 
L 142.207848 -165.141521 
L 141.434349 -165.143958 
L 140.660851 -165.13951 
L 139.887353 -165.127853 
L 139.113854 -165.108667 
L 138.340356 -165.081742 
L 137.566858 -165.047142 
L 136.793359 -165.005393 
L 136.019861 -164.957632 
L 135.246363 -164.905689 
L 134.472864 -164.852033 
L 133.699366 -164.799581 
L 132.925868 -164.75136 
L 132.152369 -164.710063 
L 131.378871 -164.677546 
L 130.605372 -164.654357 
L 129.831874 -164.639362 
L 129.058376 -164.629572 
L 128.284877 -164.620218 
L 127.511379 -164.605124 
L 126.737881 -164.577363 
L 125.964382 -164.530153 
L 125.190884 -164.457878 
L 124.417386 -164.357075 
L 123.643887 -164.227236 
L 122.870389 -164.071235 
L 122.09689 -163.895276 
L 121.323392 -163.708317 
L 120.549894 -163.521036 
L 119.776395 -163.344475 
L 119.002897 -163.188582 
L 118.229399 -163.060876 
L 117.4559 -162.96544 
L 116.682402 -162.902374 
L 115.908904 -162.867777 
L 115.135405 -162.854222 
L 114.361907 -162.851645 
L 113.588408 -162.848505 
L 112.81491 -162.833035 
L 112.041412 -162.794432 
L 111.267913 -162.723821 
L 110.494415 -162.614888 
L 109.720917 -162.464162 
L 108.947418 -162.270938 
L 108.17392 -162.036926 
L 107.400422 -161.765688 
L 106.626923 -161.461918 
L 105.853425 -161.130591 
L 105.079926 -160.775976 
L 104.306428 -160.400567 
L 103.53293 -160.003999 
L 102.759431 -159.582135 
L 101.985933 -159.126543 
L 101.212435 -158.624607 
L 100.438936 -158.060432 
L 99.665438 -157.41661 
L 98.89194 -156.676707 
L 98.118441 -155.828208 
L 97.344943 -154.865486 
L 96.571444 -153.792312 
L 95.797946 -152.623417 
L 95.024448 -151.38475 
L 94.250949 -150.112241 
L 93.477451 -148.849166 
L 92.703953 -147.642447 
L 91.930454 -146.538464 
L 91.156956 -145.579038 
L 90.383458 -144.79823 
L 89.609959 -144.220404 
L 88.836461 -143.859762 
L 88.062962 -143.721197 
L 87.289464 -143.802108 
L 86.515966 -144.094611 
L 85.742467 -144.58758 
L 84.968969 -145.268064 
L 84.195471 -146.121836 
L 83.421972 -147.133099 
L 82.648474 -148.283615 
L 81.874976 -149.551666 
L 81.101477 -150.911321 
L 80.327979 -152.332377 
L 79.554481 -153.781184 
L 78.780982 -155.222318 
L 78.007484 -156.620871 
L 77.233985 -157.944956 
L 76.460487 -159.168005 
L 75.686989 -160.270452 
L 74.91349 -161.240574 
L 74.139992 -162.074424 
z
" id="mc43322ebd0" style="stroke:#494949;stroke-width:1.5;"/>
    </defs>
    <g clip-path="url(#p99960b2a2c)">
     <use style="fill:#8d7866;stroke:#494949;stroke-width:1.5;" x="0" xlink:href="#mc43322ebd0" y="576"/>
    </g>
   </g>
   <g id="PolyCollection_7">
    <defs>
     <path d="M 80.670736 -85.897281 
L 80.670736 -120.228433 
L 81.139149 -121.251206 
L 81.607563 -122.235369 
L 82.075976 -123.169943 
L 82.544389 -124.044383 
L 83.012803 -124.848782 
L 83.481216 -125.574065 
L 83.949629 -126.212153 
L 84.418043 -126.756111 
L 84.886456 -127.200259 
L 85.354869 -127.540264 
L 85.823283 -127.773188 
L 86.291696 -127.897515 
L 86.760109 -127.913143 
L 87.228523 -127.821349 
L 87.696936 -127.624727 
L 88.165349 -127.327104 
L 88.633763 -126.933431 
L 89.102176 -126.449667 
L 89.570589 -125.882635 
L 90.039003 -125.239885 
L 90.507416 -124.529535 
L 90.975829 -123.760122 
L 91.444243 -122.940445 
L 91.912656 -122.079417 
L 92.381069 -121.185923 
L 92.849483 -120.268686 
L 93.317896 -119.336145 
L 93.786309 -118.396351 
L 94.254723 -117.45687 
L 94.723136 -116.524715 
L 95.191549 -115.606278 
L 95.659963 -114.707296 
L 96.128376 -113.832821 
L 96.596789 -112.98721 
L 97.065203 -112.174128 
L 97.533616 -111.396568 
L 98.002029 -110.656871 
L 98.470443 -109.956767 
L 98.938856 -109.297415 
L 99.407269 -108.679446 
L 99.875683 -108.103018 
L 100.344096 -107.567866 
L 100.812509 -107.073349 
L 101.280923 -106.618506 
L 101.749336 -106.202099 
L 102.217749 -105.822663 
L 102.686163 -105.478547 
L 103.154576 -105.167954 
L 103.622989 -104.888981 
L 104.091403 -104.63965 
L 104.559816 -104.41794 
L 105.028229 -104.221815 
L 105.496643 -104.049254 
L 105.965056 -103.898269 
L 106.433469 -103.766929 
L 106.901883 -103.653376 
L 107.370296 -103.555844 
L 107.838709 -103.472673 
L 108.307123 -103.402317 
L 108.775536 -103.343355 
L 109.243949 -103.2945 
L 109.712363 -103.254603 
L 110.180776 -103.222653 
L 110.649189 -103.197782 
L 111.117603 -103.179261 
L 111.586016 -103.166499 
L 112.054429 -103.159035 
L 112.522843 -103.156537 
L 112.991256 -103.158786 
L 113.45967 -103.165673 
L 113.928083 -103.17718 
L 114.396496 -103.193371 
L 114.86491 -103.214371 
L 115.333323 -103.240351 
L 115.801736 -103.271508 
L 116.27015 -103.308041 
L 116.738563 -103.35013 
L 117.206976 -103.39791 
L 117.67539 -103.451449 
L 118.143803 -103.510726 
L 118.612216 -103.575605 
L 119.08063 -103.64582 
L 119.549043 -103.720956 
L 120.017456 -103.800442 
L 120.48587 -103.88354 
L 120.954283 -103.969349 
L 121.422696 -104.056815 
L 121.89111 -104.144739 
L 122.359523 -104.231808 
L 122.827936 -104.316617 
L 123.29635 -104.397707 
L 123.764763 -104.473605 
L 124.233176 -104.542868 
L 124.70159 -104.604125 
L 125.170003 -104.656127 
L 125.638416 -104.697784 
L 126.10683 -104.728204 
L 126.575243 -104.746727 
L 127.043656 -104.752946 
L 127.043656 -101.372768 
L 127.043656 -101.372768 
L 126.575243 -101.378988 
L 126.10683 -101.397511 
L 125.638416 -101.427931 
L 125.170003 -101.469587 
L 124.70159 -101.521589 
L 124.233176 -101.582847 
L 123.764763 -101.65211 
L 123.29635 -101.728008 
L 122.827936 -101.809098 
L 122.359523 -101.893906 
L 121.89111 -101.980975 
L 121.422696 -102.0689 
L 120.954283 -102.156365 
L 120.48587 -102.242175 
L 120.017456 -102.325272 
L 119.549043 -102.404758 
L 119.08063 -102.479895 
L 118.612216 -102.55011 
L 118.143803 -102.614989 
L 117.67539 -102.674265 
L 117.206976 -102.727805 
L 116.738563 -102.775584 
L 116.27015 -102.817673 
L 115.801736 -102.854206 
L 115.333323 -102.885363 
L 114.86491 -102.911344 
L 114.396496 -102.932343 
L 113.928083 -102.948534 
L 113.45967 -102.960041 
L 112.991256 -102.966928 
L 112.522843 -102.969177 
L 112.054429 -102.966679 
L 111.586016 -102.959216 
L 111.117603 -102.946453 
L 110.649189 -102.927932 
L 110.180776 -102.903061 
L 109.712363 -102.871111 
L 109.243949 -102.831214 
L 108.775536 -102.782359 
L 108.307123 -102.723398 
L 107.838709 -102.653041 
L 107.370296 -102.56987 
L 106.901883 -102.472339 
L 106.433469 -102.358786 
L 105.965056 -102.227445 
L 105.496643 -102.07646 
L 105.028229 -101.903899 
L 104.559816 -101.707775 
L 104.091403 -101.486064 
L 103.622989 -101.236733 
L 103.154576 -100.95776 
L 102.686163 -100.647168 
L 102.217749 -100.303052 
L 101.749336 -99.923615 
L 101.280923 -99.507209 
L 100.812509 -99.052365 
L 100.344096 -98.557848 
L 99.875683 -98.022696 
L 99.407269 -97.446269 
L 98.938856 -96.8283 
L 98.470443 -96.168947 
L 98.002029 -95.468843 
L 97.533616 -94.729147 
L 97.065203 -93.951586 
L 96.596789 -93.138505 
L 96.128376 -92.292893 
L 95.659963 -91.418418 
L 95.191549 -90.519436 
L 94.723136 -89.600999 
L 94.254723 -88.668844 
L 93.786309 -87.729364 
L 93.317896 -86.789569 
L 92.849483 -85.857028 
L 92.381069 -84.939791 
L 91.912656 -84.046297 
L 91.444243 -83.185269 
L 90.975829 -82.365592 
L 90.507416 -81.596179 
L 90.039003 -80.885829 
L 89.570589 -80.243079 
L 89.102176 -79.676048 
L 88.633763 -79.192283 
L 88.165349 -78.798611 
L 87.696936 -78.500987 
L 87.228523 -78.304365 
L 86.760109 -78.212571 
L 86.291696 -78.228199 
L 85.823283 -78.352526 
L 85.354869 -78.58545 
L 84.886456 -78.925455 
L 84.418043 -79.369604 
L 83.949629 -79.913561 
L 83.481216 -80.551649 
L 83.012803 -81.276932 
L 82.544389 -82.081332 
L 82.075976 -82.955771 
L 81.607563 -83.890345 
L 81.139149 -84.874509 
L 80.670736 -85.897281 
z
" id="maac0610214" style="stroke:#494949;stroke-width:1.5;"/>
    </defs>
    <g clip-path="url(#p99960b2a2c)">
     <use style="fill:#d095bf;stroke:#494949;stroke-width:1.5;" x="0" xlink:href="#maac0610214" y="576"/>
    </g>
   </g>
   <g id="line2d_15">
    <path clip-path="url(#p99960b2a2c)" d="M 80.377612 88.256837 
L 80.377612 112.108878 
" style="fill:none;stroke:#494949;stroke-dasharray:3.375,3.375;stroke-dashoffset:0;stroke-width:1.5;"/>
   </g>
   <g id="line2d_16">
    <path clip-path="url(#p99960b2a2c)" d="M 86.103937 88.08277 
L 86.103937 112.282944 
" style="fill:none;stroke:#494949;stroke-dasharray:6.75,6.75;stroke-dashoffset:0;stroke-width:1.5;"/>
   </g>
   <g id="line2d_17">
    <path clip-path="url(#p99960b2a2c)" d="M 100.862935 94.351216 
L 100.862935 106.014498 
" style="fill:none;stroke:#494949;stroke-dasharray:3.375,3.375;stroke-dashoffset:0;stroke-width:1.5;"/>
   </g>
   <g id="line2d_18">
    <path clip-path="url(#p99960b2a2c)" d="M 77.996417 149.931927 
L 77.996417 174.685216 
" style="fill:none;stroke:#494949;stroke-dasharray:3.375,3.375;stroke-dashoffset:0;stroke-width:1.5;"/>
   </g>
   <g id="line2d_19">
    <path clip-path="url(#p99960b2a2c)" d="M 86.551885 150.343821 
L 86.551885 174.273322 
" style="fill:none;stroke:#494949;stroke-dasharray:6.75,6.75;stroke-dashoffset:0;stroke-width:1.5;"/>
   </g>
   <g id="line2d_20">
    <path clip-path="url(#p99960b2a2c)" d="M 100.145616 155.062698 
L 100.145616 169.554445 
" style="fill:none;stroke:#494949;stroke-dasharray:3.375,3.375;stroke-dashoffset:0;stroke-width:1.5;"/>
   </g>
   <g id="line2d_21">
    <path clip-path="url(#p99960b2a2c)" d="M 81.443813 211.361422 
L 81.443813 237.50715 
" style="fill:none;stroke:#494949;stroke-dasharray:3.375,3.375;stroke-dashoffset:0;stroke-width:1.5;"/>
   </g>
   <g id="line2d_22">
    <path clip-path="url(#p99960b2a2c)" d="M 85.657537 211.310312 
L 85.657537 237.55826 
" style="fill:none;stroke:#494949;stroke-dasharray:6.75,6.75;stroke-dashoffset:0;stroke-width:1.5;"/>
   </g>
   <g id="line2d_23">
    <path clip-path="url(#p99960b2a2c)" d="M 90.861878 213.329751 
L 90.861878 235.538821 
" style="fill:none;stroke:#494949;stroke-dasharray:3.375,3.375;stroke-dashoffset:0;stroke-width:1.5;"/>
   </g>
   <g id="line2d_24">
    <path clip-path="url(#p99960b2a2c)" d="M 82.520191 274.180004 
L 82.520191 298.939996 
" style="fill:none;stroke:#494949;stroke-dasharray:3.375,3.375;stroke-dashoffset:0;stroke-width:1.5;"/>
   </g>
   <g id="line2d_25">
    <path clip-path="url(#p99960b2a2c)" d="M 88.266954 273.806923 
L 88.266954 299.313077 
" style="fill:none;stroke:#494949;stroke-dasharray:6.75,6.75;stroke-dashoffset:0;stroke-width:1.5;"/>
   </g>
   <g id="line2d_26">
    <path clip-path="url(#p99960b2a2c)" d="M 97.464281 278.059894 
L 97.464281 295.060106 
" style="fill:none;stroke:#494949;stroke-dasharray:3.375,3.375;stroke-dashoffset:0;stroke-width:1.5;"/>
   </g>
   <g id="line2d_27">
    <path clip-path="url(#p99960b2a2c)" d="M 83.146923 340.865445 
L 83.146923 356.505984 
" style="fill:none;stroke:#494949;stroke-dasharray:3.375,3.375;stroke-dashoffset:0;stroke-width:1.5;"/>
   </g>
   <g id="line2d_28">
    <path clip-path="url(#p99960b2a2c)" d="M 89.125838 340.34894 
L 89.125838 357.022489 
" style="fill:none;stroke:#494949;stroke-dasharray:6.75,6.75;stroke-dashoffset:0;stroke-width:1.5;"/>
   </g>
   <g id="line2d_29">
    <path clip-path="url(#p99960b2a2c)" d="M 98.97867 341.305603 
L 98.97867 356.065825 
" style="fill:none;stroke:#494949;stroke-dasharray:3.375,3.375;stroke-dashoffset:0;stroke-width:1.5;"/>
   </g>
   <g id="line2d_30">
    <path clip-path="url(#p99960b2a2c)" d="M 84.683595 391.090126 
L 84.683595 430.532731 
" style="fill:none;stroke:#494949;stroke-dasharray:3.375,3.375;stroke-dashoffset:0;stroke-width:1.5;"/>
   </g>
   <g id="line2d_31">
    <path clip-path="url(#p99960b2a2c)" d="M 88.969857 389.695907 
L 88.969857 431.92695 
" style="fill:none;stroke:#494949;stroke-dasharray:6.75,6.75;stroke-dashoffset:0;stroke-width:1.5;"/>
   </g>
   <g id="line2d_32">
    <path clip-path="url(#p99960b2a2c)" d="M 95.160114 397.145645 
L 95.160114 424.477212 
" style="fill:none;stroke:#494949;stroke-dasharray:3.375,3.375;stroke-dashoffset:0;stroke-width:1.5;"/>
   </g>
   <g id="line2d_33">
    <path clip-path="url(#p99960b2a2c)" d="M 83.251721 450.651047 
L 83.251721 495.223239 
" style="fill:none;stroke:#494949;stroke-dasharray:3.375,3.375;stroke-dashoffset:0;stroke-width:1.5;"/>
   </g>
   <g id="line2d_34">
    <path clip-path="url(#p99960b2a2c)" d="M 87.115945 448.426236 
L 87.115945 497.44805 
" style="fill:none;stroke:#494949;stroke-dasharray:6.75,6.75;stroke-dashoffset:0;stroke-width:1.5;"/>
   </g>
   <g id="line2d_35">
    <path clip-path="url(#p99960b2a2c)" d="M 90.528705 451.685132 
L 90.528705 494.189154 
" style="fill:none;stroke:#494949;stroke-dasharray:3.375,3.375;stroke-dashoffset:0;stroke-width:1.5;"/>
   </g>
   <g id="patch_3">
    <path d="M 72 504 
L 518.4 504 
" style="fill:none;stroke:#262626;stroke-linecap:square;stroke-linejoin:miter;stroke-width:1.25;"/>
   </g>
  </g>
 </g>
 <defs>
  <clipPath id="p99960b2a2c">
   <rect height="434.88" width="446.4" x="72" y="69.12"/>
  </clipPath>
 </defs>
</svg>
