<?xml version="1.0" encoding="utf-8" standalone="no"?>
<!DOCTYPE svg PUBLIC "-//W3C//DTD SVG 1.1//EN"
  "http://www.w3.org/Graphics/SVG/1.1/DTD/svg11.dtd">
<!-- Created with matplotlib (https://matplotlib.org/) -->
<svg height="576pt" version="1.1" viewBox="0 0 576 576" width="576pt" xmlns="http://www.w3.org/2000/svg" xmlns:xlink="http://www.w3.org/1999/xlink">
 <defs>
  <style type="text/css">
*{stroke-linecap:butt;stroke-linejoin:round;}
  </style>
 </defs>
 <g id="figure_1">
  <g id="patch_1">
   <path d="M 0 576 
L 576 576 
L 576 0 
L 0 0 
z
" style="fill:#ffffff;"/>
  </g>
  <g id="axes_1">
   <g id="patch_2">
    <path d="M 72 504 
L 518.4 504 
L 518.4 69.12 
L 72 69.12 
z
" style="fill:#ffffff;"/>
   </g>
   <g id="matplotlib.axis_1">
    <g id="xtick_1">
     <g id="line2d_1">
      <defs>
       <path d="M 0 0 
L 0 6 
" id="mf1ff900f00" style="stroke:#262626;stroke-width:1.25;"/>
      </defs>
      <g>
       <use style="fill:#262626;stroke:#262626;stroke-width:1.25;" x="72" xlink:href="#mf1ff900f00" y="504"/>
      </g>
     </g>
     <g id="text_1">
      <!-- 0 -->
      <defs>
       <path d="M 4.15625 35.296875 
Q 4.15625 48 6.765625 55.734375 
Q 9.375 63.484375 14.515625 67.671875 
Q 19.671875 71.875 27.484375 71.875 
Q 33.25 71.875 37.59375 69.546875 
Q 41.9375 67.234375 44.765625 62.859375 
Q 47.609375 58.5 49.21875 52.21875 
Q 50.828125 45.953125 50.828125 35.296875 
Q 50.828125 22.703125 48.234375 14.96875 
Q 45.65625 7.234375 40.5 3 
Q 35.359375 -1.21875 27.484375 -1.21875 
Q 17.140625 -1.21875 11.234375 6.203125 
Q 4.15625 15.140625 4.15625 35.296875 
z
M 13.1875 35.296875 
Q 13.1875 17.671875 17.3125 11.828125 
Q 21.4375 6 27.484375 6 
Q 33.546875 6 37.671875 11.859375 
Q 41.796875 17.71875 41.796875 35.296875 
Q 41.796875 52.984375 37.671875 58.78125 
Q 33.546875 64.59375 27.390625 64.59375 
Q 21.34375 64.59375 17.71875 59.46875 
Q 13.1875 52.9375 13.1875 35.296875 
z
" id="ArialMT-48"/>
      </defs>
      <g style="fill:#262626;" transform="translate(66.647598 527.278789)scale(0.1925 -0.1925)">
       <use xlink:href="#ArialMT-48"/>
      </g>
     </g>
    </g>
    <g id="xtick_2">
     <g id="line2d_2">
      <g>
       <use style="fill:#262626;stroke:#262626;stroke-width:1.25;" x="135.771429" xlink:href="#mf1ff900f00" y="504"/>
      </g>
     </g>
     <g id="text_2">
      <!-- 2 -->
      <defs>
       <path d="M 50.34375 8.453125 
L 50.34375 0 
L 3.03125 0 
Q 2.9375 3.171875 4.046875 6.109375 
Q 5.859375 10.9375 9.828125 15.625 
Q 13.8125 20.3125 21.34375 26.46875 
Q 33.015625 36.03125 37.109375 41.625 
Q 41.21875 47.21875 41.21875 52.203125 
Q 41.21875 57.421875 37.46875 61 
Q 33.734375 64.59375 27.734375 64.59375 
Q 21.390625 64.59375 17.578125 60.78125 
Q 13.765625 56.984375 13.71875 50.25 
L 4.6875 51.171875 
Q 5.609375 61.28125 11.65625 66.578125 
Q 17.71875 71.875 27.9375 71.875 
Q 38.234375 71.875 44.234375 66.15625 
Q 50.25 60.453125 50.25 52 
Q 50.25 47.703125 48.484375 43.546875 
Q 46.734375 39.40625 42.65625 34.8125 
Q 38.578125 30.21875 29.109375 22.21875 
Q 21.1875 15.578125 18.9375 13.203125 
Q 16.703125 10.84375 15.234375 8.453125 
z
" id="ArialMT-50"/>
      </defs>
      <g style="fill:#262626;" transform="translate(130.419026 527.278789)scale(0.1925 -0.1925)">
       <use xlink:href="#ArialMT-50"/>
      </g>
     </g>
    </g>
    <g id="xtick_3">
     <g id="line2d_3">
      <g>
       <use style="fill:#262626;stroke:#262626;stroke-width:1.25;" x="199.542857" xlink:href="#mf1ff900f00" y="504"/>
      </g>
     </g>
     <g id="text_3">
      <!-- 4 -->
      <defs>
       <path d="M 32.328125 0 
L 32.328125 17.140625 
L 1.265625 17.140625 
L 1.265625 25.203125 
L 33.9375 71.578125 
L 41.109375 71.578125 
L 41.109375 25.203125 
L 50.78125 25.203125 
L 50.78125 17.140625 
L 41.109375 17.140625 
L 41.109375 0 
z
M 32.328125 25.203125 
L 32.328125 57.46875 
L 9.90625 25.203125 
z
" id="ArialMT-52"/>
      </defs>
      <g style="fill:#262626;" transform="translate(194.190455 527.278789)scale(0.1925 -0.1925)">
       <use xlink:href="#ArialMT-52"/>
      </g>
     </g>
    </g>
    <g id="xtick_4">
     <g id="line2d_4">
      <g>
       <use style="fill:#262626;stroke:#262626;stroke-width:1.25;" x="263.314286" xlink:href="#mf1ff900f00" y="504"/>
      </g>
     </g>
     <g id="text_4">
      <!-- 6 -->
      <defs>
       <path d="M 49.75 54.046875 
L 41.015625 53.375 
Q 39.84375 58.546875 37.703125 60.890625 
Q 34.125 64.65625 28.90625 64.65625 
Q 24.703125 64.65625 21.53125 62.3125 
Q 17.390625 59.28125 14.984375 53.46875 
Q 12.59375 47.65625 12.5 36.921875 
Q 15.671875 41.75 20.265625 44.09375 
Q 24.859375 46.4375 29.890625 46.4375 
Q 38.671875 46.4375 44.84375 39.96875 
Q 51.03125 33.5 51.03125 23.25 
Q 51.03125 16.5 48.125 10.71875 
Q 45.21875 4.9375 40.140625 1.859375 
Q 35.0625 -1.21875 28.609375 -1.21875 
Q 17.625 -1.21875 10.6875 6.859375 
Q 3.765625 14.9375 3.765625 33.5 
Q 3.765625 54.25 11.421875 63.671875 
Q 18.109375 71.875 29.4375 71.875 
Q 37.890625 71.875 43.28125 67.140625 
Q 48.6875 62.40625 49.75 54.046875 
z
M 13.875 23.1875 
Q 13.875 18.65625 15.796875 14.5 
Q 17.71875 10.359375 21.1875 8.171875 
Q 24.65625 6 28.46875 6 
Q 34.03125 6 38.03125 10.484375 
Q 42.046875 14.984375 42.046875 22.703125 
Q 42.046875 30.125 38.078125 34.390625 
Q 34.125 38.671875 28.125 38.671875 
Q 22.171875 38.671875 18.015625 34.390625 
Q 13.875 30.125 13.875 23.1875 
z
" id="ArialMT-54"/>
      </defs>
      <g style="fill:#262626;" transform="translate(257.961883 527.278789)scale(0.1925 -0.1925)">
       <use xlink:href="#ArialMT-54"/>
      </g>
     </g>
    </g>
    <g id="xtick_5">
     <g id="line2d_5">
      <g>
       <use style="fill:#262626;stroke:#262626;stroke-width:1.25;" x="327.085714" xlink:href="#mf1ff900f00" y="504"/>
      </g>
     </g>
     <g id="text_5">
      <!-- 8 -->
      <defs>
       <path d="M 17.671875 38.8125 
Q 12.203125 40.828125 9.5625 44.53125 
Q 6.9375 48.25 6.9375 53.421875 
Q 6.9375 61.234375 12.546875 66.546875 
Q 18.171875 71.875 27.484375 71.875 
Q 36.859375 71.875 42.578125 66.421875 
Q 48.296875 60.984375 48.296875 53.171875 
Q 48.296875 48.1875 45.671875 44.5 
Q 43.0625 40.828125 37.75 38.8125 
Q 44.34375 36.671875 47.78125 31.875 
Q 51.21875 27.09375 51.21875 20.453125 
Q 51.21875 11.28125 44.71875 5.03125 
Q 38.234375 -1.21875 27.640625 -1.21875 
Q 17.046875 -1.21875 10.546875 5.046875 
Q 4.046875 11.328125 4.046875 20.703125 
Q 4.046875 27.6875 7.59375 32.390625 
Q 11.140625 37.109375 17.671875 38.8125 
z
M 15.921875 53.71875 
Q 15.921875 48.640625 19.1875 45.40625 
Q 22.46875 42.1875 27.6875 42.1875 
Q 32.765625 42.1875 36.015625 45.375 
Q 39.265625 48.578125 39.265625 53.21875 
Q 39.265625 58.0625 35.90625 61.359375 
Q 32.5625 64.65625 27.59375 64.65625 
Q 22.5625 64.65625 19.234375 61.421875 
Q 15.921875 58.203125 15.921875 53.71875 
z
M 13.09375 20.65625 
Q 13.09375 16.890625 14.875 13.375 
Q 16.65625 9.859375 20.171875 7.921875 
Q 23.6875 6 27.734375 6 
Q 34.03125 6 38.125 10.046875 
Q 42.234375 14.109375 42.234375 20.359375 
Q 42.234375 26.703125 38.015625 30.859375 
Q 33.796875 35.015625 27.4375 35.015625 
Q 21.234375 35.015625 17.15625 30.90625 
Q 13.09375 26.8125 13.09375 20.65625 
z
" id="ArialMT-56"/>
      </defs>
      <g style="fill:#262626;" transform="translate(321.733312 527.278789)scale(0.1925 -0.1925)">
       <use xlink:href="#ArialMT-56"/>
      </g>
     </g>
    </g>
    <g id="xtick_6">
     <g id="line2d_6">
      <g>
       <use style="fill:#262626;stroke:#262626;stroke-width:1.25;" x="390.857143" xlink:href="#mf1ff900f00" y="504"/>
      </g>
     </g>
     <g id="text_6">
      <!-- 10 -->
      <defs>
       <path d="M 37.25 0 
L 28.46875 0 
L 28.46875 56 
Q 25.296875 52.984375 20.140625 49.953125 
Q 14.984375 46.921875 10.890625 45.40625 
L 10.890625 53.90625 
Q 18.265625 57.375 23.78125 62.296875 
Q 29.296875 67.234375 31.59375 71.875 
L 37.25 71.875 
z
" id="ArialMT-49"/>
      </defs>
      <g style="fill:#262626;" transform="translate(380.152338 527.278789)scale(0.1925 -0.1925)">
       <use xlink:href="#ArialMT-49"/>
       <use x="55.615234" xlink:href="#ArialMT-48"/>
      </g>
     </g>
    </g>
    <g id="xtick_7">
     <g id="line2d_7">
      <g>
       <use style="fill:#262626;stroke:#262626;stroke-width:1.25;" x="454.628571" xlink:href="#mf1ff900f00" y="504"/>
      </g>
     </g>
     <g id="text_7">
      <!-- 12 -->
      <g style="fill:#262626;" transform="translate(443.923767 527.278789)scale(0.1925 -0.1925)">
       <use xlink:href="#ArialMT-49"/>
       <use x="55.615234" xlink:href="#ArialMT-50"/>
      </g>
     </g>
    </g>
    <g id="xtick_8">
     <g id="line2d_8">
      <g>
       <use style="fill:#262626;stroke:#262626;stroke-width:1.25;" x="518.4" xlink:href="#mf1ff900f00" y="504"/>
      </g>
     </g>
     <g id="text_8">
      <!-- 14 -->
      <g style="fill:#262626;" transform="translate(507.695195 527.278789)scale(0.1925 -0.1925)">
       <use xlink:href="#ArialMT-49"/>
       <use x="55.615234" xlink:href="#ArialMT-52"/>
      </g>
     </g>
    </g>
    <g id="text_9">
     <!-- Number of Neurites Per Cell -->
     <defs>
      <path d="M 7.625 0 
L 7.625 71.578125 
L 17.328125 71.578125 
L 54.9375 15.375 
L 54.9375 71.578125 
L 64.015625 71.578125 
L 64.015625 0 
L 54.296875 0 
L 16.703125 56.25 
L 16.703125 0 
z
" id="ArialMT-78"/>
      <path d="M 40.578125 0 
L 40.578125 7.625 
Q 34.515625 -1.171875 24.125 -1.171875 
Q 19.53125 -1.171875 15.546875 0.578125 
Q 11.578125 2.34375 9.640625 5 
Q 7.71875 7.671875 6.9375 11.53125 
Q 6.390625 14.109375 6.390625 19.734375 
L 6.390625 51.859375 
L 15.1875 51.859375 
L 15.1875 23.09375 
Q 15.1875 16.21875 15.71875 13.8125 
Q 16.546875 10.359375 19.234375 8.375 
Q 21.921875 6.390625 25.875 6.390625 
Q 29.828125 6.390625 33.296875 8.421875 
Q 36.765625 10.453125 38.203125 13.9375 
Q 39.65625 17.4375 39.65625 24.078125 
L 39.65625 51.859375 
L 48.4375 51.859375 
L 48.4375 0 
z
" id="ArialMT-117"/>
      <path d="M 6.59375 0 
L 6.59375 51.859375 
L 14.453125 51.859375 
L 14.453125 44.578125 
Q 16.890625 48.390625 20.9375 50.703125 
Q 25 53.03125 30.171875 53.03125 
Q 35.9375 53.03125 39.625 50.640625 
Q 43.3125 48.25 44.828125 43.953125 
Q 50.984375 53.03125 60.84375 53.03125 
Q 68.5625 53.03125 72.703125 48.75 
Q 76.859375 44.484375 76.859375 35.59375 
L 76.859375 0 
L 68.109375 0 
L 68.109375 32.671875 
Q 68.109375 37.9375 67.25 40.25 
Q 66.40625 42.578125 64.15625 43.984375 
Q 61.921875 45.40625 58.890625 45.40625 
Q 53.421875 45.40625 49.796875 41.765625 
Q 46.1875 38.140625 46.1875 30.125 
L 46.1875 0 
L 37.40625 0 
L 37.40625 33.6875 
Q 37.40625 39.546875 35.25 42.46875 
Q 33.109375 45.40625 28.21875 45.40625 
Q 24.515625 45.40625 21.359375 43.453125 
Q 18.21875 41.5 16.796875 37.734375 
Q 15.375 33.984375 15.375 26.90625 
L 15.375 0 
z
" id="ArialMT-109"/>
      <path d="M 14.703125 0 
L 6.546875 0 
L 6.546875 71.578125 
L 15.328125 71.578125 
L 15.328125 46.046875 
Q 20.90625 53.03125 29.546875 53.03125 
Q 34.328125 53.03125 38.59375 51.09375 
Q 42.875 49.171875 45.625 45.671875 
Q 48.390625 42.1875 49.953125 37.25 
Q 51.515625 32.328125 51.515625 26.703125 
Q 51.515625 13.375 44.921875 6.09375 
Q 38.328125 -1.171875 29.109375 -1.171875 
Q 19.921875 -1.171875 14.703125 6.5 
z
M 14.59375 26.3125 
Q 14.59375 17 17.140625 12.84375 
Q 21.296875 6.0625 28.375 6.0625 
Q 34.125 6.0625 38.328125 11.0625 
Q 42.53125 16.0625 42.53125 25.984375 
Q 42.53125 36.140625 38.5 40.96875 
Q 34.46875 45.796875 28.765625 45.796875 
Q 23 45.796875 18.796875 40.796875 
Q 14.59375 35.796875 14.59375 26.3125 
z
" id="ArialMT-98"/>
      <path d="M 42.09375 16.703125 
L 51.171875 15.578125 
Q 49.03125 7.625 43.21875 3.21875 
Q 37.40625 -1.171875 28.375 -1.171875 
Q 17 -1.171875 10.328125 5.828125 
Q 3.65625 12.84375 3.65625 25.484375 
Q 3.65625 38.578125 10.390625 45.796875 
Q 17.140625 53.03125 27.875 53.03125 
Q 38.28125 53.03125 44.875 45.953125 
Q 51.46875 38.875 51.46875 26.03125 
Q 51.46875 25.25 51.421875 23.6875 
L 12.75 23.6875 
Q 13.234375 15.140625 17.578125 10.59375 
Q 21.921875 6.0625 28.421875 6.0625 
Q 33.25 6.0625 36.671875 8.59375 
Q 40.09375 11.140625 42.09375 16.703125 
z
M 13.234375 30.90625 
L 42.1875 30.90625 
Q 41.609375 37.453125 38.875 40.71875 
Q 34.671875 45.796875 27.984375 45.796875 
Q 21.921875 45.796875 17.796875 41.75 
Q 13.671875 37.703125 13.234375 30.90625 
z
" id="ArialMT-101"/>
      <path d="M 6.5 0 
L 6.5 51.859375 
L 14.40625 51.859375 
L 14.40625 44 
Q 17.4375 49.515625 20 51.265625 
Q 22.5625 53.03125 25.640625 53.03125 
Q 30.078125 53.03125 34.671875 50.203125 
L 31.640625 42.046875 
Q 28.421875 43.953125 25.203125 43.953125 
Q 22.3125 43.953125 20.015625 42.21875 
Q 17.71875 40.484375 16.75 37.40625 
Q 15.28125 32.71875 15.28125 27.15625 
L 15.28125 0 
z
" id="ArialMT-114"/>
      <path id="ArialMT-32"/>
      <path d="M 3.328125 25.921875 
Q 3.328125 40.328125 11.328125 47.265625 
Q 18.015625 53.03125 27.640625 53.03125 
Q 38.328125 53.03125 45.109375 46.015625 
Q 51.90625 39.015625 51.90625 26.65625 
Q 51.90625 16.65625 48.90625 10.90625 
Q 45.90625 5.171875 40.15625 2 
Q 34.421875 -1.171875 27.640625 -1.171875 
Q 16.75 -1.171875 10.03125 5.8125 
Q 3.328125 12.796875 3.328125 25.921875 
z
M 12.359375 25.921875 
Q 12.359375 15.96875 16.703125 11.015625 
Q 21.046875 6.0625 27.640625 6.0625 
Q 34.1875 6.0625 38.53125 11.03125 
Q 42.875 16.015625 42.875 26.21875 
Q 42.875 35.84375 38.5 40.796875 
Q 34.125 45.75 27.640625 45.75 
Q 21.046875 45.75 16.703125 40.8125 
Q 12.359375 35.890625 12.359375 25.921875 
z
" id="ArialMT-111"/>
      <path d="M 8.6875 0 
L 8.6875 45.015625 
L 0.921875 45.015625 
L 0.921875 51.859375 
L 8.6875 51.859375 
L 8.6875 57.375 
Q 8.6875 62.59375 9.625 65.140625 
Q 10.890625 68.5625 14.078125 70.671875 
Q 17.28125 72.796875 23.046875 72.796875 
Q 26.765625 72.796875 31.25 71.921875 
L 29.9375 64.265625 
Q 27.203125 64.75 24.75 64.75 
Q 20.75 64.75 19.09375 63.03125 
Q 17.4375 61.328125 17.4375 56.640625 
L 17.4375 51.859375 
L 27.546875 51.859375 
L 27.546875 45.015625 
L 17.4375 45.015625 
L 17.4375 0 
z
" id="ArialMT-102"/>
      <path d="M 6.640625 61.46875 
L 6.640625 71.578125 
L 15.4375 71.578125 
L 15.4375 61.46875 
z
M 6.640625 0 
L 6.640625 51.859375 
L 15.4375 51.859375 
L 15.4375 0 
z
" id="ArialMT-105"/>
      <path d="M 25.78125 7.859375 
L 27.046875 0.09375 
Q 23.34375 -0.6875 20.40625 -0.6875 
Q 15.625 -0.6875 12.984375 0.828125 
Q 10.359375 2.34375 9.28125 4.8125 
Q 8.203125 7.28125 8.203125 15.1875 
L 8.203125 45.015625 
L 1.765625 45.015625 
L 1.765625 51.859375 
L 8.203125 51.859375 
L 8.203125 64.703125 
L 16.9375 69.96875 
L 16.9375 51.859375 
L 25.78125 51.859375 
L 25.78125 45.015625 
L 16.9375 45.015625 
L 16.9375 14.703125 
Q 16.9375 10.9375 17.40625 9.859375 
Q 17.875 8.796875 18.921875 8.15625 
Q 19.96875 7.515625 21.921875 7.515625 
Q 23.390625 7.515625 25.78125 7.859375 
z
" id="ArialMT-116"/>
      <path d="M 3.078125 15.484375 
L 11.765625 16.84375 
Q 12.5 11.625 15.84375 8.84375 
Q 19.1875 6.0625 25.203125 6.0625 
Q 31.25 6.0625 34.171875 8.515625 
Q 37.109375 10.984375 37.109375 14.3125 
Q 37.109375 17.28125 34.515625 19 
Q 32.71875 20.171875 25.53125 21.96875 
Q 15.875 24.421875 12.140625 26.203125 
Q 8.40625 27.984375 6.46875 31.125 
Q 4.546875 34.28125 4.546875 38.09375 
Q 4.546875 41.546875 6.125 44.5 
Q 7.71875 47.46875 10.453125 49.421875 
Q 12.5 50.921875 16.03125 51.96875 
Q 19.578125 53.03125 23.640625 53.03125 
Q 29.734375 53.03125 34.34375 51.265625 
Q 38.96875 49.515625 41.15625 46.5 
Q 43.359375 43.5 44.1875 38.484375 
L 35.59375 37.3125 
Q 35.015625 41.3125 32.203125 43.546875 
Q 29.390625 45.796875 24.265625 45.796875 
Q 18.21875 45.796875 15.625 43.796875 
Q 13.03125 41.796875 13.03125 39.109375 
Q 13.03125 37.40625 14.109375 36.03125 
Q 15.1875 34.625 17.484375 33.6875 
Q 18.796875 33.203125 25.25 31.453125 
Q 34.578125 28.953125 38.25 27.359375 
Q 41.9375 25.78125 44.03125 22.75 
Q 46.140625 19.734375 46.140625 15.234375 
Q 46.140625 10.84375 43.578125 6.953125 
Q 41.015625 3.078125 36.171875 0.953125 
Q 31.34375 -1.171875 25.25 -1.171875 
Q 15.140625 -1.171875 9.84375 3.03125 
Q 4.546875 7.234375 3.078125 15.484375 
z
" id="ArialMT-115"/>
      <path d="M 7.71875 0 
L 7.71875 71.578125 
L 34.71875 71.578125 
Q 41.84375 71.578125 45.609375 70.90625 
Q 50.875 70.015625 54.4375 67.546875 
Q 58.015625 65.09375 60.1875 60.640625 
Q 62.359375 56.203125 62.359375 50.875 
Q 62.359375 41.75 56.546875 35.421875 
Q 50.734375 29.109375 35.546875 29.109375 
L 17.1875 29.109375 
L 17.1875 0 
z
M 17.1875 37.546875 
L 35.6875 37.546875 
Q 44.875 37.546875 48.734375 40.96875 
Q 52.59375 44.390625 52.59375 50.59375 
Q 52.59375 55.078125 50.3125 58.265625 
Q 48.046875 61.46875 44.34375 62.5 
Q 41.9375 63.140625 35.5 63.140625 
L 17.1875 63.140625 
z
" id="ArialMT-80"/>
      <path d="M 58.796875 25.09375 
L 68.265625 22.703125 
Q 65.28125 11.03125 57.546875 4.90625 
Q 49.8125 -1.21875 38.625 -1.21875 
Q 27.046875 -1.21875 19.796875 3.484375 
Q 12.546875 8.203125 8.765625 17.140625 
Q 4.984375 26.078125 4.984375 36.328125 
Q 4.984375 47.515625 9.25 55.828125 
Q 13.53125 64.15625 21.40625 68.46875 
Q 29.296875 72.796875 38.765625 72.796875 
Q 49.515625 72.796875 56.828125 67.328125 
Q 64.15625 61.859375 67.046875 51.953125 
L 57.71875 49.75 
Q 55.21875 57.5625 50.484375 61.125 
Q 45.75 64.703125 38.578125 64.703125 
Q 30.328125 64.703125 24.78125 60.734375 
Q 19.234375 56.78125 16.984375 50.109375 
Q 14.75 43.453125 14.75 36.375 
Q 14.75 27.25 17.40625 20.4375 
Q 20.0625 13.625 25.671875 10.25 
Q 31.296875 6.890625 37.84375 6.890625 
Q 45.796875 6.890625 51.3125 11.46875 
Q 56.84375 16.0625 58.796875 25.09375 
z
" id="ArialMT-67"/>
      <path d="M 6.390625 0 
L 6.390625 71.578125 
L 15.1875 71.578125 
L 15.1875 0 
z
" id="ArialMT-108"/>
     </defs>
     <g style="fill:#262626;opacity:0.7;" transform="translate(195.17 546.557227)scale(0.16 -0.16)">
      <use xlink:href="#ArialMT-78"/>
      <use x="72.216797" xlink:href="#ArialMT-117"/>
      <use x="127.832031" xlink:href="#ArialMT-109"/>
      <use x="211.132812" xlink:href="#ArialMT-98"/>
      <use x="266.748047" xlink:href="#ArialMT-101"/>
      <use x="322.363281" xlink:href="#ArialMT-114"/>
      <use x="355.664062" xlink:href="#ArialMT-32"/>
      <use x="383.447266" xlink:href="#ArialMT-111"/>
      <use x="439.0625" xlink:href="#ArialMT-102"/>
      <use x="466.845703" xlink:href="#ArialMT-32"/>
      <use x="494.628906" xlink:href="#ArialMT-78"/>
      <use x="566.845703" xlink:href="#ArialMT-101"/>
      <use x="622.460938" xlink:href="#ArialMT-117"/>
      <use x="678.076172" xlink:href="#ArialMT-114"/>
      <use x="711.376953" xlink:href="#ArialMT-105"/>
      <use x="733.59375" xlink:href="#ArialMT-116"/>
      <use x="761.376953" xlink:href="#ArialMT-101"/>
      <use x="816.992188" xlink:href="#ArialMT-115"/>
      <use x="866.992188" xlink:href="#ArialMT-32"/>
      <use x="894.775391" xlink:href="#ArialMT-80"/>
      <use x="961.474609" xlink:href="#ArialMT-101"/>
      <use x="1017.089844" xlink:href="#ArialMT-114"/>
      <use x="1050.390625" xlink:href="#ArialMT-32"/>
      <use x="1078.173828" xlink:href="#ArialMT-67"/>
      <use x="1150.390625" xlink:href="#ArialMT-101"/>
      <use x="1206.005859" xlink:href="#ArialMT-108"/>
      <use x="1228.222656" xlink:href="#ArialMT-108"/>
     </g>
    </g>
   </g>
   <g id="matplotlib.axis_2">
    <g id="ytick_1">
     <g id="line2d_9">
      <defs>
       <path d="M 0 0 
L -6 0 
" id="m9e4b92ecc8" style="stroke:#262626;stroke-width:1.25;"/>
      </defs>
      <g>
       <use style="fill:#262626;stroke:#262626;stroke-width:1.25;" x="72" xlink:href="#m9e4b92ecc8" y="100.182857"/>
      </g>
     </g>
     <g id="text_10">
      <!-- 0.5 -->
      <defs>
       <path d="M 9.078125 0 
L 9.078125 10.015625 
L 19.09375 10.015625 
L 19.09375 0 
z
" id="ArialMT-46"/>
       <path d="M 4.15625 18.75 
L 13.375 19.53125 
Q 14.40625 12.796875 18.140625 9.390625 
Q 21.875 6 27.15625 6 
Q 33.5 6 37.890625 10.78125 
Q 42.28125 15.578125 42.28125 23.484375 
Q 42.28125 31 38.0625 35.34375 
Q 33.84375 39.703125 27 39.703125 
Q 22.75 39.703125 19.328125 37.765625 
Q 15.921875 35.84375 13.96875 32.765625 
L 5.71875 33.84375 
L 12.640625 70.609375 
L 48.25 70.609375 
L 48.25 62.203125 
L 19.671875 62.203125 
L 15.828125 42.96875 
Q 22.265625 47.46875 29.34375 47.46875 
Q 38.71875 47.46875 45.15625 40.96875 
Q 51.609375 34.46875 51.609375 24.265625 
Q 51.609375 14.546875 45.953125 7.46875 
Q 39.0625 -1.21875 27.15625 -1.21875 
Q 17.390625 -1.21875 11.203125 4.25 
Q 5.03125 9.71875 4.15625 18.75 
z
" id="ArialMT-53"/>
      </defs>
      <g style="fill:#262626;" transform="translate(35.7425 107.072252)scale(0.1925 -0.1925)">
       <use xlink:href="#ArialMT-48"/>
       <use x="55.615234" xlink:href="#ArialMT-46"/>
       <use x="83.398438" xlink:href="#ArialMT-53"/>
      </g>
     </g>
    </g>
    <g id="ytick_2">
     <g id="line2d_10">
      <g>
       <use style="fill:#262626;stroke:#262626;stroke-width:1.25;" x="72" xlink:href="#m9e4b92ecc8" y="162.308571"/>
      </g>
     </g>
     <g id="text_11">
      <!-- 1.0 -->
      <g style="fill:#262626;" transform="translate(35.7425 169.197966)scale(0.1925 -0.1925)">
       <use xlink:href="#ArialMT-49"/>
       <use x="55.615234" xlink:href="#ArialMT-46"/>
       <use x="83.398438" xlink:href="#ArialMT-48"/>
      </g>
     </g>
    </g>
    <g id="ytick_3">
     <g id="line2d_11">
      <g>
       <use style="fill:#262626;stroke:#262626;stroke-width:1.25;" x="72" xlink:href="#m9e4b92ecc8" y="224.434286"/>
      </g>
     </g>
     <g id="text_12">
      <!-- 1.5 -->
      <g style="fill:#262626;" transform="translate(35.7425 231.32368)scale(0.1925 -0.1925)">
       <use xlink:href="#ArialMT-49"/>
       <use x="55.615234" xlink:href="#ArialMT-46"/>
       <use x="83.398438" xlink:href="#ArialMT-53"/>
      </g>
     </g>
    </g>
    <g id="ytick_4">
     <g id="line2d_12">
      <g>
       <use style="fill:#262626;stroke:#262626;stroke-width:1.25;" x="72" xlink:href="#m9e4b92ecc8" y="286.56"/>
      </g>
     </g>
     <g id="text_13">
      <!-- 2.0 -->
      <g style="fill:#262626;" transform="translate(35.7425 293.449395)scale(0.1925 -0.1925)">
       <use xlink:href="#ArialMT-50"/>
       <use x="55.615234" xlink:href="#ArialMT-46"/>
       <use x="83.398438" xlink:href="#ArialMT-48"/>
      </g>
     </g>
    </g>
    <g id="ytick_5">
     <g id="line2d_13">
      <g>
       <use style="fill:#262626;stroke:#262626;stroke-width:1.25;" x="72" xlink:href="#m9e4b92ecc8" y="348.685714"/>
      </g>
     </g>
     <g id="text_14">
      <!-- 3.0 -->
      <defs>
       <path d="M 4.203125 18.890625 
L 12.984375 20.0625 
Q 14.5 12.59375 18.140625 9.296875 
Q 21.78125 6 27 6 
Q 33.203125 6 37.46875 10.296875 
Q 41.75 14.59375 41.75 20.953125 
Q 41.75 27 37.796875 30.921875 
Q 33.84375 34.859375 27.734375 34.859375 
Q 25.25 34.859375 21.53125 33.890625 
L 22.515625 41.609375 
Q 23.390625 41.5 23.921875 41.5 
Q 29.546875 41.5 34.03125 44.421875 
Q 38.53125 47.359375 38.53125 53.46875 
Q 38.53125 58.296875 35.25 61.46875 
Q 31.984375 64.65625 26.8125 64.65625 
Q 21.6875 64.65625 18.265625 61.421875 
Q 14.84375 58.203125 13.875 51.765625 
L 5.078125 53.328125 
Q 6.6875 62.15625 12.390625 67.015625 
Q 18.109375 71.875 26.609375 71.875 
Q 32.46875 71.875 37.390625 69.359375 
Q 42.328125 66.84375 44.9375 62.5 
Q 47.5625 58.15625 47.5625 53.265625 
Q 47.5625 48.640625 45.0625 44.828125 
Q 42.578125 41.015625 37.703125 38.765625 
Q 44.046875 37.3125 47.5625 32.6875 
Q 51.078125 28.078125 51.078125 21.140625 
Q 51.078125 11.765625 44.234375 5.25 
Q 37.40625 -1.265625 26.953125 -1.265625 
Q 17.53125 -1.265625 11.296875 4.34375 
Q 5.078125 9.96875 4.203125 18.890625 
z
" id="ArialMT-51"/>
      </defs>
      <g style="fill:#262626;" transform="translate(35.7425 355.575109)scale(0.1925 -0.1925)">
       <use xlink:href="#ArialMT-51"/>
       <use x="55.615234" xlink:href="#ArialMT-46"/>
       <use x="83.398438" xlink:href="#ArialMT-48"/>
      </g>
     </g>
    </g>
    <g id="ytick_6">
     <g id="line2d_14">
      <g>
       <use style="fill:#262626;stroke:#262626;stroke-width:1.25;" x="72" xlink:href="#m9e4b92ecc8" y="410.811429"/>
      </g>
     </g>
     <g id="text_15">
      <!-- 4.0 -->
      <g style="fill:#262626;" transform="translate(35.7425 417.700823)scale(0.1925 -0.1925)">
       <use xlink:href="#ArialMT-52"/>
       <use x="55.615234" xlink:href="#ArialMT-46"/>
       <use x="83.398438" xlink:href="#ArialMT-48"/>
      </g>
     </g>
    </g>
    <g id="ytick_7">
     <g id="line2d_15">
      <g>
       <use style="fill:#262626;stroke:#262626;stroke-width:1.25;" x="72" xlink:href="#m9e4b92ecc8" y="472.937143"/>
      </g>
     </g>
     <g id="text_16">
      <!-- 6.0 -->
      <g style="fill:#262626;" transform="translate(35.7425 479.826537)scale(0.1925 -0.1925)">
       <use xlink:href="#ArialMT-54"/>
       <use x="55.615234" xlink:href="#ArialMT-46"/>
       <use x="83.398438" xlink:href="#ArialMT-48"/>
      </g>
     </g>
    </g>
    <g id="text_17">
     <!-- Days in Vitro (DIV) -->
     <defs>
      <path d="M 7.71875 0 
L 7.71875 71.578125 
L 32.375 71.578125 
Q 40.71875 71.578125 45.125 70.5625 
Q 51.265625 69.140625 55.609375 65.4375 
Q 61.28125 60.640625 64.078125 53.1875 
Q 66.890625 45.75 66.890625 36.1875 
Q 66.890625 28.03125 64.984375 21.734375 
Q 63.09375 15.4375 60.109375 11.296875 
Q 57.125 7.171875 53.578125 4.796875 
Q 50.046875 2.4375 45.046875 1.21875 
Q 40.046875 0 33.546875 0 
z
M 17.1875 8.453125 
L 32.46875 8.453125 
Q 39.546875 8.453125 43.578125 9.765625 
Q 47.609375 11.078125 50 13.484375 
Q 53.375 16.84375 55.25 22.53125 
Q 57.125 28.21875 57.125 36.328125 
Q 57.125 47.5625 53.4375 53.59375 
Q 49.75 59.625 44.484375 61.671875 
Q 40.671875 63.140625 32.234375 63.140625 
L 17.1875 63.140625 
z
" id="ArialMT-68"/>
      <path d="M 40.4375 6.390625 
Q 35.546875 2.25 31.03125 0.53125 
Q 26.515625 -1.171875 21.34375 -1.171875 
Q 12.796875 -1.171875 8.203125 3 
Q 3.609375 7.171875 3.609375 13.671875 
Q 3.609375 17.484375 5.34375 20.625 
Q 7.078125 23.78125 9.890625 25.6875 
Q 12.703125 27.59375 16.21875 28.5625 
Q 18.796875 29.25 24.03125 29.890625 
Q 34.671875 31.15625 39.703125 32.90625 
Q 39.75 34.71875 39.75 35.203125 
Q 39.75 40.578125 37.25 42.78125 
Q 33.890625 45.75 27.25 45.75 
Q 21.046875 45.75 18.09375 43.578125 
Q 15.140625 41.40625 13.71875 35.890625 
L 5.125 37.0625 
Q 6.296875 42.578125 8.984375 45.96875 
Q 11.671875 49.359375 16.75 51.1875 
Q 21.828125 53.03125 28.515625 53.03125 
Q 35.15625 53.03125 39.296875 51.46875 
Q 43.453125 49.90625 45.40625 47.53125 
Q 47.359375 45.171875 48.140625 41.546875 
Q 48.578125 39.3125 48.578125 33.453125 
L 48.578125 21.734375 
Q 48.578125 9.46875 49.140625 6.21875 
Q 49.703125 2.984375 51.375 0 
L 42.1875 0 
Q 40.828125 2.734375 40.4375 6.390625 
z
M 39.703125 26.03125 
Q 34.90625 24.078125 25.34375 22.703125 
Q 19.921875 21.921875 17.671875 20.9375 
Q 15.4375 19.96875 14.203125 18.09375 
Q 12.984375 16.21875 12.984375 13.921875 
Q 12.984375 10.40625 15.640625 8.0625 
Q 18.3125 5.71875 23.4375 5.71875 
Q 28.515625 5.71875 32.46875 7.9375 
Q 36.421875 10.15625 38.28125 14.015625 
Q 39.703125 17 39.703125 22.796875 
z
" id="ArialMT-97"/>
      <path d="M 6.203125 -19.96875 
L 5.21875 -11.71875 
Q 8.109375 -12.5 10.25 -12.5 
Q 13.1875 -12.5 14.9375 -11.515625 
Q 16.703125 -10.546875 17.828125 -8.796875 
Q 18.65625 -7.46875 20.515625 -2.25 
Q 20.75 -1.515625 21.296875 -0.09375 
L 1.609375 51.859375 
L 11.078125 51.859375 
L 21.875 21.828125 
Q 23.96875 16.109375 25.640625 9.8125 
Q 27.15625 15.875 29.25 21.625 
L 40.328125 51.859375 
L 49.125 51.859375 
L 29.390625 -0.875 
Q 26.21875 -9.421875 24.46875 -12.640625 
Q 22.125 -17 19.09375 -19.015625 
Q 16.0625 -21.046875 11.859375 -21.046875 
Q 9.328125 -21.046875 6.203125 -19.96875 
z
" id="ArialMT-121"/>
      <path d="M 6.59375 0 
L 6.59375 51.859375 
L 14.5 51.859375 
L 14.5 44.484375 
Q 20.21875 53.03125 31 53.03125 
Q 35.6875 53.03125 39.625 51.34375 
Q 43.5625 49.65625 45.515625 46.921875 
Q 47.46875 44.1875 48.25 40.4375 
Q 48.734375 37.984375 48.734375 31.890625 
L 48.734375 0 
L 39.9375 0 
L 39.9375 31.546875 
Q 39.9375 36.921875 38.90625 39.578125 
Q 37.890625 42.234375 35.28125 43.8125 
Q 32.671875 45.40625 29.15625 45.40625 
Q 23.53125 45.40625 19.453125 41.84375 
Q 15.375 38.28125 15.375 28.328125 
L 15.375 0 
z
" id="ArialMT-110"/>
      <path d="M 28.171875 0 
L 0.4375 71.578125 
L 10.6875 71.578125 
L 29.296875 19.578125 
Q 31.546875 13.328125 33.0625 7.859375 
Q 34.71875 13.71875 36.921875 19.578125 
L 56.25 71.578125 
L 65.921875 71.578125 
L 37.890625 0 
z
" id="ArialMT-86"/>
      <path d="M 23.390625 -21.046875 
Q 16.109375 -11.859375 11.078125 0.4375 
Q 6.0625 12.75 6.0625 25.921875 
Q 6.0625 37.546875 9.8125 48.1875 
Q 14.203125 60.546875 23.390625 72.796875 
L 29.6875 72.796875 
Q 23.78125 62.640625 21.875 58.296875 
Q 18.890625 51.5625 17.1875 44.234375 
Q 15.09375 35.109375 15.09375 25.875 
Q 15.09375 2.390625 29.6875 -21.046875 
z
" id="ArialMT-40"/>
      <path d="M 9.328125 0 
L 9.328125 71.578125 
L 18.796875 71.578125 
L 18.796875 0 
z
" id="ArialMT-73"/>
      <path d="M 12.359375 -21.046875 
L 6.0625 -21.046875 
Q 20.65625 2.390625 20.65625 25.875 
Q 20.65625 35.0625 18.5625 44.09375 
Q 16.890625 51.421875 13.921875 58.15625 
Q 12.015625 62.546875 6.0625 72.796875 
L 12.359375 72.796875 
Q 21.53125 60.546875 25.921875 48.1875 
Q 29.6875 37.546875 29.6875 25.921875 
Q 29.6875 12.75 24.625 0.4375 
Q 19.578125 -11.859375 12.359375 -21.046875 
z
" id="ArialMT-41"/>
     </defs>
     <g style="fill:#262626;opacity:0.7;" transform="translate(28.375 352.79125)rotate(-90)scale(0.16 -0.16)">
      <use xlink:href="#ArialMT-68"/>
      <use x="72.216797" xlink:href="#ArialMT-97"/>
      <use x="127.832031" xlink:href="#ArialMT-121"/>
      <use x="177.832031" xlink:href="#ArialMT-115"/>
      <use x="227.832031" xlink:href="#ArialMT-32"/>
      <use x="255.615234" xlink:href="#ArialMT-105"/>
      <use x="277.832031" xlink:href="#ArialMT-110"/>
      <use x="333.447266" xlink:href="#ArialMT-32"/>
      <use x="361.230469" xlink:href="#ArialMT-86"/>
      <use x="427.914062" xlink:href="#ArialMT-105"/>
      <use x="450.130859" xlink:href="#ArialMT-116"/>
      <use x="477.914062" xlink:href="#ArialMT-114"/>
      <use x="511.214844" xlink:href="#ArialMT-111"/>
      <use x="566.830078" xlink:href="#ArialMT-32"/>
      <use x="594.613281" xlink:href="#ArialMT-40"/>
      <use x="627.914062" xlink:href="#ArialMT-68"/>
      <use x="700.130859" xlink:href="#ArialMT-73"/>
      <use x="727.914062" xlink:href="#ArialMT-86"/>
      <use x="794.613281" xlink:href="#ArialMT-41"/>
     </g>
    </g>
   </g>
   <g id="PolyCollection_1">
    <defs>
     <path d="M 103.885714 -451.729378 
L 103.885714 -499.904908 
L 104.851948 -500.155822 
L 105.818182 -500.353902 
L 106.784416 -500.501181 
L 107.750649 -500.600314 
L 108.716883 -500.654507 
L 109.683117 -500.667429 
L 110.649351 -500.643123 
L 111.615584 -500.585906 
L 112.581818 -500.500257 
L 113.548052 -500.39071 
L 114.514286 -500.261746 
L 115.480519 -500.11769 
L 116.446753 -499.962609 
L 117.412987 -499.800224 
L 118.379221 -499.633837 
L 119.345455 -499.466263 
L 120.311688 -499.299786 
L 121.277922 -499.136127 
L 122.244156 -498.976429 
L 123.21039 -498.821264 
L 124.176623 -498.670651 
L 125.142857 -498.524094 
L 126.109091 -498.380634 
L 127.075325 -498.23891 
L 128.041558 -498.097233 
L 129.007792 -497.953673 
L 129.974026 -497.806136 
L 130.94026 -497.652461 
L 131.906494 -497.490505 
L 132.872727 -497.318226 
L 133.838961 -497.133761 
L 134.805195 -496.935498 
L 135.771429 -496.722133 
L 136.737662 -496.492717 
L 137.703896 -496.246694 
L 138.67013 -495.983911 
L 139.636364 -495.704635 
L 140.602597 -495.409536 
L 141.568831 -495.099672 
L 142.535065 -494.776448 
L 143.501299 -494.44158 
L 144.467532 -494.097035 
L 145.433766 -493.744974 
L 146.4 -493.387691 
L 147.366234 -493.02754 
L 148.332468 -492.666874 
L 149.298701 -492.307977 
L 150.264935 -491.953009 
L 151.231169 -491.603947 
L 152.197403 -491.262541 
L 153.163636 -490.930281 
L 154.12987 -490.608362 
L 155.096104 -490.297676 
L 156.062338 -489.998798 
L 157.028571 -489.711997 
L 157.994805 -489.437245 
L 158.961039 -489.174241 
L 159.927273 -488.922444 
L 160.893506 -488.681105 
L 161.85974 -488.449313 
L 162.825974 -488.226039 
L 163.792208 -488.010178 
L 164.758442 -487.800601 
L 165.724675 -487.596193 
L 166.690909 -487.395897 
L 167.657143 -487.198751 
L 168.623377 -487.003915 
L 169.58961 -486.810697 
L 170.555844 -486.618569 
L 171.522078 -486.427174 
L 172.488312 -486.236334 
L 173.454545 -486.046036 
L 174.420779 -485.856427 
L 175.387013 -485.667794 
L 176.353247 -485.480536 
L 177.319481 -485.295146 
L 178.285714 -485.112174 
L 179.251948 -484.932197 
L 180.218182 -484.75579 
L 181.184416 -484.58349 
L 182.150649 -484.415773 
L 183.116883 -484.253022 
L 184.083117 -484.095509 
L 185.049351 -483.943376 
L 186.015584 -483.796621 
L 186.981818 -483.655095 
L 187.948052 -483.518497 
L 188.914286 -483.386378 
L 189.880519 -483.258153 
L 190.846753 -483.133115 
L 191.812987 -483.010451 
L 192.779221 -482.889267 
L 193.745455 -482.768608 
L 194.711688 -482.647493 
L 195.677922 -482.524932 
L 196.644156 -482.399963 
L 197.61039 -482.271674 
L 198.576623 -482.139228 
L 199.542857 -482.001888 
L 199.542857 -469.632398 
L 199.542857 -469.632398 
L 198.576623 -469.495058 
L 197.61039 -469.362612 
L 196.644156 -469.234322 
L 195.677922 -469.109354 
L 194.711688 -468.986793 
L 193.745455 -468.865677 
L 192.779221 -468.745019 
L 191.812987 -468.623834 
L 190.846753 -468.501171 
L 189.880519 -468.376133 
L 188.914286 -468.247908 
L 187.948052 -468.115789 
L 186.981818 -467.97919 
L 186.015584 -467.837664 
L 185.049351 -467.69091 
L 184.083117 -467.538776 
L 183.116883 -467.381264 
L 182.150649 -467.218513 
L 181.184416 -467.050795 
L 180.218182 -466.878496 
L 179.251948 -466.702089 
L 178.285714 -466.522112 
L 177.319481 -466.33914 
L 176.353247 -466.15375 
L 175.387013 -465.966492 
L 174.420779 -465.777858 
L 173.454545 -465.58825 
L 172.488312 -465.397952 
L 171.522078 -465.207111 
L 170.555844 -465.015717 
L 169.58961 -464.823588 
L 168.623377 -464.63037 
L 167.657143 -464.435535 
L 166.690909 -464.238389 
L 165.724675 -464.038093 
L 164.758442 -463.833685 
L 163.792208 -463.624107 
L 162.825974 -463.408247 
L 161.85974 -463.184972 
L 160.893506 -462.953181 
L 159.927273 -462.711842 
L 158.961039 -462.460045 
L 157.994805 -462.197041 
L 157.028571 -461.922288 
L 156.062338 -461.635487 
L 155.096104 -461.33661 
L 154.12987 -461.025923 
L 153.163636 -460.704005 
L 152.197403 -460.371744 
L 151.231169 -460.030339 
L 150.264935 -459.681277 
L 149.298701 -459.326308 
L 148.332468 -458.967412 
L 147.366234 -458.606746 
L 146.4 -458.246595 
L 145.433766 -457.889311 
L 144.467532 -457.537251 
L 143.501299 -457.192706 
L 142.535065 -456.857837 
L 141.568831 -456.534614 
L 140.602597 -456.224749 
L 139.636364 -455.929651 
L 138.67013 -455.650375 
L 137.703896 -455.387592 
L 136.737662 -455.141568 
L 135.771429 -454.912153 
L 134.805195 -454.698788 
L 133.838961 -454.500525 
L 132.872727 -454.31606 
L 131.906494 -454.143781 
L 130.94026 -453.981825 
L 129.974026 -453.82815 
L 129.007792 -453.680613 
L 128.041558 -453.537052 
L 127.075325 -453.395376 
L 126.109091 -453.253651 
L 125.142857 -453.110191 
L 124.176623 -452.963635 
L 123.21039 -452.813022 
L 122.244156 -452.657857 
L 121.277922 -452.498159 
L 120.311688 -452.3345 
L 119.345455 -452.168023 
L 118.379221 -452.000449 
L 117.412987 -451.834062 
L 116.446753 -451.671677 
L 115.480519 -451.516595 
L 114.514286 -451.372539 
L 113.548052 -451.243576 
L 112.581818 -451.134029 
L 111.615584 -451.048379 
L 110.649351 -450.991162 
L 109.683117 -450.966857 
L 108.716883 -450.979779 
L 107.750649 -451.033971 
L 106.784416 -451.133105 
L 105.818182 -451.280384 
L 104.851948 -451.478463 
L 103.885714 -451.729378 
z
" id="m6d33d77b92" style="stroke:#494949;stroke-width:1.5;"/>
    </defs>
    <g clip-path="url(#p37abe0f875)">
     <use style="fill:#5875a4;stroke:#494949;stroke-width:1.5;" x="0" xlink:href="#m6d33d77b92" y="576"/>
    </g>
   </g>
   <g id="PolyCollection_2">
    <defs>
     <path d="M 103.885714 -390.778054 
L 103.885714 -436.604803 
L 105.174026 -436.934461 
L 106.462338 -437.187781 
L 107.750649 -437.368066 
L 109.038961 -437.479857 
L 110.327273 -437.528728 
L 111.615584 -437.521042 
L 112.903896 -437.463695 
L 114.192208 -437.363833 
L 115.480519 -437.228588 
L 116.768831 -437.064811 
L 118.057143 -436.878845 
L 119.345455 -436.676322 
L 120.633766 -436.462013 
L 121.922078 -436.239721 
L 123.21039 -436.012232 
L 124.498701 -435.781313 
L 125.787013 -435.547769 
L 127.075325 -435.31154 
L 128.363636 -435.071839 
L 129.651948 -434.827318 
L 130.94026 -434.576255 
L 132.228571 -434.316747 
L 133.516883 -434.0469 
L 134.805195 -433.76501 
L 136.093506 -433.469712 
L 137.381818 -433.160105 
L 138.67013 -432.835841 
L 139.958442 -432.497169 
L 141.246753 -432.144944 
L 142.535065 -431.780597 
L 143.823377 -431.406063 
L 145.111688 -431.023691 
L 146.4 -430.636121 
L 147.688312 -430.246152 
L 148.976623 -429.856606 
L 150.264935 -429.470189 
L 151.553247 -429.089371 
L 152.841558 -428.716275 
L 154.12987 -428.352599 
L 155.418182 -427.999557 
L 156.706494 -427.657854 
L 157.994805 -427.327692 
L 159.283117 -427.008799 
L 160.571429 -426.700487 
L 161.85974 -426.401732 
L 163.148052 -426.111259 
L 164.436364 -425.827649 
L 165.724675 -425.549437 
L 167.012987 -425.275213 
L 168.301299 -425.003709 
L 169.58961 -424.73387 
L 170.877922 -424.464915 
L 172.166234 -424.196364 
L 173.454545 -423.928058 
L 174.742857 -423.660148 
L 176.031169 -423.393065 
L 177.319481 -423.127478 
L 178.607792 -422.864237 
L 179.896104 -422.604304 
L 181.184416 -422.348683 
L 182.472727 -422.098353 
L 183.761039 -421.854198 
L 185.049351 -421.616955 
L 186.337662 -421.387165 
L 187.625974 -421.165145 
L 188.914286 -420.950971 
L 190.202597 -420.744479 
L 191.490909 -420.545278 
L 192.779221 -420.352779 
L 194.067532 -420.166232 
L 195.355844 -419.984777 
L 196.644156 -419.807488 
L 197.932468 -419.633432 
L 199.220779 -419.46172 
L 200.509091 -419.291549 
L 201.797403 -419.122247 
L 203.085714 -418.953299 
L 204.374026 -418.784367 
L 205.662338 -418.615304 
L 206.950649 -418.446144 
L 208.238961 -418.277096 
L 209.527273 -418.108517 
L 210.815584 -417.940888 
L 212.103896 -417.77478 
L 213.392208 -417.61081 
L 214.680519 -417.449615 
L 215.968831 -417.291805 
L 217.257143 -417.137939 
L 218.545455 -416.988489 
L 219.833766 -416.843828 
L 221.122078 -416.704208 
L 222.41039 -416.569758 
L 223.698701 -416.44048 
L 224.987013 -416.316262 
L 226.275325 -416.196886 
L 227.563636 -416.082047 
L 228.851948 -415.971376 
L 230.14026 -415.864462 
L 231.428571 -415.760877 
L 231.428571 -411.62198 
L 231.428571 -411.62198 
L 230.14026 -411.518395 
L 228.851948 -411.411482 
L 227.563636 -411.300811 
L 226.275325 -411.185971 
L 224.987013 -411.066595 
L 223.698701 -410.942377 
L 222.41039 -410.813099 
L 221.122078 -410.678649 
L 219.833766 -410.539029 
L 218.545455 -410.394368 
L 217.257143 -410.244918 
L 215.968831 -410.091052 
L 214.680519 -409.933242 
L 213.392208 -409.772047 
L 212.103896 -409.608078 
L 210.815584 -409.441969 
L 209.527273 -409.27434 
L 208.238961 -409.105762 
L 206.950649 -408.936713 
L 205.662338 -408.767553 
L 204.374026 -408.59849 
L 203.085714 -408.429558 
L 201.797403 -408.26061 
L 200.509091 -408.091308 
L 199.220779 -407.921137 
L 197.932468 -407.749425 
L 196.644156 -407.57537 
L 195.355844 -407.398081 
L 194.067532 -407.216625 
L 192.779221 -407.030079 
L 191.490909 -406.837579 
L 190.202597 -406.638378 
L 188.914286 -406.431886 
L 187.625974 -406.217712 
L 186.337662 -405.995692 
L 185.049351 -405.765902 
L 183.761039 -405.528659 
L 182.472727 -405.284504 
L 181.184416 -405.034174 
L 179.896104 -404.778553 
L 178.607792 -404.51862 
L 177.319481 -404.255379 
L 176.031169 -403.989792 
L 174.742857 -403.722709 
L 173.454545 -403.454799 
L 172.166234 -403.186493 
L 170.877922 -402.917943 
L 169.58961 -402.648987 
L 168.301299 -402.379148 
L 167.012987 -402.107644 
L 165.724675 -401.83342 
L 164.436364 -401.555209 
L 163.148052 -401.271598 
L 161.85974 -400.981125 
L 160.571429 -400.68237 
L 159.283117 -400.374058 
L 157.994805 -400.055165 
L 156.706494 -399.725003 
L 155.418182 -399.3833 
L 154.12987 -399.030258 
L 152.841558 -398.666582 
L 151.553247 -398.293486 
L 150.264935 -397.912668 
L 148.976623 -397.526251 
L 147.688312 -397.136705 
L 146.4 -396.746736 
L 145.111688 -396.359166 
L 143.823377 -395.976794 
L 142.535065 -395.602261 
L 141.246753 -395.237913 
L 139.958442 -394.885689 
L 138.67013 -394.547016 
L 137.381818 -394.222752 
L 136.093506 -393.913145 
L 134.805195 -393.617847 
L 133.516883 -393.335957 
L 132.228571 -393.066111 
L 130.94026 -392.806602 
L 129.651948 -392.555539 
L 128.363636 -392.311018 
L 127.075325 -392.071317 
L 125.787013 -391.835088 
L 124.498701 -391.601544 
L 123.21039 -391.370625 
L 121.922078 -391.143136 
L 120.633766 -390.920844 
L 119.345455 -390.706535 
L 118.057143 -390.504012 
L 116.768831 -390.318046 
L 115.480519 -390.154269 
L 114.192208 -390.019024 
L 112.903896 -389.919162 
L 111.615584 -389.861815 
L 110.327273 -389.85413 
L 109.038961 -389.903 
L 107.750649 -390.014791 
L 106.462338 -390.195076 
L 105.174026 -390.448396 
L 103.885714 -390.778054 
z
" id="m8b976d0d3e" style="stroke:#494949;stroke-width:1.5;"/>
    </defs>
    <g clip-path="url(#p37abe0f875)">
     <use style="fill:#cc8963;stroke:#494949;stroke-width:1.5;" x="0" xlink:href="#m8b976d0d3e" y="576"/>
    </g>
   </g>
   <g id="PolyCollection_3">
    <defs>
     <path d="M 103.885714 -334.043548 
L 103.885714 -369.08788 
L 107.750649 -369.482189 
L 111.615584 -369.619215 
L 115.480519 -369.513586 
L 119.345455 -369.192847 
L 123.21039 -368.694244 
L 127.075325 -368.060793 
L 130.94026 -367.337203 
L 134.805195 -366.566103 
L 138.67013 -365.784996 
L 142.535065 -365.024154 
L 146.4 -364.305569 
L 150.264935 -363.642864 
L 154.12987 -363.042016 
L 157.994805 -362.502634 
L 161.85974 -362.019539 
L 165.724675 -361.584402 
L 169.58961 -361.187263 
L 173.454545 -360.817788 
L 177.319481 -360.466221 
L 181.184416 -360.124016 
L 185.049351 -359.784193 
L 188.914286 -359.44147 
L 192.779221 -359.092253 
L 196.644156 -358.734512 
L 200.509091 -358.367625 
L 204.374026 -357.992181 
L 208.238961 -357.609776 
L 212.103896 -357.222804 
L 215.968831 -356.834243 
L 219.833766 -356.447443 
L 223.698701 -356.065929 
L 227.563636 -355.693221 
L 231.428571 -355.332683 
L 235.293506 -354.987403 
L 239.158442 -354.660101 
L 243.023377 -354.353061 
L 246.888312 -354.06808 
L 250.753247 -353.806425 
L 254.618182 -353.5688 
L 258.483117 -353.355321 
L 262.348052 -353.165511 
L 266.212987 -352.998323 
L 270.077922 -352.852192 
L 273.942857 -352.72513 
L 277.807792 -352.614856 
L 281.672727 -352.518958 
L 285.537662 -352.435059 
L 289.402597 -352.360991 
L 293.267532 -352.294936 
L 297.132468 -352.235531 
L 300.997403 -352.181914 
L 304.862338 -352.133709 
L 308.727273 -352.090953 
L 312.592208 -352.053967 
L 316.457143 -352.023196 
L 320.322078 -351.99903 
L 324.187013 -351.981643 
L 328.051948 -351.970857 
L 331.916883 -351.966062 
L 335.781818 -351.966198 
L 339.646753 -351.969806 
L 343.511688 -351.975135 
L 347.376623 -351.980295 
L 351.241558 -351.98344 
L 355.106494 -351.982938 
L 358.971429 -351.977535 
L 362.836364 -351.966457 
L 366.701299 -351.949471 
L 370.566234 -351.926872 
L 374.431169 -351.899426 
L 378.296104 -351.868259 
L 382.161039 -351.834726 
L 386.025974 -351.800262 
L 389.890909 -351.766259 
L 393.755844 -351.733956 
L 397.620779 -351.704371 
L 401.485714 -351.678267 
L 405.350649 -351.656162 
L 409.215584 -351.638354 
L 413.080519 -351.624983 
L 416.945455 -351.616084 
L 420.81039 -351.611641 
L 424.675325 -351.611638 
L 428.54026 -351.616073 
L 432.405195 -351.62496 
L 436.27013 -351.63831 
L 440.135065 -351.65608 
L 444 -351.678121 
L 447.864935 -351.704114 
L 451.72987 -351.733514 
L 455.594805 -351.765513 
L 459.45974 -351.79903 
L 463.324675 -351.832731 
L 467.18961 -351.865097 
L 471.054545 -351.894512 
L 474.919481 -351.919393 
L 478.784416 -351.938316 
L 482.649351 -351.950155 
L 486.514286 -351.954183 
L 486.514286 -351.177246 
L 486.514286 -351.177246 
L 482.649351 -351.181274 
L 478.784416 -351.193112 
L 474.919481 -351.212036 
L 471.054545 -351.236916 
L 467.18961 -351.266332 
L 463.324675 -351.298697 
L 459.45974 -351.332399 
L 455.594805 -351.365915 
L 451.72987 -351.397915 
L 447.864935 -351.427314 
L 444 -351.453307 
L 440.135065 -351.475348 
L 436.27013 -351.493118 
L 432.405195 -351.506468 
L 428.54026 -351.515356 
L 424.675325 -351.51979 
L 420.81039 -351.519787 
L 416.945455 -351.515345 
L 413.080519 -351.506445 
L 409.215584 -351.493074 
L 405.350649 -351.475267 
L 401.485714 -351.453161 
L 397.620779 -351.427058 
L 393.755844 -351.397472 
L 389.890909 -351.36517 
L 386.025974 -351.331167 
L 382.161039 -351.296703 
L 378.296104 -351.263169 
L 374.431169 -351.232003 
L 370.566234 -351.204557 
L 366.701299 -351.181958 
L 362.836364 -351.164971 
L 358.971429 -351.153893 
L 355.106494 -351.14849 
L 351.241558 -351.147989 
L 347.376623 -351.151133 
L 343.511688 -351.156294 
L 339.646753 -351.161622 
L 335.781818 -351.16523 
L 331.916883 -351.165367 
L 328.051948 -351.160571 
L 324.187013 -351.149785 
L 320.322078 -351.132398 
L 316.457143 -351.108233 
L 312.592208 -351.077462 
L 308.727273 -351.040476 
L 304.862338 -350.99772 
L 300.997403 -350.949515 
L 297.132468 -350.895897 
L 293.267532 -350.836493 
L 289.402597 -350.770438 
L 285.537662 -350.69637 
L 281.672727 -350.612471 
L 277.807792 -350.516572 
L 273.942857 -350.406299 
L 270.077922 -350.279236 
L 266.212987 -350.133105 
L 262.348052 -349.965917 
L 258.483117 -349.776108 
L 254.618182 -349.562629 
L 250.753247 -349.325004 
L 246.888312 -349.063349 
L 243.023377 -348.778368 
L 239.158442 -348.471328 
L 235.293506 -348.144026 
L 231.428571 -347.798746 
L 227.563636 -347.438208 
L 223.698701 -347.0655 
L 219.833766 -346.683986 
L 215.968831 -346.297186 
L 212.103896 -345.908624 
L 208.238961 -345.521652 
L 204.374026 -345.139247 
L 200.509091 -344.763803 
L 196.644156 -344.396917 
L 192.779221 -344.039176 
L 188.914286 -343.689958 
L 185.049351 -343.347236 
L 181.184416 -343.007412 
L 177.319481 -342.665207 
L 173.454545 -342.31364 
L 169.58961 -341.944165 
L 165.724675 -341.547026 
L 161.85974 -341.11189 
L 157.994805 -340.628794 
L 154.12987 -340.089413 
L 150.264935 -339.488565 
L 146.4 -338.82586 
L 142.535065 -338.107274 
L 138.67013 -337.346433 
L 134.805195 -336.565325 
L 130.94026 -335.794226 
L 127.075325 -335.070635 
L 123.21039 -334.437185 
L 119.345455 -333.938581 
L 115.480519 -333.617843 
L 111.615584 -333.512213 
L 107.750649 -333.64924 
L 103.885714 -334.043548 
z
" id="ma84cb7f4fd" style="stroke:#494949;stroke-width:1.5;"/>
    </defs>
    <g clip-path="url(#p37abe0f875)">
     <use style="fill:#5f9e6e;stroke:#494949;stroke-width:1.5;" x="0" xlink:href="#ma84cb7f4fd" y="576"/>
    </g>
   </g>
   <g id="PolyCollection_4">
    <defs>
     <path d="M 103.885714 -271.36363 
L 103.885714 -307.51637 
L 106.14026 -307.810789 
L 108.394805 -307.942052 
L 110.649351 -307.92037 
L 112.903896 -307.761606 
L 115.158442 -307.486034 
L 117.412987 -307.116889 
L 119.667532 -306.678845 
L 121.922078 -306.196566 
L 124.176623 -305.693434 
L 126.431169 -305.190536 
L 128.685714 -304.70596 
L 130.94026 -304.254388 
L 133.194805 -303.846956 
L 135.449351 -303.491325 
L 137.703896 -303.191889 
L 139.958442 -302.950061 
L 142.212987 -302.764582 
L 144.467532 -302.63182 
L 146.722078 -302.54606 
L 148.976623 -302.499791 
L 151.231169 -302.484011 
L 153.485714 -302.488589 
L 155.74026 -302.502687 
L 157.994805 -302.515258 
L 160.249351 -302.5156 
L 162.503896 -302.493926 
L 164.758442 -302.441909 
L 167.012987 -302.353136 
L 169.267532 -302.22342 
L 171.522078 -302.050929 
L 173.776623 -301.836114 
L 176.031169 -301.581438 
L 178.285714 -301.290943 
L 180.54026 -300.969706 
L 182.794805 -300.623255 
L 185.049351 -300.257014 
L 187.303896 -299.875851 
L 189.558442 -299.483765 
L 191.812987 -299.083752 
L 194.067532 -298.677839 
L 196.322078 -298.26727 
L 198.576623 -297.852803 
L 200.831169 -297.435047 
L 203.085714 -297.014808 
L 205.34026 -296.593367 
L 207.594805 -296.172666 
L 209.849351 -295.755383 
L 212.103896 -295.344882 
L 214.358442 -294.94506 
L 216.612987 -294.560123 
L 218.867532 -294.194309 
L 221.122078 -293.851619 
L 223.376623 -293.535558 
L 225.631169 -293.248935 
L 227.885714 -292.993719 
L 230.14026 -292.770965 
L 232.394805 -292.580796 
L 234.649351 -292.422444 
L 236.903896 -292.294322 
L 239.158442 -292.194124 
L 241.412987 -292.118943 
L 243.667532 -292.065394 
L 245.922078 -292.029748 
L 248.176623 -292.008063 
L 250.431169 -291.996329 
L 252.685714 -291.990603 
L 254.94026 -291.987158 
L 257.194805 -291.982616 
L 259.449351 -291.974073 
L 261.703896 -291.959198 
L 263.958442 -291.936302 
L 266.212987 -291.904364 
L 268.467532 -291.863018 
L 270.722078 -291.812493 
L 272.976623 -291.753511 
L 275.231169 -291.687168 
L 277.485714 -291.614792 
L 279.74026 -291.537799 
L 281.994805 -291.45757 
L 284.249351 -291.375348 
L 286.503896 -291.292172 
L 288.758442 -291.208846 
L 291.012987 -291.12594 
L 293.267532 -291.043823 
L 295.522078 -290.962712 
L 297.776623 -290.882731 
L 300.031169 -290.803969 
L 302.285714 -290.72652 
L 304.54026 -290.650517 
L 306.794805 -290.576142 
L 309.049351 -290.50362 
L 311.303896 -290.4332 
L 313.558442 -290.365127 
L 315.812987 -290.299615 
L 318.067532 -290.236822 
L 320.322078 -290.176839 
L 322.576623 -290.119677 
L 324.831169 -290.065281 
L 327.085714 -290.013542 
L 327.085714 -288.866458 
L 327.085714 -288.866458 
L 324.831169 -288.814719 
L 322.576623 -288.760323 
L 320.322078 -288.703161 
L 318.067532 -288.643178 
L 315.812987 -288.580385 
L 313.558442 -288.514873 
L 311.303896 -288.4468 
L 309.049351 -288.37638 
L 306.794805 -288.303858 
L 304.54026 -288.229483 
L 302.285714 -288.15348 
L 300.031169 -288.076031 
L 297.776623 -287.997269 
L 295.522078 -287.917288 
L 293.267532 -287.836177 
L 291.012987 -287.75406 
L 288.758442 -287.671154 
L 286.503896 -287.587828 
L 284.249351 -287.504652 
L 281.994805 -287.42243 
L 279.74026 -287.342201 
L 277.485714 -287.265208 
L 275.231169 -287.192832 
L 272.976623 -287.126489 
L 270.722078 -287.067507 
L 268.467532 -287.016982 
L 266.212987 -286.975636 
L 263.958442 -286.943698 
L 261.703896 -286.920802 
L 259.449351 -286.905927 
L 257.194805 -286.897384 
L 254.94026 -286.892842 
L 252.685714 -286.889397 
L 250.431169 -286.883671 
L 248.176623 -286.871937 
L 245.922078 -286.850252 
L 243.667532 -286.814606 
L 241.412987 -286.761057 
L 239.158442 -286.685876 
L 236.903896 -286.585678 
L 234.649351 -286.457556 
L 232.394805 -286.299204 
L 230.14026 -286.109035 
L 227.885714 -285.886281 
L 225.631169 -285.631065 
L 223.376623 -285.344442 
L 221.122078 -285.028381 
L 218.867532 -284.685691 
L 216.612987 -284.319877 
L 214.358442 -283.93494 
L 212.103896 -283.535118 
L 209.849351 -283.124617 
L 207.594805 -282.707334 
L 205.34026 -282.286633 
L 203.085714 -281.865192 
L 200.831169 -281.444953 
L 198.576623 -281.027197 
L 196.322078 -280.61273 
L 194.067532 -280.202161 
L 191.812987 -279.796248 
L 189.558442 -279.396235 
L 187.303896 -279.004149 
L 185.049351 -278.622986 
L 182.794805 -278.256745 
L 180.54026 -277.910294 
L 178.285714 -277.589057 
L 176.031169 -277.298562 
L 173.776623 -277.043886 
L 171.522078 -276.829071 
L 169.267532 -276.65658 
L 167.012987 -276.526864 
L 164.758442 -276.438091 
L 162.503896 -276.386074 
L 160.249351 -276.3644 
L 157.994805 -276.364742 
L 155.74026 -276.377313 
L 153.485714 -276.391411 
L 151.231169 -276.395989 
L 148.976623 -276.380209 
L 146.722078 -276.33394 
L 144.467532 -276.24818 
L 142.212987 -276.115418 
L 139.958442 -275.929939 
L 137.703896 -275.688111 
L 135.449351 -275.388675 
L 133.194805 -275.033044 
L 130.94026 -274.625612 
L 128.685714 -274.17404 
L 126.431169 -273.689464 
L 124.176623 -273.186566 
L 121.922078 -272.683434 
L 119.667532 -272.201155 
L 117.412987 -271.763111 
L 115.158442 -271.393966 
L 112.903896 -271.118394 
L 110.649351 -270.95963 
L 108.394805 -270.937948 
L 106.14026 -271.069211 
L 103.885714 -271.36363 
z
" id="m23094c9804" style="stroke:#494949;stroke-width:1.5;"/>
    </defs>
    <g clip-path="url(#p37abe0f875)">
     <use style="fill:#b55d60;stroke:#494949;stroke-width:1.5;" x="0" xlink:href="#m23094c9804" y="576"/>
    </g>
   </g>
   <g id="PolyCollection_5">
    <defs>
     <path d="M 103.885714 -218.89292 
L 103.885714 -235.735651 
L 107.750649 -236.330912 
L 111.615584 -236.860714 
L 115.480519 -237.326077 
L 119.345455 -237.732041 
L 123.21039 -238.086276 
L 127.075325 -238.397549 
L 130.94026 -238.674294 
L 134.805195 -238.923422 
L 138.67013 -239.149483 
L 142.535065 -239.354207 
L 146.4 -239.536438 
L 150.264935 -239.692445 
L 154.12987 -239.816578 
L 157.994805 -239.902171 
L 161.85974 -239.942605 
L 165.724675 -239.932344 
L 169.58961 -239.867793 
L 173.454545 -239.74782 
L 177.319481 -239.573878 
L 181.184416 -239.349717 
L 185.049351 -239.080808 
L 188.914286 -238.773606 
L 192.779221 -238.434837 
L 196.644156 -238.070918 
L 200.509091 -237.687579 
L 204.374026 -237.289688 
L 208.238961 -236.881244 
L 212.103896 -236.465461 
L 215.968831 -236.044936 
L 219.833766 -235.62185 
L 223.698701 -235.198225 
L 227.563636 -234.776199 
L 231.428571 -234.358321 
L 235.293506 -233.947786 
L 239.158442 -233.54856 
L 243.023377 -233.165325 
L 246.888312 -232.803229 
L 250.753247 -232.467434 
L 254.618182 -232.162551 
L 258.483117 -231.892028 
L 262.348052 -231.65762 
L 266.212987 -231.459015 
L 270.077922 -231.293709 
L 273.942857 -231.157134 
L 277.807792 -231.043053 
L 281.672727 -230.944167 
L 285.537662 -230.85285 
L 289.402597 -230.761933 
L 293.267532 -230.665421 
L 297.132468 -230.559043 
L 300.997403 -230.440567 
L 304.862338 -230.309842 
L 308.727273 -230.168568 
L 312.592208 -230.019855 
L 316.457143 -229.867644 
L 320.322078 -229.716094 
L 324.187013 -229.569028 
L 328.051948 -229.429502 
L 331.916883 -229.299541 
L 335.781818 -229.180051 
L 339.646753 -229.07088 
L 343.511688 -228.971002 
L 347.376623 -228.878782 
L 351.241558 -228.792259 
L 355.106494 -228.709439 
L 358.971429 -228.628532 
L 362.836364 -228.548135 
L 366.701299 -228.467333 
L 370.566234 -228.385722 
L 374.431169 -228.30337 
L 378.296104 -228.220728 
L 382.161039 -228.138517 
L 386.025974 -228.057627 
L 389.890909 -227.979027 
L 393.755844 -227.903708 
L 397.620779 -227.832646 
L 401.485714 -227.766781 
L 405.350649 -227.706993 
L 409.215584 -227.654071 
L 413.080519 -227.608662 
L 416.945455 -227.571217 
L 420.81039 -227.54193 
L 424.675325 -227.520692 
L 428.54026 -227.507069 
L 432.405195 -227.500313 
L 436.27013 -227.499403 
L 440.135065 -227.503125 
L 444 -227.510157 
L 447.864935 -227.519167 
L 451.72987 -227.528901 
L 455.594805 -227.538245 
L 459.45974 -227.546273 
L 463.324675 -227.552253 
L 467.18961 -227.555651 
L 471.054545 -227.556107 
L 474.919481 -227.553422 
L 478.784416 -227.547535 
L 482.649351 -227.538524 
L 486.514286 -227.526594 
L 486.514286 -227.101977 
L 486.514286 -227.101977 
L 482.649351 -227.090048 
L 478.784416 -227.081036 
L 474.919481 -227.07515 
L 471.054545 -227.072464 
L 467.18961 -227.07292 
L 463.324675 -227.076318 
L 459.45974 -227.082299 
L 455.594805 -227.090326 
L 451.72987 -227.099671 
L 447.864935 -227.109404 
L 444 -227.118414 
L 440.135065 -227.125446 
L 436.27013 -227.129168 
L 432.405195 -227.128259 
L 428.54026 -227.121502 
L 424.675325 -227.107879 
L 420.81039 -227.086641 
L 416.945455 -227.057354 
L 413.080519 -227.01991 
L 409.215584 -226.974501 
L 405.350649 -226.921578 
L 401.485714 -226.861791 
L 397.620779 -226.795926 
L 393.755844 -226.724864 
L 389.890909 -226.649545 
L 386.025974 -226.570944 
L 382.161039 -226.490054 
L 378.296104 -226.407843 
L 374.431169 -226.325201 
L 370.566234 -226.24285 
L 366.701299 -226.161239 
L 362.836364 -226.080436 
L 358.971429 -226.000039 
L 355.106494 -225.919132 
L 351.241558 -225.836312 
L 347.376623 -225.74979 
L 343.511688 -225.657569 
L 339.646753 -225.557692 
L 335.781818 -225.44852 
L 331.916883 -225.32903 
L 328.051948 -225.19907 
L 324.187013 -225.059544 
L 320.322078 -224.912478 
L 316.457143 -224.760928 
L 312.592208 -224.608716 
L 308.727273 -224.460003 
L 304.862338 -224.318729 
L 300.997403 -224.188004 
L 297.132468 -224.069528 
L 293.267532 -223.96315 
L 289.402597 -223.866638 
L 285.537662 -223.775722 
L 281.672727 -223.684404 
L 277.807792 -223.585518 
L 273.942857 -223.471438 
L 270.077922 -223.334863 
L 266.212987 -223.169556 
L 262.348052 -222.970952 
L 258.483117 -222.736543 
L 254.618182 -222.46602 
L 250.753247 -222.161137 
L 246.888312 -221.825343 
L 243.023377 -221.463246 
L 239.158442 -221.080011 
L 235.293506 -220.680785 
L 231.428571 -220.27025 
L 227.563636 -219.852373 
L 223.698701 -219.430347 
L 219.833766 -219.006721 
L 215.968831 -218.583636 
L 212.103896 -218.16311 
L 208.238961 -217.747327 
L 204.374026 -217.338883 
L 200.509091 -216.940993 
L 196.644156 -216.557653 
L 192.779221 -216.193734 
L 188.914286 -215.854965 
L 185.049351 -215.547764 
L 181.184416 -215.278854 
L 177.319481 -215.054693 
L 173.454545 -214.880751 
L 169.58961 -214.760778 
L 165.724675 -214.696227 
L 161.85974 -214.685966 
L 157.994805 -214.7264 
L 154.12987 -214.811994 
L 150.264935 -214.936126 
L 146.4 -215.092134 
L 142.535065 -215.274364 
L 138.67013 -215.479088 
L 134.805195 -215.705149 
L 130.94026 -215.954278 
L 127.075325 -216.231022 
L 123.21039 -216.542295 
L 119.345455 -216.89653 
L 115.480519 -217.302495 
L 111.615584 -217.767857 
L 107.750649 -218.29766 
L 103.885714 -218.89292 
z
" id="m0f9ade22cb" style="stroke:#494949;stroke-width:1.5;"/>
    </defs>
    <g clip-path="url(#p37abe0f875)">
     <use style="fill:#857aab;stroke:#494949;stroke-width:1.5;" x="0" xlink:href="#m0f9ade22cb" y="576"/>
    </g>
   </g>
   <g id="PolyCollection_6">
    <defs>
     <path d="M 103.885714 -157.440944 
L 103.885714 -172.936199 
L 107.428571 -173.37126 
L 110.971429 -173.759131 
L 114.514286 -174.09796 
L 118.057143 -174.38793 
L 121.6 -174.630988 
L 125.142857 -174.830474 
L 128.685714 -174.990704 
L 132.228571 -175.116543 
L 135.771429 -175.213014 
L 139.314286 -175.284972 
L 142.857143 -175.336853 
L 146.4 -175.372527 
L 149.942857 -175.395221 
L 153.485714 -175.407523 
L 157.028571 -175.411446 
L 160.571429 -175.408517 
L 164.114286 -175.399886 
L 167.657143 -175.386425 
L 171.2 -175.368803 
L 174.742857 -175.347531 
L 178.285714 -175.32296 
L 181.828571 -175.29525 
L 185.371429 -175.264303 
L 188.914286 -175.229688 
L 192.457143 -175.190554 
L 196 -175.145571 
L 199.542857 -175.092902 
L 203.085714 -175.030219 
L 206.628571 -174.954779 
L 210.171429 -174.863566 
L 213.714286 -174.753486 
L 217.257143 -174.621601 
L 220.8 -174.465401 
L 224.342857 -174.283067 
L 227.885714 -174.073705 
L 231.428571 -173.837532 
L 234.971429 -173.575963 
L 238.514286 -173.291617 
L 242.057143 -172.988197 
L 245.6 -172.670285 
L 249.142857 -172.34305 
L 252.685714 -172.011901 
L 256.228571 -171.682122 
L 259.771429 -171.358533 
L 263.314286 -171.045197 
L 266.857143 -170.745213 
L 270.4 -170.460606 
L 273.942857 -170.192319 
L 277.485714 -169.940307 
L 281.028571 -169.703706 
L 284.571429 -169.481062 
L 288.114286 -169.270587 
L 291.657143 -169.07041 
L 295.2 -168.878809 
L 298.742857 -168.694388 
L 302.285714 -168.516187 
L 305.828571 -168.343737 
L 309.371429 -168.177029 
L 312.914286 -168.016451 
L 316.457143 -167.862658 
L 320 -167.716441 
L 323.542857 -167.578578 
L 327.085714 -167.449708 
L 330.628571 -167.330227 
L 334.171429 -167.220227 
L 337.714286 -167.119474 
L 341.257143 -167.027423 
L 344.8 -166.943279 
L 348.342857 -166.866063 
L 351.885714 -166.794715 
L 355.428571 -166.728176 
L 358.971429 -166.665481 
L 362.514286 -166.605815 
L 366.057143 -166.548563 
L 369.6 -166.493324 
L 373.142857 -166.439898 
L 376.685714 -166.388258 
L 380.228571 -166.338507 
L 383.771429 -166.290814 
L 387.314286 -166.245366 
L 390.857143 -166.202309 
L 394.4 -166.161714 
L 397.942857 -166.123544 
L 401.485714 -166.087645 
L 405.028571 -166.053753 
L 408.571429 -166.021507 
L 412.114286 -165.990477 
L 415.657143 -165.960202 
L 419.2 -165.930219 
L 422.742857 -165.900099 
L 426.285714 -165.869479 
L 429.828571 -165.838076 
L 433.371429 -165.805705 
L 436.914286 -165.772284 
L 440.457143 -165.737831 
L 444 -165.702454 
L 447.542857 -165.666344 
L 451.085714 -165.629757 
L 454.628571 -165.593001 
L 454.628571 -164.784142 
L 454.628571 -164.784142 
L 451.085714 -164.747386 
L 447.542857 -164.710799 
L 444 -164.674689 
L 440.457143 -164.639312 
L 436.914286 -164.604859 
L 433.371429 -164.571438 
L 429.828571 -164.539067 
L 426.285714 -164.507664 
L 422.742857 -164.477044 
L 419.2 -164.446924 
L 415.657143 -164.416941 
L 412.114286 -164.386666 
L 408.571429 -164.355636 
L 405.028571 -164.32339 
L 401.485714 -164.289498 
L 397.942857 -164.253599 
L 394.4 -164.215429 
L 390.857143 -164.174834 
L 387.314286 -164.131777 
L 383.771429 -164.086329 
L 380.228571 -164.038636 
L 376.685714 -163.988884 
L 373.142857 -163.937245 
L 369.6 -163.883819 
L 366.057143 -163.82858 
L 362.514286 -163.771328 
L 358.971429 -163.711662 
L 355.428571 -163.648966 
L 351.885714 -163.582428 
L 348.342857 -163.511079 
L 344.8 -163.433864 
L 341.257143 -163.349719 
L 337.714286 -163.257669 
L 334.171429 -163.156916 
L 330.628571 -163.046916 
L 327.085714 -162.927435 
L 323.542857 -162.798564 
L 320 -162.660702 
L 316.457143 -162.514485 
L 312.914286 -162.360692 
L 309.371429 -162.200113 
L 305.828571 -162.033406 
L 302.285714 -161.860955 
L 298.742857 -161.682755 
L 295.2 -161.498334 
L 291.657143 -161.306733 
L 288.114286 -161.106556 
L 284.571429 -160.89608 
L 281.028571 -160.673437 
L 277.485714 -160.436836 
L 273.942857 -160.184824 
L 270.4 -159.916537 
L 266.857143 -159.63193 
L 263.314286 -159.331945 
L 259.771429 -159.018609 
L 256.228571 -158.69502 
L 252.685714 -158.365242 
L 249.142857 -158.034092 
L 245.6 -157.706858 
L 242.057143 -157.388946 
L 238.514286 -157.085526 
L 234.971429 -156.80118 
L 231.428571 -156.539611 
L 227.885714 -156.303438 
L 224.342857 -156.094076 
L 220.8 -155.911741 
L 217.257143 -155.755542 
L 213.714286 -155.623657 
L 210.171429 -155.513576 
L 206.628571 -155.422364 
L 203.085714 -155.346924 
L 199.542857 -155.28424 
L 196 -155.231571 
L 192.457143 -155.186589 
L 188.914286 -155.147455 
L 185.371429 -155.112839 
L 181.828571 -155.081893 
L 178.285714 -155.054183 
L 174.742857 -155.029612 
L 171.2 -155.00834 
L 167.657143 -154.990718 
L 164.114286 -154.977257 
L 160.571429 -154.968626 
L 157.028571 -154.965697 
L 153.485714 -154.96962 
L 149.942857 -154.981922 
L 146.4 -155.004616 
L 142.857143 -155.04029 
L 139.314286 -155.092171 
L 135.771429 -155.164128 
L 132.228571 -155.2606 
L 128.685714 -155.386439 
L 125.142857 -155.546669 
L 121.6 -155.746155 
L 118.057143 -155.989213 
L 114.514286 -156.279183 
L 110.971429 -156.618012 
L 107.428571 -157.005883 
L 103.885714 -157.440944 
z
" id="m242cb79345" style="stroke:#494949;stroke-width:1.5;"/>
    </defs>
    <g clip-path="url(#p37abe0f875)">
     <use style="fill:#8d7866;stroke:#494949;stroke-width:1.5;" x="0" xlink:href="#m242cb79345" y="576"/>
    </g>
   </g>
   <g id="PolyCollection_7">
    <defs>
     <path d="M 167.657143 -94.486962 
L 167.657143 -111.638752 
L 169.911688 -112.035549 
L 172.166234 -112.424166 
L 174.420779 -112.802154 
L 176.675325 -113.167089 
L 178.92987 -113.5166 
L 181.184416 -113.848405 
L 183.438961 -114.160339 
L 185.693506 -114.450389 
L 187.948052 -114.716722 
L 190.202597 -114.957708 
L 192.457143 -115.17195 
L 194.711688 -115.3583 
L 196.966234 -115.515878 
L 199.220779 -115.644081 
L 201.475325 -115.742595 
L 203.72987 -115.811392 
L 205.984416 -115.850733 
L 208.238961 -115.861159 
L 210.493506 -115.843477 
L 212.748052 -115.798749 
L 215.002597 -115.728268 
L 217.257143 -115.633535 
L 219.511688 -115.516238 
L 221.766234 -115.378214 
L 224.020779 -115.221427 
L 226.275325 -115.047936 
L 228.52987 -114.859859 
L 230.784416 -114.659344 
L 233.038961 -114.448541 
L 235.293506 -114.229572 
L 237.548052 -114.004503 
L 239.802597 -113.775319 
L 242.057143 -113.543907 
L 244.311688 -113.312032 
L 246.566234 -113.081324 
L 248.820779 -112.853263 
L 251.075325 -112.629176 
L 253.32987 -112.410222 
L 255.584416 -112.197397 
L 257.838961 -111.991529 
L 260.093506 -111.79328 
L 262.348052 -111.603154 
L 264.602597 -111.4215 
L 266.857143 -111.248523 
L 269.111688 -111.084292 
L 271.366234 -110.928751 
L 273.620779 -110.781731 
L 275.875325 -110.642961 
L 278.12987 -110.512085 
L 280.384416 -110.388669 
L 282.638961 -110.272217 
L 284.893506 -110.162181 
L 287.148052 -110.057977 
L 289.402597 -109.958992 
L 291.657143 -109.864599 
L 293.911688 -109.774162 
L 296.166234 -109.687051 
L 298.420779 -109.602647 
L 300.675325 -109.520351 
L 302.92987 -109.439592 
L 305.184416 -109.359829 
L 307.438961 -109.280562 
L 309.693506 -109.20133 
L 311.948052 -109.12172 
L 314.202597 -109.041365 
L 316.457143 -108.959948 
L 318.711688 -108.877201 
L 320.966234 -108.792906 
L 323.220779 -108.706894 
L 325.475325 -108.619041 
L 327.72987 -108.529269 
L 329.984416 -108.43754 
L 332.238961 -108.343854 
L 334.493506 -108.248245 
L 336.748052 -108.150775 
L 339.002597 -108.051531 
L 341.257143 -107.95062 
L 343.511688 -107.848164 
L 345.766234 -107.744294 
L 348.020779 -107.639148 
L 350.275325 -107.532869 
L 352.52987 -107.425593 
L 354.784416 -107.317457 
L 357.038961 -107.208588 
L 359.293506 -107.099105 
L 361.548052 -106.989118 
L 363.802597 -106.878726 
L 366.057143 -106.768019 
L 368.311688 -106.657077 
L 370.566234 -106.545973 
L 372.820779 -106.434774 
L 375.075325 -106.323542 
L 377.32987 -106.21234 
L 379.584416 -106.101231 
L 381.838961 -105.990281 
L 384.093506 -105.879566 
L 386.348052 -105.769168 
L 388.602597 -105.659181 
L 390.857143 -105.549711 
L 390.857143 -100.576004 
L 390.857143 -100.576004 
L 388.602597 -100.466533 
L 386.348052 -100.356546 
L 384.093506 -100.246148 
L 381.838961 -100.135433 
L 379.584416 -100.024484 
L 377.32987 -99.913374 
L 375.075325 -99.802172 
L 372.820779 -99.690941 
L 370.566234 -99.579741 
L 368.311688 -99.468637 
L 366.057143 -99.357695 
L 363.802597 -99.246988 
L 361.548052 -99.136596 
L 359.293506 -99.026609 
L 357.038961 -98.917126 
L 354.784416 -98.808257 
L 352.52987 -98.700121 
L 350.275325 -98.592846 
L 348.020779 -98.486566 
L 345.766234 -98.381421 
L 343.511688 -98.277551 
L 341.257143 -98.175094 
L 339.002597 -98.074183 
L 336.748052 -97.974939 
L 334.493506 -97.877469 
L 332.238961 -97.78186 
L 329.984416 -97.688174 
L 327.72987 -97.596445 
L 325.475325 -97.506673 
L 323.220779 -97.41882 
L 320.966234 -97.332808 
L 318.711688 -97.248513 
L 316.457143 -97.165766 
L 314.202597 -97.084349 
L 311.948052 -97.003994 
L 309.693506 -96.924384 
L 307.438961 -96.845152 
L 305.184416 -96.765885 
L 302.92987 -96.686122 
L 300.675325 -96.605363 
L 298.420779 -96.523068 
L 296.166234 -96.438664 
L 293.911688 -96.351553 
L 291.657143 -96.261116 
L 289.402597 -96.166722 
L 287.148052 -96.067737 
L 284.893506 -95.963533 
L 282.638961 -95.853498 
L 280.384416 -95.737045 
L 278.12987 -95.613629 
L 275.875325 -95.482753 
L 273.620779 -95.343984 
L 271.366234 -95.196963 
L 269.111688 -95.041422 
L 266.857143 -94.877191 
L 264.602597 -94.704214 
L 262.348052 -94.522561 
L 260.093506 -94.332435 
L 257.838961 -94.134186 
L 255.584416 -93.928317 
L 253.32987 -93.715492 
L 251.075325 -93.496539 
L 248.820779 -93.272451 
L 246.566234 -93.044391 
L 244.311688 -92.813682 
L 242.057143 -92.581807 
L 239.802597 -92.350395 
L 237.548052 -92.121212 
L 235.293506 -91.896142 
L 233.038961 -91.677173 
L 230.784416 -91.466371 
L 228.52987 -91.265856 
L 226.275325 -91.077778 
L 224.020779 -90.904287 
L 221.766234 -90.747501 
L 219.511688 -90.609477 
L 217.257143 -90.492179 
L 215.002597 -90.397447 
L 212.748052 -90.326965 
L 210.493506 -90.282237 
L 208.238961 -90.264556 
L 205.984416 -90.274981 
L 203.72987 -90.314322 
L 201.475325 -90.38312 
L 199.220779 -90.481633 
L 196.966234 -90.609836 
L 194.711688 -90.767414 
L 192.457143 -90.953765 
L 190.202597 -91.168007 
L 187.948052 -91.408993 
L 185.693506 -91.675325 
L 183.438961 -91.965375 
L 181.184416 -92.277309 
L 178.92987 -92.609114 
L 176.675325 -92.958625 
L 174.420779 -93.32356 
L 172.166234 -93.701549 
L 169.911688 -94.090165 
L 167.657143 -94.486962 
z
" id="m355242ed2c" style="stroke:#494949;stroke-width:1.5;"/>
    </defs>
    <g clip-path="url(#p37abe0f875)">
     <use style="fill:#d095bf;stroke:#494949;stroke-width:1.5;" x="0" xlink:href="#m355242ed2c" y="576"/>
    </g>
   </g>
   <g id="line2d_16">
    <path clip-path="url(#p37abe0f875)" d="M 103.885714 76.33597 
L 103.885714 124.029745 
" style="fill:none;stroke:#494949;stroke-dasharray:3.375,3.375;stroke-dashoffset:0;stroke-width:1.5;"/>
   </g>
   <g id="line2d_17">
    <path clip-path="url(#p37abe0f875)" d="M 135.771429 79.486917 
L 135.771429 120.878797 
" style="fill:none;stroke:#494949;stroke-dasharray:6.75,6.75;stroke-dashoffset:0;stroke-width:1.5;"/>
   </g>
   <g id="line2d_18">
    <path clip-path="url(#p37abe0f875)" d="M 151.714286 84.553921 
L 151.714286 115.811793 
" style="fill:none;stroke:#494949;stroke-dasharray:3.375,3.375;stroke-dashoffset:0;stroke-width:1.5;"/>
   </g>
   <g id="line2d_19">
    <path clip-path="url(#p37abe0f875)" d="M 103.885714 139.624331 
L 103.885714 184.992812 
" style="fill:none;stroke:#494949;stroke-dasharray:3.375,3.375;stroke-dashoffset:0;stroke-width:1.5;"/>
   </g>
   <g id="line2d_20">
    <path clip-path="url(#p37abe0f875)" d="M 135.771429 142.728071 
L 135.771429 181.889072 
" style="fill:none;stroke:#494949;stroke-dasharray:6.75,6.75;stroke-dashoffset:0;stroke-width:1.5;"/>
   </g>
   <g id="line2d_21">
    <path clip-path="url(#p37abe0f875)" d="M 167.657143 150.840624 
L 167.657143 173.776519 
" style="fill:none;stroke:#494949;stroke-dasharray:3.375,3.375;stroke-dashoffset:0;stroke-width:1.5;"/>
   </g>
   <g id="line2d_22">
    <path clip-path="url(#p37abe0f875)" d="M 103.885714 207.087341 
L 103.885714 241.78123 
" style="fill:none;stroke:#494949;stroke-dasharray:3.375,3.375;stroke-dashoffset:0;stroke-width:1.5;"/>
   </g>
   <g id="line2d_23">
    <path clip-path="url(#p37abe0f875)" d="M 135.771429 209.583901 
L 135.771429 239.284671 
" style="fill:none;stroke:#494949;stroke-dasharray:6.75,6.75;stroke-dashoffset:0;stroke-width:1.5;"/>
   </g>
   <g id="line2d_24">
    <path clip-path="url(#p37abe0f875)" d="M 167.657143 214.515785 
L 167.657143 234.352787 
" style="fill:none;stroke:#494949;stroke-dasharray:3.375,3.375;stroke-dashoffset:0;stroke-width:1.5;"/>
   </g>
   <g id="line2d_25">
    <path clip-path="url(#p37abe0f875)" d="M 103.885714 268.664394 
L 103.885714 304.455606 
" style="fill:none;stroke:#494949;stroke-dasharray:3.375,3.375;stroke-dashoffset:0;stroke-width:1.5;"/>
   </g>
   <g id="line2d_26">
    <path clip-path="url(#p37abe0f875)" d="M 135.771429 272.649188 
L 135.771429 300.470812 
" style="fill:none;stroke:#494949;stroke-dasharray:6.75,6.75;stroke-dashoffset:0;stroke-width:1.5;"/>
   </g>
   <g id="line2d_27">
    <path clip-path="url(#p37abe0f875)" d="M 167.657143 273.775995 
L 167.657143 299.344005 
" style="fill:none;stroke:#494949;stroke-dasharray:3.375,3.375;stroke-dashoffset:0;stroke-width:1.5;"/>
   </g>
   <g id="line2d_28">
    <path clip-path="url(#p37abe0f875)" d="M 135.771429 337.192669 
L 135.771429 360.178759 
" style="fill:none;stroke:#494949;stroke-dasharray:3.375,3.375;stroke-dashoffset:0;stroke-width:1.5;"/>
   </g>
   <g id="line2d_29">
    <path clip-path="url(#p37abe0f875)" d="M 167.657143 336.193836 
L 167.657143 361.177592 
" style="fill:none;stroke:#494949;stroke-dasharray:6.75,6.75;stroke-dashoffset:0;stroke-width:1.5;"/>
   </g>
   <g id="line2d_30">
    <path clip-path="url(#p37abe0f875)" d="M 231.428571 341.712119 
L 231.428571 355.659309 
" style="fill:none;stroke:#494949;stroke-dasharray:3.375,3.375;stroke-dashoffset:0;stroke-width:1.5;"/>
   </g>
   <g id="line2d_31">
    <path clip-path="url(#p37abe0f875)" d="M 135.771429 400.88723 
L 135.771429 420.735627 
" style="fill:none;stroke:#494949;stroke-dasharray:3.375,3.375;stroke-dashoffset:0;stroke-width:1.5;"/>
   </g>
   <g id="line2d_32">
    <path clip-path="url(#p37abe0f875)" d="M 199.542857 401.006141 
L 199.542857 420.616716 
" style="fill:none;stroke:#494949;stroke-dasharray:6.75,6.75;stroke-dashoffset:0;stroke-width:1.5;"/>
   </g>
   <g id="line2d_33">
    <path clip-path="url(#p37abe0f875)" d="M 231.428571 402.248958 
L 231.428571 419.373899 
" style="fill:none;stroke:#494949;stroke-dasharray:3.375,3.375;stroke-dashoffset:0;stroke-width:1.5;"/>
   </g>
   <g id="line2d_34">
    <path clip-path="url(#p37abe0f875)" d="M 199.542857 460.481731 
L 199.542857 485.392555 
" style="fill:none;stroke:#494949;stroke-dasharray:3.375,3.375;stroke-dashoffset:0;stroke-width:1.5;"/>
   </g>
   <g id="line2d_35">
    <path clip-path="url(#p37abe0f875)" d="M 231.428571 461.456621 
L 231.428571 484.417664 
" style="fill:none;stroke:#494949;stroke-dasharray:6.75,6.75;stroke-dashoffset:0;stroke-width:1.5;"/>
   </g>
   <g id="line2d_36">
    <path clip-path="url(#p37abe0f875)" d="M 295.2 466.379191 
L 295.2 479.495094 
" style="fill:none;stroke:#494949;stroke-dasharray:3.375,3.375;stroke-dashoffset:0;stroke-width:1.5;"/>
   </g>
   <g id="patch_3">
    <path d="M 72 504 
L 518.4 504 
" style="fill:none;stroke:#262626;stroke-linecap:square;stroke-linejoin:miter;stroke-width:1.25;"/>
   </g>
  </g>
 </g>
 <defs>
  <clipPath id="p37abe0f875">
   <rect height="434.88" width="446.4" x="72" y="69.12"/>
  </clipPath>
 </defs>
</svg>
