<?xml version="1.0" encoding="utf-8" standalone="no"?>
<!DOCTYPE svg PUBLIC "-//W3C//DTD SVG 1.1//EN"
  "http://www.w3.org/Graphics/SVG/1.1/DTD/svg11.dtd">
<!-- Created with matplotlib (https://matplotlib.org/) -->
<svg height="576pt" version="1.1" viewBox="0 0 576 576" width="576pt" xmlns="http://www.w3.org/2000/svg" xmlns:xlink="http://www.w3.org/1999/xlink">
 <defs>
  <style type="text/css">
*{stroke-linecap:butt;stroke-linejoin:round;}
  </style>
 </defs>
 <g id="figure_1">
  <g id="patch_1">
   <path d="M 0 576 
L 576 576 
L 576 0 
L 0 0 
z
" style="fill:#ffffff;"/>
  </g>
  <g id="axes_1">
   <g id="patch_2">
    <path d="M 72 504 
L 518.4 504 
L 518.4 69.12 
L 72 69.12 
z
" style="fill:#ffffff;"/>
   </g>
   <g id="matplotlib.axis_1">
    <g id="xtick_1">
     <g id="line2d_1">
      <defs>
       <path d="M 0 0 
L 0 6 
" id="m3284427156" style="stroke:#262626;stroke-width:1.25;"/>
      </defs>
      <g>
       <use style="fill:#262626;stroke:#262626;stroke-width:1.25;" x="72" xlink:href="#m3284427156" y="504"/>
      </g>
     </g>
     <g id="text_1">
      <!-- 0 -->
      <defs>
       <path d="M 4.15625 35.296875 
Q 4.15625 48 6.765625 55.734375 
Q 9.375 63.484375 14.515625 67.671875 
Q 19.671875 71.875 27.484375 71.875 
Q 33.25 71.875 37.59375 69.546875 
Q 41.9375 67.234375 44.765625 62.859375 
Q 47.609375 58.5 49.21875 52.21875 
Q 50.828125 45.953125 50.828125 35.296875 
Q 50.828125 22.703125 48.234375 14.96875 
Q 45.65625 7.234375 40.5 3 
Q 35.359375 -1.21875 27.484375 -1.21875 
Q 17.140625 -1.21875 11.234375 6.203125 
Q 4.15625 15.140625 4.15625 35.296875 
z
M 13.1875 35.296875 
Q 13.1875 17.671875 17.3125 11.828125 
Q 21.4375 6 27.484375 6 
Q 33.546875 6 37.671875 11.859375 
Q 41.796875 17.71875 41.796875 35.296875 
Q 41.796875 52.984375 37.671875 58.78125 
Q 33.546875 64.59375 27.390625 64.59375 
Q 21.34375 64.59375 17.71875 59.46875 
Q 13.1875 52.9375 13.1875 35.296875 
z
" id="ArialMT-48"/>
      </defs>
      <g style="fill:#262626;" transform="translate(66.647598 527.278789)scale(0.1925 -0.1925)">
       <use xlink:href="#ArialMT-48"/>
      </g>
     </g>
    </g>
    <g id="xtick_2">
     <g id="line2d_2">
      <g>
       <use style="fill:#262626;stroke:#262626;stroke-width:1.25;" x="146.4" xlink:href="#m3284427156" y="504"/>
      </g>
     </g>
     <g id="text_2">
      <!-- 20 -->
      <defs>
       <path d="M 50.34375 8.453125 
L 50.34375 0 
L 3.03125 0 
Q 2.9375 3.171875 4.046875 6.109375 
Q 5.859375 10.9375 9.828125 15.625 
Q 13.8125 20.3125 21.34375 26.46875 
Q 33.015625 36.03125 37.109375 41.625 
Q 41.21875 47.21875 41.21875 52.203125 
Q 41.21875 57.421875 37.46875 61 
Q 33.734375 64.59375 27.734375 64.59375 
Q 21.390625 64.59375 17.578125 60.78125 
Q 13.765625 56.984375 13.71875 50.25 
L 4.6875 51.171875 
Q 5.609375 61.28125 11.65625 66.578125 
Q 17.71875 71.875 27.9375 71.875 
Q 38.234375 71.875 44.234375 66.15625 
Q 50.25 60.453125 50.25 52 
Q 50.25 47.703125 48.484375 43.546875 
Q 46.734375 39.40625 42.65625 34.8125 
Q 38.578125 30.21875 29.109375 22.21875 
Q 21.1875 15.578125 18.9375 13.203125 
Q 16.703125 10.84375 15.234375 8.453125 
z
" id="ArialMT-50"/>
      </defs>
      <g style="fill:#262626;" transform="translate(135.695195 527.278789)scale(0.1925 -0.1925)">
       <use xlink:href="#ArialMT-50"/>
       <use x="55.615234" xlink:href="#ArialMT-48"/>
      </g>
     </g>
    </g>
    <g id="xtick_3">
     <g id="line2d_3">
      <g>
       <use style="fill:#262626;stroke:#262626;stroke-width:1.25;" x="220.8" xlink:href="#m3284427156" y="504"/>
      </g>
     </g>
     <g id="text_3">
      <!-- 40 -->
      <defs>
       <path d="M 32.328125 0 
L 32.328125 17.140625 
L 1.265625 17.140625 
L 1.265625 25.203125 
L 33.9375 71.578125 
L 41.109375 71.578125 
L 41.109375 25.203125 
L 50.78125 25.203125 
L 50.78125 17.140625 
L 41.109375 17.140625 
L 41.109375 0 
z
M 32.328125 25.203125 
L 32.328125 57.46875 
L 9.90625 25.203125 
z
" id="ArialMT-52"/>
      </defs>
      <g style="fill:#262626;" transform="translate(210.095195 527.278789)scale(0.1925 -0.1925)">
       <use xlink:href="#ArialMT-52"/>
       <use x="55.615234" xlink:href="#ArialMT-48"/>
      </g>
     </g>
    </g>
    <g id="xtick_4">
     <g id="line2d_4">
      <g>
       <use style="fill:#262626;stroke:#262626;stroke-width:1.25;" x="295.2" xlink:href="#m3284427156" y="504"/>
      </g>
     </g>
     <g id="text_4">
      <!-- 60 -->
      <defs>
       <path d="M 49.75 54.046875 
L 41.015625 53.375 
Q 39.84375 58.546875 37.703125 60.890625 
Q 34.125 64.65625 28.90625 64.65625 
Q 24.703125 64.65625 21.53125 62.3125 
Q 17.390625 59.28125 14.984375 53.46875 
Q 12.59375 47.65625 12.5 36.921875 
Q 15.671875 41.75 20.265625 44.09375 
Q 24.859375 46.4375 29.890625 46.4375 
Q 38.671875 46.4375 44.84375 39.96875 
Q 51.03125 33.5 51.03125 23.25 
Q 51.03125 16.5 48.125 10.71875 
Q 45.21875 4.9375 40.140625 1.859375 
Q 35.0625 -1.21875 28.609375 -1.21875 
Q 17.625 -1.21875 10.6875 6.859375 
Q 3.765625 14.9375 3.765625 33.5 
Q 3.765625 54.25 11.421875 63.671875 
Q 18.109375 71.875 29.4375 71.875 
Q 37.890625 71.875 43.28125 67.140625 
Q 48.6875 62.40625 49.75 54.046875 
z
M 13.875 23.1875 
Q 13.875 18.65625 15.796875 14.5 
Q 17.71875 10.359375 21.1875 8.171875 
Q 24.65625 6 28.46875 6 
Q 34.03125 6 38.03125 10.484375 
Q 42.046875 14.984375 42.046875 22.703125 
Q 42.046875 30.125 38.078125 34.390625 
Q 34.125 38.671875 28.125 38.671875 
Q 22.171875 38.671875 18.015625 34.390625 
Q 13.875 30.125 13.875 23.1875 
z
" id="ArialMT-54"/>
      </defs>
      <g style="fill:#262626;" transform="translate(284.495195 527.278789)scale(0.1925 -0.1925)">
       <use xlink:href="#ArialMT-54"/>
       <use x="55.615234" xlink:href="#ArialMT-48"/>
      </g>
     </g>
    </g>
    <g id="xtick_5">
     <g id="line2d_5">
      <g>
       <use style="fill:#262626;stroke:#262626;stroke-width:1.25;" x="369.6" xlink:href="#m3284427156" y="504"/>
      </g>
     </g>
     <g id="text_5">
      <!-- 80 -->
      <defs>
       <path d="M 17.671875 38.8125 
Q 12.203125 40.828125 9.5625 44.53125 
Q 6.9375 48.25 6.9375 53.421875 
Q 6.9375 61.234375 12.546875 66.546875 
Q 18.171875 71.875 27.484375 71.875 
Q 36.859375 71.875 42.578125 66.421875 
Q 48.296875 60.984375 48.296875 53.171875 
Q 48.296875 48.1875 45.671875 44.5 
Q 43.0625 40.828125 37.75 38.8125 
Q 44.34375 36.671875 47.78125 31.875 
Q 51.21875 27.09375 51.21875 20.453125 
Q 51.21875 11.28125 44.71875 5.03125 
Q 38.234375 -1.21875 27.640625 -1.21875 
Q 17.046875 -1.21875 10.546875 5.046875 
Q 4.046875 11.328125 4.046875 20.703125 
Q 4.046875 27.6875 7.59375 32.390625 
Q 11.140625 37.109375 17.671875 38.8125 
z
M 15.921875 53.71875 
Q 15.921875 48.640625 19.1875 45.40625 
Q 22.46875 42.1875 27.6875 42.1875 
Q 32.765625 42.1875 36.015625 45.375 
Q 39.265625 48.578125 39.265625 53.21875 
Q 39.265625 58.0625 35.90625 61.359375 
Q 32.5625 64.65625 27.59375 64.65625 
Q 22.5625 64.65625 19.234375 61.421875 
Q 15.921875 58.203125 15.921875 53.71875 
z
M 13.09375 20.65625 
Q 13.09375 16.890625 14.875 13.375 
Q 16.65625 9.859375 20.171875 7.921875 
Q 23.6875 6 27.734375 6 
Q 34.03125 6 38.125 10.046875 
Q 42.234375 14.109375 42.234375 20.359375 
Q 42.234375 26.703125 38.015625 30.859375 
Q 33.796875 35.015625 27.4375 35.015625 
Q 21.234375 35.015625 17.15625 30.90625 
Q 13.09375 26.8125 13.09375 20.65625 
z
" id="ArialMT-56"/>
      </defs>
      <g style="fill:#262626;" transform="translate(358.895195 527.278789)scale(0.1925 -0.1925)">
       <use xlink:href="#ArialMT-56"/>
       <use x="55.615234" xlink:href="#ArialMT-48"/>
      </g>
     </g>
    </g>
    <g id="xtick_6">
     <g id="line2d_6">
      <g>
       <use style="fill:#262626;stroke:#262626;stroke-width:1.25;" x="444" xlink:href="#m3284427156" y="504"/>
      </g>
     </g>
     <g id="text_6">
      <!-- 100 -->
      <defs>
       <path d="M 37.25 0 
L 28.46875 0 
L 28.46875 56 
Q 25.296875 52.984375 20.140625 49.953125 
Q 14.984375 46.921875 10.890625 45.40625 
L 10.890625 53.90625 
Q 18.265625 57.375 23.78125 62.296875 
Q 29.296875 67.234375 31.59375 71.875 
L 37.25 71.875 
z
" id="ArialMT-49"/>
      </defs>
      <g style="fill:#262626;" transform="translate(427.942793 527.278789)scale(0.1925 -0.1925)">
       <use xlink:href="#ArialMT-49"/>
       <use x="55.615234" xlink:href="#ArialMT-48"/>
       <use x="111.230469" xlink:href="#ArialMT-48"/>
      </g>
     </g>
    </g>
    <g id="xtick_7">
     <g id="line2d_7">
      <g>
       <use style="fill:#262626;stroke:#262626;stroke-width:1.25;" x="518.4" xlink:href="#m3284427156" y="504"/>
      </g>
     </g>
     <g id="text_7">
      <!-- 120 -->
      <g style="fill:#262626;" transform="translate(502.342793 527.278789)scale(0.1925 -0.1925)">
       <use xlink:href="#ArialMT-49"/>
       <use x="55.615234" xlink:href="#ArialMT-50"/>
       <use x="111.230469" xlink:href="#ArialMT-48"/>
      </g>
     </g>
    </g>
    <g id="text_8">
     <!-- Number of Change Points Per Cell -->
     <defs>
      <path d="M 7.625 0 
L 7.625 71.578125 
L 17.328125 71.578125 
L 54.9375 15.375 
L 54.9375 71.578125 
L 64.015625 71.578125 
L 64.015625 0 
L 54.296875 0 
L 16.703125 56.25 
L 16.703125 0 
z
" id="ArialMT-78"/>
      <path d="M 40.578125 0 
L 40.578125 7.625 
Q 34.515625 -1.171875 24.125 -1.171875 
Q 19.53125 -1.171875 15.546875 0.578125 
Q 11.578125 2.34375 9.640625 5 
Q 7.71875 7.671875 6.9375 11.53125 
Q 6.390625 14.109375 6.390625 19.734375 
L 6.390625 51.859375 
L 15.1875 51.859375 
L 15.1875 23.09375 
Q 15.1875 16.21875 15.71875 13.8125 
Q 16.546875 10.359375 19.234375 8.375 
Q 21.921875 6.390625 25.875 6.390625 
Q 29.828125 6.390625 33.296875 8.421875 
Q 36.765625 10.453125 38.203125 13.9375 
Q 39.65625 17.4375 39.65625 24.078125 
L 39.65625 51.859375 
L 48.4375 51.859375 
L 48.4375 0 
z
" id="ArialMT-117"/>
      <path d="M 6.59375 0 
L 6.59375 51.859375 
L 14.453125 51.859375 
L 14.453125 44.578125 
Q 16.890625 48.390625 20.9375 50.703125 
Q 25 53.03125 30.171875 53.03125 
Q 35.9375 53.03125 39.625 50.640625 
Q 43.3125 48.25 44.828125 43.953125 
Q 50.984375 53.03125 60.84375 53.03125 
Q 68.5625 53.03125 72.703125 48.75 
Q 76.859375 44.484375 76.859375 35.59375 
L 76.859375 0 
L 68.109375 0 
L 68.109375 32.671875 
Q 68.109375 37.9375 67.25 40.25 
Q 66.40625 42.578125 64.15625 43.984375 
Q 61.921875 45.40625 58.890625 45.40625 
Q 53.421875 45.40625 49.796875 41.765625 
Q 46.1875 38.140625 46.1875 30.125 
L 46.1875 0 
L 37.40625 0 
L 37.40625 33.6875 
Q 37.40625 39.546875 35.25 42.46875 
Q 33.109375 45.40625 28.21875 45.40625 
Q 24.515625 45.40625 21.359375 43.453125 
Q 18.21875 41.5 16.796875 37.734375 
Q 15.375 33.984375 15.375 26.90625 
L 15.375 0 
z
" id="ArialMT-109"/>
      <path d="M 14.703125 0 
L 6.546875 0 
L 6.546875 71.578125 
L 15.328125 71.578125 
L 15.328125 46.046875 
Q 20.90625 53.03125 29.546875 53.03125 
Q 34.328125 53.03125 38.59375 51.09375 
Q 42.875 49.171875 45.625 45.671875 
Q 48.390625 42.1875 49.953125 37.25 
Q 51.515625 32.328125 51.515625 26.703125 
Q 51.515625 13.375 44.921875 6.09375 
Q 38.328125 -1.171875 29.109375 -1.171875 
Q 19.921875 -1.171875 14.703125 6.5 
z
M 14.59375 26.3125 
Q 14.59375 17 17.140625 12.84375 
Q 21.296875 6.0625 28.375 6.0625 
Q 34.125 6.0625 38.328125 11.0625 
Q 42.53125 16.0625 42.53125 25.984375 
Q 42.53125 36.140625 38.5 40.96875 
Q 34.46875 45.796875 28.765625 45.796875 
Q 23 45.796875 18.796875 40.796875 
Q 14.59375 35.796875 14.59375 26.3125 
z
" id="ArialMT-98"/>
      <path d="M 42.09375 16.703125 
L 51.171875 15.578125 
Q 49.03125 7.625 43.21875 3.21875 
Q 37.40625 -1.171875 28.375 -1.171875 
Q 17 -1.171875 10.328125 5.828125 
Q 3.65625 12.84375 3.65625 25.484375 
Q 3.65625 38.578125 10.390625 45.796875 
Q 17.140625 53.03125 27.875 53.03125 
Q 38.28125 53.03125 44.875 45.953125 
Q 51.46875 38.875 51.46875 26.03125 
Q 51.46875 25.25 51.421875 23.6875 
L 12.75 23.6875 
Q 13.234375 15.140625 17.578125 10.59375 
Q 21.921875 6.0625 28.421875 6.0625 
Q 33.25 6.0625 36.671875 8.59375 
Q 40.09375 11.140625 42.09375 16.703125 
z
M 13.234375 30.90625 
L 42.1875 30.90625 
Q 41.609375 37.453125 38.875 40.71875 
Q 34.671875 45.796875 27.984375 45.796875 
Q 21.921875 45.796875 17.796875 41.75 
Q 13.671875 37.703125 13.234375 30.90625 
z
" id="ArialMT-101"/>
      <path d="M 6.5 0 
L 6.5 51.859375 
L 14.40625 51.859375 
L 14.40625 44 
Q 17.4375 49.515625 20 51.265625 
Q 22.5625 53.03125 25.640625 53.03125 
Q 30.078125 53.03125 34.671875 50.203125 
L 31.640625 42.046875 
Q 28.421875 43.953125 25.203125 43.953125 
Q 22.3125 43.953125 20.015625 42.21875 
Q 17.71875 40.484375 16.75 37.40625 
Q 15.28125 32.71875 15.28125 27.15625 
L 15.28125 0 
z
" id="ArialMT-114"/>
      <path id="ArialMT-32"/>
      <path d="M 3.328125 25.921875 
Q 3.328125 40.328125 11.328125 47.265625 
Q 18.015625 53.03125 27.640625 53.03125 
Q 38.328125 53.03125 45.109375 46.015625 
Q 51.90625 39.015625 51.90625 26.65625 
Q 51.90625 16.65625 48.90625 10.90625 
Q 45.90625 5.171875 40.15625 2 
Q 34.421875 -1.171875 27.640625 -1.171875 
Q 16.75 -1.171875 10.03125 5.8125 
Q 3.328125 12.796875 3.328125 25.921875 
z
M 12.359375 25.921875 
Q 12.359375 15.96875 16.703125 11.015625 
Q 21.046875 6.0625 27.640625 6.0625 
Q 34.1875 6.0625 38.53125 11.03125 
Q 42.875 16.015625 42.875 26.21875 
Q 42.875 35.84375 38.5 40.796875 
Q 34.125 45.75 27.640625 45.75 
Q 21.046875 45.75 16.703125 40.8125 
Q 12.359375 35.890625 12.359375 25.921875 
z
" id="ArialMT-111"/>
      <path d="M 8.6875 0 
L 8.6875 45.015625 
L 0.921875 45.015625 
L 0.921875 51.859375 
L 8.6875 51.859375 
L 8.6875 57.375 
Q 8.6875 62.59375 9.625 65.140625 
Q 10.890625 68.5625 14.078125 70.671875 
Q 17.28125 72.796875 23.046875 72.796875 
Q 26.765625 72.796875 31.25 71.921875 
L 29.9375 64.265625 
Q 27.203125 64.75 24.75 64.75 
Q 20.75 64.75 19.09375 63.03125 
Q 17.4375 61.328125 17.4375 56.640625 
L 17.4375 51.859375 
L 27.546875 51.859375 
L 27.546875 45.015625 
L 17.4375 45.015625 
L 17.4375 0 
z
" id="ArialMT-102"/>
      <path d="M 58.796875 25.09375 
L 68.265625 22.703125 
Q 65.28125 11.03125 57.546875 4.90625 
Q 49.8125 -1.21875 38.625 -1.21875 
Q 27.046875 -1.21875 19.796875 3.484375 
Q 12.546875 8.203125 8.765625 17.140625 
Q 4.984375 26.078125 4.984375 36.328125 
Q 4.984375 47.515625 9.25 55.828125 
Q 13.53125 64.15625 21.40625 68.46875 
Q 29.296875 72.796875 38.765625 72.796875 
Q 49.515625 72.796875 56.828125 67.328125 
Q 64.15625 61.859375 67.046875 51.953125 
L 57.71875 49.75 
Q 55.21875 57.5625 50.484375 61.125 
Q 45.75 64.703125 38.578125 64.703125 
Q 30.328125 64.703125 24.78125 60.734375 
Q 19.234375 56.78125 16.984375 50.109375 
Q 14.75 43.453125 14.75 36.375 
Q 14.75 27.25 17.40625 20.4375 
Q 20.0625 13.625 25.671875 10.25 
Q 31.296875 6.890625 37.84375 6.890625 
Q 45.796875 6.890625 51.3125 11.46875 
Q 56.84375 16.0625 58.796875 25.09375 
z
" id="ArialMT-67"/>
      <path d="M 6.59375 0 
L 6.59375 71.578125 
L 15.375 71.578125 
L 15.375 45.90625 
Q 21.53125 53.03125 30.90625 53.03125 
Q 36.671875 53.03125 40.921875 50.75 
Q 45.171875 48.484375 47 44.484375 
Q 48.828125 40.484375 48.828125 32.859375 
L 48.828125 0 
L 40.046875 0 
L 40.046875 32.859375 
Q 40.046875 39.453125 37.1875 42.453125 
Q 34.328125 45.453125 29.109375 45.453125 
Q 25.203125 45.453125 21.75 43.421875 
Q 18.3125 41.40625 16.84375 37.9375 
Q 15.375 34.46875 15.375 28.375 
L 15.375 0 
z
" id="ArialMT-104"/>
      <path d="M 40.4375 6.390625 
Q 35.546875 2.25 31.03125 0.53125 
Q 26.515625 -1.171875 21.34375 -1.171875 
Q 12.796875 -1.171875 8.203125 3 
Q 3.609375 7.171875 3.609375 13.671875 
Q 3.609375 17.484375 5.34375 20.625 
Q 7.078125 23.78125 9.890625 25.6875 
Q 12.703125 27.59375 16.21875 28.5625 
Q 18.796875 29.25 24.03125 29.890625 
Q 34.671875 31.15625 39.703125 32.90625 
Q 39.75 34.71875 39.75 35.203125 
Q 39.75 40.578125 37.25 42.78125 
Q 33.890625 45.75 27.25 45.75 
Q 21.046875 45.75 18.09375 43.578125 
Q 15.140625 41.40625 13.71875 35.890625 
L 5.125 37.0625 
Q 6.296875 42.578125 8.984375 45.96875 
Q 11.671875 49.359375 16.75 51.1875 
Q 21.828125 53.03125 28.515625 53.03125 
Q 35.15625 53.03125 39.296875 51.46875 
Q 43.453125 49.90625 45.40625 47.53125 
Q 47.359375 45.171875 48.140625 41.546875 
Q 48.578125 39.3125 48.578125 33.453125 
L 48.578125 21.734375 
Q 48.578125 9.46875 49.140625 6.21875 
Q 49.703125 2.984375 51.375 0 
L 42.1875 0 
Q 40.828125 2.734375 40.4375 6.390625 
z
M 39.703125 26.03125 
Q 34.90625 24.078125 25.34375 22.703125 
Q 19.921875 21.921875 17.671875 20.9375 
Q 15.4375 19.96875 14.203125 18.09375 
Q 12.984375 16.21875 12.984375 13.921875 
Q 12.984375 10.40625 15.640625 8.0625 
Q 18.3125 5.71875 23.4375 5.71875 
Q 28.515625 5.71875 32.46875 7.9375 
Q 36.421875 10.15625 38.28125 14.015625 
Q 39.703125 17 39.703125 22.796875 
z
" id="ArialMT-97"/>
      <path d="M 6.59375 0 
L 6.59375 51.859375 
L 14.5 51.859375 
L 14.5 44.484375 
Q 20.21875 53.03125 31 53.03125 
Q 35.6875 53.03125 39.625 51.34375 
Q 43.5625 49.65625 45.515625 46.921875 
Q 47.46875 44.1875 48.25 40.4375 
Q 48.734375 37.984375 48.734375 31.890625 
L 48.734375 0 
L 39.9375 0 
L 39.9375 31.546875 
Q 39.9375 36.921875 38.90625 39.578125 
Q 37.890625 42.234375 35.28125 43.8125 
Q 32.671875 45.40625 29.15625 45.40625 
Q 23.53125 45.40625 19.453125 41.84375 
Q 15.375 38.28125 15.375 28.328125 
L 15.375 0 
z
" id="ArialMT-110"/>
      <path d="M 4.984375 -4.296875 
L 13.53125 -5.5625 
Q 14.0625 -9.515625 16.5 -11.328125 
Q 19.78125 -13.765625 25.4375 -13.765625 
Q 31.546875 -13.765625 34.859375 -11.328125 
Q 38.1875 -8.890625 39.359375 -4.5 
Q 40.046875 -1.8125 39.984375 6.78125 
Q 34.234375 0 25.640625 0 
Q 14.9375 0 9.078125 7.71875 
Q 3.21875 15.4375 3.21875 26.21875 
Q 3.21875 33.640625 5.90625 39.90625 
Q 8.59375 46.1875 13.6875 49.609375 
Q 18.796875 53.03125 25.6875 53.03125 
Q 34.859375 53.03125 40.828125 45.609375 
L 40.828125 51.859375 
L 48.921875 51.859375 
L 48.921875 7.03125 
Q 48.921875 -5.078125 46.453125 -10.125 
Q 44 -15.1875 38.640625 -18.109375 
Q 33.296875 -21.046875 25.484375 -21.046875 
Q 16.21875 -21.046875 10.5 -16.875 
Q 4.78125 -12.703125 4.984375 -4.296875 
z
M 12.25 26.859375 
Q 12.25 16.65625 16.296875 11.96875 
Q 20.359375 7.28125 26.46875 7.28125 
Q 32.515625 7.28125 36.609375 11.9375 
Q 40.71875 16.609375 40.71875 26.5625 
Q 40.71875 36.078125 36.5 40.90625 
Q 32.28125 45.75 26.3125 45.75 
Q 20.453125 45.75 16.34375 40.984375 
Q 12.25 36.234375 12.25 26.859375 
z
" id="ArialMT-103"/>
      <path d="M 7.71875 0 
L 7.71875 71.578125 
L 34.71875 71.578125 
Q 41.84375 71.578125 45.609375 70.90625 
Q 50.875 70.015625 54.4375 67.546875 
Q 58.015625 65.09375 60.1875 60.640625 
Q 62.359375 56.203125 62.359375 50.875 
Q 62.359375 41.75 56.546875 35.421875 
Q 50.734375 29.109375 35.546875 29.109375 
L 17.1875 29.109375 
L 17.1875 0 
z
M 17.1875 37.546875 
L 35.6875 37.546875 
Q 44.875 37.546875 48.734375 40.96875 
Q 52.59375 44.390625 52.59375 50.59375 
Q 52.59375 55.078125 50.3125 58.265625 
Q 48.046875 61.46875 44.34375 62.5 
Q 41.9375 63.140625 35.5 63.140625 
L 17.1875 63.140625 
z
" id="ArialMT-80"/>
      <path d="M 6.640625 61.46875 
L 6.640625 71.578125 
L 15.4375 71.578125 
L 15.4375 61.46875 
z
M 6.640625 0 
L 6.640625 51.859375 
L 15.4375 51.859375 
L 15.4375 0 
z
" id="ArialMT-105"/>
      <path d="M 25.78125 7.859375 
L 27.046875 0.09375 
Q 23.34375 -0.6875 20.40625 -0.6875 
Q 15.625 -0.6875 12.984375 0.828125 
Q 10.359375 2.34375 9.28125 4.8125 
Q 8.203125 7.28125 8.203125 15.1875 
L 8.203125 45.015625 
L 1.765625 45.015625 
L 1.765625 51.859375 
L 8.203125 51.859375 
L 8.203125 64.703125 
L 16.9375 69.96875 
L 16.9375 51.859375 
L 25.78125 51.859375 
L 25.78125 45.015625 
L 16.9375 45.015625 
L 16.9375 14.703125 
Q 16.9375 10.9375 17.40625 9.859375 
Q 17.875 8.796875 18.921875 8.15625 
Q 19.96875 7.515625 21.921875 7.515625 
Q 23.390625 7.515625 25.78125 7.859375 
z
" id="ArialMT-116"/>
      <path d="M 3.078125 15.484375 
L 11.765625 16.84375 
Q 12.5 11.625 15.84375 8.84375 
Q 19.1875 6.0625 25.203125 6.0625 
Q 31.25 6.0625 34.171875 8.515625 
Q 37.109375 10.984375 37.109375 14.3125 
Q 37.109375 17.28125 34.515625 19 
Q 32.71875 20.171875 25.53125 21.96875 
Q 15.875 24.421875 12.140625 26.203125 
Q 8.40625 27.984375 6.46875 31.125 
Q 4.546875 34.28125 4.546875 38.09375 
Q 4.546875 41.546875 6.125 44.5 
Q 7.71875 47.46875 10.453125 49.421875 
Q 12.5 50.921875 16.03125 51.96875 
Q 19.578125 53.03125 23.640625 53.03125 
Q 29.734375 53.03125 34.34375 51.265625 
Q 38.96875 49.515625 41.15625 46.5 
Q 43.359375 43.5 44.1875 38.484375 
L 35.59375 37.3125 
Q 35.015625 41.3125 32.203125 43.546875 
Q 29.390625 45.796875 24.265625 45.796875 
Q 18.21875 45.796875 15.625 43.796875 
Q 13.03125 41.796875 13.03125 39.109375 
Q 13.03125 37.40625 14.109375 36.03125 
Q 15.1875 34.625 17.484375 33.6875 
Q 18.796875 33.203125 25.25 31.453125 
Q 34.578125 28.953125 38.25 27.359375 
Q 41.9375 25.78125 44.03125 22.75 
Q 46.140625 19.734375 46.140625 15.234375 
Q 46.140625 10.84375 43.578125 6.953125 
Q 41.015625 3.078125 36.171875 0.953125 
Q 31.34375 -1.171875 25.25 -1.171875 
Q 15.140625 -1.171875 9.84375 3.03125 
Q 4.546875 7.234375 3.078125 15.484375 
z
" id="ArialMT-115"/>
      <path d="M 6.390625 0 
L 6.390625 71.578125 
L 15.1875 71.578125 
L 15.1875 0 
z
" id="ArialMT-108"/>
     </defs>
     <g style="fill:#262626;opacity:0.7;" transform="translate(172.48 546.752227)scale(0.16 -0.16)">
      <use xlink:href="#ArialMT-78"/>
      <use x="72.216797" xlink:href="#ArialMT-117"/>
      <use x="127.832031" xlink:href="#ArialMT-109"/>
      <use x="211.132812" xlink:href="#ArialMT-98"/>
      <use x="266.748047" xlink:href="#ArialMT-101"/>
      <use x="322.363281" xlink:href="#ArialMT-114"/>
      <use x="355.664062" xlink:href="#ArialMT-32"/>
      <use x="383.447266" xlink:href="#ArialMT-111"/>
      <use x="439.0625" xlink:href="#ArialMT-102"/>
      <use x="466.845703" xlink:href="#ArialMT-32"/>
      <use x="494.628906" xlink:href="#ArialMT-67"/>
      <use x="566.845703" xlink:href="#ArialMT-104"/>
      <use x="622.460938" xlink:href="#ArialMT-97"/>
      <use x="678.076172" xlink:href="#ArialMT-110"/>
      <use x="733.691406" xlink:href="#ArialMT-103"/>
      <use x="789.306641" xlink:href="#ArialMT-101"/>
      <use x="844.921875" xlink:href="#ArialMT-32"/>
      <use x="872.705078" xlink:href="#ArialMT-80"/>
      <use x="939.404297" xlink:href="#ArialMT-111"/>
      <use x="995.019531" xlink:href="#ArialMT-105"/>
      <use x="1017.236328" xlink:href="#ArialMT-110"/>
      <use x="1072.851562" xlink:href="#ArialMT-116"/>
      <use x="1100.634766" xlink:href="#ArialMT-115"/>
      <use x="1150.634766" xlink:href="#ArialMT-32"/>
      <use x="1178.417969" xlink:href="#ArialMT-80"/>
      <use x="1245.117188" xlink:href="#ArialMT-101"/>
      <use x="1300.732422" xlink:href="#ArialMT-114"/>
      <use x="1334.033203" xlink:href="#ArialMT-32"/>
      <use x="1361.816406" xlink:href="#ArialMT-67"/>
      <use x="1434.033203" xlink:href="#ArialMT-101"/>
      <use x="1489.648438" xlink:href="#ArialMT-108"/>
      <use x="1511.865234" xlink:href="#ArialMT-108"/>
     </g>
    </g>
   </g>
   <g id="matplotlib.axis_2">
    <g id="ytick_1">
     <g id="line2d_8">
      <defs>
       <path d="M 0 0 
L -6 0 
" id="mdfb3d23744" style="stroke:#262626;stroke-width:1.25;"/>
      </defs>
      <g>
       <use style="fill:#262626;stroke:#262626;stroke-width:1.25;" x="72" xlink:href="#mdfb3d23744" y="100.182857"/>
      </g>
     </g>
     <g id="text_9">
      <!-- 0.5 -->
      <defs>
       <path d="M 9.078125 0 
L 9.078125 10.015625 
L 19.09375 10.015625 
L 19.09375 0 
z
" id="ArialMT-46"/>
       <path d="M 4.15625 18.75 
L 13.375 19.53125 
Q 14.40625 12.796875 18.140625 9.390625 
Q 21.875 6 27.15625 6 
Q 33.5 6 37.890625 10.78125 
Q 42.28125 15.578125 42.28125 23.484375 
Q 42.28125 31 38.0625 35.34375 
Q 33.84375 39.703125 27 39.703125 
Q 22.75 39.703125 19.328125 37.765625 
Q 15.921875 35.84375 13.96875 32.765625 
L 5.71875 33.84375 
L 12.640625 70.609375 
L 48.25 70.609375 
L 48.25 62.203125 
L 19.671875 62.203125 
L 15.828125 42.96875 
Q 22.265625 47.46875 29.34375 47.46875 
Q 38.71875 47.46875 45.15625 40.96875 
Q 51.609375 34.46875 51.609375 24.265625 
Q 51.609375 14.546875 45.953125 7.46875 
Q 39.0625 -1.21875 27.15625 -1.21875 
Q 17.390625 -1.21875 11.203125 4.25 
Q 5.03125 9.71875 4.15625 18.75 
z
" id="ArialMT-53"/>
      </defs>
      <g style="fill:#262626;" transform="translate(35.7425 107.072252)scale(0.1925 -0.1925)">
       <use xlink:href="#ArialMT-48"/>
       <use x="55.615234" xlink:href="#ArialMT-46"/>
       <use x="83.398438" xlink:href="#ArialMT-53"/>
      </g>
     </g>
    </g>
    <g id="ytick_2">
     <g id="line2d_9">
      <g>
       <use style="fill:#262626;stroke:#262626;stroke-width:1.25;" x="72" xlink:href="#mdfb3d23744" y="162.308571"/>
      </g>
     </g>
     <g id="text_10">
      <!-- 1.0 -->
      <g style="fill:#262626;" transform="translate(35.7425 169.197966)scale(0.1925 -0.1925)">
       <use xlink:href="#ArialMT-49"/>
       <use x="55.615234" xlink:href="#ArialMT-46"/>
       <use x="83.398438" xlink:href="#ArialMT-48"/>
      </g>
     </g>
    </g>
    <g id="ytick_3">
     <g id="line2d_10">
      <g>
       <use style="fill:#262626;stroke:#262626;stroke-width:1.25;" x="72" xlink:href="#mdfb3d23744" y="224.434286"/>
      </g>
     </g>
     <g id="text_11">
      <!-- 1.5 -->
      <g style="fill:#262626;" transform="translate(35.7425 231.32368)scale(0.1925 -0.1925)">
       <use xlink:href="#ArialMT-49"/>
       <use x="55.615234" xlink:href="#ArialMT-46"/>
       <use x="83.398438" xlink:href="#ArialMT-53"/>
      </g>
     </g>
    </g>
    <g id="ytick_4">
     <g id="line2d_11">
      <g>
       <use style="fill:#262626;stroke:#262626;stroke-width:1.25;" x="72" xlink:href="#mdfb3d23744" y="286.56"/>
      </g>
     </g>
     <g id="text_12">
      <!-- 2.0 -->
      <g style="fill:#262626;" transform="translate(35.7425 293.449395)scale(0.1925 -0.1925)">
       <use xlink:href="#ArialMT-50"/>
       <use x="55.615234" xlink:href="#ArialMT-46"/>
       <use x="83.398438" xlink:href="#ArialMT-48"/>
      </g>
     </g>
    </g>
    <g id="ytick_5">
     <g id="line2d_12">
      <g>
       <use style="fill:#262626;stroke:#262626;stroke-width:1.25;" x="72" xlink:href="#mdfb3d23744" y="348.685714"/>
      </g>
     </g>
     <g id="text_13">
      <!-- 3.0 -->
      <defs>
       <path d="M 4.203125 18.890625 
L 12.984375 20.0625 
Q 14.5 12.59375 18.140625 9.296875 
Q 21.78125 6 27 6 
Q 33.203125 6 37.46875 10.296875 
Q 41.75 14.59375 41.75 20.953125 
Q 41.75 27 37.796875 30.921875 
Q 33.84375 34.859375 27.734375 34.859375 
Q 25.25 34.859375 21.53125 33.890625 
L 22.515625 41.609375 
Q 23.390625 41.5 23.921875 41.5 
Q 29.546875 41.5 34.03125 44.421875 
Q 38.53125 47.359375 38.53125 53.46875 
Q 38.53125 58.296875 35.25 61.46875 
Q 31.984375 64.65625 26.8125 64.65625 
Q 21.6875 64.65625 18.265625 61.421875 
Q 14.84375 58.203125 13.875 51.765625 
L 5.078125 53.328125 
Q 6.6875 62.15625 12.390625 67.015625 
Q 18.109375 71.875 26.609375 71.875 
Q 32.46875 71.875 37.390625 69.359375 
Q 42.328125 66.84375 44.9375 62.5 
Q 47.5625 58.15625 47.5625 53.265625 
Q 47.5625 48.640625 45.0625 44.828125 
Q 42.578125 41.015625 37.703125 38.765625 
Q 44.046875 37.3125 47.5625 32.6875 
Q 51.078125 28.078125 51.078125 21.140625 
Q 51.078125 11.765625 44.234375 5.25 
Q 37.40625 -1.265625 26.953125 -1.265625 
Q 17.53125 -1.265625 11.296875 4.34375 
Q 5.078125 9.96875 4.203125 18.890625 
z
" id="ArialMT-51"/>
      </defs>
      <g style="fill:#262626;" transform="translate(35.7425 355.575109)scale(0.1925 -0.1925)">
       <use xlink:href="#ArialMT-51"/>
       <use x="55.615234" xlink:href="#ArialMT-46"/>
       <use x="83.398438" xlink:href="#ArialMT-48"/>
      </g>
     </g>
    </g>
    <g id="ytick_6">
     <g id="line2d_13">
      <g>
       <use style="fill:#262626;stroke:#262626;stroke-width:1.25;" x="72" xlink:href="#mdfb3d23744" y="410.811429"/>
      </g>
     </g>
     <g id="text_14">
      <!-- 4.0 -->
      <g style="fill:#262626;" transform="translate(35.7425 417.700823)scale(0.1925 -0.1925)">
       <use xlink:href="#ArialMT-52"/>
       <use x="55.615234" xlink:href="#ArialMT-46"/>
       <use x="83.398438" xlink:href="#ArialMT-48"/>
      </g>
     </g>
    </g>
    <g id="ytick_7">
     <g id="line2d_14">
      <g>
       <use style="fill:#262626;stroke:#262626;stroke-width:1.25;" x="72" xlink:href="#mdfb3d23744" y="472.937143"/>
      </g>
     </g>
     <g id="text_15">
      <!-- 6.0 -->
      <g style="fill:#262626;" transform="translate(35.7425 479.826537)scale(0.1925 -0.1925)">
       <use xlink:href="#ArialMT-54"/>
       <use x="55.615234" xlink:href="#ArialMT-46"/>
       <use x="83.398438" xlink:href="#ArialMT-48"/>
      </g>
     </g>
    </g>
    <g id="text_16">
     <!-- Days in Vitro (DIV) -->
     <defs>
      <path d="M 7.71875 0 
L 7.71875 71.578125 
L 32.375 71.578125 
Q 40.71875 71.578125 45.125 70.5625 
Q 51.265625 69.140625 55.609375 65.4375 
Q 61.28125 60.640625 64.078125 53.1875 
Q 66.890625 45.75 66.890625 36.1875 
Q 66.890625 28.03125 64.984375 21.734375 
Q 63.09375 15.4375 60.109375 11.296875 
Q 57.125 7.171875 53.578125 4.796875 
Q 50.046875 2.4375 45.046875 1.21875 
Q 40.046875 0 33.546875 0 
z
M 17.1875 8.453125 
L 32.46875 8.453125 
Q 39.546875 8.453125 43.578125 9.765625 
Q 47.609375 11.078125 50 13.484375 
Q 53.375 16.84375 55.25 22.53125 
Q 57.125 28.21875 57.125 36.328125 
Q 57.125 47.5625 53.4375 53.59375 
Q 49.75 59.625 44.484375 61.671875 
Q 40.671875 63.140625 32.234375 63.140625 
L 17.1875 63.140625 
z
" id="ArialMT-68"/>
      <path d="M 6.203125 -19.96875 
L 5.21875 -11.71875 
Q 8.109375 -12.5 10.25 -12.5 
Q 13.1875 -12.5 14.9375 -11.515625 
Q 16.703125 -10.546875 17.828125 -8.796875 
Q 18.65625 -7.46875 20.515625 -2.25 
Q 20.75 -1.515625 21.296875 -0.09375 
L 1.609375 51.859375 
L 11.078125 51.859375 
L 21.875 21.828125 
Q 23.96875 16.109375 25.640625 9.8125 
Q 27.15625 15.875 29.25 21.625 
L 40.328125 51.859375 
L 49.125 51.859375 
L 29.390625 -0.875 
Q 26.21875 -9.421875 24.46875 -12.640625 
Q 22.125 -17 19.09375 -19.015625 
Q 16.0625 -21.046875 11.859375 -21.046875 
Q 9.328125 -21.046875 6.203125 -19.96875 
z
" id="ArialMT-121"/>
      <path d="M 28.171875 0 
L 0.4375 71.578125 
L 10.6875 71.578125 
L 29.296875 19.578125 
Q 31.546875 13.328125 33.0625 7.859375 
Q 34.71875 13.71875 36.921875 19.578125 
L 56.25 71.578125 
L 65.921875 71.578125 
L 37.890625 0 
z
" id="ArialMT-86"/>
      <path d="M 23.390625 -21.046875 
Q 16.109375 -11.859375 11.078125 0.4375 
Q 6.0625 12.75 6.0625 25.921875 
Q 6.0625 37.546875 9.8125 48.1875 
Q 14.203125 60.546875 23.390625 72.796875 
L 29.6875 72.796875 
Q 23.78125 62.640625 21.875 58.296875 
Q 18.890625 51.5625 17.1875 44.234375 
Q 15.09375 35.109375 15.09375 25.875 
Q 15.09375 2.390625 29.6875 -21.046875 
z
" id="ArialMT-40"/>
      <path d="M 9.328125 0 
L 9.328125 71.578125 
L 18.796875 71.578125 
L 18.796875 0 
z
" id="ArialMT-73"/>
      <path d="M 12.359375 -21.046875 
L 6.0625 -21.046875 
Q 20.65625 2.390625 20.65625 25.875 
Q 20.65625 35.0625 18.5625 44.09375 
Q 16.890625 51.421875 13.921875 58.15625 
Q 12.015625 62.546875 6.0625 72.796875 
L 12.359375 72.796875 
Q 21.53125 60.546875 25.921875 48.1875 
Q 29.6875 37.546875 29.6875 25.921875 
Q 29.6875 12.75 24.625 0.4375 
Q 19.578125 -11.859375 12.359375 -21.046875 
z
" id="ArialMT-41"/>
     </defs>
     <g style="fill:#262626;opacity:0.7;" transform="translate(28.375 352.79125)rotate(-90)scale(0.16 -0.16)">
      <use xlink:href="#ArialMT-68"/>
      <use x="72.216797" xlink:href="#ArialMT-97"/>
      <use x="127.832031" xlink:href="#ArialMT-121"/>
      <use x="177.832031" xlink:href="#ArialMT-115"/>
      <use x="227.832031" xlink:href="#ArialMT-32"/>
      <use x="255.615234" xlink:href="#ArialMT-105"/>
      <use x="277.832031" xlink:href="#ArialMT-110"/>
      <use x="333.447266" xlink:href="#ArialMT-32"/>
      <use x="361.230469" xlink:href="#ArialMT-86"/>
      <use x="427.914062" xlink:href="#ArialMT-105"/>
      <use x="450.130859" xlink:href="#ArialMT-116"/>
      <use x="477.914062" xlink:href="#ArialMT-114"/>
      <use x="511.214844" xlink:href="#ArialMT-111"/>
      <use x="566.830078" xlink:href="#ArialMT-32"/>
      <use x="594.613281" xlink:href="#ArialMT-40"/>
      <use x="627.914062" xlink:href="#ArialMT-68"/>
      <use x="700.130859" xlink:href="#ArialMT-73"/>
      <use x="727.914062" xlink:href="#ArialMT-86"/>
      <use x="794.613281" xlink:href="#ArialMT-41"/>
     </g>
    </g>
   </g>
   <g id="PolyCollection_1">
    <defs>
     <path d="M 75.72 -456.018143 
L 75.72 -495.616142 
L 75.907879 -496.225836 
L 76.095758 -496.803785 
L 76.283636 -497.347668 
L 76.471515 -497.855386 
L 76.659394 -498.325057 
L 76.847273 -498.755014 
L 77.035152 -499.143805 
L 77.22303 -499.490185 
L 77.410909 -499.79312 
L 77.598788 -500.051784 
L 77.786667 -500.265564 
L 77.974545 -500.434066 
L 78.162424 -500.557123 
L 78.350303 -500.634804 
L 78.538182 -500.667429 
L 78.726061 -500.655576 
L 78.913939 -500.600098 
L 79.101818 -500.50213 
L 79.289697 -500.363098 
L 79.477576 -500.184721 
L 79.665455 -499.969012 
L 79.853333 -499.718268 
L 80.041212 -499.435062 
L 80.229091 -499.122216 
L 80.41697 -498.782784 
L 80.604848 -498.420013 
L 80.792727 -498.037303 
L 80.980606 -497.638171 
L 81.168485 -497.226196 
L 81.356364 -496.804969 
L 81.544242 -496.378045 
L 81.732121 -495.948883 
L 81.92 -495.520799 
L 82.107879 -495.096915 
L 82.295758 -494.680112 
L 82.483636 -494.272989 
L 82.671515 -493.877827 
L 82.859394 -493.496565 
L 83.047273 -493.130771 
L 83.235152 -492.781633 
L 83.42303 -492.449955 
L 83.610909 -492.136153 
L 83.798788 -491.840272 
L 83.986667 -491.561997 
L 84.174545 -491.300682 
L 84.362424 -491.055375 
L 84.550303 -490.824859 
L 84.738182 -490.607688 
L 84.926061 -490.402233 
L 85.113939 -490.206725 
L 85.301818 -490.019304 
L 85.489697 -489.838066 
L 85.677576 -489.661109 
L 85.865455 -489.486578 
L 86.053333 -489.312709 
L 86.241212 -489.137863 
L 86.429091 -488.960564 
L 86.61697 -488.779523 
L 86.804848 -488.593667 
L 86.992727 -488.402147 
L 87.180606 -488.204357 
L 87.368485 -487.999933 
L 87.556364 -487.78875 
L 87.744242 -487.570914 
L 87.932121 -487.346753 
L 88.12 -487.116787 
L 88.307879 -486.881717 
L 88.495758 -486.642388 
L 88.683636 -486.399764 
L 88.871515 -486.154896 
L 89.059394 -485.90889 
L 89.247273 -485.662872 
L 89.435152 -485.417962 
L 89.62303 -485.175239 
L 89.810909 -484.935717 
L 89.998788 -484.700317 
L 90.186667 -484.469853 
L 90.374545 -484.245008 
L 90.562424 -484.026323 
L 90.750303 -483.81419 
L 90.938182 -483.608847 
L 91.126061 -483.410375 
L 91.313939 -483.218703 
L 91.501818 -483.033618 
L 91.689697 -482.854769 
L 91.877576 -482.681684 
L 92.065455 -482.51379 
L 92.253333 -482.350421 
L 92.441212 -482.190849 
L 92.629091 -482.034295 
L 92.81697 -481.879958 
L 93.004848 -481.727032 
L 93.192727 -481.574729 
L 93.380606 -481.422297 
L 93.568485 -481.269043 
L 93.756364 -481.114348 
L 93.944242 -480.95768 
L 94.132121 -480.798611 
L 94.32 -480.636824 
L 94.32 -470.997461 
L 94.32 -470.997461 
L 94.132121 -470.835674 
L 93.944242 -470.676605 
L 93.756364 -470.519938 
L 93.568485 -470.365243 
L 93.380606 -470.211989 
L 93.192727 -470.059557 
L 93.004848 -469.907253 
L 92.81697 -469.754327 
L 92.629091 -469.59999 
L 92.441212 -469.443437 
L 92.253333 -469.283864 
L 92.065455 -469.120496 
L 91.877576 -468.952601 
L 91.689697 -468.779517 
L 91.501818 -468.600668 
L 91.313939 -468.415582 
L 91.126061 -468.223911 
L 90.938182 -468.025439 
L 90.750303 -467.820096 
L 90.562424 -467.607963 
L 90.374545 -467.389278 
L 90.186667 -467.164432 
L 89.998788 -466.933968 
L 89.810909 -466.698569 
L 89.62303 -466.459046 
L 89.435152 -466.216323 
L 89.247273 -465.971413 
L 89.059394 -465.725396 
L 88.871515 -465.47939 
L 88.683636 -465.234522 
L 88.495758 -464.991898 
L 88.307879 -464.752569 
L 88.12 -464.517498 
L 87.932121 -464.287533 
L 87.744242 -464.063371 
L 87.556364 -463.845536 
L 87.368485 -463.634353 
L 87.180606 -463.429928 
L 86.992727 -463.232139 
L 86.804848 -463.040619 
L 86.61697 -462.854762 
L 86.429091 -462.673722 
L 86.241212 -462.496423 
L 86.053333 -462.321577 
L 85.865455 -462.147708 
L 85.677576 -461.973177 
L 85.489697 -461.79622 
L 85.301818 -461.614981 
L 85.113939 -461.42756 
L 84.926061 -461.232052 
L 84.738182 -461.026597 
L 84.550303 -460.809427 
L 84.362424 -460.578911 
L 84.174545 -460.333604 
L 83.986667 -460.072288 
L 83.798788 -459.794013 
L 83.610909 -459.498132 
L 83.42303 -459.184331 
L 83.235152 -458.852653 
L 83.047273 -458.503515 
L 82.859394 -458.137721 
L 82.671515 -457.756458 
L 82.483636 -457.361297 
L 82.295758 -456.954174 
L 82.107879 -456.53737 
L 81.92 -456.113486 
L 81.732121 -455.685403 
L 81.544242 -455.256241 
L 81.356364 -454.829316 
L 81.168485 -454.40809 
L 80.980606 -453.996114 
L 80.792727 -453.596982 
L 80.604848 -453.214273 
L 80.41697 -452.851501 
L 80.229091 -452.512069 
L 80.041212 -452.199224 
L 79.853333 -451.916017 
L 79.665455 -451.665274 
L 79.477576 -451.449564 
L 79.289697 -451.271188 
L 79.101818 -451.132156 
L 78.913939 -451.034188 
L 78.726061 -450.97871 
L 78.538182 -450.966857 
L 78.350303 -450.999482 
L 78.162424 -451.077163 
L 77.974545 -451.20022 
L 77.786667 -451.368722 
L 77.598788 -451.582502 
L 77.410909 -451.841166 
L 77.22303 -452.1441 
L 77.035152 -452.490481 
L 76.847273 -452.879271 
L 76.659394 -453.309229 
L 76.471515 -453.7789 
L 76.283636 -454.286617 
L 76.095758 -454.830501 
L 75.907879 -455.40845 
L 75.72 -456.018143 
z
" id="mab9e2abe45" style="stroke:#494949;stroke-width:1.5;"/>
    </defs>
    <g clip-path="url(#p8aeb45cd15)">
     <use style="fill:#5875a4;stroke:#494949;stroke-width:1.5;" x="0" xlink:href="#mab9e2abe45" y="576"/>
    </g>
   </g>
   <g id="PolyCollection_2">
    <defs>
     <path d="M 75.72 -399.505218 
L 75.72 -427.877639 
L 76.095758 -428.158163 
L 76.471515 -428.391095 
L 76.847273 -428.575048 
L 77.22303 -428.70924 
L 77.598788 -428.793502 
L 77.974545 -428.828259 
L 78.350303 -428.814514 
L 78.726061 -428.753808 
L 79.101818 -428.648178 
L 79.477576 -428.500103 
L 79.853333 -428.312446 
L 80.229091 -428.088388 
L 80.604848 -427.831362 
L 80.980606 -427.544986 
L 81.356364 -427.232996 
L 81.732121 -426.899181 
L 82.107879 -426.547322 
L 82.483636 -426.181137 
L 82.859394 -425.804233 
L 83.235152 -425.420061 
L 83.610909 -425.031883 
L 83.986667 -424.64274 
L 84.362424 -424.255436 
L 84.738182 -423.872519 
L 85.113939 -423.496277 
L 85.489697 -423.128734 
L 85.865455 -422.771656 
L 86.241212 -422.426558 
L 86.61697 -422.094714 
L 86.992727 -421.777174 
L 87.368485 -421.474779 
L 87.744242 -421.188181 
L 88.12 -420.917856 
L 88.495758 -420.664129 
L 88.871515 -420.427185 
L 89.247273 -420.20709 
L 89.62303 -420.003802 
L 89.998788 -419.817186 
L 90.374545 -419.647023 
L 90.750303 -419.493022 
L 91.126061 -419.354823 
L 91.501818 -419.232004 
L 91.877576 -419.124086 
L 92.253333 -419.030529 
L 92.629091 -418.950739 
L 93.004848 -418.884063 
L 93.380606 -418.82979 
L 93.756364 -418.787152 
L 94.132121 -418.755319 
L 94.507879 -418.733402 
L 94.883636 -418.720451 
L 95.259394 -418.715461 
L 95.635152 -418.717371 
L 96.010909 -418.725071 
L 96.386667 -418.737409 
L 96.762424 -418.753198 
L 97.138182 -418.771226 
L 97.513939 -418.790269 
L 97.889697 -418.809102 
L 98.265455 -418.826515 
L 98.641212 -418.841328 
L 99.01697 -418.852403 
L 99.392727 -418.858666 
L 99.768485 -418.859116 
L 100.144242 -418.852845 
L 100.52 -418.839047 
L 100.895758 -418.817036 
L 101.271515 -418.786251 
L 101.647273 -418.746265 
L 102.02303 -418.696794 
L 102.398788 -418.637698 
L 102.774545 -418.568979 
L 103.150303 -418.490784 
L 103.526061 -418.403393 
L 103.901818 -418.307218 
L 104.277576 -418.202785 
L 104.653333 -418.090727 
L 105.029091 -417.971767 
L 105.404848 -417.846702 
L 105.780606 -417.716384 
L 106.156364 -417.581706 
L 106.532121 -417.443579 
L 106.907879 -417.302918 
L 107.283636 -417.160624 
L 107.659394 -417.017567 
L 108.035152 -416.874572 
L 108.410909 -416.732408 
L 108.786667 -416.591779 
L 109.162424 -416.453312 
L 109.538182 -416.317554 
L 109.913939 -416.184971 
L 110.289697 -416.055945 
L 110.665455 -415.930777 
L 111.041212 -415.809689 
L 111.41697 -415.692831 
L 111.792727 -415.580288 
L 112.168485 -415.472087 
L 112.544242 -415.368205 
L 112.92 -415.268582 
L 112.92 -412.114275 
L 112.92 -412.114275 
L 112.544242 -412.014652 
L 112.168485 -411.91077 
L 111.792727 -411.802569 
L 111.41697 -411.690026 
L 111.041212 -411.573168 
L 110.665455 -411.45208 
L 110.289697 -411.326912 
L 109.913939 -411.197886 
L 109.538182 -411.065303 
L 109.162424 -410.929546 
L 108.786667 -410.791078 
L 108.410909 -410.650449 
L 108.035152 -410.508285 
L 107.659394 -410.365291 
L 107.283636 -410.222233 
L 106.907879 -410.079939 
L 106.532121 -409.939278 
L 106.156364 -409.801151 
L 105.780606 -409.666473 
L 105.404848 -409.536155 
L 105.029091 -409.41109 
L 104.653333 -409.29213 
L 104.277576 -409.180072 
L 103.901818 -409.075639 
L 103.526061 -408.979464 
L 103.150303 -408.892074 
L 102.774545 -408.813878 
L 102.398788 -408.74516 
L 102.02303 -408.686063 
L 101.647273 -408.636592 
L 101.271515 -408.596606 
L 100.895758 -408.565821 
L 100.52 -408.54381 
L 100.144242 -408.530013 
L 99.768485 -408.523741 
L 99.392727 -408.524191 
L 99.01697 -408.530454 
L 98.641212 -408.541529 
L 98.265455 -408.556342 
L 97.889697 -408.573755 
L 97.513939 -408.592588 
L 97.138182 -408.611631 
L 96.762424 -408.629659 
L 96.386667 -408.645448 
L 96.010909 -408.657786 
L 95.635152 -408.665486 
L 95.259394 -408.667396 
L 94.883636 -408.662406 
L 94.507879 -408.649455 
L 94.132121 -408.627538 
L 93.756364 -408.595705 
L 93.380606 -408.553067 
L 93.004848 -408.498794 
L 92.629091 -408.432118 
L 92.253333 -408.352328 
L 91.877576 -408.258771 
L 91.501818 -408.150853 
L 91.126061 -408.028034 
L 90.750303 -407.889835 
L 90.374545 -407.735834 
L 89.998788 -407.565672 
L 89.62303 -407.379055 
L 89.247273 -407.175767 
L 88.871515 -406.955672 
L 88.495758 -406.718728 
L 88.12 -406.465001 
L 87.744242 -406.194677 
L 87.368485 -405.908078 
L 86.992727 -405.605683 
L 86.61697 -405.288143 
L 86.241212 -404.956299 
L 85.865455 -404.611201 
L 85.489697 -404.254123 
L 85.113939 -403.88658 
L 84.738182 -403.510338 
L 84.362424 -403.127421 
L 83.986667 -402.740117 
L 83.610909 -402.350974 
L 83.235152 -401.962796 
L 82.859394 -401.578624 
L 82.483636 -401.20172 
L 82.107879 -400.835535 
L 81.732121 -400.483676 
L 81.356364 -400.149861 
L 80.980606 -399.837871 
L 80.604848 -399.551496 
L 80.229091 -399.29447 
L 79.853333 -399.070411 
L 79.477576 -398.882754 
L 79.101818 -398.734679 
L 78.726061 -398.629049 
L 78.350303 -398.568343 
L 77.974545 -398.554598 
L 77.598788 -398.589356 
L 77.22303 -398.673617 
L 76.847273 -398.807809 
L 76.471515 -398.991762 
L 76.095758 -399.224694 
L 75.72 -399.505218 
z
" id="m3f10a55089" style="stroke:#494949;stroke-width:1.5;"/>
    </defs>
    <g clip-path="url(#p8aeb45cd15)">
     <use style="fill:#cc8963;stroke:#494949;stroke-width:1.5;" x="0" xlink:href="#m3f10a55089" y="576"/>
    </g>
   </g>
   <g id="PolyCollection_3">
    <defs>
     <path d="M 75.72 -342.759581 
L 75.72 -360.371847 
L 76.96 -360.983246 
L 78.2 -361.484372 
L 79.44 -361.858286 
L 80.68 -362.094179 
L 81.92 -362.188025 
L 83.16 -362.142672 
L 84.4 -361.967361 
L 85.64 -361.676748 
L 86.88 -361.289551 
L 88.12 -360.826973 
L 89.36 -360.311066 
L 90.6 -359.763207 
L 91.84 -359.202809 
L 93.08 -358.646373 
L 94.32 -358.106919 
L 95.56 -357.593798 
L 96.8 -357.112852 
L 98.04 -356.666828 
L 99.28 -356.255976 
L 100.52 -355.878726 
L 101.76 -355.532353 
L 103 -355.213571 
L 104.24 -354.919008 
L 105.48 -354.645539 
L 106.72 -354.390495 
L 107.96 -354.151745 
L 109.2 -353.927701 
L 110.44 -353.717266 
L 111.68 -353.519752 
L 112.92 -353.334795 
L 114.16 -353.162276 
L 115.4 -353.002243 
L 116.64 -352.854858 
L 117.88 -352.720341 
L 119.12 -352.59893 
L 120.36 -352.490845 
L 121.6 -352.39626 
L 122.84 -352.315286 
L 124.08 -352.247956 
L 125.32 -352.194225 
L 126.56 -352.153951 
L 127.8 -352.126883 
L 129.04 -352.112629 
L 130.28 -352.1106 
L 131.52 -352.119948 
L 132.76 -352.139495 
L 134 -352.167667 
L 135.24 -352.202459 
L 136.48 -352.241439 
L 137.72 -352.281814 
L 138.96 -352.320545 
L 140.2 -352.354535 
L 141.44 -352.380842 
L 142.68 -352.396914 
L 143.92 -352.400805 
L 145.16 -352.391349 
L 146.4 -352.368264 
L 147.64 -352.332164 
L 148.88 -352.284493 
L 150.12 -352.22737 
L 151.36 -352.163385 
L 152.6 -352.095359 
L 153.84 -352.0261 
L 155.08 -351.95819 
L 156.32 -351.893818 
L 157.56 -351.834669 
L 158.8 -351.78188 
L 160.04 -351.736054 
L 161.28 -351.697314 
L 162.52 -351.665397 
L 163.76 -351.639753 
L 165 -351.619657 
L 166.24 -351.604302 
L 167.48 -351.592879 
L 168.72 -351.584637 
L 169.96 -351.578922 
L 171.2 -351.575202 
L 172.44 -351.573073 
L 173.68 -351.57226 
L 174.92 -351.572605 
L 176.16 -351.574059 
L 177.4 -351.576659 
L 178.64 -351.580514 
L 179.88 -351.585778 
L 181.12 -351.592626 
L 182.36 -351.60122 
L 183.6 -351.611678 
L 184.84 -351.624036 
L 186.08 -351.63822 
L 187.32 -351.654012 
L 188.56 -351.671042 
L 189.8 -351.688779 
L 191.04 -351.70655 
L 192.28 -351.723578 
L 193.52 -351.73903 
L 194.76 -351.752087 
L 196 -351.762012 
L 197.24 -351.768218 
L 198.48 -351.770331 
L 198.48 -351.361098 
L 198.48 -351.361098 
L 197.24 -351.36321 
L 196 -351.369417 
L 194.76 -351.379341 
L 193.52 -351.392398 
L 192.28 -351.407851 
L 191.04 -351.424879 
L 189.8 -351.44265 
L 188.56 -351.460386 
L 187.32 -351.477416 
L 186.08 -351.493209 
L 184.84 -351.507393 
L 183.6 -351.519751 
L 182.36 -351.530209 
L 181.12 -351.538803 
L 179.88 -351.54565 
L 178.64 -351.550915 
L 177.4 -351.55477 
L 176.16 -351.55737 
L 174.92 -351.558823 
L 173.68 -351.559169 
L 172.44 -351.558355 
L 171.2 -351.556226 
L 169.96 -351.552506 
L 168.72 -351.546791 
L 167.48 -351.538549 
L 166.24 -351.527126 
L 165 -351.511772 
L 163.76 -351.491676 
L 162.52 -351.466032 
L 161.28 -351.434114 
L 160.04 -351.395375 
L 158.8 -351.349549 
L 157.56 -351.29676 
L 156.32 -351.237611 
L 155.08 -351.173238 
L 153.84 -351.105328 
L 152.6 -351.036069 
L 151.36 -350.968043 
L 150.12 -350.904059 
L 148.88 -350.846936 
L 147.64 -350.799264 
L 146.4 -350.763164 
L 145.16 -350.740079 
L 143.92 -350.730624 
L 142.68 -350.734515 
L 141.44 -350.750586 
L 140.2 -350.776894 
L 138.96 -350.810884 
L 137.72 -350.849615 
L 136.48 -350.889989 
L 135.24 -350.92897 
L 134 -350.963762 
L 132.76 -350.991934 
L 131.52 -351.011481 
L 130.28 -351.020829 
L 129.04 -351.018799 
L 127.8 -351.004545 
L 126.56 -350.977478 
L 125.32 -350.937204 
L 124.08 -350.883472 
L 122.84 -350.816143 
L 121.6 -350.735168 
L 120.36 -350.640584 
L 119.12 -350.532499 
L 117.88 -350.411088 
L 116.64 -350.276571 
L 115.4 -350.129185 
L 114.16 -349.969153 
L 112.92 -349.796633 
L 111.68 -349.611677 
L 110.44 -349.414163 
L 109.2 -349.203727 
L 107.96 -348.979683 
L 106.72 -348.740933 
L 105.48 -348.485889 
L 104.24 -348.212421 
L 103 -347.917857 
L 101.76 -347.599075 
L 100.52 -347.252703 
L 99.28 -346.875453 
L 98.04 -346.464601 
L 96.8 -346.018576 
L 95.56 -345.53763 
L 94.32 -345.02451 
L 93.08 -344.485055 
L 91.84 -343.92862 
L 90.6 -343.368222 
L 89.36 -342.820362 
L 88.12 -342.304455 
L 86.88 -341.841877 
L 85.64 -341.454681 
L 84.4 -341.164068 
L 83.16 -340.988756 
L 81.92 -340.943404 
L 80.68 -341.03725 
L 79.44 -341.273142 
L 78.2 -341.647057 
L 76.96 -342.148183 
L 75.72 -342.759581 
z
" id="mfdd8a1ab49" style="stroke:#494949;stroke-width:1.5;"/>
    </defs>
    <g clip-path="url(#p8aeb45cd15)">
     <use style="fill:#5f9e6e;stroke:#494949;stroke-width:1.5;" x="0" xlink:href="#mfdd8a1ab49" y="576"/>
    </g>
   </g>
   <g id="PolyCollection_4">
    <defs>
     <path d="M 75.72 -284.35963 
L 75.72 -294.52037 
L 77.636364 -294.97313 
L 79.552727 -295.356688 
L 81.469091 -295.658735 
L 83.385455 -295.872397 
L 85.301818 -295.996406 
L 87.218182 -296.034615 
L 89.134545 -295.994969 
L 91.050909 -295.888157 
L 92.967273 -295.726184 
L 94.883636 -295.521099 
L 96.8 -295.284042 
L 98.716364 -295.024676 
L 100.632727 -294.75102 
L 102.549091 -294.469564 
L 104.465455 -294.185559 
L 106.381818 -293.903348 
L 108.298182 -293.62662 
L 110.214545 -293.358544 
L 112.130909 -293.10177 
L 114.047273 -292.858327 
L 115.963636 -292.629501 
L 117.88 -292.415738 
L 119.796364 -292.21663 
L 121.712727 -292.031013 
L 123.629091 -291.857157 
L 125.545455 -291.693038 
L 127.461818 -291.536625 
L 129.378182 -291.386163 
L 131.294545 -291.240391 
L 133.210909 -291.098676 
L 135.127273 -290.961049 
L 137.043636 -290.828145 
L 138.96 -290.701055 
L 140.876364 -290.58112 
L 142.792727 -290.469691 
L 144.709091 -290.367894 
L 146.625455 -290.276443 
L 148.541818 -290.19551 
L 150.458182 -290.124685 
L 152.374545 -290.063035 
L 154.290909 -290.009226 
L 156.207273 -289.961718 
L 158.123636 -289.918973 
L 160.04 -289.879653 
L 161.956364 -289.842776 
L 163.872727 -289.807809 
L 165.789091 -289.774674 
L 167.705455 -289.743694 
L 169.621818 -289.715465 
L 171.538182 -289.690705 
L 173.454545 -289.670084 
L 175.370909 -289.654075 
L 177.287273 -289.642843 
L 179.203636 -289.636198 
L 181.12 -289.633595 
L 183.036364 -289.634199 
L 184.952727 -289.636988 
L 186.869091 -289.640876 
L 188.785455 -289.644844 
L 190.701818 -289.648039 
L 192.618182 -289.649851 
L 194.534545 -289.649939 
L 196.450909 -289.64822 
L 198.367273 -289.644824 
L 200.283636 -289.640032 
L 202.2 -289.634205 
L 204.116364 -289.627729 
L 206.032727 -289.620961 
L 207.949091 -289.614207 
L 209.865455 -289.607704 
L 211.781818 -289.601614 
L 213.698182 -289.596019 
L 215.614545 -289.590917 
L 217.530909 -289.586223 
L 219.447273 -289.581771 
L 221.363636 -289.577323 
L 223.28 -289.572603 
L 225.196364 -289.567328 
L 227.112727 -289.561263 
L 229.029091 -289.554264 
L 230.945455 -289.546324 
L 232.861818 -289.53759 
L 234.778182 -289.528364 
L 236.694545 -289.519082 
L 238.610909 -289.510262 
L 240.527273 -289.502453 
L 242.443636 -289.496169 
L 244.36 -289.491831 
L 246.276364 -289.489718 
L 248.192727 -289.48993 
L 250.109091 -289.492369 
L 252.025455 -289.49674 
L 253.941818 -289.50257 
L 255.858182 -289.509243 
L 257.774545 -289.516053 
L 259.690909 -289.522273 
L 261.607273 -289.527226 
L 263.523636 -289.530351 
L 265.44 -289.531268 
L 265.44 -289.348732 
L 265.44 -289.348732 
L 263.523636 -289.349649 
L 261.607273 -289.352774 
L 259.690909 -289.357727 
L 257.774545 -289.363947 
L 255.858182 -289.370757 
L 253.941818 -289.37743 
L 252.025455 -289.38326 
L 250.109091 -289.387631 
L 248.192727 -289.39007 
L 246.276364 -289.390282 
L 244.36 -289.388169 
L 242.443636 -289.383831 
L 240.527273 -289.377547 
L 238.610909 -289.369738 
L 236.694545 -289.360918 
L 234.778182 -289.351636 
L 232.861818 -289.34241 
L 230.945455 -289.333676 
L 229.029091 -289.325736 
L 227.112727 -289.318737 
L 225.196364 -289.312672 
L 223.28 -289.307397 
L 221.363636 -289.302677 
L 219.447273 -289.298229 
L 217.530909 -289.293777 
L 215.614545 -289.289083 
L 213.698182 -289.283981 
L 211.781818 -289.278386 
L 209.865455 -289.272296 
L 207.949091 -289.265793 
L 206.032727 -289.259039 
L 204.116364 -289.252271 
L 202.2 -289.245795 
L 200.283636 -289.239968 
L 198.367273 -289.235176 
L 196.450909 -289.23178 
L 194.534545 -289.230061 
L 192.618182 -289.230149 
L 190.701818 -289.231961 
L 188.785455 -289.235156 
L 186.869091 -289.239124 
L 184.952727 -289.243012 
L 183.036364 -289.245801 
L 181.12 -289.246405 
L 179.203636 -289.243802 
L 177.287273 -289.237157 
L 175.370909 -289.225925 
L 173.454545 -289.209916 
L 171.538182 -289.189295 
L 169.621818 -289.164535 
L 167.705455 -289.136306 
L 165.789091 -289.105326 
L 163.872727 -289.072191 
L 161.956364 -289.037224 
L 160.04 -289.000347 
L 158.123636 -288.961027 
L 156.207273 -288.918282 
L 154.290909 -288.870774 
L 152.374545 -288.816965 
L 150.458182 -288.755315 
L 148.541818 -288.68449 
L 146.625455 -288.603557 
L 144.709091 -288.512106 
L 142.792727 -288.410309 
L 140.876364 -288.29888 
L 138.96 -288.178945 
L 137.043636 -288.051855 
L 135.127273 -287.918951 
L 133.210909 -287.781324 
L 131.294545 -287.639609 
L 129.378182 -287.493837 
L 127.461818 -287.343375 
L 125.545455 -287.186962 
L 123.629091 -287.022843 
L 121.712727 -286.848987 
L 119.796364 -286.66337 
L 117.88 -286.464262 
L 115.963636 -286.250499 
L 114.047273 -286.021673 
L 112.130909 -285.77823 
L 110.214545 -285.521456 
L 108.298182 -285.25338 
L 106.381818 -284.976652 
L 104.465455 -284.694441 
L 102.549091 -284.410436 
L 100.632727 -284.12898 
L 98.716364 -283.855324 
L 96.8 -283.595958 
L 94.883636 -283.358901 
L 92.967273 -283.153816 
L 91.050909 -282.991843 
L 89.134545 -282.885031 
L 87.218182 -282.845385 
L 85.301818 -282.883594 
L 83.385455 -283.007603 
L 81.469091 -283.221265 
L 79.552727 -283.523312 
L 77.636364 -283.90687 
L 75.72 -284.35963 
z
" id="m8ffb129b3e" style="stroke:#494949;stroke-width:1.5;"/>
    </defs>
    <g clip-path="url(#p8aeb45cd15)">
     <use style="fill:#b55d60;stroke:#494949;stroke-width:1.5;" x="0" xlink:href="#m8ffb129b3e" y="576"/>
    </g>
   </g>
   <g id="PolyCollection_5">
    <defs>
     <path d="M 75.72 -225.068571 
L 75.72 -229.560001 
L 78.087273 -229.870241 
L 80.454545 -230.178039 
L 82.821818 -230.477278 
L 85.189091 -230.762726 
L 87.556364 -231.030081 
L 89.923636 -231.275827 
L 92.290909 -231.496946 
L 94.658182 -231.690592 
L 97.025455 -231.853811 
L 99.392727 -231.983401 
L 101.76 -232.075971 
L 104.127273 -232.128192 
L 106.494545 -232.13722 
L 108.861818 -232.101197 
L 111.229091 -232.019751 
L 113.596364 -231.894385 
L 115.963636 -231.728672 
L 118.330909 -231.528198 
L 120.698182 -231.300257 
L 123.065455 -231.053322 
L 125.432727 -230.796366 
L 127.8 -230.538143 
L 130.167273 -230.286524 
L 132.534545 -230.047989 
L 134.901818 -229.827326 
L 137.269091 -229.62756 
L 139.636364 -229.450083 
L 142.003636 -229.29492 
L 144.370909 -229.161061 
L 146.738182 -229.046782 
L 149.105455 -228.949905 
L 151.472727 -228.867969 
L 153.84 -228.798331 
L 156.207273 -228.738227 
L 158.574545 -228.684825 
L 160.941818 -228.635317 
L 163.309091 -228.58705 
L 165.676364 -228.5377 
L 168.043636 -228.485444 
L 170.410909 -228.429108 
L 172.778182 -228.36824 
L 175.145455 -228.303099 
L 177.512727 -228.234551 
L 179.88 -228.163897 
L 182.247273 -228.092675 
L 184.614545 -228.022457 
L 186.981818 -227.954698 
L 189.349091 -227.890642 
L 191.716364 -227.831288 
L 194.083636 -227.777404 
L 196.450909 -227.729571 
L 198.818182 -227.688227 
L 201.185455 -227.653688 
L 203.552727 -227.626145 
L 205.92 -227.605637 
L 208.287273 -227.592002 
L 210.654545 -227.584838 
L 213.021818 -227.583474 
L 215.389091 -227.586977 
L 217.756364 -227.594187 
L 220.123636 -227.603788 
L 222.490909 -227.614391 
L 224.858182 -227.624629 
L 227.225455 -227.63324 
L 229.592727 -227.639129 
L 231.96 -227.641418 
L 234.327273 -227.639477 
L 236.694545 -227.632934 
L 239.061818 -227.621689 
L 241.429091 -227.605916 
L 243.796364 -227.58605 
L 246.163636 -227.562775 
L 248.530909 -227.536977 
L 250.898182 -227.509683 
L 253.265455 -227.481982 
L 255.632727 -227.454933 
L 258 -227.42948 
L 260.367273 -227.406382 
L 262.734545 -227.386172 
L 265.101818 -227.369144 
L 267.469091 -227.355378 
L 269.836364 -227.344784 
L 272.203636 -227.337162 
L 274.570909 -227.332257 
L 276.938182 -227.329815 
L 279.305455 -227.329609 
L 281.672727 -227.33145 
L 284.04 -227.335175 
L 286.407273 -227.340617 
L 288.774545 -227.347567 
L 291.141818 -227.355736 
L 293.509091 -227.36473 
L 295.876364 -227.374042 
L 298.243636 -227.383069 
L 300.610909 -227.39116 
L 302.978182 -227.397681 
L 305.345455 -227.402084 
L 307.712727 -227.403987 
L 310.08 -227.403218 
L 310.08 -227.225354 
L 310.08 -227.225354 
L 307.712727 -227.224585 
L 305.345455 -227.226487 
L 302.978182 -227.230891 
L 300.610909 -227.237411 
L 298.243636 -227.245503 
L 295.876364 -227.25453 
L 293.509091 -227.263841 
L 291.141818 -227.272835 
L 288.774545 -227.281005 
L 286.407273 -227.287954 
L 284.04 -227.293396 
L 281.672727 -227.297121 
L 279.305455 -227.298962 
L 276.938182 -227.298756 
L 274.570909 -227.296314 
L 272.203636 -227.29141 
L 269.836364 -227.283787 
L 267.469091 -227.273193 
L 265.101818 -227.259428 
L 262.734545 -227.2424 
L 260.367273 -227.222189 
L 258 -227.199092 
L 255.632727 -227.173639 
L 253.265455 -227.146589 
L 250.898182 -227.118888 
L 248.530909 -227.091594 
L 246.163636 -227.065796 
L 243.796364 -227.042521 
L 241.429091 -227.022656 
L 239.061818 -227.006882 
L 236.694545 -226.995637 
L 234.327273 -226.989095 
L 231.96 -226.987153 
L 229.592727 -226.989443 
L 227.225455 -226.995332 
L 224.858182 -227.003942 
L 222.490909 -227.014181 
L 220.123636 -227.024784 
L 217.756364 -227.034384 
L 215.389091 -227.041595 
L 213.021818 -227.045098 
L 210.654545 -227.043734 
L 208.287273 -227.03657 
L 205.92 -227.022935 
L 203.552727 -227.002426 
L 201.185455 -226.974883 
L 198.818182 -226.940344 
L 196.450909 -226.899 
L 194.083636 -226.851168 
L 191.716364 -226.797283 
L 189.349091 -226.737929 
L 186.981818 -226.673873 
L 184.614545 -226.606115 
L 182.247273 -226.535896 
L 179.88 -226.464674 
L 177.512727 -226.394021 
L 175.145455 -226.325472 
L 172.778182 -226.260331 
L 170.410909 -226.199463 
L 168.043636 -226.143127 
L 165.676364 -226.090871 
L 163.309091 -226.041521 
L 160.941818 -225.993255 
L 158.574545 -225.943746 
L 156.207273 -225.890345 
L 153.84 -225.83024 
L 151.472727 -225.760603 
L 149.105455 -225.678666 
L 146.738182 -225.581789 
L 144.370909 -225.46751 
L 142.003636 -225.333651 
L 139.636364 -225.178488 
L 137.269091 -225.001011 
L 134.901818 -224.801246 
L 132.534545 -224.580583 
L 130.167273 -224.342047 
L 127.8 -224.090428 
L 125.432727 -223.832205 
L 123.065455 -223.575249 
L 120.698182 -223.328314 
L 118.330909 -223.100374 
L 115.963636 -222.8999 
L 113.596364 -222.734186 
L 111.229091 -222.608821 
L 108.861818 -222.527375 
L 106.494545 -222.491351 
L 104.127273 -222.500379 
L 101.76 -222.552601 
L 99.392727 -222.645171 
L 97.025455 -222.774761 
L 94.658182 -222.937979 
L 92.290909 -223.131625 
L 89.923636 -223.352745 
L 87.556364 -223.59849 
L 85.189091 -223.865845 
L 82.821818 -224.151294 
L 80.454545 -224.450533 
L 78.087273 -224.75833 
L 75.72 -225.068571 
z
" id="m46051e8a4f" style="stroke:#494949;stroke-width:1.5;"/>
    </defs>
    <g clip-path="url(#p8aeb45cd15)">
     <use style="fill:#857aab;stroke:#494949;stroke-width:1.5;" x="0" xlink:href="#m46051e8a4f" y="576"/>
    </g>
   </g>
   <g id="PolyCollection_6">
    <defs>
     <path d="M 75.72 -163.58958 
L 75.72 -166.787563 
L 79.70303 -166.967518 
L 83.686061 -167.141301 
L 87.669091 -167.304724 
L 91.652121 -167.453912 
L 95.635152 -167.585452 
L 99.618182 -167.696504 
L 103.601212 -167.784857 
L 107.584242 -167.848966 
L 111.567273 -167.887949 
L 115.550303 -167.901572 
L 119.533333 -167.890234 
L 123.516364 -167.854944 
L 127.499394 -167.797304 
L 131.482424 -167.719484 
L 135.465455 -167.624196 
L 139.448485 -167.514644 
L 143.431515 -167.394443 
L 147.414545 -167.267502 
L 151.397576 -167.13787 
L 155.380606 -167.009542 
L 159.363636 -166.886242 
L 163.346667 -166.771202 
L 167.329697 -166.66696 
L 171.312727 -166.575199 
L 175.295758 -166.496648 
L 179.278788 -166.431067 
L 183.261818 -166.377311 
L 187.244848 -166.333481 
L 191.227879 -166.297131 
L 195.210909 -166.265529 
L 199.193939 -166.235922 
L 203.17697 -166.205795 
L 207.16 -166.173086 
L 211.14303 -166.136338 
L 215.126061 -166.094784 
L 219.109091 -166.048353 
L 223.092121 -165.997603 
L 227.075152 -165.943602 
L 231.058182 -165.887766 
L 235.041212 -165.831683 
L 239.024242 -165.776935 
L 243.007273 -165.72495 
L 246.990303 -165.676878 
L 250.973333 -165.633521 
L 254.956364 -165.595306 
L 258.939394 -165.562299 
L 262.922424 -165.534258 
L 266.905455 -165.510706 
L 270.888485 -165.49102 
L 274.871515 -165.47451 
L 278.854545 -165.460498 
L 282.837576 -165.448367 
L 286.820606 -165.437598 
L 290.803636 -165.427778 
L 294.786667 -165.418595 
L 298.769697 -165.409822 
L 302.752727 -165.401292 
L 306.735758 -165.39288 
L 310.718788 -165.384484 
L 314.701818 -165.37602 
L 318.684848 -165.367422 
L 322.667879 -165.358647 
L 326.650909 -165.349678 
L 330.633939 -165.340538 
L 334.61697 -165.331287 
L 338.6 -165.322018 
L 342.58303 -165.312853 
L 346.566061 -165.303924 
L 350.549091 -165.295362 
L 354.532121 -165.287282 
L 358.515152 -165.279775 
L 362.498182 -165.272903 
L 366.481212 -165.266698 
L 370.464242 -165.261175 
L 374.447273 -165.256338 
L 378.430303 -165.252195 
L 382.413333 -165.248765 
L 386.396364 -165.246085 
L 390.379394 -165.244207 
L 394.362424 -165.243191 
L 398.345455 -165.243089 
L 402.328485 -165.24393 
L 406.311515 -165.2457 
L 410.294545 -165.24833 
L 414.277576 -165.251686 
L 418.260606 -165.255571 
L 422.243636 -165.259735 
L 426.226667 -165.26389 
L 430.209697 -165.267739 
L 434.192727 -165.270995 
L 438.175758 -165.27341 
L 442.158788 -165.274793 
L 446.141818 -165.275023 
L 450.124848 -165.27405 
L 454.107879 -165.271898 
L 458.090909 -165.268651 
L 462.073939 -165.264443 
L 466.05697 -165.25944 
L 470.04 -165.25383 
L 470.04 -165.123313 
L 470.04 -165.123313 
L 466.05697 -165.117703 
L 462.073939 -165.1127 
L 458.090909 -165.108491 
L 454.107879 -165.105245 
L 450.124848 -165.103093 
L 446.141818 -165.10212 
L 442.158788 -165.102349 
L 438.175758 -165.103733 
L 434.192727 -165.106148 
L 430.209697 -165.109404 
L 426.226667 -165.113252 
L 422.243636 -165.117408 
L 418.260606 -165.121572 
L 414.277576 -165.125457 
L 410.294545 -165.128813 
L 406.311515 -165.131443 
L 402.328485 -165.133213 
L 398.345455 -165.134053 
L 394.362424 -165.133952 
L 390.379394 -165.132935 
L 386.396364 -165.131058 
L 382.413333 -165.128378 
L 378.430303 -165.124948 
L 374.447273 -165.120805 
L 370.464242 -165.115968 
L 366.481212 -165.110445 
L 362.498182 -165.10424 
L 358.515152 -165.097368 
L 354.532121 -165.089861 
L 350.549091 -165.081781 
L 346.566061 -165.073219 
L 342.58303 -165.06429 
L 338.6 -165.055125 
L 334.61697 -165.045856 
L 330.633939 -165.036605 
L 326.650909 -165.027465 
L 322.667879 -165.018496 
L 318.684848 -165.00972 
L 314.701818 -165.001123 
L 310.718788 -164.992659 
L 306.735758 -164.984263 
L 302.752727 -164.97585 
L 298.769697 -164.967321 
L 294.786667 -164.958548 
L 290.803636 -164.949365 
L 286.820606 -164.939545 
L 282.837576 -164.928776 
L 278.854545 -164.916645 
L 274.871515 -164.902633 
L 270.888485 -164.886123 
L 266.905455 -164.866437 
L 262.922424 -164.842885 
L 258.939394 -164.814844 
L 254.956364 -164.781837 
L 250.973333 -164.743622 
L 246.990303 -164.700265 
L 243.007273 -164.652193 
L 239.024242 -164.600208 
L 235.041212 -164.54546 
L 231.058182 -164.489377 
L 227.075152 -164.433541 
L 223.092121 -164.379539 
L 219.109091 -164.328789 
L 215.126061 -164.282358 
L 211.14303 -164.240805 
L 207.16 -164.204057 
L 203.17697 -164.171348 
L 199.193939 -164.141221 
L 195.210909 -164.111614 
L 191.227879 -164.080012 
L 187.244848 -164.043662 
L 183.261818 -163.999832 
L 179.278788 -163.946076 
L 175.295758 -163.880495 
L 171.312727 -163.801944 
L 167.329697 -163.710183 
L 163.346667 -163.605941 
L 159.363636 -163.490901 
L 155.380606 -163.367601 
L 151.397576 -163.239273 
L 147.414545 -163.109641 
L 143.431515 -162.9827 
L 139.448485 -162.862499 
L 135.465455 -162.752947 
L 131.482424 -162.657659 
L 127.499394 -162.579839 
L 123.516364 -162.522199 
L 119.533333 -162.486909 
L 115.550303 -162.475571 
L 111.567273 -162.489194 
L 107.584242 -162.528176 
L 103.601212 -162.592286 
L 99.618182 -162.680639 
L 95.635152 -162.791691 
L 91.652121 -162.923231 
L 87.669091 -163.072419 
L 83.686061 -163.235841 
L 79.70303 -163.409625 
L 75.72 -163.58958 
z
" id="m2fd2c4593a" style="stroke:#494949;stroke-width:1.5;"/>
    </defs>
    <g clip-path="url(#p8aeb45cd15)">
     <use style="fill:#8d7866;stroke:#494949;stroke-width:1.5;" x="0" xlink:href="#m2fd2c4593a" y="576"/>
    </g>
   </g>
   <g id="PolyCollection_7">
    <defs>
     <path d="M 105.48 -102.140147 
L 105.48 -103.985567 
L 108.448485 -104.031065 
L 111.41697 -104.07636 
L 114.385455 -104.121263 
L 117.353939 -104.165583 
L 120.322424 -104.209132 
L 123.290909 -104.251723 
L 126.259394 -104.293175 
L 129.227879 -104.333308 
L 132.196364 -104.371952 
L 135.164848 -104.408942 
L 138.133333 -104.444123 
L 141.101818 -104.477347 
L 144.070303 -104.508476 
L 147.038788 -104.537385 
L 150.007273 -104.563957 
L 152.975758 -104.58809 
L 155.944242 -104.60969 
L 158.912727 -104.62868 
L 161.881212 -104.644995 
L 164.849697 -104.658582 
L 167.818182 -104.669404 
L 170.786667 -104.677436 
L 173.755152 -104.682669 
L 176.723636 -104.685108 
L 179.692121 -104.684773 
L 182.660606 -104.681697 
L 185.629091 -104.675928 
L 188.597576 -104.667529 
L 191.566061 -104.656574 
L 194.534545 -104.643154 
L 197.50303 -104.627369 
L 200.471515 -104.609333 
L 203.44 -104.58917 
L 206.408485 -104.567014 
L 209.37697 -104.543009 
L 212.345455 -104.517307 
L 215.313939 -104.490065 
L 218.282424 -104.461449 
L 221.250909 -104.431627 
L 224.219394 -104.40077 
L 227.187879 -104.369054 
L 230.156364 -104.336654 
L 233.124848 -104.303745 
L 236.093333 -104.2705 
L 239.061818 -104.237091 
L 242.030303 -104.203687 
L 244.998788 -104.170451 
L 247.967273 -104.137542 
L 250.935758 -104.105112 
L 253.904242 -104.073307 
L 256.872727 -104.042265 
L 259.841212 -104.012114 
L 262.809697 -103.982975 
L 265.778182 -103.954956 
L 268.746667 -103.928157 
L 271.715152 -103.902665 
L 274.683636 -103.878554 
L 277.652121 -103.855888 
L 280.620606 -103.834714 
L 283.589091 -103.815067 
L 286.557576 -103.796967 
L 289.526061 -103.780421 
L 292.494545 -103.765419 
L 295.46303 -103.751937 
L 298.431515 -103.739935 
L 301.4 -103.729361 
L 304.368485 -103.720147 
L 307.33697 -103.712211 
L 310.305455 -103.705461 
L 313.273939 -103.69979 
L 316.242424 -103.695084 
L 319.210909 -103.691218 
L 322.179394 -103.688061 
L 325.147879 -103.685475 
L 328.116364 -103.68332 
L 331.084848 -103.681452 
L 334.053333 -103.679729 
L 337.021818 -103.678009 
L 339.990303 -103.676155 
L 342.958788 -103.674037 
L 345.927273 -103.67153 
L 348.895758 -103.668518 
L 351.864242 -103.664898 
L 354.832727 -103.660576 
L 357.801212 -103.655473 
L 360.769697 -103.649521 
L 363.738182 -103.642668 
L 366.706667 -103.634877 
L 369.675152 -103.626122 
L 372.643636 -103.616397 
L 375.612121 -103.605705 
L 378.580606 -103.594064 
L 381.549091 -103.581507 
L 384.517576 -103.568077 
L 387.486061 -103.553826 
L 390.454545 -103.538819 
L 393.42303 -103.523127 
L 396.391515 -103.50683 
L 399.36 -103.490011 
L 399.36 -102.635703 
L 399.36 -102.635703 
L 396.391515 -102.618885 
L 393.42303 -102.602587 
L 390.454545 -102.586896 
L 387.486061 -102.571888 
L 384.517576 -102.557638 
L 381.549091 -102.544207 
L 378.580606 -102.53165 
L 375.612121 -102.52001 
L 372.643636 -102.509317 
L 369.675152 -102.499592 
L 366.706667 -102.490838 
L 363.738182 -102.483046 
L 360.769697 -102.476193 
L 357.801212 -102.470242 
L 354.832727 -102.465138 
L 351.864242 -102.460816 
L 348.895758 -102.457196 
L 345.927273 -102.454185 
L 342.958788 -102.451677 
L 339.990303 -102.449559 
L 337.021818 -102.447705 
L 334.053333 -102.445986 
L 331.084848 -102.444262 
L 328.116364 -102.442394 
L 325.147879 -102.440239 
L 322.179394 -102.437653 
L 319.210909 -102.434496 
L 316.242424 -102.43063 
L 313.273939 -102.425924 
L 310.305455 -102.420254 
L 307.33697 -102.413503 
L 304.368485 -102.405567 
L 301.4 -102.396353 
L 298.431515 -102.385779 
L 295.46303 -102.373778 
L 292.494545 -102.360295 
L 289.526061 -102.345293 
L 286.557576 -102.328747 
L 283.589091 -102.310648 
L 280.620606 -102.291001 
L 277.652121 -102.269826 
L 274.683636 -102.24716 
L 271.715152 -102.223049 
L 268.746667 -102.197557 
L 265.778182 -102.170758 
L 262.809697 -102.14274 
L 259.841212 -102.1136 
L 256.872727 -102.083449 
L 253.904242 -102.052407 
L 250.935758 -102.020602 
L 247.967273 -101.988172 
L 244.998788 -101.955263 
L 242.030303 -101.922027 
L 239.061818 -101.888623 
L 236.093333 -101.855214 
L 233.124848 -101.82197 
L 230.156364 -101.78906 
L 227.187879 -101.75666 
L 224.219394 -101.724944 
L 221.250909 -101.694088 
L 218.282424 -101.664265 
L 215.313939 -101.635649 
L 212.345455 -101.608407 
L 209.37697 -101.582705 
L 206.408485 -101.5587 
L 203.44 -101.536544 
L 200.471515 -101.516381 
L 197.50303 -101.498345 
L 194.534545 -101.48256 
L 191.566061 -101.46914 
L 188.597576 -101.458186 
L 185.629091 -101.449786 
L 182.660606 -101.444018 
L 179.692121 -101.440941 
L 176.723636 -101.440606 
L 173.755152 -101.443045 
L 170.786667 -101.448279 
L 167.818182 -101.456311 
L 164.849697 -101.467132 
L 161.881212 -101.480719 
L 158.912727 -101.497034 
L 155.944242 -101.516024 
L 152.975758 -101.537625 
L 150.007273 -101.561757 
L 147.038788 -101.588329 
L 144.070303 -101.617238 
L 141.101818 -101.648367 
L 138.133333 -101.681591 
L 135.164848 -101.716772 
L 132.196364 -101.753762 
L 129.227879 -101.792406 
L 126.259394 -101.83254 
L 123.290909 -101.873991 
L 120.322424 -101.916582 
L 117.353939 -101.960131 
L 114.385455 -102.004451 
L 111.41697 -102.049354 
L 108.448485 -102.094649 
L 105.48 -102.140147 
z
" id="mc7bbd6ff08" style="stroke:#494949;stroke-width:1.5;"/>
    </defs>
    <g clip-path="url(#p8aeb45cd15)">
     <use style="fill:#d095bf;stroke:#494949;stroke-width:1.5;" x="0" xlink:href="#mc7bbd6ff08" y="576"/>
    </g>
   </g>
   <g id="line2d_15">
    <path clip-path="url(#p8aeb45cd15)" d="M 77.58 76.190562 
L 77.58 124.175152 
" style="fill:none;stroke:#494949;stroke-dasharray:3.375,3.375;stroke-dashoffset:0;stroke-width:1.5;"/>
   </g>
   <g id="line2d_16">
    <path clip-path="url(#p8aeb45cd15)" d="M 79.44 76.058954 
L 79.44 124.30676 
" style="fill:none;stroke:#494949;stroke-dasharray:6.75,6.75;stroke-dashoffset:0;stroke-width:1.5;"/>
   </g>
   <g id="line2d_17">
    <path clip-path="url(#p8aeb45cd15)" d="M 86.88 87.534099 
L 86.88 112.831616 
" style="fill:none;stroke:#494949;stroke-dasharray:3.375,3.375;stroke-dashoffset:0;stroke-width:1.5;"/>
   </g>
   <g id="line2d_18">
    <path clip-path="url(#p8aeb45cd15)" d="M 75.72 148.264223 
L 75.72 176.35292 
" style="fill:none;stroke:#494949;stroke-dasharray:3.375,3.375;stroke-dashoffset:0;stroke-width:1.5;"/>
   </g>
   <g id="line2d_19">
    <path clip-path="url(#p8aeb45cd15)" d="M 79.44 147.647984 
L 79.44 176.969159 
" style="fill:none;stroke:#494949;stroke-dasharray:6.75,6.75;stroke-dashoffset:0;stroke-width:1.5;"/>
   </g>
   <g id="line2d_20">
    <path clip-path="url(#p8aeb45cd15)" d="M 91.53 156.823401 
L 91.53 167.793742 
" style="fill:none;stroke:#494949;stroke-dasharray:3.375,3.375;stroke-dashoffset:0;stroke-width:1.5;"/>
   </g>
   <g id="line2d_21">
    <path clip-path="url(#p8aeb45cd15)" d="M 79.44 214.24464 
L 79.44 234.623932 
" style="fill:none;stroke:#494949;stroke-dasharray:3.375,3.375;stroke-dashoffset:0;stroke-width:1.5;"/>
   </g>
   <g id="line2d_22">
    <path clip-path="url(#p8aeb45cd15)" d="M 83.16 213.963097 
L 83.16 234.905474 
" style="fill:none;stroke:#494949;stroke-dasharray:6.75,6.75;stroke-dashoffset:0;stroke-width:1.5;"/>
   </g>
   <g id="line2d_23">
    <path clip-path="url(#p8aeb45cd15)" d="M 95.25 218.466482 
L 95.25 230.402089 
" style="fill:none;stroke:#494949;stroke-dasharray:3.375,3.375;stroke-dashoffset:0;stroke-width:1.5;"/>
   </g>
   <g id="line2d_24">
    <path clip-path="url(#p8aeb45cd15)" d="M 83.16 280.191927 
L 83.16 292.928073 
" style="fill:none;stroke:#494949;stroke-dasharray:3.375,3.375;stroke-dashoffset:0;stroke-width:1.5;"/>
   </g>
   <g id="line2d_25">
    <path clip-path="url(#p8aeb45cd15)" d="M 94.32 280.539712 
L 94.32 292.580288 
" style="fill:none;stroke:#494949;stroke-dasharray:6.75,6.75;stroke-dashoffset:0;stroke-width:1.5;"/>
   </g>
   <g id="line2d_26">
    <path clip-path="url(#p8aeb45cd15)" d="M 109.2 282.415247 
L 109.2 290.704753 
" style="fill:none;stroke:#494949;stroke-dasharray:3.375,3.375;stroke-dashoffset:0;stroke-width:1.5;"/>
   </g>
   <g id="line2d_27">
    <path clip-path="url(#p8aeb45cd15)" d="M 95.25 344.353171 
L 95.25 353.018258 
" style="fill:none;stroke:#494949;stroke-dasharray:3.375,3.375;stroke-dashoffset:0;stroke-width:1.5;"/>
   </g>
   <g id="line2d_28">
    <path clip-path="url(#p8aeb45cd15)" d="M 112.92 344.151416 
L 112.92 353.220013 
" style="fill:none;stroke:#494949;stroke-dasharray:6.75,6.75;stroke-dashoffset:0;stroke-width:1.5;"/>
   </g>
   <g id="line2d_29">
    <path clip-path="url(#p8aeb45cd15)" d="M 138.03 346.395573 
L 138.03 350.975856 
" style="fill:none;stroke:#494949;stroke-dasharray:3.375,3.375;stroke-dashoffset:0;stroke-width:1.5;"/>
   </g>
   <g id="line2d_30">
    <path clip-path="url(#p8aeb45cd15)" d="M 102.69 408.241106 
L 102.69 413.381752 
" style="fill:none;stroke:#494949;stroke-dasharray:3.375,3.375;stroke-dashoffset:0;stroke-width:1.5;"/>
   </g>
   <g id="line2d_31">
    <path clip-path="url(#p8aeb45cd15)" d="M 131.52 408.305825 
L 131.52 413.317032 
" style="fill:none;stroke:#494949;stroke-dasharray:6.75,6.75;stroke-dashoffset:0;stroke-width:1.5;"/>
   </g>
   <g id="line2d_32">
    <path clip-path="url(#p8aeb45cd15)" d="M 187.32 409.677968 
L 187.32 411.944889 
" style="fill:none;stroke:#494949;stroke-dasharray:3.375,3.375;stroke-dashoffset:0;stroke-width:1.5;"/>
   </g>
   <g id="line2d_33">
    <path clip-path="url(#p8aeb45cd15)" d="M 156.63 471.405778 
L 156.63 474.468507 
" style="fill:none;stroke:#494949;stroke-dasharray:3.375,3.375;stroke-dashoffset:0;stroke-width:1.5;"/>
   </g>
   <g id="line2d_34">
    <path clip-path="url(#p8aeb45cd15)" d="M 196.62 471.388276 
L 196.62 474.48601 
" style="fill:none;stroke:#494949;stroke-dasharray:6.75,6.75;stroke-dashoffset:0;stroke-width:1.5;"/>
   </g>
   <g id="line2d_35">
    <path clip-path="url(#p8aeb45cd15)" d="M 260.79 471.997378 
L 260.79 473.876907 
" style="fill:none;stroke:#494949;stroke-dasharray:3.375,3.375;stroke-dashoffset:0;stroke-width:1.5;"/>
   </g>
   <g id="patch_3">
    <path d="M 72 504 
L 518.4 504 
" style="fill:none;stroke:#262626;stroke-linecap:square;stroke-linejoin:miter;stroke-width:1.25;"/>
   </g>
  </g>
 </g>
 <defs>
  <clipPath id="p8aeb45cd15">
   <rect height="434.88" width="446.4" x="72" y="69.12"/>
  </clipPath>
 </defs>
</svg>
