<?xml version="1.0" encoding="utf-8" standalone="no"?>
<!DOCTYPE svg PUBLIC "-//W3C//DTD SVG 1.1//EN"
  "http://www.w3.org/Graphics/SVG/1.1/DTD/svg11.dtd">
<!-- Created with matplotlib (https://matplotlib.org/) -->
<svg height="576pt" version="1.1" viewBox="0 0 576 576" width="576pt" xmlns="http://www.w3.org/2000/svg" xmlns:xlink="http://www.w3.org/1999/xlink">
 <defs>
  <style type="text/css">
*{stroke-linecap:butt;stroke-linejoin:round;}
  </style>
 </defs>
 <g id="figure_1">
  <g id="patch_1">
   <path d="M 0 576 
L 576 576 
L 576 0 
L 0 0 
z
" style="fill:#ffffff;"/>
  </g>
  <g id="axes_1">
   <g id="patch_2">
    <path d="M 72 504 
L 518.4 504 
L 518.4 69.12 
L 72 69.12 
z
" style="fill:#ffffff;"/>
   </g>
   <g id="matplotlib.axis_1">
    <g id="xtick_1">
     <g id="line2d_1">
      <defs>
       <path d="M 0 0 
L 0 6 
" id="md09369c7c7" style="stroke:#262626;stroke-width:1.25;"/>
      </defs>
      <g>
       <use style="fill:#262626;stroke:#262626;stroke-width:1.25;" x="72" xlink:href="#md09369c7c7" y="504"/>
      </g>
     </g>
     <g id="text_1">
      <!-- 0 -->
      <defs>
       <path d="M 4.15625 35.296875 
Q 4.15625 48 6.765625 55.734375 
Q 9.375 63.484375 14.515625 67.671875 
Q 19.671875 71.875 27.484375 71.875 
Q 33.25 71.875 37.59375 69.546875 
Q 41.9375 67.234375 44.765625 62.859375 
Q 47.609375 58.5 49.21875 52.21875 
Q 50.828125 45.953125 50.828125 35.296875 
Q 50.828125 22.703125 48.234375 14.96875 
Q 45.65625 7.234375 40.5 3 
Q 35.359375 -1.21875 27.484375 -1.21875 
Q 17.140625 -1.21875 11.234375 6.203125 
Q 4.15625 15.140625 4.15625 35.296875 
z
M 13.1875 35.296875 
Q 13.1875 17.671875 17.3125 11.828125 
Q 21.4375 6 27.484375 6 
Q 33.546875 6 37.671875 11.859375 
Q 41.796875 17.71875 41.796875 35.296875 
Q 41.796875 52.984375 37.671875 58.78125 
Q 33.546875 64.59375 27.390625 64.59375 
Q 21.34375 64.59375 17.71875 59.46875 
Q 13.1875 52.9375 13.1875 35.296875 
z
" id="ArialMT-48"/>
      </defs>
      <g style="fill:#262626;" transform="translate(66.647598 527.278789)scale(0.1925 -0.1925)">
       <use xlink:href="#ArialMT-48"/>
      </g>
     </g>
    </g>
    <g id="xtick_2">
     <g id="line2d_2">
      <g>
       <use style="fill:#262626;stroke:#262626;stroke-width:1.25;" x="161.28" xlink:href="#md09369c7c7" y="504"/>
      </g>
     </g>
     <g id="text_2">
      <!-- 5 -->
      <defs>
       <path d="M 4.15625 18.75 
L 13.375 19.53125 
Q 14.40625 12.796875 18.140625 9.390625 
Q 21.875 6 27.15625 6 
Q 33.5 6 37.890625 10.78125 
Q 42.28125 15.578125 42.28125 23.484375 
Q 42.28125 31 38.0625 35.34375 
Q 33.84375 39.703125 27 39.703125 
Q 22.75 39.703125 19.328125 37.765625 
Q 15.921875 35.84375 13.96875 32.765625 
L 5.71875 33.84375 
L 12.640625 70.609375 
L 48.25 70.609375 
L 48.25 62.203125 
L 19.671875 62.203125 
L 15.828125 42.96875 
Q 22.265625 47.46875 29.34375 47.46875 
Q 38.71875 47.46875 45.15625 40.96875 
Q 51.609375 34.46875 51.609375 24.265625 
Q 51.609375 14.546875 45.953125 7.46875 
Q 39.0625 -1.21875 27.15625 -1.21875 
Q 17.390625 -1.21875 11.203125 4.25 
Q 5.03125 9.71875 4.15625 18.75 
z
" id="ArialMT-53"/>
      </defs>
      <g style="fill:#262626;" transform="translate(155.927598 527.278789)scale(0.1925 -0.1925)">
       <use xlink:href="#ArialMT-53"/>
      </g>
     </g>
    </g>
    <g id="xtick_3">
     <g id="line2d_3">
      <g>
       <use style="fill:#262626;stroke:#262626;stroke-width:1.25;" x="250.56" xlink:href="#md09369c7c7" y="504"/>
      </g>
     </g>
     <g id="text_3">
      <!-- 10 -->
      <defs>
       <path d="M 37.25 0 
L 28.46875 0 
L 28.46875 56 
Q 25.296875 52.984375 20.140625 49.953125 
Q 14.984375 46.921875 10.890625 45.40625 
L 10.890625 53.90625 
Q 18.265625 57.375 23.78125 62.296875 
Q 29.296875 67.234375 31.59375 71.875 
L 37.25 71.875 
z
" id="ArialMT-49"/>
      </defs>
      <g style="fill:#262626;" transform="translate(239.855195 527.278789)scale(0.1925 -0.1925)">
       <use xlink:href="#ArialMT-49"/>
       <use x="55.615234" xlink:href="#ArialMT-48"/>
      </g>
     </g>
    </g>
    <g id="xtick_4">
     <g id="line2d_4">
      <g>
       <use style="fill:#262626;stroke:#262626;stroke-width:1.25;" x="339.84" xlink:href="#md09369c7c7" y="504"/>
      </g>
     </g>
     <g id="text_4">
      <!-- 15 -->
      <g style="fill:#262626;" transform="translate(329.135195 527.278789)scale(0.1925 -0.1925)">
       <use xlink:href="#ArialMT-49"/>
       <use x="55.615234" xlink:href="#ArialMT-53"/>
      </g>
     </g>
    </g>
    <g id="xtick_5">
     <g id="line2d_5">
      <g>
       <use style="fill:#262626;stroke:#262626;stroke-width:1.25;" x="429.12" xlink:href="#md09369c7c7" y="504"/>
      </g>
     </g>
     <g id="text_5">
      <!-- 20 -->
      <defs>
       <path d="M 50.34375 8.453125 
L 50.34375 0 
L 3.03125 0 
Q 2.9375 3.171875 4.046875 6.109375 
Q 5.859375 10.9375 9.828125 15.625 
Q 13.8125 20.3125 21.34375 26.46875 
Q 33.015625 36.03125 37.109375 41.625 
Q 41.21875 47.21875 41.21875 52.203125 
Q 41.21875 57.421875 37.46875 61 
Q 33.734375 64.59375 27.734375 64.59375 
Q 21.390625 64.59375 17.578125 60.78125 
Q 13.765625 56.984375 13.71875 50.25 
L 4.6875 51.171875 
Q 5.609375 61.28125 11.65625 66.578125 
Q 17.71875 71.875 27.9375 71.875 
Q 38.234375 71.875 44.234375 66.15625 
Q 50.25 60.453125 50.25 52 
Q 50.25 47.703125 48.484375 43.546875 
Q 46.734375 39.40625 42.65625 34.8125 
Q 38.578125 30.21875 29.109375 22.21875 
Q 21.1875 15.578125 18.9375 13.203125 
Q 16.703125 10.84375 15.234375 8.453125 
z
" id="ArialMT-50"/>
      </defs>
      <g style="fill:#262626;" transform="translate(418.415195 527.278789)scale(0.1925 -0.1925)">
       <use xlink:href="#ArialMT-50"/>
       <use x="55.615234" xlink:href="#ArialMT-48"/>
      </g>
     </g>
    </g>
    <g id="xtick_6">
     <g id="line2d_6">
      <g>
       <use style="fill:#262626;stroke:#262626;stroke-width:1.25;" x="518.4" xlink:href="#md09369c7c7" y="504"/>
      </g>
     </g>
     <g id="text_6">
      <!-- 25 -->
      <g style="fill:#262626;" transform="translate(507.695195 527.278789)scale(0.1925 -0.1925)">
       <use xlink:href="#ArialMT-50"/>
       <use x="55.615234" xlink:href="#ArialMT-53"/>
      </g>
     </g>
    </g>
    <g id="text_7">
     <!-- Average Segment Length Per Cell (um) -->
     <defs>
      <path d="M -0.140625 0 
L 27.34375 71.578125 
L 37.546875 71.578125 
L 66.84375 0 
L 56.0625 0 
L 47.703125 21.6875 
L 17.78125 21.6875 
L 9.90625 0 
z
M 20.515625 29.390625 
L 44.78125 29.390625 
L 37.3125 49.21875 
Q 33.890625 58.25 32.234375 64.0625 
Q 30.859375 57.171875 28.375 50.390625 
z
" id="ArialMT-65"/>
      <path d="M 21 0 
L 1.265625 51.859375 
L 10.546875 51.859375 
L 21.6875 20.796875 
Q 23.484375 15.765625 25 10.359375 
Q 26.171875 14.453125 28.265625 20.21875 
L 39.796875 51.859375 
L 48.828125 51.859375 
L 29.203125 0 
z
" id="ArialMT-118"/>
      <path d="M 42.09375 16.703125 
L 51.171875 15.578125 
Q 49.03125 7.625 43.21875 3.21875 
Q 37.40625 -1.171875 28.375 -1.171875 
Q 17 -1.171875 10.328125 5.828125 
Q 3.65625 12.84375 3.65625 25.484375 
Q 3.65625 38.578125 10.390625 45.796875 
Q 17.140625 53.03125 27.875 53.03125 
Q 38.28125 53.03125 44.875 45.953125 
Q 51.46875 38.875 51.46875 26.03125 
Q 51.46875 25.25 51.421875 23.6875 
L 12.75 23.6875 
Q 13.234375 15.140625 17.578125 10.59375 
Q 21.921875 6.0625 28.421875 6.0625 
Q 33.25 6.0625 36.671875 8.59375 
Q 40.09375 11.140625 42.09375 16.703125 
z
M 13.234375 30.90625 
L 42.1875 30.90625 
Q 41.609375 37.453125 38.875 40.71875 
Q 34.671875 45.796875 27.984375 45.796875 
Q 21.921875 45.796875 17.796875 41.75 
Q 13.671875 37.703125 13.234375 30.90625 
z
" id="ArialMT-101"/>
      <path d="M 6.5 0 
L 6.5 51.859375 
L 14.40625 51.859375 
L 14.40625 44 
Q 17.4375 49.515625 20 51.265625 
Q 22.5625 53.03125 25.640625 53.03125 
Q 30.078125 53.03125 34.671875 50.203125 
L 31.640625 42.046875 
Q 28.421875 43.953125 25.203125 43.953125 
Q 22.3125 43.953125 20.015625 42.21875 
Q 17.71875 40.484375 16.75 37.40625 
Q 15.28125 32.71875 15.28125 27.15625 
L 15.28125 0 
z
" id="ArialMT-114"/>
      <path d="M 40.4375 6.390625 
Q 35.546875 2.25 31.03125 0.53125 
Q 26.515625 -1.171875 21.34375 -1.171875 
Q 12.796875 -1.171875 8.203125 3 
Q 3.609375 7.171875 3.609375 13.671875 
Q 3.609375 17.484375 5.34375 20.625 
Q 7.078125 23.78125 9.890625 25.6875 
Q 12.703125 27.59375 16.21875 28.5625 
Q 18.796875 29.25 24.03125 29.890625 
Q 34.671875 31.15625 39.703125 32.90625 
Q 39.75 34.71875 39.75 35.203125 
Q 39.75 40.578125 37.25 42.78125 
Q 33.890625 45.75 27.25 45.75 
Q 21.046875 45.75 18.09375 43.578125 
Q 15.140625 41.40625 13.71875 35.890625 
L 5.125 37.0625 
Q 6.296875 42.578125 8.984375 45.96875 
Q 11.671875 49.359375 16.75 51.1875 
Q 21.828125 53.03125 28.515625 53.03125 
Q 35.15625 53.03125 39.296875 51.46875 
Q 43.453125 49.90625 45.40625 47.53125 
Q 47.359375 45.171875 48.140625 41.546875 
Q 48.578125 39.3125 48.578125 33.453125 
L 48.578125 21.734375 
Q 48.578125 9.46875 49.140625 6.21875 
Q 49.703125 2.984375 51.375 0 
L 42.1875 0 
Q 40.828125 2.734375 40.4375 6.390625 
z
M 39.703125 26.03125 
Q 34.90625 24.078125 25.34375 22.703125 
Q 19.921875 21.921875 17.671875 20.9375 
Q 15.4375 19.96875 14.203125 18.09375 
Q 12.984375 16.21875 12.984375 13.921875 
Q 12.984375 10.40625 15.640625 8.0625 
Q 18.3125 5.71875 23.4375 5.71875 
Q 28.515625 5.71875 32.46875 7.9375 
Q 36.421875 10.15625 38.28125 14.015625 
Q 39.703125 17 39.703125 22.796875 
z
" id="ArialMT-97"/>
      <path d="M 4.984375 -4.296875 
L 13.53125 -5.5625 
Q 14.0625 -9.515625 16.5 -11.328125 
Q 19.78125 -13.765625 25.4375 -13.765625 
Q 31.546875 -13.765625 34.859375 -11.328125 
Q 38.1875 -8.890625 39.359375 -4.5 
Q 40.046875 -1.8125 39.984375 6.78125 
Q 34.234375 0 25.640625 0 
Q 14.9375 0 9.078125 7.71875 
Q 3.21875 15.4375 3.21875 26.21875 
Q 3.21875 33.640625 5.90625 39.90625 
Q 8.59375 46.1875 13.6875 49.609375 
Q 18.796875 53.03125 25.6875 53.03125 
Q 34.859375 53.03125 40.828125 45.609375 
L 40.828125 51.859375 
L 48.921875 51.859375 
L 48.921875 7.03125 
Q 48.921875 -5.078125 46.453125 -10.125 
Q 44 -15.1875 38.640625 -18.109375 
Q 33.296875 -21.046875 25.484375 -21.046875 
Q 16.21875 -21.046875 10.5 -16.875 
Q 4.78125 -12.703125 4.984375 -4.296875 
z
M 12.25 26.859375 
Q 12.25 16.65625 16.296875 11.96875 
Q 20.359375 7.28125 26.46875 7.28125 
Q 32.515625 7.28125 36.609375 11.9375 
Q 40.71875 16.609375 40.71875 26.5625 
Q 40.71875 36.078125 36.5 40.90625 
Q 32.28125 45.75 26.3125 45.75 
Q 20.453125 45.75 16.34375 40.984375 
Q 12.25 36.234375 12.25 26.859375 
z
" id="ArialMT-103"/>
      <path id="ArialMT-32"/>
      <path d="M 4.5 23 
L 13.421875 23.78125 
Q 14.0625 18.40625 16.375 14.96875 
Q 18.703125 11.53125 23.578125 9.40625 
Q 28.46875 7.28125 34.578125 7.28125 
Q 39.984375 7.28125 44.140625 8.890625 
Q 48.296875 10.5 50.3125 13.296875 
Q 52.34375 16.109375 52.34375 19.4375 
Q 52.34375 22.796875 50.390625 25.3125 
Q 48.4375 27.828125 43.953125 29.546875 
Q 41.0625 30.671875 31.203125 33.03125 
Q 21.34375 35.40625 17.390625 37.5 
Q 12.25 40.1875 9.734375 44.15625 
Q 7.234375 48.140625 7.234375 53.078125 
Q 7.234375 58.5 10.296875 63.203125 
Q 13.375 67.921875 19.28125 70.359375 
Q 25.203125 72.796875 32.421875 72.796875 
Q 40.375 72.796875 46.453125 70.234375 
Q 52.546875 67.671875 55.8125 62.6875 
Q 59.078125 57.71875 59.328125 51.421875 
L 50.25 50.734375 
Q 49.515625 57.515625 45.28125 60.984375 
Q 41.0625 64.453125 32.8125 64.453125 
Q 24.21875 64.453125 20.28125 61.296875 
Q 16.359375 58.15625 16.359375 53.71875 
Q 16.359375 49.859375 19.140625 47.359375 
Q 21.875 44.875 33.421875 42.265625 
Q 44.96875 39.65625 49.265625 37.703125 
Q 55.515625 34.8125 58.484375 30.390625 
Q 61.46875 25.984375 61.46875 20.21875 
Q 61.46875 14.5 58.203125 9.4375 
Q 54.9375 4.390625 48.796875 1.578125 
Q 42.671875 -1.21875 35.015625 -1.21875 
Q 25.296875 -1.21875 18.71875 1.609375 
Q 12.15625 4.4375 8.421875 10.125 
Q 4.6875 15.828125 4.5 23 
z
" id="ArialMT-83"/>
      <path d="M 6.59375 0 
L 6.59375 51.859375 
L 14.453125 51.859375 
L 14.453125 44.578125 
Q 16.890625 48.390625 20.9375 50.703125 
Q 25 53.03125 30.171875 53.03125 
Q 35.9375 53.03125 39.625 50.640625 
Q 43.3125 48.25 44.828125 43.953125 
Q 50.984375 53.03125 60.84375 53.03125 
Q 68.5625 53.03125 72.703125 48.75 
Q 76.859375 44.484375 76.859375 35.59375 
L 76.859375 0 
L 68.109375 0 
L 68.109375 32.671875 
Q 68.109375 37.9375 67.25 40.25 
Q 66.40625 42.578125 64.15625 43.984375 
Q 61.921875 45.40625 58.890625 45.40625 
Q 53.421875 45.40625 49.796875 41.765625 
Q 46.1875 38.140625 46.1875 30.125 
L 46.1875 0 
L 37.40625 0 
L 37.40625 33.6875 
Q 37.40625 39.546875 35.25 42.46875 
Q 33.109375 45.40625 28.21875 45.40625 
Q 24.515625 45.40625 21.359375 43.453125 
Q 18.21875 41.5 16.796875 37.734375 
Q 15.375 33.984375 15.375 26.90625 
L 15.375 0 
z
" id="ArialMT-109"/>
      <path d="M 6.59375 0 
L 6.59375 51.859375 
L 14.5 51.859375 
L 14.5 44.484375 
Q 20.21875 53.03125 31 53.03125 
Q 35.6875 53.03125 39.625 51.34375 
Q 43.5625 49.65625 45.515625 46.921875 
Q 47.46875 44.1875 48.25 40.4375 
Q 48.734375 37.984375 48.734375 31.890625 
L 48.734375 0 
L 39.9375 0 
L 39.9375 31.546875 
Q 39.9375 36.921875 38.90625 39.578125 
Q 37.890625 42.234375 35.28125 43.8125 
Q 32.671875 45.40625 29.15625 45.40625 
Q 23.53125 45.40625 19.453125 41.84375 
Q 15.375 38.28125 15.375 28.328125 
L 15.375 0 
z
" id="ArialMT-110"/>
      <path d="M 25.78125 7.859375 
L 27.046875 0.09375 
Q 23.34375 -0.6875 20.40625 -0.6875 
Q 15.625 -0.6875 12.984375 0.828125 
Q 10.359375 2.34375 9.28125 4.8125 
Q 8.203125 7.28125 8.203125 15.1875 
L 8.203125 45.015625 
L 1.765625 45.015625 
L 1.765625 51.859375 
L 8.203125 51.859375 
L 8.203125 64.703125 
L 16.9375 69.96875 
L 16.9375 51.859375 
L 25.78125 51.859375 
L 25.78125 45.015625 
L 16.9375 45.015625 
L 16.9375 14.703125 
Q 16.9375 10.9375 17.40625 9.859375 
Q 17.875 8.796875 18.921875 8.15625 
Q 19.96875 7.515625 21.921875 7.515625 
Q 23.390625 7.515625 25.78125 7.859375 
z
" id="ArialMT-116"/>
      <path d="M 7.328125 0 
L 7.328125 71.578125 
L 16.796875 71.578125 
L 16.796875 8.453125 
L 52.046875 8.453125 
L 52.046875 0 
z
" id="ArialMT-76"/>
      <path d="M 6.59375 0 
L 6.59375 71.578125 
L 15.375 71.578125 
L 15.375 45.90625 
Q 21.53125 53.03125 30.90625 53.03125 
Q 36.671875 53.03125 40.921875 50.75 
Q 45.171875 48.484375 47 44.484375 
Q 48.828125 40.484375 48.828125 32.859375 
L 48.828125 0 
L 40.046875 0 
L 40.046875 32.859375 
Q 40.046875 39.453125 37.1875 42.453125 
Q 34.328125 45.453125 29.109375 45.453125 
Q 25.203125 45.453125 21.75 43.421875 
Q 18.3125 41.40625 16.84375 37.9375 
Q 15.375 34.46875 15.375 28.375 
L 15.375 0 
z
" id="ArialMT-104"/>
      <path d="M 7.71875 0 
L 7.71875 71.578125 
L 34.71875 71.578125 
Q 41.84375 71.578125 45.609375 70.90625 
Q 50.875 70.015625 54.4375 67.546875 
Q 58.015625 65.09375 60.1875 60.640625 
Q 62.359375 56.203125 62.359375 50.875 
Q 62.359375 41.75 56.546875 35.421875 
Q 50.734375 29.109375 35.546875 29.109375 
L 17.1875 29.109375 
L 17.1875 0 
z
M 17.1875 37.546875 
L 35.6875 37.546875 
Q 44.875 37.546875 48.734375 40.96875 
Q 52.59375 44.390625 52.59375 50.59375 
Q 52.59375 55.078125 50.3125 58.265625 
Q 48.046875 61.46875 44.34375 62.5 
Q 41.9375 63.140625 35.5 63.140625 
L 17.1875 63.140625 
z
" id="ArialMT-80"/>
      <path d="M 58.796875 25.09375 
L 68.265625 22.703125 
Q 65.28125 11.03125 57.546875 4.90625 
Q 49.8125 -1.21875 38.625 -1.21875 
Q 27.046875 -1.21875 19.796875 3.484375 
Q 12.546875 8.203125 8.765625 17.140625 
Q 4.984375 26.078125 4.984375 36.328125 
Q 4.984375 47.515625 9.25 55.828125 
Q 13.53125 64.15625 21.40625 68.46875 
Q 29.296875 72.796875 38.765625 72.796875 
Q 49.515625 72.796875 56.828125 67.328125 
Q 64.15625 61.859375 67.046875 51.953125 
L 57.71875 49.75 
Q 55.21875 57.5625 50.484375 61.125 
Q 45.75 64.703125 38.578125 64.703125 
Q 30.328125 64.703125 24.78125 60.734375 
Q 19.234375 56.78125 16.984375 50.109375 
Q 14.75 43.453125 14.75 36.375 
Q 14.75 27.25 17.40625 20.4375 
Q 20.0625 13.625 25.671875 10.25 
Q 31.296875 6.890625 37.84375 6.890625 
Q 45.796875 6.890625 51.3125 11.46875 
Q 56.84375 16.0625 58.796875 25.09375 
z
" id="ArialMT-67"/>
      <path d="M 6.390625 0 
L 6.390625 71.578125 
L 15.1875 71.578125 
L 15.1875 0 
z
" id="ArialMT-108"/>
      <path d="M 23.390625 -21.046875 
Q 16.109375 -11.859375 11.078125 0.4375 
Q 6.0625 12.75 6.0625 25.921875 
Q 6.0625 37.546875 9.8125 48.1875 
Q 14.203125 60.546875 23.390625 72.796875 
L 29.6875 72.796875 
Q 23.78125 62.640625 21.875 58.296875 
Q 18.890625 51.5625 17.1875 44.234375 
Q 15.09375 35.109375 15.09375 25.875 
Q 15.09375 2.390625 29.6875 -21.046875 
z
" id="ArialMT-40"/>
      <path d="M 40.578125 0 
L 40.578125 7.625 
Q 34.515625 -1.171875 24.125 -1.171875 
Q 19.53125 -1.171875 15.546875 0.578125 
Q 11.578125 2.34375 9.640625 5 
Q 7.71875 7.671875 6.9375 11.53125 
Q 6.390625 14.109375 6.390625 19.734375 
L 6.390625 51.859375 
L 15.1875 51.859375 
L 15.1875 23.09375 
Q 15.1875 16.21875 15.71875 13.8125 
Q 16.546875 10.359375 19.234375 8.375 
Q 21.921875 6.390625 25.875 6.390625 
Q 29.828125 6.390625 33.296875 8.421875 
Q 36.765625 10.453125 38.203125 13.9375 
Q 39.65625 17.4375 39.65625 24.078125 
L 39.65625 51.859375 
L 48.4375 51.859375 
L 48.4375 0 
z
" id="ArialMT-117"/>
      <path d="M 12.359375 -21.046875 
L 6.0625 -21.046875 
Q 20.65625 2.390625 20.65625 25.875 
Q 20.65625 35.0625 18.5625 44.09375 
Q 16.890625 51.421875 13.921875 58.15625 
Q 12.015625 62.546875 6.0625 72.796875 
L 12.359375 72.796875 
Q 21.53125 60.546875 25.921875 48.1875 
Q 29.6875 37.546875 29.6875 25.921875 
Q 29.6875 12.75 24.625 0.4375 
Q 19.578125 -11.859375 12.359375 -21.046875 
z
" id="ArialMT-41"/>
     </defs>
     <g style="fill:#262626;opacity:0.7;" transform="translate(155.14 546.752227)scale(0.16 -0.16)">
      <use xlink:href="#ArialMT-65"/>
      <use x="66.683594" xlink:href="#ArialMT-118"/>
      <use x="116.683594" xlink:href="#ArialMT-101"/>
      <use x="172.298828" xlink:href="#ArialMT-114"/>
      <use x="205.599609" xlink:href="#ArialMT-97"/>
      <use x="261.214844" xlink:href="#ArialMT-103"/>
      <use x="316.830078" xlink:href="#ArialMT-101"/>
      <use x="372.445312" xlink:href="#ArialMT-32"/>
      <use x="400.228516" xlink:href="#ArialMT-83"/>
      <use x="466.927734" xlink:href="#ArialMT-101"/>
      <use x="522.542969" xlink:href="#ArialMT-103"/>
      <use x="578.158203" xlink:href="#ArialMT-109"/>
      <use x="661.458984" xlink:href="#ArialMT-101"/>
      <use x="717.074219" xlink:href="#ArialMT-110"/>
      <use x="772.689453" xlink:href="#ArialMT-116"/>
      <use x="800.472656" xlink:href="#ArialMT-32"/>
      <use x="828.255859" xlink:href="#ArialMT-76"/>
      <use x="883.871094" xlink:href="#ArialMT-101"/>
      <use x="939.486328" xlink:href="#ArialMT-110"/>
      <use x="995.101562" xlink:href="#ArialMT-103"/>
      <use x="1050.716797" xlink:href="#ArialMT-116"/>
      <use x="1078.5" xlink:href="#ArialMT-104"/>
      <use x="1134.115234" xlink:href="#ArialMT-32"/>
      <use x="1161.898438" xlink:href="#ArialMT-80"/>
      <use x="1228.597656" xlink:href="#ArialMT-101"/>
      <use x="1284.212891" xlink:href="#ArialMT-114"/>
      <use x="1317.513672" xlink:href="#ArialMT-32"/>
      <use x="1345.296875" xlink:href="#ArialMT-67"/>
      <use x="1417.513672" xlink:href="#ArialMT-101"/>
      <use x="1473.128906" xlink:href="#ArialMT-108"/>
      <use x="1495.345703" xlink:href="#ArialMT-108"/>
      <use x="1517.5625" xlink:href="#ArialMT-32"/>
      <use x="1545.345703" xlink:href="#ArialMT-40"/>
      <use x="1578.646484" xlink:href="#ArialMT-117"/>
      <use x="1634.261719" xlink:href="#ArialMT-109"/>
      <use x="1717.5625" xlink:href="#ArialMT-41"/>
     </g>
    </g>
   </g>
   <g id="matplotlib.axis_2">
    <g id="ytick_1">
     <g id="line2d_7">
      <defs>
       <path d="M 0 0 
L -6 0 
" id="mceebf69825" style="stroke:#262626;stroke-width:1.25;"/>
      </defs>
      <g>
       <use style="fill:#262626;stroke:#262626;stroke-width:1.25;" x="72" xlink:href="#mceebf69825" y="100.182857"/>
      </g>
     </g>
     <g id="text_8">
      <!-- 0.5 -->
      <defs>
       <path d="M 9.078125 0 
L 9.078125 10.015625 
L 19.09375 10.015625 
L 19.09375 0 
z
" id="ArialMT-46"/>
      </defs>
      <g style="fill:#262626;" transform="translate(35.7425 107.072252)scale(0.1925 -0.1925)">
       <use xlink:href="#ArialMT-48"/>
       <use x="55.615234" xlink:href="#ArialMT-46"/>
       <use x="83.398438" xlink:href="#ArialMT-53"/>
      </g>
     </g>
    </g>
    <g id="ytick_2">
     <g id="line2d_8">
      <g>
       <use style="fill:#262626;stroke:#262626;stroke-width:1.25;" x="72" xlink:href="#mceebf69825" y="162.308571"/>
      </g>
     </g>
     <g id="text_9">
      <!-- 1.0 -->
      <g style="fill:#262626;" transform="translate(35.7425 169.197966)scale(0.1925 -0.1925)">
       <use xlink:href="#ArialMT-49"/>
       <use x="55.615234" xlink:href="#ArialMT-46"/>
       <use x="83.398438" xlink:href="#ArialMT-48"/>
      </g>
     </g>
    </g>
    <g id="ytick_3">
     <g id="line2d_9">
      <g>
       <use style="fill:#262626;stroke:#262626;stroke-width:1.25;" x="72" xlink:href="#mceebf69825" y="224.434286"/>
      </g>
     </g>
     <g id="text_10">
      <!-- 1.5 -->
      <g style="fill:#262626;" transform="translate(35.7425 231.32368)scale(0.1925 -0.1925)">
       <use xlink:href="#ArialMT-49"/>
       <use x="55.615234" xlink:href="#ArialMT-46"/>
       <use x="83.398438" xlink:href="#ArialMT-53"/>
      </g>
     </g>
    </g>
    <g id="ytick_4">
     <g id="line2d_10">
      <g>
       <use style="fill:#262626;stroke:#262626;stroke-width:1.25;" x="72" xlink:href="#mceebf69825" y="286.56"/>
      </g>
     </g>
     <g id="text_11">
      <!-- 2.0 -->
      <g style="fill:#262626;" transform="translate(35.7425 293.449395)scale(0.1925 -0.1925)">
       <use xlink:href="#ArialMT-50"/>
       <use x="55.615234" xlink:href="#ArialMT-46"/>
       <use x="83.398438" xlink:href="#ArialMT-48"/>
      </g>
     </g>
    </g>
    <g id="ytick_5">
     <g id="line2d_11">
      <g>
       <use style="fill:#262626;stroke:#262626;stroke-width:1.25;" x="72" xlink:href="#mceebf69825" y="348.685714"/>
      </g>
     </g>
     <g id="text_12">
      <!-- 3.0 -->
      <defs>
       <path d="M 4.203125 18.890625 
L 12.984375 20.0625 
Q 14.5 12.59375 18.140625 9.296875 
Q 21.78125 6 27 6 
Q 33.203125 6 37.46875 10.296875 
Q 41.75 14.59375 41.75 20.953125 
Q 41.75 27 37.796875 30.921875 
Q 33.84375 34.859375 27.734375 34.859375 
Q 25.25 34.859375 21.53125 33.890625 
L 22.515625 41.609375 
Q 23.390625 41.5 23.921875 41.5 
Q 29.546875 41.5 34.03125 44.421875 
Q 38.53125 47.359375 38.53125 53.46875 
Q 38.53125 58.296875 35.25 61.46875 
Q 31.984375 64.65625 26.8125 64.65625 
Q 21.6875 64.65625 18.265625 61.421875 
Q 14.84375 58.203125 13.875 51.765625 
L 5.078125 53.328125 
Q 6.6875 62.15625 12.390625 67.015625 
Q 18.109375 71.875 26.609375 71.875 
Q 32.46875 71.875 37.390625 69.359375 
Q 42.328125 66.84375 44.9375 62.5 
Q 47.5625 58.15625 47.5625 53.265625 
Q 47.5625 48.640625 45.0625 44.828125 
Q 42.578125 41.015625 37.703125 38.765625 
Q 44.046875 37.3125 47.5625 32.6875 
Q 51.078125 28.078125 51.078125 21.140625 
Q 51.078125 11.765625 44.234375 5.25 
Q 37.40625 -1.265625 26.953125 -1.265625 
Q 17.53125 -1.265625 11.296875 4.34375 
Q 5.078125 9.96875 4.203125 18.890625 
z
" id="ArialMT-51"/>
      </defs>
      <g style="fill:#262626;" transform="translate(35.7425 355.575109)scale(0.1925 -0.1925)">
       <use xlink:href="#ArialMT-51"/>
       <use x="55.615234" xlink:href="#ArialMT-46"/>
       <use x="83.398438" xlink:href="#ArialMT-48"/>
      </g>
     </g>
    </g>
    <g id="ytick_6">
     <g id="line2d_12">
      <g>
       <use style="fill:#262626;stroke:#262626;stroke-width:1.25;" x="72" xlink:href="#mceebf69825" y="410.811429"/>
      </g>
     </g>
     <g id="text_13">
      <!-- 4.0 -->
      <defs>
       <path d="M 32.328125 0 
L 32.328125 17.140625 
L 1.265625 17.140625 
L 1.265625 25.203125 
L 33.9375 71.578125 
L 41.109375 71.578125 
L 41.109375 25.203125 
L 50.78125 25.203125 
L 50.78125 17.140625 
L 41.109375 17.140625 
L 41.109375 0 
z
M 32.328125 25.203125 
L 32.328125 57.46875 
L 9.90625 25.203125 
z
" id="ArialMT-52"/>
      </defs>
      <g style="fill:#262626;" transform="translate(35.7425 417.700823)scale(0.1925 -0.1925)">
       <use xlink:href="#ArialMT-52"/>
       <use x="55.615234" xlink:href="#ArialMT-46"/>
       <use x="83.398438" xlink:href="#ArialMT-48"/>
      </g>
     </g>
    </g>
    <g id="ytick_7">
     <g id="line2d_13">
      <g>
       <use style="fill:#262626;stroke:#262626;stroke-width:1.25;" x="72" xlink:href="#mceebf69825" y="472.937143"/>
      </g>
     </g>
     <g id="text_14">
      <!-- 6.0 -->
      <defs>
       <path d="M 49.75 54.046875 
L 41.015625 53.375 
Q 39.84375 58.546875 37.703125 60.890625 
Q 34.125 64.65625 28.90625 64.65625 
Q 24.703125 64.65625 21.53125 62.3125 
Q 17.390625 59.28125 14.984375 53.46875 
Q 12.59375 47.65625 12.5 36.921875 
Q 15.671875 41.75 20.265625 44.09375 
Q 24.859375 46.4375 29.890625 46.4375 
Q 38.671875 46.4375 44.84375 39.96875 
Q 51.03125 33.5 51.03125 23.25 
Q 51.03125 16.5 48.125 10.71875 
Q 45.21875 4.9375 40.140625 1.859375 
Q 35.0625 -1.21875 28.609375 -1.21875 
Q 17.625 -1.21875 10.6875 6.859375 
Q 3.765625 14.9375 3.765625 33.5 
Q 3.765625 54.25 11.421875 63.671875 
Q 18.109375 71.875 29.4375 71.875 
Q 37.890625 71.875 43.28125 67.140625 
Q 48.6875 62.40625 49.75 54.046875 
z
M 13.875 23.1875 
Q 13.875 18.65625 15.796875 14.5 
Q 17.71875 10.359375 21.1875 8.171875 
Q 24.65625 6 28.46875 6 
Q 34.03125 6 38.03125 10.484375 
Q 42.046875 14.984375 42.046875 22.703125 
Q 42.046875 30.125 38.078125 34.390625 
Q 34.125 38.671875 28.125 38.671875 
Q 22.171875 38.671875 18.015625 34.390625 
Q 13.875 30.125 13.875 23.1875 
z
" id="ArialMT-54"/>
      </defs>
      <g style="fill:#262626;" transform="translate(35.7425 479.826537)scale(0.1925 -0.1925)">
       <use xlink:href="#ArialMT-54"/>
       <use x="55.615234" xlink:href="#ArialMT-46"/>
       <use x="83.398438" xlink:href="#ArialMT-48"/>
      </g>
     </g>
    </g>
    <g id="text_15">
     <!-- Days in Vitro (DIV) -->
     <defs>
      <path d="M 7.71875 0 
L 7.71875 71.578125 
L 32.375 71.578125 
Q 40.71875 71.578125 45.125 70.5625 
Q 51.265625 69.140625 55.609375 65.4375 
Q 61.28125 60.640625 64.078125 53.1875 
Q 66.890625 45.75 66.890625 36.1875 
Q 66.890625 28.03125 64.984375 21.734375 
Q 63.09375 15.4375 60.109375 11.296875 
Q 57.125 7.171875 53.578125 4.796875 
Q 50.046875 2.4375 45.046875 1.21875 
Q 40.046875 0 33.546875 0 
z
M 17.1875 8.453125 
L 32.46875 8.453125 
Q 39.546875 8.453125 43.578125 9.765625 
Q 47.609375 11.078125 50 13.484375 
Q 53.375 16.84375 55.25 22.53125 
Q 57.125 28.21875 57.125 36.328125 
Q 57.125 47.5625 53.4375 53.59375 
Q 49.75 59.625 44.484375 61.671875 
Q 40.671875 63.140625 32.234375 63.140625 
L 17.1875 63.140625 
z
" id="ArialMT-68"/>
      <path d="M 6.203125 -19.96875 
L 5.21875 -11.71875 
Q 8.109375 -12.5 10.25 -12.5 
Q 13.1875 -12.5 14.9375 -11.515625 
Q 16.703125 -10.546875 17.828125 -8.796875 
Q 18.65625 -7.46875 20.515625 -2.25 
Q 20.75 -1.515625 21.296875 -0.09375 
L 1.609375 51.859375 
L 11.078125 51.859375 
L 21.875 21.828125 
Q 23.96875 16.109375 25.640625 9.8125 
Q 27.15625 15.875 29.25 21.625 
L 40.328125 51.859375 
L 49.125 51.859375 
L 29.390625 -0.875 
Q 26.21875 -9.421875 24.46875 -12.640625 
Q 22.125 -17 19.09375 -19.015625 
Q 16.0625 -21.046875 11.859375 -21.046875 
Q 9.328125 -21.046875 6.203125 -19.96875 
z
" id="ArialMT-121"/>
      <path d="M 3.078125 15.484375 
L 11.765625 16.84375 
Q 12.5 11.625 15.84375 8.84375 
Q 19.1875 6.0625 25.203125 6.0625 
Q 31.25 6.0625 34.171875 8.515625 
Q 37.109375 10.984375 37.109375 14.3125 
Q 37.109375 17.28125 34.515625 19 
Q 32.71875 20.171875 25.53125 21.96875 
Q 15.875 24.421875 12.140625 26.203125 
Q 8.40625 27.984375 6.46875 31.125 
Q 4.546875 34.28125 4.546875 38.09375 
Q 4.546875 41.546875 6.125 44.5 
Q 7.71875 47.46875 10.453125 49.421875 
Q 12.5 50.921875 16.03125 51.96875 
Q 19.578125 53.03125 23.640625 53.03125 
Q 29.734375 53.03125 34.34375 51.265625 
Q 38.96875 49.515625 41.15625 46.5 
Q 43.359375 43.5 44.1875 38.484375 
L 35.59375 37.3125 
Q 35.015625 41.3125 32.203125 43.546875 
Q 29.390625 45.796875 24.265625 45.796875 
Q 18.21875 45.796875 15.625 43.796875 
Q 13.03125 41.796875 13.03125 39.109375 
Q 13.03125 37.40625 14.109375 36.03125 
Q 15.1875 34.625 17.484375 33.6875 
Q 18.796875 33.203125 25.25 31.453125 
Q 34.578125 28.953125 38.25 27.359375 
Q 41.9375 25.78125 44.03125 22.75 
Q 46.140625 19.734375 46.140625 15.234375 
Q 46.140625 10.84375 43.578125 6.953125 
Q 41.015625 3.078125 36.171875 0.953125 
Q 31.34375 -1.171875 25.25 -1.171875 
Q 15.140625 -1.171875 9.84375 3.03125 
Q 4.546875 7.234375 3.078125 15.484375 
z
" id="ArialMT-115"/>
      <path d="M 6.640625 61.46875 
L 6.640625 71.578125 
L 15.4375 71.578125 
L 15.4375 61.46875 
z
M 6.640625 0 
L 6.640625 51.859375 
L 15.4375 51.859375 
L 15.4375 0 
z
" id="ArialMT-105"/>
      <path d="M 28.171875 0 
L 0.4375 71.578125 
L 10.6875 71.578125 
L 29.296875 19.578125 
Q 31.546875 13.328125 33.0625 7.859375 
Q 34.71875 13.71875 36.921875 19.578125 
L 56.25 71.578125 
L 65.921875 71.578125 
L 37.890625 0 
z
" id="ArialMT-86"/>
      <path d="M 3.328125 25.921875 
Q 3.328125 40.328125 11.328125 47.265625 
Q 18.015625 53.03125 27.640625 53.03125 
Q 38.328125 53.03125 45.109375 46.015625 
Q 51.90625 39.015625 51.90625 26.65625 
Q 51.90625 16.65625 48.90625 10.90625 
Q 45.90625 5.171875 40.15625 2 
Q 34.421875 -1.171875 27.640625 -1.171875 
Q 16.75 -1.171875 10.03125 5.8125 
Q 3.328125 12.796875 3.328125 25.921875 
z
M 12.359375 25.921875 
Q 12.359375 15.96875 16.703125 11.015625 
Q 21.046875 6.0625 27.640625 6.0625 
Q 34.1875 6.0625 38.53125 11.03125 
Q 42.875 16.015625 42.875 26.21875 
Q 42.875 35.84375 38.5 40.796875 
Q 34.125 45.75 27.640625 45.75 
Q 21.046875 45.75 16.703125 40.8125 
Q 12.359375 35.890625 12.359375 25.921875 
z
" id="ArialMT-111"/>
      <path d="M 9.328125 0 
L 9.328125 71.578125 
L 18.796875 71.578125 
L 18.796875 0 
z
" id="ArialMT-73"/>
     </defs>
     <g style="fill:#262626;opacity:0.7;" transform="translate(28.375 352.79125)rotate(-90)scale(0.16 -0.16)">
      <use xlink:href="#ArialMT-68"/>
      <use x="72.216797" xlink:href="#ArialMT-97"/>
      <use x="127.832031" xlink:href="#ArialMT-121"/>
      <use x="177.832031" xlink:href="#ArialMT-115"/>
      <use x="227.832031" xlink:href="#ArialMT-32"/>
      <use x="255.615234" xlink:href="#ArialMT-105"/>
      <use x="277.832031" xlink:href="#ArialMT-110"/>
      <use x="333.447266" xlink:href="#ArialMT-32"/>
      <use x="361.230469" xlink:href="#ArialMT-86"/>
      <use x="427.914062" xlink:href="#ArialMT-105"/>
      <use x="450.130859" xlink:href="#ArialMT-116"/>
      <use x="477.914062" xlink:href="#ArialMT-114"/>
      <use x="511.214844" xlink:href="#ArialMT-111"/>
      <use x="566.830078" xlink:href="#ArialMT-32"/>
      <use x="594.613281" xlink:href="#ArialMT-40"/>
      <use x="627.914062" xlink:href="#ArialMT-68"/>
      <use x="700.130859" xlink:href="#ArialMT-73"/>
      <use x="727.914062" xlink:href="#ArialMT-86"/>
      <use x="794.613281" xlink:href="#ArialMT-41"/>
     </g>
    </g>
   </g>
   <g id="PolyCollection_1">
    <defs>
     <path d="M 119.842601 -472.188504 
L 119.842601 -479.445781 
L 121.286718 -479.748867 
L 122.730836 -480.070417 
L 124.174953 -480.410745 
L 125.619071 -480.769987 
L 127.063188 -481.148075 
L 128.507306 -481.544701 
L 129.951423 -481.959292 
L 131.395541 -482.390983 
L 132.839658 -482.838601 
L 134.283776 -483.300648 
L 135.727893 -483.7753 
L 137.172011 -484.260411 
L 138.616128 -484.753522 
L 140.060245 -485.25189 
L 141.504363 -485.752518 
L 142.94848 -486.2522 
L 144.392598 -486.747573 
L 145.836715 -487.235176 
L 147.280833 -487.711521 
L 148.72495 -488.17316 
L 150.169068 -488.616763 
L 151.613185 -489.039194 
L 153.057303 -489.437578 
L 154.50142 -489.809376 
L 155.945538 -490.15244 
L 157.389655 -490.465063 
L 158.833773 -490.746021 
L 160.27789 -490.994593 
L 161.722008 -491.210571 
L 163.166125 -491.394254 
L 164.610243 -491.546421 
L 166.05436 -491.668294 
L 167.498478 -491.761485 
L 168.942595 -491.827925 
L 170.386713 -491.869793 
L 171.83083 -491.889428 
L 173.274948 -491.889239 
L 174.719065 -491.871623 
L 176.163183 -491.838871 
L 177.6073 -491.793097 
L 179.051418 -491.736162 
L 180.495535 -491.669621 
L 181.939653 -491.594684 
L 183.38377 -491.512184 
L 184.827888 -491.422578 
L 186.272005 -491.325951 
L 187.716123 -491.222048 
L 189.16024 -491.110314 
L 190.604357 -490.98995 
L 192.048475 -490.859984 
L 193.492592 -490.719339 
L 194.93671 -490.566915 
L 196.380827 -490.401671 
L 197.824945 -490.222694 
L 199.269062 -490.029273 
L 200.71318 -489.820962 
L 202.157297 -489.597624 
L 203.601415 -489.359471 
L 205.045532 -489.107085 
L 206.48965 -488.841424 
L 207.933767 -488.563813 
L 209.377885 -488.275922 
L 210.822002 -487.979732 
L 212.26612 -487.677482 
L 213.710237 -487.37162 
L 215.154355 -487.064733 
L 216.598472 -486.759481 
L 218.04259 -486.458524 
L 219.486707 -486.164453 
L 220.930825 -485.879718 
L 222.374942 -485.606566 
L 223.81906 -485.346977 
L 225.263177 -485.102616 
L 226.707295 -484.874789 
L 228.151412 -484.664407 
L 229.59553 -484.471965 
L 231.039647 -484.297529 
L 232.483765 -484.140732 
L 233.927882 -484.000787 
L 235.372 -483.876503 
L 236.816117 -483.766319 
L 238.260235 -483.66834 
L 239.704352 -483.580386 
L 241.148469 -483.500048 
L 242.592587 -483.424751 
L 244.036704 -483.351813 
L 245.480822 -483.278522 
L 246.924939 -483.202199 
L 248.369057 -483.120271 
L 249.813174 -483.030333 
L 251.257292 -482.930209 
L 252.701409 -482.81801 
L 254.145527 -482.692177 
L 255.589644 -482.551518 
L 257.033762 -482.395234 
L 258.477879 -482.222935 
L 259.921997 -482.034643 
L 261.366114 -481.830783 
L 262.810232 -481.612162 
L 262.810232 -470.022123 
L 262.810232 -470.022123 
L 261.366114 -469.803503 
L 259.921997 -469.599642 
L 258.477879 -469.411351 
L 257.033762 -469.239052 
L 255.589644 -469.082768 
L 254.145527 -468.942109 
L 252.701409 -468.816276 
L 251.257292 -468.704077 
L 249.813174 -468.603953 
L 248.369057 -468.514014 
L 246.924939 -468.432086 
L 245.480822 -468.355764 
L 244.036704 -468.282473 
L 242.592587 -468.209535 
L 241.148469 -468.134237 
L 239.704352 -468.0539 
L 238.260235 -467.965946 
L 236.816117 -467.867967 
L 235.372 -467.757783 
L 233.927882 -467.633499 
L 232.483765 -467.493554 
L 231.039647 -467.336757 
L 229.59553 -467.16232 
L 228.151412 -466.969879 
L 226.707295 -466.759497 
L 225.263177 -466.53167 
L 223.81906 -466.287309 
L 222.374942 -466.02772 
L 220.930825 -465.754568 
L 219.486707 -465.469833 
L 218.04259 -465.175762 
L 216.598472 -464.874805 
L 215.154355 -464.569553 
L 213.710237 -464.262666 
L 212.26612 -463.956804 
L 210.822002 -463.654554 
L 209.377885 -463.358363 
L 207.933767 -463.070473 
L 206.48965 -462.792862 
L 205.045532 -462.527201 
L 203.601415 -462.274815 
L 202.157297 -462.036662 
L 200.71318 -461.813324 
L 199.269062 -461.605012 
L 197.824945 -461.411592 
L 196.380827 -461.232615 
L 194.93671 -461.06737 
L 193.492592 -460.914947 
L 192.048475 -460.774302 
L 190.604357 -460.644335 
L 189.16024 -460.523972 
L 187.716123 -460.412238 
L 186.272005 -460.308335 
L 184.827888 -460.211708 
L 183.38377 -460.122102 
L 181.939653 -460.039602 
L 180.495535 -459.964664 
L 179.051418 -459.898124 
L 177.6073 -459.841189 
L 176.163183 -459.795415 
L 174.719065 -459.762663 
L 173.274948 -459.745047 
L 171.83083 -459.744858 
L 170.386713 -459.764492 
L 168.942595 -459.806361 
L 167.498478 -459.872801 
L 166.05436 -459.965992 
L 164.610243 -460.087865 
L 163.166125 -460.240032 
L 161.722008 -460.423715 
L 160.27789 -460.639693 
L 158.833773 -460.888265 
L 157.389655 -461.169223 
L 155.945538 -461.481846 
L 154.50142 -461.824909 
L 153.057303 -462.196707 
L 151.613185 -462.595092 
L 150.169068 -463.017523 
L 148.72495 -463.461126 
L 147.280833 -463.922765 
L 145.836715 -464.399109 
L 144.392598 -464.886713 
L 142.94848 -465.382086 
L 141.504363 -465.881768 
L 140.060245 -466.382396 
L 138.616128 -466.880764 
L 137.172011 -467.373875 
L 135.727893 -467.858985 
L 134.283776 -468.333638 
L 132.839658 -468.795685 
L 131.395541 -469.243303 
L 129.951423 -469.674994 
L 128.507306 -470.089585 
L 127.063188 -470.486211 
L 125.619071 -470.864299 
L 124.174953 -471.223541 
L 122.730836 -471.563868 
L 121.286718 -471.885419 
L 119.842601 -472.188504 
z
" id="m6baf2137c6" style="stroke:#494949;stroke-width:1.5;"/>
    </defs>
    <g clip-path="url(#pa4f5dab45c)">
     <use style="fill:#5875a4;stroke:#494949;stroke-width:1.5;" x="0" xlink:href="#m6baf2137c6" y="576"/>
    </g>
   </g>
   <g id="PolyCollection_2">
    <defs>
     <path d="M 135.181843 -407.766934 
L 135.181843 -419.615923 
L 137.282648 -420.101969 
L 139.383453 -420.589168 
L 141.484259 -421.073353 
L 143.585064 -421.55054 
L 145.685869 -422.017074 
L 147.786675 -422.469762 
L 149.88748 -422.905997 
L 151.988285 -423.323858 
L 154.089091 -423.722175 
L 156.189896 -424.100567 
L 158.290701 -424.459439 
L 160.391507 -424.799935 
L 162.492312 -425.123859 
L 164.593117 -425.43355 
L 166.693923 -425.731729 
L 168.794728 -426.021317 
L 170.895533 -426.305233 
L 172.996339 -426.586188 
L 175.097144 -426.86647 
L 177.197949 -427.147754 
L 179.298755 -427.430922 
L 181.39956 -427.715927 
L 183.500365 -428.001687 
L 185.601171 -428.286041 
L 187.701976 -428.565742 
L 189.802781 -428.836519 
L 191.903587 -429.093183 
L 194.004392 -429.329791 
L 196.105198 -429.539847 
L 198.206003 -429.716546 
L 200.306808 -429.853039 
L 202.407614 -429.942712 
L 204.508419 -429.979464 
L 206.609224 -429.957975 
L 208.71003 -429.873944 
L 210.810835 -429.724298 
L 212.91164 -429.507341 
L 215.012446 -429.222867 
L 217.113251 -428.872201 
L 219.214056 -428.458188 
L 221.314862 -427.98512 
L 223.415667 -427.45861 
L 225.516472 -426.88542 
L 227.617278 -426.273249 
L 229.718083 -425.630487 
L 231.818888 -424.965959 
L 233.919694 -424.288658 
L 236.020499 -423.60748 
L 238.121304 -422.93098 
L 240.22211 -422.267149 
L 242.322915 -421.623223 
L 244.42372 -421.00553 
L 246.524526 -420.419383 
L 248.625331 -419.869004 
L 250.726136 -419.357508 
L 252.826942 -418.886911 
L 254.927747 -418.458183 
L 257.028552 -418.071331 
L 259.129358 -417.725507 
L 261.230163 -417.419127 
L 263.330968 -417.150012 
L 265.431774 -416.915524 
L 267.532579 -416.712704 
L 269.633384 -416.538404 
L 271.73419 -416.389399 
L 273.834995 -416.262498 
L 275.9358 -416.154622 
L 278.036606 -416.062877 
L 280.137411 -415.9846 
L 282.238216 -415.917393 
L 284.339022 -415.85914 
L 286.439827 -415.80801 
L 288.540632 -415.762449 
L 290.641438 -415.721169 
L 292.742243 -415.683119 
L 294.843048 -415.647468 
L 296.943854 -415.613573 
L 299.044659 -415.58095 
L 301.145464 -415.549253 
L 303.24627 -415.51824 
L 305.347075 -415.487756 
L 307.44788 -415.457701 
L 309.548686 -415.428017 
L 311.649491 -415.398661 
L 313.750296 -415.36959 
L 315.851102 -415.340745 
L 317.951907 -415.312036 
L 320.052712 -415.28333 
L 322.153518 -415.254449 
L 324.254323 -415.22516 
L 326.355128 -415.195182 
L 328.455934 -415.16419 
L 330.556739 -415.131829 
L 332.657544 -415.097727 
L 334.75835 -415.061516 
L 336.859155 -415.022853 
L 338.95996 -414.981445 
L 341.060766 -414.937068 
L 343.161571 -414.889588 
L 343.161571 -412.493269 
L 343.161571 -412.493269 
L 341.060766 -412.44579 
L 338.95996 -412.401412 
L 336.859155 -412.360004 
L 334.75835 -412.321341 
L 332.657544 -412.28513 
L 330.556739 -412.251028 
L 328.455934 -412.218667 
L 326.355128 -412.187675 
L 324.254323 -412.157697 
L 322.153518 -412.128408 
L 320.052712 -412.099527 
L 317.951907 -412.070822 
L 315.851102 -412.042112 
L 313.750296 -412.013267 
L 311.649491 -411.984196 
L 309.548686 -411.95484 
L 307.44788 -411.925156 
L 305.347075 -411.895101 
L 303.24627 -411.864617 
L 301.145464 -411.833604 
L 299.044659 -411.801907 
L 296.943854 -411.769285 
L 294.843048 -411.735389 
L 292.742243 -411.699738 
L 290.641438 -411.661688 
L 288.540632 -411.620408 
L 286.439827 -411.574848 
L 284.339022 -411.523717 
L 282.238216 -411.465464 
L 280.137411 -411.398257 
L 278.036606 -411.31998 
L 275.9358 -411.228235 
L 273.834995 -411.120359 
L 271.73419 -410.993458 
L 269.633384 -410.844453 
L 267.532579 -410.670153 
L 265.431774 -410.467333 
L 263.330968 -410.232845 
L 261.230163 -409.96373 
L 259.129358 -409.65735 
L 257.028552 -409.311526 
L 254.927747 -408.924675 
L 252.826942 -408.495946 
L 250.726136 -408.025349 
L 248.625331 -407.513853 
L 246.524526 -406.963474 
L 244.42372 -406.377327 
L 242.322915 -405.759635 
L 240.22211 -405.115708 
L 238.121304 -404.451877 
L 236.020499 -403.775377 
L 233.919694 -403.094199 
L 231.818888 -402.416898 
L 229.718083 -401.75237 
L 227.617278 -401.109609 
L 225.516472 -400.497437 
L 223.415667 -399.924248 
L 221.314862 -399.397737 
L 219.214056 -398.924669 
L 217.113251 -398.510656 
L 215.012446 -398.15999 
L 212.91164 -397.875516 
L 210.810835 -397.658559 
L 208.71003 -397.508913 
L 206.609224 -397.424882 
L 204.508419 -397.403393 
L 202.407614 -397.440145 
L 200.306808 -397.529818 
L 198.206003 -397.666311 
L 196.105198 -397.843011 
L 194.004392 -398.053066 
L 191.903587 -398.289674 
L 189.802781 -398.546338 
L 187.701976 -398.817115 
L 185.601171 -399.096816 
L 183.500365 -399.38117 
L 181.39956 -399.66693 
L 179.298755 -399.951935 
L 177.197949 -400.235103 
L 175.097144 -400.516387 
L 172.996339 -400.796669 
L 170.895533 -401.077624 
L 168.794728 -401.361541 
L 166.693923 -401.651128 
L 164.593117 -401.949307 
L 162.492312 -402.258998 
L 160.391507 -402.582922 
L 158.290701 -402.923418 
L 156.189896 -403.28229 
L 154.089091 -403.660682 
L 151.988285 -404.058999 
L 149.88748 -404.47686 
L 147.786675 -404.913096 
L 145.685869 -405.365783 
L 143.585064 -405.832317 
L 141.484259 -406.309504 
L 139.383453 -406.79369 
L 137.282648 -407.280888 
L 135.181843 -407.766934 
z
" id="m15e30c4fd4" style="stroke:#494949;stroke-width:1.5;"/>
    </defs>
    <g clip-path="url(#pa4f5dab45c)">
     <use style="fill:#cc8963;stroke:#494949;stroke-width:1.5;" x="0" xlink:href="#m15e30c4fd4" y="576"/>
    </g>
   </g>
   <g id="PolyCollection_3">
    <defs>
     <path d="M 137.832359 -346.188745 
L 137.832359 -356.942684 
L 140.609411 -357.683017 
L 143.386462 -358.446879 
L 146.163514 -359.220594 
L 148.940566 -359.989366 
L 151.717618 -360.737995 
L 154.494669 -361.451661 
L 157.271721 -362.11672 
L 160.048773 -362.721436 
L 162.825824 -363.256596 
L 165.602876 -363.715958 
L 168.379928 -364.09647 
L 171.156979 -364.398284 
L 173.934031 -364.624523 
L 176.711083 -364.780863 
L 179.488134 -364.874949 
L 182.265186 -364.915712 
L 185.042238 -364.912633 
L 187.819289 -364.875032 
L 190.596341 -364.811428 
L 193.373393 -364.729009 
L 196.150444 -364.633256 
L 198.927496 -364.527732 
L 201.704548 -364.414039 
L 204.481599 -364.291936 
L 207.258651 -364.159603 
L 210.035703 -364.014007 
L 212.812755 -363.85136 
L 215.589806 -363.667614 
L 218.366858 -363.458956 
L 221.14391 -363.222282 
L 223.920961 -362.95559 
L 226.698013 -362.658292 
L 229.475065 -362.331397 
L 232.252116 -361.977573 
L 235.029168 -361.601065 
L 237.80622 -361.207489 
L 240.583271 -360.803512 
L 243.360323 -360.396441 
L 246.137375 -359.993755 
L 248.914426 -359.602614 
L 251.691478 -359.229383 
L 254.46853 -358.879212 
L 257.245581 -358.555695 
L 260.022633 -358.260643 
L 262.799685 -357.993992 
L 265.576736 -357.753847 
L 268.353788 -357.536661 
L 271.13084 -357.337544 
L 273.907892 -357.150673 
L 276.684943 -356.969769 
L 279.461995 -356.788609 
L 282.239047 -356.601521 
L 285.016098 -356.403835 
L 287.79315 -356.192235 
L 290.570202 -355.964997 
L 293.347253 -355.72208 
L 296.124305 -355.465086 
L 298.901357 -355.197073 
L 301.678408 -354.922263 
L 304.45546 -354.645668 
L 307.232512 -354.372666 
L 310.009563 -354.108582 
L 312.786615 -353.8583 
L 315.563667 -353.625941 
L 318.340718 -353.414628 
L 321.11777 -353.226349 
L 323.894822 -353.061926 
L 326.671873 -352.921071 
L 329.448925 -352.802515 
L 332.225977 -352.704197 
L 335.003029 -352.623487 
L 337.78008 -352.557416 
L 340.557132 -352.502898 
L 343.334184 -352.456934 
L 346.111235 -352.416781 
L 348.888287 -352.380084 
L 351.665339 -352.344962 
L 354.44239 -352.310059 
L 357.219442 -352.274553 
L 359.996494 -352.238136 
L 362.773545 -352.200958 
L 365.550597 -352.163553 
L 368.327649 -352.12674 
L 371.1047 -352.091518 
L 373.881752 -352.05895 
L 376.658804 -352.030051 
L 379.435855 -352.00568 
L 382.212907 -351.986452 
L 384.989959 -351.972672 
L 387.76701 -351.964287 
L 390.544062 -351.960884 
L 393.321114 -351.961705 
L 396.098166 -351.965699 
L 398.875217 -351.9716 
L 401.652269 -351.978023 
L 404.429321 -351.983565 
L 407.206372 -351.98692 
L 409.983424 -351.986966 
L 412.760476 -351.982852 
L 412.760476 -351.148576 
L 412.760476 -351.148576 
L 409.983424 -351.144462 
L 407.206372 -351.144509 
L 404.429321 -351.147863 
L 401.652269 -351.153406 
L 398.875217 -351.159828 
L 396.098166 -351.165729 
L 393.321114 -351.169723 
L 390.544062 -351.170544 
L 387.76701 -351.167141 
L 384.989959 -351.158757 
L 382.212907 -351.144976 
L 379.435855 -351.125749 
L 376.658804 -351.101378 
L 373.881752 -351.072478 
L 371.1047 -351.03991 
L 368.327649 -351.004689 
L 365.550597 -350.967876 
L 362.773545 -350.93047 
L 359.996494 -350.893292 
L 357.219442 -350.856875 
L 354.44239 -350.82137 
L 351.665339 -350.786466 
L 348.888287 -350.751344 
L 346.111235 -350.714647 
L 343.334184 -350.674495 
L 340.557132 -350.628531 
L 337.78008 -350.574012 
L 335.003029 -350.507941 
L 332.225977 -350.427232 
L 329.448925 -350.328914 
L 326.671873 -350.210357 
L 323.894822 -350.069502 
L 321.11777 -349.90508 
L 318.340718 -349.716801 
L 315.563667 -349.505487 
L 312.786615 -349.273129 
L 310.009563 -349.022847 
L 307.232512 -348.758763 
L 304.45546 -348.48576 
L 301.678408 -348.209165 
L 298.901357 -347.934356 
L 296.124305 -347.666343 
L 293.347253 -347.409349 
L 290.570202 -347.166432 
L 287.79315 -346.939193 
L 285.016098 -346.727594 
L 282.239047 -346.529908 
L 279.461995 -346.34282 
L 276.684943 -346.161659 
L 273.907892 -345.980755 
L 271.13084 -345.793885 
L 268.353788 -345.594768 
L 265.576736 -345.377582 
L 262.799685 -345.137437 
L 260.022633 -344.870786 
L 257.245581 -344.575734 
L 254.46853 -344.252216 
L 251.691478 -343.902045 
L 248.914426 -343.528815 
L 246.137375 -343.137674 
L 243.360323 -342.734988 
L 240.583271 -342.327917 
L 237.80622 -341.92394 
L 235.029168 -341.530364 
L 232.252116 -341.153856 
L 229.475065 -340.800032 
L 226.698013 -340.473137 
L 223.920961 -340.175839 
L 221.14391 -339.909147 
L 218.366858 -339.672472 
L 215.589806 -339.463815 
L 212.812755 -339.280069 
L 210.035703 -339.117422 
L 207.258651 -338.971826 
L 204.481599 -338.839492 
L 201.704548 -338.71739 
L 198.927496 -338.603697 
L 196.150444 -338.498173 
L 193.373393 -338.40242 
L 190.596341 -338.320001 
L 187.819289 -338.256397 
L 185.042238 -338.218796 
L 182.265186 -338.215717 
L 179.488134 -338.256479 
L 176.711083 -338.350566 
L 173.934031 -338.506906 
L 171.156979 -338.733145 
L 168.379928 -339.034958 
L 165.602876 -339.415471 
L 162.825824 -339.874832 
L 160.048773 -340.409993 
L 157.271721 -341.014708 
L 154.494669 -341.679767 
L 151.717618 -342.393434 
L 148.940566 -343.142063 
L 146.163514 -343.910835 
L 143.386462 -344.68455 
L 140.609411 -345.448412 
L 137.832359 -346.188745 
z
" id="m6107cde960" style="stroke:#494949;stroke-width:1.5;"/>
    </defs>
    <g clip-path="url(#pa4f5dab45c)">
     <use style="fill:#5f9e6e;stroke:#494949;stroke-width:1.5;" x="0" xlink:href="#m6107cde960" y="576"/>
    </g>
   </g>
   <g id="PolyCollection_4">
    <defs>
     <path d="M 143.109462 -284.982149 
L 143.109462 -293.897851 
L 146.197047 -294.583496 
L 149.284631 -295.281215 
L 152.372216 -295.972586 
L 155.4598 -296.638541 
L 158.547385 -297.260617 
L 161.63497 -297.822244 
L 164.722554 -298.309948 
L 167.810139 -298.714357 
L 170.897724 -299.030916 
L 173.985308 -299.260233 
L 177.072893 -299.408027 
L 180.160477 -299.48468 
L 183.248062 -299.504435 
L 186.335647 -299.484331 
L 189.423231 -299.442969 
L 192.510816 -299.39922 
L 195.598401 -299.370981 
L 198.685985 -299.374068 
L 201.77357 -299.421291 
L 204.861154 -299.521757 
L 207.948739 -299.680409 
L 211.036324 -299.897802 
L 214.123908 -300.170096 
L 217.211493 -300.489256 
L 220.299078 -300.843449 
L 223.386662 -301.217602 
L 226.474247 -301.594119 
L 229.561832 -301.953718 
L 232.649416 -302.276362 
L 235.737001 -302.542264 
L 238.824585 -302.732903 
L 241.91217 -302.832041 
L 244.999755 -302.826662 
L 248.087339 -302.707803 
L 251.174924 -302.471201 
L 254.262509 -302.117696 
L 257.350093 -301.653357 
L 260.437678 -301.089258 
L 263.525262 -300.440932 
L 266.612847 -299.727501 
L 269.700432 -298.970533 
L 272.788016 -298.192741 
L 275.875601 -297.416595 
L 278.963186 -296.662998 
L 282.05077 -295.950114 
L 285.138355 -295.292459 
L 288.225939 -294.700331 
L 291.313524 -294.179593 
L 294.401109 -293.73183 
L 297.488693 -293.354818 
L 300.576278 -293.043255 
L 303.663863 -292.78963 
L 306.751447 -292.585152 
L 309.839032 -292.420598 
L 312.926616 -292.287026 
L 316.014201 -292.176268 
L 319.101786 -292.081207 
L 322.18937 -291.995832 
L 325.276955 -291.915152 
L 328.36454 -291.835022 
L 331.452124 -291.751964 
L 334.539709 -291.663053 
L 337.627293 -291.565886 
L 340.714878 -291.458653 
L 343.802463 -291.340273 
L 346.890047 -291.210549 
L 349.977632 -291.070277 
L 353.065217 -290.921272 
L 356.152801 -290.766279 
L 359.240386 -290.608752 
L 362.32797 -290.452556 
L 365.415555 -290.301599 
L 368.50314 -290.159484 
L 371.590724 -290.029206 
L 374.678309 -289.912942 
L 377.765894 -289.811953 
L 380.853478 -289.726606 
L 383.941063 -289.656478 
L 387.028647 -289.60054 
L 390.116232 -289.557362 
L 393.203817 -289.52533 
L 396.291401 -289.502826 
L 399.378986 -289.488373 
L 402.466571 -289.480724 
L 405.554155 -289.4789 
L 408.64174 -289.482175 
L 411.729325 -289.490027 
L 414.816909 -289.502052 
L 417.904494 -289.517874 
L 420.992078 -289.53704 
L 424.079663 -289.558945 
L 427.167248 -289.582768 
L 430.254832 -289.607459 
L 433.342417 -289.631767 
L 436.430002 -289.654307 
L 439.517586 -289.673678 
L 442.605171 -289.688586 
L 445.692755 -289.697985 
L 448.78034 -289.701196 
L 448.78034 -289.178804 
L 448.78034 -289.178804 
L 445.692755 -289.182015 
L 442.605171 -289.191414 
L 439.517586 -289.206322 
L 436.430002 -289.225693 
L 433.342417 -289.248233 
L 430.254832 -289.272541 
L 427.167248 -289.297232 
L 424.079663 -289.321055 
L 420.992078 -289.34296 
L 417.904494 -289.362126 
L 414.816909 -289.377948 
L 411.729325 -289.389973 
L 408.64174 -289.397825 
L 405.554155 -289.4011 
L 402.466571 -289.399276 
L 399.378986 -289.391627 
L 396.291401 -289.377174 
L 393.203817 -289.35467 
L 390.116232 -289.322638 
L 387.028647 -289.27946 
L 383.941063 -289.223522 
L 380.853478 -289.153394 
L 377.765894 -289.068047 
L 374.678309 -288.967058 
L 371.590724 -288.850794 
L 368.50314 -288.720516 
L 365.415555 -288.578401 
L 362.32797 -288.427444 
L 359.240386 -288.271248 
L 356.152801 -288.113721 
L 353.065217 -287.958728 
L 349.977632 -287.809723 
L 346.890047 -287.669451 
L 343.802463 -287.539727 
L 340.714878 -287.421347 
L 337.627293 -287.314114 
L 334.539709 -287.216947 
L 331.452124 -287.128036 
L 328.36454 -287.044978 
L 325.276955 -286.964848 
L 322.18937 -286.884168 
L 319.101786 -286.798793 
L 316.014201 -286.703732 
L 312.926616 -286.592974 
L 309.839032 -286.459402 
L 306.751447 -286.294848 
L 303.663863 -286.09037 
L 300.576278 -285.836745 
L 297.488693 -285.525182 
L 294.401109 -285.14817 
L 291.313524 -284.700407 
L 288.225939 -284.179669 
L 285.138355 -283.587541 
L 282.05077 -282.929886 
L 278.963186 -282.217002 
L 275.875601 -281.463405 
L 272.788016 -280.687259 
L 269.700432 -279.909467 
L 266.612847 -279.152499 
L 263.525262 -278.439068 
L 260.437678 -277.790742 
L 257.350093 -277.226643 
L 254.262509 -276.762304 
L 251.174924 -276.408799 
L 248.087339 -276.172197 
L 244.999755 -276.053338 
L 241.91217 -276.047959 
L 238.824585 -276.147097 
L 235.737001 -276.337736 
L 232.649416 -276.603638 
L 229.561832 -276.926282 
L 226.474247 -277.285881 
L 223.386662 -277.662398 
L 220.299078 -278.036551 
L 217.211493 -278.390744 
L 214.123908 -278.709904 
L 211.036324 -278.982198 
L 207.948739 -279.199591 
L 204.861154 -279.358243 
L 201.77357 -279.458709 
L 198.685985 -279.505932 
L 195.598401 -279.509019 
L 192.510816 -279.48078 
L 189.423231 -279.437031 
L 186.335647 -279.395669 
L 183.248062 -279.375565 
L 180.160477 -279.39532 
L 177.072893 -279.471973 
L 173.985308 -279.619767 
L 170.897724 -279.849084 
L 167.810139 -280.165643 
L 164.722554 -280.570052 
L 161.63497 -281.057756 
L 158.547385 -281.619383 
L 155.4598 -282.241459 
L 152.372216 -282.907414 
L 149.284631 -283.598785 
L 146.197047 -284.296504 
L 143.109462 -284.982149 
z
" id="m59fa4d58f6" style="stroke:#494949;stroke-width:1.5;"/>
    </defs>
    <g clip-path="url(#pa4f5dab45c)">
     <use style="fill:#b55d60;stroke:#494949;stroke-width:1.5;" x="0" xlink:href="#m59fa4d58f6" y="576"/>
    </g>
   </g>
   <g id="PolyCollection_5">
    <defs>
     <path d="M 149.088058 -225.561777 
L 149.088058 -229.066794 
L 151.058745 -229.431022 
L 153.029433 -229.835728 
L 155.00012 -230.275427 
L 156.970808 -230.741848 
L 158.941495 -231.224127 
L 160.912183 -231.709288 
L 162.88287 -232.183006 
L 164.853558 -232.63058 
L 166.824245 -233.038019 
L 168.794933 -233.39312 
L 170.76562 -233.686415 
L 172.736307 -233.911868 
L 174.706995 -234.067275 
L 176.677682 -234.154309 
L 178.64837 -234.178264 
L 180.619057 -234.147541 
L 182.589745 -234.072976 
L 184.560432 -233.967098 
L 186.53112 -233.84341 
L 188.501807 -233.715746 
L 190.472495 -233.597746 
L 192.443182 -233.502444 
L 194.41387 -233.441961 
L 196.384557 -233.427258 
L 198.355245 -233.467947 
L 200.325932 -233.572112 
L 202.29662 -233.746149 
L 204.267307 -233.994631 
L 206.237995 -234.320196 
L 208.208682 -234.723502 
L 210.17937 -235.203235 
L 212.150057 -235.756199 
L 214.120745 -236.377466 
L 216.091432 -237.06057 
L 218.06212 -237.797715 
L 220.032807 -238.579968 
L 222.003495 -239.397407 
L 223.974182 -240.239208 
L 225.94487 -241.093678 
L 227.915557 -241.948254 
L 229.886245 -242.789521 
L 231.856932 -243.603281 
L 233.82762 -244.374748 
L 235.798307 -245.08888 
L 237.768994 -245.730882 
L 239.739682 -246.286846 
L 241.710369 -246.744482 
L 243.681057 -247.093856 
L 245.651744 -247.32804 
L 247.622432 -247.443585 
L 249.593119 -247.440733 
L 251.563807 -247.323335 
L 253.534494 -247.098469 
L 255.505182 -246.77581 
L 257.475869 -246.366824 
L 259.446557 -245.883903 
L 261.417244 -245.339535 
L 263.387932 -244.745606 
L 265.358619 -244.112893 
L 267.329307 -243.450771 
L 269.299994 -242.767119 
L 271.270682 -242.068395 
L 273.241369 -241.359807 
L 275.212057 -240.645552 
L 277.182744 -239.929058 
L 279.153432 -239.213229 
L 281.124119 -238.500662 
L 283.094807 -237.79385 
L 285.065494 -237.09537 
L 287.036182 -236.40804 
L 289.006869 -235.735051 
L 290.977557 -235.080033 
L 292.948244 -234.447044 
L 294.918932 -233.840468 
L 296.889619 -233.264818 
L 298.860307 -232.724459 
L 300.830994 -232.223285 
L 302.801681 -231.764393 
L 304.772369 -231.349797 
L 306.743056 -230.98022 
L 308.713744 -230.654998 
L 310.684431 -230.372094 
L 312.655119 -230.128233 
L 314.625806 -229.919127 
L 316.596494 -229.739766 
L 318.567181 -229.584748 
L 320.537869 -229.448608 
L 322.508556 -229.326135 
L 324.479244 -229.212628 
L 326.449931 -229.104111 
L 328.420619 -228.997461 
L 330.391306 -228.890472 
L 332.361994 -228.781853 
L 334.332681 -228.67115 
L 336.303369 -228.558633 
L 338.274056 -228.44514 
L 340.244744 -228.331909 
L 342.215431 -228.220407 
L 344.186119 -228.112176 
L 344.186119 -226.516396 
L 344.186119 -226.516396 
L 342.215431 -226.408165 
L 340.244744 -226.296663 
L 338.274056 -226.183431 
L 336.303369 -226.069938 
L 334.332681 -225.957421 
L 332.361994 -225.846718 
L 330.391306 -225.738099 
L 328.420619 -225.631111 
L 326.449931 -225.52446 
L 324.479244 -225.415943 
L 322.508556 -225.302437 
L 320.537869 -225.179963 
L 318.567181 -225.043824 
L 316.596494 -224.888805 
L 314.625806 -224.709444 
L 312.655119 -224.500338 
L 310.684431 -224.256477 
L 308.713744 -223.973573 
L 306.743056 -223.648351 
L 304.772369 -223.278775 
L 302.801681 -222.864178 
L 300.830994 -222.405286 
L 298.860307 -221.904112 
L 296.889619 -221.363753 
L 294.918932 -220.788104 
L 292.948244 -220.181528 
L 290.977557 -219.548538 
L 289.006869 -218.89352 
L 287.036182 -218.220531 
L 285.065494 -217.533202 
L 283.094807 -216.834721 
L 281.124119 -216.12791 
L 279.153432 -215.415343 
L 277.182744 -214.699514 
L 275.212057 -213.98302 
L 273.241369 -213.268764 
L 271.270682 -212.560176 
L 269.299994 -211.861452 
L 267.329307 -211.177801 
L 265.358619 -210.515678 
L 263.387932 -209.882965 
L 261.417244 -209.289036 
L 259.446557 -208.744669 
L 257.475869 -208.261748 
L 255.505182 -207.852762 
L 253.534494 -207.530102 
L 251.563807 -207.305237 
L 249.593119 -207.187839 
L 247.622432 -207.184987 
L 245.651744 -207.300532 
L 243.681057 -207.534715 
L 241.710369 -207.884089 
L 239.739682 -208.341725 
L 237.768994 -208.897689 
L 235.798307 -209.539691 
L 233.82762 -210.253823 
L 231.856932 -211.02529 
L 229.886245 -211.839051 
L 227.915557 -212.680317 
L 225.94487 -213.534894 
L 223.974182 -214.389363 
L 222.003495 -215.231164 
L 220.032807 -216.048604 
L 218.06212 -216.830857 
L 216.091432 -217.568001 
L 214.120745 -218.251105 
L 212.150057 -218.872372 
L 210.17937 -219.425337 
L 208.208682 -219.90507 
L 206.237995 -220.308375 
L 204.267307 -220.633941 
L 202.29662 -220.882422 
L 200.325932 -221.05646 
L 198.355245 -221.160624 
L 196.384557 -221.201313 
L 194.41387 -221.186611 
L 192.443182 -221.126127 
L 190.472495 -221.030826 
L 188.501807 -220.912826 
L 186.53112 -220.785161 
L 184.560432 -220.661473 
L 182.589745 -220.555595 
L 180.619057 -220.48103 
L 178.64837 -220.450307 
L 176.677682 -220.474262 
L 174.706995 -220.561296 
L 172.736307 -220.716703 
L 170.76562 -220.942157 
L 168.794933 -221.235451 
L 166.824245 -221.590552 
L 164.853558 -221.997991 
L 162.88287 -222.445565 
L 160.912183 -222.919284 
L 158.941495 -223.404444 
L 156.970808 -223.886723 
L 155.00012 -224.353144 
L 153.029433 -224.792843 
L 151.058745 -225.197549 
L 149.088058 -225.561777 
z
" id="mb13ebfdf54" style="stroke:#494949;stroke-width:1.5;"/>
    </defs>
    <g clip-path="url(#pa4f5dab45c)">
     <use style="fill:#857aab;stroke:#494949;stroke-width:1.5;" x="0" xlink:href="#mb13ebfdf54" y="576"/>
    </g>
   </g>
   <g id="PolyCollection_6">
    <defs>
     <path d="M 155.007124 -160.728855 
L 155.007124 -169.648288 
L 158.411545 -170.556876 
L 161.815967 -171.51477 
L 165.220388 -172.483812 
L 168.624809 -173.417518 
L 172.029231 -174.264745 
L 175.433652 -174.974941 
L 178.838073 -175.504397 
L 182.242495 -175.82256 
L 185.646916 -175.917308 
L 189.051337 -175.798161 
L 192.455759 -175.49671 
L 195.86018 -175.064015 
L 199.264601 -174.565301 
L 202.669023 -174.072724 
L 206.073444 -173.657297 
L 209.477865 -173.381126 
L 212.882287 -173.290957 
L 216.286708 -173.413763 
L 219.691129 -173.754698 
L 223.095551 -174.297448 
L 226.499972 -175.0067 
L 229.904393 -175.832285 
L 233.308815 -176.714445 
L 236.713236 -177.589618 
L 240.117657 -178.396188 
L 243.522079 -179.079638 
L 246.9265 -179.596677 
L 250.330921 -179.917997 
L 253.735343 -180.02948 
L 257.139764 -179.931827 
L 260.544185 -179.638781 
L 263.948606 -179.174227 
L 267.353028 -178.56864 
L 270.757449 -177.855355 
L 274.16187 -177.067193 
L 277.566292 -176.233827 
L 280.970713 -175.380175 
L 284.375134 -174.525864 
L 287.779556 -173.685613 
L 291.183977 -172.870249 
L 294.588398 -172.087974 
L 297.99282 -171.345535 
L 301.397241 -170.649052 
L 304.801662 -170.004404 
L 308.206084 -169.417181 
L 311.610505 -168.892338 
L 315.014926 -168.433669 
L 318.419348 -168.043259 
L 321.823769 -167.721001 
L 325.22819 -167.464253 
L 328.632612 -167.267687 
L 332.037033 -167.123384 
L 335.441454 -167.021205 
L 338.845876 -166.949454 
L 342.250297 -166.895784 
L 345.654718 -166.848272 
L 349.05914 -166.796493 
L 352.463561 -166.732449 
L 355.867982 -166.651184 
L 359.272404 -166.550995 
L 362.676825 -166.433219 
L 366.081246 -166.301653 
L 369.485668 -166.161724 
L 372.890089 -166.019574 
L 376.29451 -165.881198 
L 379.698932 -165.751759 
L 383.103353 -165.635142 
L 386.507774 -165.53376 
L 389.912196 -165.448593 
L 393.316617 -165.379382 
L 396.721038 -165.32493 
L 400.12546 -165.283433 
L 403.529881 -165.25279 
L 406.934302 -165.230861 
L 410.338724 -165.215655 
L 413.743145 -165.205444 
L 417.147566 -165.198817 
L 420.551988 -165.194681 
L 423.956409 -165.192245 
L 427.36083 -165.190974 
L 430.765252 -165.190554 
L 434.169673 -165.190853 
L 437.574094 -165.191902 
L 440.978516 -165.193874 
L 444.382937 -165.197072 
L 447.787358 -165.201909 
L 451.19178 -165.208877 
L 454.596201 -165.218493 
L 458.000622 -165.231211 
L 461.405044 -165.247324 
L 464.809465 -165.266841 
L 468.213886 -165.289383 
L 471.618308 -165.314109 
L 475.022729 -165.339712 
L 478.42715 -165.364499 
L 481.831572 -165.386555 
L 485.235993 -165.403982 
L 488.640414 -165.415167 
L 492.044836 -165.419023 
L 492.044836 -164.95812 
L 492.044836 -164.95812 
L 488.640414 -164.961976 
L 485.235993 -164.97316 
L 481.831572 -164.990588 
L 478.42715 -165.012644 
L 475.022729 -165.037431 
L 471.618308 -165.063034 
L 468.213886 -165.087759 
L 464.809465 -165.110302 
L 461.405044 -165.129819 
L 458.000622 -165.145932 
L 454.596201 -165.15865 
L 451.19178 -165.168265 
L 447.787358 -165.175234 
L 444.382937 -165.180071 
L 440.978516 -165.183269 
L 437.574094 -165.185241 
L 434.169673 -165.18629 
L 430.765252 -165.186589 
L 427.36083 -165.186169 
L 423.956409 -165.184898 
L 420.551988 -165.182462 
L 417.147566 -165.178326 
L 413.743145 -165.171698 
L 410.338724 -165.161488 
L 406.934302 -165.146282 
L 403.529881 -165.124353 
L 400.12546 -165.09371 
L 396.721038 -165.052212 
L 393.316617 -164.99776 
L 389.912196 -164.928549 
L 386.507774 -164.843383 
L 383.103353 -164.742001 
L 379.698932 -164.625384 
L 376.29451 -164.495945 
L 372.890089 -164.357569 
L 369.485668 -164.215419 
L 366.081246 -164.07549 
L 362.676825 -163.943924 
L 359.272404 -163.826148 
L 355.867982 -163.725959 
L 352.463561 -163.644693 
L 349.05914 -163.58065 
L 345.654718 -163.528871 
L 342.250297 -163.481359 
L 338.845876 -163.427689 
L 335.441454 -163.355937 
L 332.037033 -163.253759 
L 328.632612 -163.109456 
L 325.22819 -162.91289 
L 321.823769 -162.656142 
L 318.419348 -162.333884 
L 315.014926 -161.943474 
L 311.610505 -161.484805 
L 308.206084 -160.959961 
L 304.801662 -160.372739 
L 301.397241 -159.728091 
L 297.99282 -159.031608 
L 294.588398 -158.289168 
L 291.183977 -157.506894 
L 287.779556 -156.69153 
L 284.375134 -155.851279 
L 280.970713 -154.996968 
L 277.566292 -154.143316 
L 274.16187 -153.30995 
L 270.757449 -152.521788 
L 267.353028 -151.808503 
L 263.948606 -151.202916 
L 260.544185 -150.738362 
L 257.139764 -150.445315 
L 253.735343 -150.347663 
L 250.330921 -150.459145 
L 246.9265 -150.780466 
L 243.522079 -151.297505 
L 240.117657 -151.980955 
L 236.713236 -152.787525 
L 233.308815 -153.662698 
L 229.904393 -154.544857 
L 226.499972 -155.370443 
L 223.095551 -156.079695 
L 219.691129 -156.622445 
L 216.286708 -156.96338 
L 212.882287 -157.086186 
L 209.477865 -156.996017 
L 206.073444 -156.719845 
L 202.669023 -156.304419 
L 199.264601 -155.811842 
L 195.86018 -155.313128 
L 192.455759 -154.880433 
L 189.051337 -154.578981 
L 185.646916 -154.459835 
L 182.242495 -154.554582 
L 178.838073 -154.872746 
L 175.433652 -155.402202 
L 172.029231 -156.112398 
L 168.624809 -156.959625 
L 165.220388 -157.893331 
L 161.815967 -158.862373 
L 158.411545 -159.820267 
L 155.007124 -160.728855 
z
" id="m9c498604e1" style="stroke:#494949;stroke-width:1.5;"/>
    </defs>
    <g clip-path="url(#pa4f5dab45c)">
     <use style="fill:#8d7866;stroke:#494949;stroke-width:1.5;" x="0" xlink:href="#m9c498604e1" y="576"/>
    </g>
   </g>
   <g id="PolyCollection_7">
    <defs>
     <path d="M 230.615915 -93.571062 
L 230.615915 -112.554652 
L 231.549228 -112.982297 
L 232.482541 -113.397603 
L 233.415854 -113.797922 
L 234.349166 -114.180749 
L 235.282479 -114.543773 
L 236.215792 -114.884922 
L 237.149105 -115.20241 
L 238.082418 -115.49478 
L 239.01573 -115.760936 
L 239.949043 -116.000184 
L 240.882356 -116.212249 
L 241.815669 -116.397302 
L 242.748982 -116.555964 
L 243.682294 -116.689315 
L 244.615607 -116.798883 
L 245.54892 -116.886634 
L 246.482233 -116.954946 
L 247.415546 -117.006576 
L 248.348858 -117.044623 
L 249.282171 -117.072479 
L 250.215484 -117.093776 
L 251.148797 -117.112324 
L 252.08211 -117.132045 
L 253.015422 -117.15691 
L 253.948735 -117.190862 
L 254.882048 -117.237748 
L 255.815361 -117.301246 
L 256.748674 -117.384796 
L 257.681986 -117.491532 
L 258.615299 -117.624222 
L 259.548612 -117.785209 
L 260.481925 -117.976361 
L 261.415238 -118.199028 
L 262.34855 -118.454012 
L 263.281863 -118.741538 
L 264.215176 -119.06124 
L 265.148489 -119.412159 
L 266.081802 -119.792744 
L 267.015114 -120.200873 
L 267.948427 -120.633876 
L 268.88174 -121.088571 
L 269.815053 -121.561308 
L 270.748366 -122.048026 
L 271.681678 -122.544306 
L 272.614991 -123.045443 
L 273.548304 -123.546513 
L 274.481617 -124.042453 
L 275.41493 -124.528129 
L 276.348242 -124.998422 
L 277.281555 -125.448299 
L 278.214868 -125.872887 
L 279.148181 -126.267549 
L 280.081494 -126.627941 
L 281.014807 -126.950082 
L 281.948119 -127.230397 
L 282.881432 -127.465767 
L 283.814745 -127.653566 
L 284.748058 -127.791685 
L 285.681371 -127.878552 
L 286.614683 -127.913143 
L 287.547996 -127.894976 
L 288.481309 -127.824109 
L 289.414622 -127.701116 
L 290.347935 -127.52707 
L 291.281247 -127.303502 
L 292.21456 -127.032371 
L 293.147873 -126.716017 
L 294.081186 -126.357116 
L 295.014499 -125.958628 
L 295.947811 -125.523748 
L 296.881124 -125.05585 
L 297.814437 -124.558436 
L 298.74775 -124.035084 
L 299.681063 -123.489399 
L 300.614375 -122.92496 
L 301.547688 -122.345284 
L 302.481001 -121.753778 
L 303.414314 -121.153708 
L 304.347627 -120.548166 
L 305.280939 -119.940041 
L 306.214252 -119.332004 
L 307.147565 -118.726487 
L 308.080878 -118.125674 
L 309.014191 -117.531497 
L 309.947503 -116.945635 
L 310.880816 -116.369519 
L 311.814129 -115.804338 
L 312.747442 -115.251055 
L 313.680755 -114.71042 
L 314.614067 -114.182989 
L 315.54738 -113.669147 
L 316.480693 -113.169124 
L 317.414006 -112.683025 
L 318.347319 -112.210848 
L 319.280631 -111.752505 
L 320.213944 -111.307852 
L 321.147257 -110.876699 
L 322.08057 -110.458834 
L 323.013883 -110.05404 
L 323.013883 -96.071674 
L 323.013883 -96.071674 
L 322.08057 -95.66688 
L 321.147257 -95.249016 
L 320.213944 -94.817862 
L 319.280631 -94.373209 
L 318.347319 -93.914867 
L 317.414006 -93.442689 
L 316.480693 -92.95659 
L 315.54738 -92.456568 
L 314.614067 -91.942725 
L 313.680755 -91.415295 
L 312.747442 -90.87466 
L 311.814129 -90.321376 
L 310.880816 -89.756196 
L 309.947503 -89.180079 
L 309.014191 -88.594217 
L 308.080878 -88.000041 
L 307.147565 -87.399227 
L 306.214252 -86.79371 
L 305.280939 -86.185673 
L 304.347627 -85.577548 
L 303.414314 -84.972006 
L 302.481001 -84.371936 
L 301.547688 -83.78043 
L 300.614375 -83.200754 
L 299.681063 -82.636316 
L 298.74775 -82.09063 
L 297.814437 -81.567278 
L 296.881124 -81.069864 
L 295.947811 -80.601966 
L 295.014499 -80.167086 
L 294.081186 -79.768598 
L 293.147873 -79.409697 
L 292.21456 -79.093343 
L 291.281247 -78.822212 
L 290.347935 -78.598645 
L 289.414622 -78.424598 
L 288.481309 -78.301606 
L 287.547996 -78.230738 
L 286.614683 -78.212571 
L 285.681371 -78.247162 
L 284.748058 -78.334029 
L 283.814745 -78.472148 
L 282.881432 -78.659947 
L 281.948119 -78.895318 
L 281.014807 -79.175632 
L 280.081494 -79.497773 
L 279.148181 -79.858166 
L 278.214868 -80.252827 
L 277.281555 -80.677415 
L 276.348242 -81.127292 
L 275.41493 -81.597585 
L 274.481617 -82.083261 
L 273.548304 -82.579201 
L 272.614991 -83.080272 
L 271.681678 -83.581408 
L 270.748366 -84.077688 
L 269.815053 -84.564406 
L 268.88174 -85.037144 
L 267.948427 -85.491838 
L 267.015114 -85.924841 
L 266.081802 -86.33297 
L 265.148489 -86.713555 
L 264.215176 -87.064474 
L 263.281863 -87.384176 
L 262.34855 -87.671702 
L 261.415238 -87.926686 
L 260.481925 -88.149354 
L 259.548612 -88.340505 
L 258.615299 -88.501492 
L 257.681986 -88.634182 
L 256.748674 -88.740919 
L 255.815361 -88.824469 
L 254.882048 -88.887967 
L 253.948735 -88.934852 
L 253.015422 -88.968804 
L 252.08211 -88.993669 
L 251.148797 -89.01339 
L 250.215484 -89.031938 
L 249.282171 -89.053235 
L 248.348858 -89.081091 
L 247.415546 -89.119139 
L 246.482233 -89.170768 
L 245.54892 -89.23908 
L 244.615607 -89.326831 
L 243.682294 -89.436399 
L 242.748982 -89.56975 
L 241.815669 -89.728413 
L 240.882356 -89.913465 
L 239.949043 -90.125531 
L 239.01573 -90.364778 
L 238.082418 -90.630935 
L 237.149105 -90.923304 
L 236.215792 -91.240792 
L 235.282479 -91.581941 
L 234.349166 -91.944965 
L 233.415854 -92.327792 
L 232.482541 -92.728111 
L 231.549228 -93.143417 
L 230.615915 -93.571062 
z
" id="me3a4493298" style="stroke:#494949;stroke-width:1.5;"/>
    </defs>
    <g clip-path="url(#pa4f5dab45c)">
     <use style="fill:#d095bf;stroke:#494949;stroke-width:1.5;" x="0" xlink:href="#me3a4493298" y="576"/>
    </g>
   </g>
   <g id="line2d_14">
    <path clip-path="url(#pa4f5dab45c)" d="M 162.172581 84.943363 
L 162.172581 115.422351 
" style="fill:none;stroke:#494949;stroke-dasharray:3.375,3.375;stroke-dashoffset:0;stroke-width:1.5;"/>
   </g>
   <g id="line2d_15">
    <path clip-path="url(#pa4f5dab45c)" d="M 192.535557 85.290445 
L 192.535557 115.07527 
" style="fill:none;stroke:#494949;stroke-dasharray:6.75,6.75;stroke-dashoffset:0;stroke-width:1.5;"/>
   </g>
   <g id="line2d_16">
    <path clip-path="url(#pa4f5dab45c)" d="M 211.587544 88.441121 
L 211.587544 111.924593 
" style="fill:none;stroke:#494949;stroke-dasharray:3.375,3.375;stroke-dashoffset:0;stroke-width:1.5;"/>
   </g>
   <g id="line2d_17">
    <path clip-path="url(#pa4f5dab45c)" d="M 171.718426 149.820905 
L 171.718426 174.796238 
" style="fill:none;stroke:#494949;stroke-dasharray:3.375,3.375;stroke-dashoffset:0;stroke-width:1.5;"/>
   </g>
   <g id="line2d_18">
    <path clip-path="url(#pa4f5dab45c)" d="M 204.747256 146.183416 
L 204.747256 178.433726 
" style="fill:none;stroke:#494949;stroke-dasharray:6.75,6.75;stroke-dashoffset:0;stroke-width:1.5;"/>
   </g>
   <g id="line2d_19">
    <path clip-path="url(#pa4f5dab45c)" d="M 221.233151 148.157817 
L 221.233151 176.459326 
" style="fill:none;stroke:#494949;stroke-dasharray:3.375,3.375;stroke-dashoffset:0;stroke-width:1.5;"/>
   </g>
   <g id="line2d_20">
    <path clip-path="url(#pa4f5dab45c)" d="M 172.703502 211.506065 
L 172.703502 237.362506 
" style="fill:none;stroke:#494949;stroke-dasharray:3.375,3.375;stroke-dashoffset:0;stroke-width:1.5;"/>
   </g>
   <g id="line2d_21">
    <path clip-path="url(#pa4f5dab45c)" d="M 208.09743 211.966336 
L 208.09743 236.902235 
" style="fill:none;stroke:#494949;stroke-dasharray:6.75,6.75;stroke-dashoffset:0;stroke-width:1.5;"/>
   </g>
   <g id="line2d_22">
    <path clip-path="url(#pa4f5dab45c)" d="M 239.583562 215.288866 
L 239.583562 233.579705 
" style="fill:none;stroke:#494949;stroke-dasharray:3.375,3.375;stroke-dashoffset:0;stroke-width:1.5;"/>
   </g>
   <g id="line2d_23">
    <path clip-path="url(#pa4f5dab45c)" d="M 186.164833 276.616112 
L 186.164833 296.503888 
" style="fill:none;stroke:#494949;stroke-dasharray:3.375,3.375;stroke-dashoffset:0;stroke-width:1.5;"/>
   </g>
   <g id="line2d_24">
    <path clip-path="url(#pa4f5dab45c)" d="M 230.950923 274.17142 
L 230.950923 298.94858 
" style="fill:none;stroke:#494949;stroke-dasharray:6.75,6.75;stroke-dashoffset:0;stroke-width:1.5;"/>
   </g>
   <g id="line2d_25">
    <path clip-path="url(#pa4f5dab45c)" d="M 256.869627 274.468777 
L 256.869627 298.651223 
" style="fill:none;stroke:#494949;stroke-dasharray:3.375,3.375;stroke-dashoffset:0;stroke-width:1.5;"/>
   </g>
   <g id="line2d_26">
    <path clip-path="url(#pa4f5dab45c)" d="M 221.13723 336.723424 
L 221.13723 360.648004 
" style="fill:none;stroke:#494949;stroke-dasharray:3.375,3.375;stroke-dashoffset:0;stroke-width:1.5;"/>
   </g>
   <g id="line2d_27">
    <path clip-path="url(#pa4f5dab45c)" d="M 245.472498 328.872098 
L 245.472498 368.499331 
" style="fill:none;stroke:#494949;stroke-dasharray:6.75,6.75;stroke-dashoffset:0;stroke-width:1.5;"/>
   </g>
   <g id="line2d_28">
    <path clip-path="url(#pa4f5dab45c)" d="M 267.549209 332.710594 
L 267.549209 364.660834 
" style="fill:none;stroke:#494949;stroke-dasharray:3.375,3.375;stroke-dashoffset:0;stroke-width:1.5;"/>
   </g>
   <g id="line2d_29">
    <path clip-path="url(#pa4f5dab45c)" d="M 190.747563 400.307934 
L 190.747563 421.314923 
" style="fill:none;stroke:#494949;stroke-dasharray:3.375,3.375;stroke-dashoffset:0;stroke-width:1.5;"/>
   </g>
   <g id="line2d_30">
    <path clip-path="url(#pa4f5dab45c)" d="M 243.062436 397.059273 
L 243.062436 424.563584 
" style="fill:none;stroke:#494949;stroke-dasharray:6.75,6.75;stroke-dashoffset:0;stroke-width:1.5;"/>
   </g>
   <g id="line2d_31">
    <path clip-path="url(#pa4f5dab45c)" d="M 265.853041 397.565161 
L 265.853041 424.057696 
" style="fill:none;stroke:#494949;stroke-dasharray:3.375,3.375;stroke-dashoffset:0;stroke-width:1.5;"/>
   </g>
   <g id="line2d_32">
    <path clip-path="url(#pa4f5dab45c)" d="M 254.791567 458.904001 
L 254.791567 486.970284 
" style="fill:none;stroke:#494949;stroke-dasharray:3.375,3.375;stroke-dashoffset:0;stroke-width:1.5;"/>
   </g>
   <g id="line2d_33">
    <path clip-path="url(#pa4f5dab45c)" d="M 281.453172 449.28879 
L 281.453172 496.585495 
" style="fill:none;stroke:#494949;stroke-dasharray:6.75,6.75;stroke-dashoffset:0;stroke-width:1.5;"/>
   </g>
   <g id="line2d_34">
    <path clip-path="url(#pa4f5dab45c)" d="M 292.694298 449.520514 
L 292.694298 496.353771 
" style="fill:none;stroke:#494949;stroke-dasharray:3.375,3.375;stroke-dashoffset:0;stroke-width:1.5;"/>
   </g>
   <g id="patch_3">
    <path d="M 72 504 
L 518.4 504 
" style="fill:none;stroke:#262626;stroke-linecap:square;stroke-linejoin:miter;stroke-width:1.25;"/>
   </g>
  </g>
 </g>
 <defs>
  <clipPath id="pa4f5dab45c">
   <rect height="434.88" width="446.4" x="72" y="69.12"/>
  </clipPath>
 </defs>
</svg>
