<?xml version="1.0" encoding="utf-8" standalone="no"?>
<!DOCTYPE svg PUBLIC "-//W3C//DTD SVG 1.1//EN"
  "http://www.w3.org/Graphics/SVG/1.1/DTD/svg11.dtd">
<!-- Created with matplotlib (https://matplotlib.org/) -->
<svg height="576pt" version="1.1" viewBox="0 0 576 576" width="576pt" xmlns="http://www.w3.org/2000/svg" xmlns:xlink="http://www.w3.org/1999/xlink">
 <defs>
  <style type="text/css">
*{stroke-linecap:butt;stroke-linejoin:round;}
  </style>
 </defs>
 <g id="figure_1">
  <g id="patch_1">
   <path d="M 0 576 
L 576 576 
L 576 0 
L 0 0 
z
" style="fill:#ffffff;"/>
  </g>
  <g id="axes_1">
   <g id="patch_2">
    <path d="M 72 504 
L 518.4 504 
L 518.4 69.12 
L 72 69.12 
z
" style="fill:#ffffff;"/>
   </g>
   <g id="matplotlib.axis_1">
    <g id="xtick_1">
     <g id="line2d_1">
      <defs>
       <path d="M 0 0 
L 0 6 
" id="mb52e2ba629" style="stroke:#262626;stroke-width:1.25;"/>
      </defs>
      <g>
       <use style="fill:#262626;stroke:#262626;stroke-width:1.25;" x="72" xlink:href="#mb52e2ba629" y="504"/>
      </g>
     </g>
     <g id="text_1">
      <!-- 0 -->
      <defs>
       <path d="M 4.15625 35.296875 
Q 4.15625 48 6.765625 55.734375 
Q 9.375 63.484375 14.515625 67.671875 
Q 19.671875 71.875 27.484375 71.875 
Q 33.25 71.875 37.59375 69.546875 
Q 41.9375 67.234375 44.765625 62.859375 
Q 47.609375 58.5 49.21875 52.21875 
Q 50.828125 45.953125 50.828125 35.296875 
Q 50.828125 22.703125 48.234375 14.96875 
Q 45.65625 7.234375 40.5 3 
Q 35.359375 -1.21875 27.484375 -1.21875 
Q 17.140625 -1.21875 11.234375 6.203125 
Q 4.15625 15.140625 4.15625 35.296875 
z
M 13.1875 35.296875 
Q 13.1875 17.671875 17.3125 11.828125 
Q 21.4375 6 27.484375 6 
Q 33.546875 6 37.671875 11.859375 
Q 41.796875 17.71875 41.796875 35.296875 
Q 41.796875 52.984375 37.671875 58.78125 
Q 33.546875 64.59375 27.390625 64.59375 
Q 21.34375 64.59375 17.71875 59.46875 
Q 13.1875 52.9375 13.1875 35.296875 
z
" id="ArialMT-48"/>
      </defs>
      <g style="fill:#262626;" transform="translate(66.647598 527.278789)scale(0.1925 -0.1925)">
       <use xlink:href="#ArialMT-48"/>
      </g>
     </g>
    </g>
    <g id="xtick_2">
     <g id="line2d_2">
      <g>
       <use style="fill:#262626;stroke:#262626;stroke-width:1.25;" x="183.6" xlink:href="#mb52e2ba629" y="504"/>
      </g>
     </g>
     <g id="text_2">
      <!-- 4 -->
      <defs>
       <path d="M 32.328125 0 
L 32.328125 17.140625 
L 1.265625 17.140625 
L 1.265625 25.203125 
L 33.9375 71.578125 
L 41.109375 71.578125 
L 41.109375 25.203125 
L 50.78125 25.203125 
L 50.78125 17.140625 
L 41.109375 17.140625 
L 41.109375 0 
z
M 32.328125 25.203125 
L 32.328125 57.46875 
L 9.90625 25.203125 
z
" id="ArialMT-52"/>
      </defs>
      <g style="fill:#262626;" transform="translate(178.247598 527.278789)scale(0.1925 -0.1925)">
       <use xlink:href="#ArialMT-52"/>
      </g>
     </g>
    </g>
    <g id="xtick_3">
     <g id="line2d_3">
      <g>
       <use style="fill:#262626;stroke:#262626;stroke-width:1.25;" x="295.2" xlink:href="#mb52e2ba629" y="504"/>
      </g>
     </g>
     <g id="text_3">
      <!-- 8 -->
      <defs>
       <path d="M 17.671875 38.8125 
Q 12.203125 40.828125 9.5625 44.53125 
Q 6.9375 48.25 6.9375 53.421875 
Q 6.9375 61.234375 12.546875 66.546875 
Q 18.171875 71.875 27.484375 71.875 
Q 36.859375 71.875 42.578125 66.421875 
Q 48.296875 60.984375 48.296875 53.171875 
Q 48.296875 48.1875 45.671875 44.5 
Q 43.0625 40.828125 37.75 38.8125 
Q 44.34375 36.671875 47.78125 31.875 
Q 51.21875 27.09375 51.21875 20.453125 
Q 51.21875 11.28125 44.71875 5.03125 
Q 38.234375 -1.21875 27.640625 -1.21875 
Q 17.046875 -1.21875 10.546875 5.046875 
Q 4.046875 11.328125 4.046875 20.703125 
Q 4.046875 27.6875 7.59375 32.390625 
Q 11.140625 37.109375 17.671875 38.8125 
z
M 15.921875 53.71875 
Q 15.921875 48.640625 19.1875 45.40625 
Q 22.46875 42.1875 27.6875 42.1875 
Q 32.765625 42.1875 36.015625 45.375 
Q 39.265625 48.578125 39.265625 53.21875 
Q 39.265625 58.0625 35.90625 61.359375 
Q 32.5625 64.65625 27.59375 64.65625 
Q 22.5625 64.65625 19.234375 61.421875 
Q 15.921875 58.203125 15.921875 53.71875 
z
M 13.09375 20.65625 
Q 13.09375 16.890625 14.875 13.375 
Q 16.65625 9.859375 20.171875 7.921875 
Q 23.6875 6 27.734375 6 
Q 34.03125 6 38.125 10.046875 
Q 42.234375 14.109375 42.234375 20.359375 
Q 42.234375 26.703125 38.015625 30.859375 
Q 33.796875 35.015625 27.4375 35.015625 
Q 21.234375 35.015625 17.15625 30.90625 
Q 13.09375 26.8125 13.09375 20.65625 
z
" id="ArialMT-56"/>
      </defs>
      <g style="fill:#262626;" transform="translate(289.847598 527.278789)scale(0.1925 -0.1925)">
       <use xlink:href="#ArialMT-56"/>
      </g>
     </g>
    </g>
    <g id="xtick_4">
     <g id="line2d_4">
      <g>
       <use style="fill:#262626;stroke:#262626;stroke-width:1.25;" x="406.8" xlink:href="#mb52e2ba629" y="504"/>
      </g>
     </g>
     <g id="text_4">
      <!-- 12 -->
      <defs>
       <path d="M 37.25 0 
L 28.46875 0 
L 28.46875 56 
Q 25.296875 52.984375 20.140625 49.953125 
Q 14.984375 46.921875 10.890625 45.40625 
L 10.890625 53.90625 
Q 18.265625 57.375 23.78125 62.296875 
Q 29.296875 67.234375 31.59375 71.875 
L 37.25 71.875 
z
" id="ArialMT-49"/>
       <path d="M 50.34375 8.453125 
L 50.34375 0 
L 3.03125 0 
Q 2.9375 3.171875 4.046875 6.109375 
Q 5.859375 10.9375 9.828125 15.625 
Q 13.8125 20.3125 21.34375 26.46875 
Q 33.015625 36.03125 37.109375 41.625 
Q 41.21875 47.21875 41.21875 52.203125 
Q 41.21875 57.421875 37.46875 61 
Q 33.734375 64.59375 27.734375 64.59375 
Q 21.390625 64.59375 17.578125 60.78125 
Q 13.765625 56.984375 13.71875 50.25 
L 4.6875 51.171875 
Q 5.609375 61.28125 11.65625 66.578125 
Q 17.71875 71.875 27.9375 71.875 
Q 38.234375 71.875 44.234375 66.15625 
Q 50.25 60.453125 50.25 52 
Q 50.25 47.703125 48.484375 43.546875 
Q 46.734375 39.40625 42.65625 34.8125 
Q 38.578125 30.21875 29.109375 22.21875 
Q 21.1875 15.578125 18.9375 13.203125 
Q 16.703125 10.84375 15.234375 8.453125 
z
" id="ArialMT-50"/>
      </defs>
      <g style="fill:#262626;" transform="translate(396.095195 527.278789)scale(0.1925 -0.1925)">
       <use xlink:href="#ArialMT-49"/>
       <use x="55.615234" xlink:href="#ArialMT-50"/>
      </g>
     </g>
    </g>
    <g id="xtick_5">
     <g id="line2d_5">
      <g>
       <use style="fill:#262626;stroke:#262626;stroke-width:1.25;" x="518.4" xlink:href="#mb52e2ba629" y="504"/>
      </g>
     </g>
     <g id="text_5">
      <!-- 16 -->
      <defs>
       <path d="M 49.75 54.046875 
L 41.015625 53.375 
Q 39.84375 58.546875 37.703125 60.890625 
Q 34.125 64.65625 28.90625 64.65625 
Q 24.703125 64.65625 21.53125 62.3125 
Q 17.390625 59.28125 14.984375 53.46875 
Q 12.59375 47.65625 12.5 36.921875 
Q 15.671875 41.75 20.265625 44.09375 
Q 24.859375 46.4375 29.890625 46.4375 
Q 38.671875 46.4375 44.84375 39.96875 
Q 51.03125 33.5 51.03125 23.25 
Q 51.03125 16.5 48.125 10.71875 
Q 45.21875 4.9375 40.140625 1.859375 
Q 35.0625 -1.21875 28.609375 -1.21875 
Q 17.625 -1.21875 10.6875 6.859375 
Q 3.765625 14.9375 3.765625 33.5 
Q 3.765625 54.25 11.421875 63.671875 
Q 18.109375 71.875 29.4375 71.875 
Q 37.890625 71.875 43.28125 67.140625 
Q 48.6875 62.40625 49.75 54.046875 
z
M 13.875 23.1875 
Q 13.875 18.65625 15.796875 14.5 
Q 17.71875 10.359375 21.1875 8.171875 
Q 24.65625 6 28.46875 6 
Q 34.03125 6 38.03125 10.484375 
Q 42.046875 14.984375 42.046875 22.703125 
Q 42.046875 30.125 38.078125 34.390625 
Q 34.125 38.671875 28.125 38.671875 
Q 22.171875 38.671875 18.015625 34.390625 
Q 13.875 30.125 13.875 23.1875 
z
" id="ArialMT-54"/>
      </defs>
      <g style="fill:#262626;" transform="translate(507.695195 527.278789)scale(0.1925 -0.1925)">
       <use xlink:href="#ArialMT-49"/>
       <use x="55.615234" xlink:href="#ArialMT-54"/>
      </g>
     </g>
    </g>
    <g id="text_6">
     <!-- Degree Per Cell -->
     <defs>
      <path d="M 7.71875 0 
L 7.71875 71.578125 
L 32.375 71.578125 
Q 40.71875 71.578125 45.125 70.5625 
Q 51.265625 69.140625 55.609375 65.4375 
Q 61.28125 60.640625 64.078125 53.1875 
Q 66.890625 45.75 66.890625 36.1875 
Q 66.890625 28.03125 64.984375 21.734375 
Q 63.09375 15.4375 60.109375 11.296875 
Q 57.125 7.171875 53.578125 4.796875 
Q 50.046875 2.4375 45.046875 1.21875 
Q 40.046875 0 33.546875 0 
z
M 17.1875 8.453125 
L 32.46875 8.453125 
Q 39.546875 8.453125 43.578125 9.765625 
Q 47.609375 11.078125 50 13.484375 
Q 53.375 16.84375 55.25 22.53125 
Q 57.125 28.21875 57.125 36.328125 
Q 57.125 47.5625 53.4375 53.59375 
Q 49.75 59.625 44.484375 61.671875 
Q 40.671875 63.140625 32.234375 63.140625 
L 17.1875 63.140625 
z
" id="ArialMT-68"/>
      <path d="M 42.09375 16.703125 
L 51.171875 15.578125 
Q 49.03125 7.625 43.21875 3.21875 
Q 37.40625 -1.171875 28.375 -1.171875 
Q 17 -1.171875 10.328125 5.828125 
Q 3.65625 12.84375 3.65625 25.484375 
Q 3.65625 38.578125 10.390625 45.796875 
Q 17.140625 53.03125 27.875 53.03125 
Q 38.28125 53.03125 44.875 45.953125 
Q 51.46875 38.875 51.46875 26.03125 
Q 51.46875 25.25 51.421875 23.6875 
L 12.75 23.6875 
Q 13.234375 15.140625 17.578125 10.59375 
Q 21.921875 6.0625 28.421875 6.0625 
Q 33.25 6.0625 36.671875 8.59375 
Q 40.09375 11.140625 42.09375 16.703125 
z
M 13.234375 30.90625 
L 42.1875 30.90625 
Q 41.609375 37.453125 38.875 40.71875 
Q 34.671875 45.796875 27.984375 45.796875 
Q 21.921875 45.796875 17.796875 41.75 
Q 13.671875 37.703125 13.234375 30.90625 
z
" id="ArialMT-101"/>
      <path d="M 4.984375 -4.296875 
L 13.53125 -5.5625 
Q 14.0625 -9.515625 16.5 -11.328125 
Q 19.78125 -13.765625 25.4375 -13.765625 
Q 31.546875 -13.765625 34.859375 -11.328125 
Q 38.1875 -8.890625 39.359375 -4.5 
Q 40.046875 -1.8125 39.984375 6.78125 
Q 34.234375 0 25.640625 0 
Q 14.9375 0 9.078125 7.71875 
Q 3.21875 15.4375 3.21875 26.21875 
Q 3.21875 33.640625 5.90625 39.90625 
Q 8.59375 46.1875 13.6875 49.609375 
Q 18.796875 53.03125 25.6875 53.03125 
Q 34.859375 53.03125 40.828125 45.609375 
L 40.828125 51.859375 
L 48.921875 51.859375 
L 48.921875 7.03125 
Q 48.921875 -5.078125 46.453125 -10.125 
Q 44 -15.1875 38.640625 -18.109375 
Q 33.296875 -21.046875 25.484375 -21.046875 
Q 16.21875 -21.046875 10.5 -16.875 
Q 4.78125 -12.703125 4.984375 -4.296875 
z
M 12.25 26.859375 
Q 12.25 16.65625 16.296875 11.96875 
Q 20.359375 7.28125 26.46875 7.28125 
Q 32.515625 7.28125 36.609375 11.9375 
Q 40.71875 16.609375 40.71875 26.5625 
Q 40.71875 36.078125 36.5 40.90625 
Q 32.28125 45.75 26.3125 45.75 
Q 20.453125 45.75 16.34375 40.984375 
Q 12.25 36.234375 12.25 26.859375 
z
" id="ArialMT-103"/>
      <path d="M 6.5 0 
L 6.5 51.859375 
L 14.40625 51.859375 
L 14.40625 44 
Q 17.4375 49.515625 20 51.265625 
Q 22.5625 53.03125 25.640625 53.03125 
Q 30.078125 53.03125 34.671875 50.203125 
L 31.640625 42.046875 
Q 28.421875 43.953125 25.203125 43.953125 
Q 22.3125 43.953125 20.015625 42.21875 
Q 17.71875 40.484375 16.75 37.40625 
Q 15.28125 32.71875 15.28125 27.15625 
L 15.28125 0 
z
" id="ArialMT-114"/>
      <path id="ArialMT-32"/>
      <path d="M 7.71875 0 
L 7.71875 71.578125 
L 34.71875 71.578125 
Q 41.84375 71.578125 45.609375 70.90625 
Q 50.875 70.015625 54.4375 67.546875 
Q 58.015625 65.09375 60.1875 60.640625 
Q 62.359375 56.203125 62.359375 50.875 
Q 62.359375 41.75 56.546875 35.421875 
Q 50.734375 29.109375 35.546875 29.109375 
L 17.1875 29.109375 
L 17.1875 0 
z
M 17.1875 37.546875 
L 35.6875 37.546875 
Q 44.875 37.546875 48.734375 40.96875 
Q 52.59375 44.390625 52.59375 50.59375 
Q 52.59375 55.078125 50.3125 58.265625 
Q 48.046875 61.46875 44.34375 62.5 
Q 41.9375 63.140625 35.5 63.140625 
L 17.1875 63.140625 
z
" id="ArialMT-80"/>
      <path d="M 58.796875 25.09375 
L 68.265625 22.703125 
Q 65.28125 11.03125 57.546875 4.90625 
Q 49.8125 -1.21875 38.625 -1.21875 
Q 27.046875 -1.21875 19.796875 3.484375 
Q 12.546875 8.203125 8.765625 17.140625 
Q 4.984375 26.078125 4.984375 36.328125 
Q 4.984375 47.515625 9.25 55.828125 
Q 13.53125 64.15625 21.40625 68.46875 
Q 29.296875 72.796875 38.765625 72.796875 
Q 49.515625 72.796875 56.828125 67.328125 
Q 64.15625 61.859375 67.046875 51.953125 
L 57.71875 49.75 
Q 55.21875 57.5625 50.484375 61.125 
Q 45.75 64.703125 38.578125 64.703125 
Q 30.328125 64.703125 24.78125 60.734375 
Q 19.234375 56.78125 16.984375 50.109375 
Q 14.75 43.453125 14.75 36.375 
Q 14.75 27.25 17.40625 20.4375 
Q 20.0625 13.625 25.671875 10.25 
Q 31.296875 6.890625 37.84375 6.890625 
Q 45.796875 6.890625 51.3125 11.46875 
Q 56.84375 16.0625 58.796875 25.09375 
z
" id="ArialMT-67"/>
      <path d="M 6.390625 0 
L 6.390625 71.578125 
L 15.1875 71.578125 
L 15.1875 0 
z
" id="ArialMT-108"/>
     </defs>
     <g style="fill:#262626;opacity:0.7;" transform="translate(238.28875 546.752227)scale(0.16 -0.16)">
      <use xlink:href="#ArialMT-68"/>
      <use x="72.216797" xlink:href="#ArialMT-101"/>
      <use x="127.832031" xlink:href="#ArialMT-103"/>
      <use x="183.447266" xlink:href="#ArialMT-114"/>
      <use x="216.748047" xlink:href="#ArialMT-101"/>
      <use x="272.363281" xlink:href="#ArialMT-101"/>
      <use x="327.978516" xlink:href="#ArialMT-32"/>
      <use x="355.761719" xlink:href="#ArialMT-80"/>
      <use x="422.460938" xlink:href="#ArialMT-101"/>
      <use x="478.076172" xlink:href="#ArialMT-114"/>
      <use x="511.376953" xlink:href="#ArialMT-32"/>
      <use x="539.160156" xlink:href="#ArialMT-67"/>
      <use x="611.376953" xlink:href="#ArialMT-101"/>
      <use x="666.992188" xlink:href="#ArialMT-108"/>
      <use x="689.208984" xlink:href="#ArialMT-108"/>
     </g>
    </g>
   </g>
   <g id="matplotlib.axis_2">
    <g id="ytick_1">
     <g id="line2d_6">
      <defs>
       <path d="M 0 0 
L -6 0 
" id="m8e6057617d" style="stroke:#262626;stroke-width:1.25;"/>
      </defs>
      <g>
       <use style="fill:#262626;stroke:#262626;stroke-width:1.25;" x="72" xlink:href="#m8e6057617d" y="100.182857"/>
      </g>
     </g>
     <g id="text_7">
      <!-- 0.5 -->
      <defs>
       <path d="M 9.078125 0 
L 9.078125 10.015625 
L 19.09375 10.015625 
L 19.09375 0 
z
" id="ArialMT-46"/>
       <path d="M 4.15625 18.75 
L 13.375 19.53125 
Q 14.40625 12.796875 18.140625 9.390625 
Q 21.875 6 27.15625 6 
Q 33.5 6 37.890625 10.78125 
Q 42.28125 15.578125 42.28125 23.484375 
Q 42.28125 31 38.0625 35.34375 
Q 33.84375 39.703125 27 39.703125 
Q 22.75 39.703125 19.328125 37.765625 
Q 15.921875 35.84375 13.96875 32.765625 
L 5.71875 33.84375 
L 12.640625 70.609375 
L 48.25 70.609375 
L 48.25 62.203125 
L 19.671875 62.203125 
L 15.828125 42.96875 
Q 22.265625 47.46875 29.34375 47.46875 
Q 38.71875 47.46875 45.15625 40.96875 
Q 51.609375 34.46875 51.609375 24.265625 
Q 51.609375 14.546875 45.953125 7.46875 
Q 39.0625 -1.21875 27.15625 -1.21875 
Q 17.390625 -1.21875 11.203125 4.25 
Q 5.03125 9.71875 4.15625 18.75 
z
" id="ArialMT-53"/>
      </defs>
      <g style="fill:#262626;" transform="translate(35.7425 107.072252)scale(0.1925 -0.1925)">
       <use xlink:href="#ArialMT-48"/>
       <use x="55.615234" xlink:href="#ArialMT-46"/>
       <use x="83.398438" xlink:href="#ArialMT-53"/>
      </g>
     </g>
    </g>
    <g id="ytick_2">
     <g id="line2d_7">
      <g>
       <use style="fill:#262626;stroke:#262626;stroke-width:1.25;" x="72" xlink:href="#m8e6057617d" y="162.308571"/>
      </g>
     </g>
     <g id="text_8">
      <!-- 1.0 -->
      <g style="fill:#262626;" transform="translate(35.7425 169.197966)scale(0.1925 -0.1925)">
       <use xlink:href="#ArialMT-49"/>
       <use x="55.615234" xlink:href="#ArialMT-46"/>
       <use x="83.398438" xlink:href="#ArialMT-48"/>
      </g>
     </g>
    </g>
    <g id="ytick_3">
     <g id="line2d_8">
      <g>
       <use style="fill:#262626;stroke:#262626;stroke-width:1.25;" x="72" xlink:href="#m8e6057617d" y="224.434286"/>
      </g>
     </g>
     <g id="text_9">
      <!-- 1.5 -->
      <g style="fill:#262626;" transform="translate(35.7425 231.32368)scale(0.1925 -0.1925)">
       <use xlink:href="#ArialMT-49"/>
       <use x="55.615234" xlink:href="#ArialMT-46"/>
       <use x="83.398438" xlink:href="#ArialMT-53"/>
      </g>
     </g>
    </g>
    <g id="ytick_4">
     <g id="line2d_9">
      <g>
       <use style="fill:#262626;stroke:#262626;stroke-width:1.25;" x="72" xlink:href="#m8e6057617d" y="286.56"/>
      </g>
     </g>
     <g id="text_10">
      <!-- 2.0 -->
      <g style="fill:#262626;" transform="translate(35.7425 293.449395)scale(0.1925 -0.1925)">
       <use xlink:href="#ArialMT-50"/>
       <use x="55.615234" xlink:href="#ArialMT-46"/>
       <use x="83.398438" xlink:href="#ArialMT-48"/>
      </g>
     </g>
    </g>
    <g id="ytick_5">
     <g id="line2d_10">
      <g>
       <use style="fill:#262626;stroke:#262626;stroke-width:1.25;" x="72" xlink:href="#m8e6057617d" y="348.685714"/>
      </g>
     </g>
     <g id="text_11">
      <!-- 3.0 -->
      <defs>
       <path d="M 4.203125 18.890625 
L 12.984375 20.0625 
Q 14.5 12.59375 18.140625 9.296875 
Q 21.78125 6 27 6 
Q 33.203125 6 37.46875 10.296875 
Q 41.75 14.59375 41.75 20.953125 
Q 41.75 27 37.796875 30.921875 
Q 33.84375 34.859375 27.734375 34.859375 
Q 25.25 34.859375 21.53125 33.890625 
L 22.515625 41.609375 
Q 23.390625 41.5 23.921875 41.5 
Q 29.546875 41.5 34.03125 44.421875 
Q 38.53125 47.359375 38.53125 53.46875 
Q 38.53125 58.296875 35.25 61.46875 
Q 31.984375 64.65625 26.8125 64.65625 
Q 21.6875 64.65625 18.265625 61.421875 
Q 14.84375 58.203125 13.875 51.765625 
L 5.078125 53.328125 
Q 6.6875 62.15625 12.390625 67.015625 
Q 18.109375 71.875 26.609375 71.875 
Q 32.46875 71.875 37.390625 69.359375 
Q 42.328125 66.84375 44.9375 62.5 
Q 47.5625 58.15625 47.5625 53.265625 
Q 47.5625 48.640625 45.0625 44.828125 
Q 42.578125 41.015625 37.703125 38.765625 
Q 44.046875 37.3125 47.5625 32.6875 
Q 51.078125 28.078125 51.078125 21.140625 
Q 51.078125 11.765625 44.234375 5.25 
Q 37.40625 -1.265625 26.953125 -1.265625 
Q 17.53125 -1.265625 11.296875 4.34375 
Q 5.078125 9.96875 4.203125 18.890625 
z
" id="ArialMT-51"/>
      </defs>
      <g style="fill:#262626;" transform="translate(35.7425 355.575109)scale(0.1925 -0.1925)">
       <use xlink:href="#ArialMT-51"/>
       <use x="55.615234" xlink:href="#ArialMT-46"/>
       <use x="83.398438" xlink:href="#ArialMT-48"/>
      </g>
     </g>
    </g>
    <g id="ytick_6">
     <g id="line2d_11">
      <g>
       <use style="fill:#262626;stroke:#262626;stroke-width:1.25;" x="72" xlink:href="#m8e6057617d" y="410.811429"/>
      </g>
     </g>
     <g id="text_12">
      <!-- 4.0 -->
      <g style="fill:#262626;" transform="translate(35.7425 417.700823)scale(0.1925 -0.1925)">
       <use xlink:href="#ArialMT-52"/>
       <use x="55.615234" xlink:href="#ArialMT-46"/>
       <use x="83.398438" xlink:href="#ArialMT-48"/>
      </g>
     </g>
    </g>
    <g id="ytick_7">
     <g id="line2d_12">
      <g>
       <use style="fill:#262626;stroke:#262626;stroke-width:1.25;" x="72" xlink:href="#m8e6057617d" y="472.937143"/>
      </g>
     </g>
     <g id="text_13">
      <!-- 6.0 -->
      <g style="fill:#262626;" transform="translate(35.7425 479.826537)scale(0.1925 -0.1925)">
       <use xlink:href="#ArialMT-54"/>
       <use x="55.615234" xlink:href="#ArialMT-46"/>
       <use x="83.398438" xlink:href="#ArialMT-48"/>
      </g>
     </g>
    </g>
    <g id="text_14">
     <!-- Days in Vitro (DIV) -->
     <defs>
      <path d="M 40.4375 6.390625 
Q 35.546875 2.25 31.03125 0.53125 
Q 26.515625 -1.171875 21.34375 -1.171875 
Q 12.796875 -1.171875 8.203125 3 
Q 3.609375 7.171875 3.609375 13.671875 
Q 3.609375 17.484375 5.34375 20.625 
Q 7.078125 23.78125 9.890625 25.6875 
Q 12.703125 27.59375 16.21875 28.5625 
Q 18.796875 29.25 24.03125 29.890625 
Q 34.671875 31.15625 39.703125 32.90625 
Q 39.75 34.71875 39.75 35.203125 
Q 39.75 40.578125 37.25 42.78125 
Q 33.890625 45.75 27.25 45.75 
Q 21.046875 45.75 18.09375 43.578125 
Q 15.140625 41.40625 13.71875 35.890625 
L 5.125 37.0625 
Q 6.296875 42.578125 8.984375 45.96875 
Q 11.671875 49.359375 16.75 51.1875 
Q 21.828125 53.03125 28.515625 53.03125 
Q 35.15625 53.03125 39.296875 51.46875 
Q 43.453125 49.90625 45.40625 47.53125 
Q 47.359375 45.171875 48.140625 41.546875 
Q 48.578125 39.3125 48.578125 33.453125 
L 48.578125 21.734375 
Q 48.578125 9.46875 49.140625 6.21875 
Q 49.703125 2.984375 51.375 0 
L 42.1875 0 
Q 40.828125 2.734375 40.4375 6.390625 
z
M 39.703125 26.03125 
Q 34.90625 24.078125 25.34375 22.703125 
Q 19.921875 21.921875 17.671875 20.9375 
Q 15.4375 19.96875 14.203125 18.09375 
Q 12.984375 16.21875 12.984375 13.921875 
Q 12.984375 10.40625 15.640625 8.0625 
Q 18.3125 5.71875 23.4375 5.71875 
Q 28.515625 5.71875 32.46875 7.9375 
Q 36.421875 10.15625 38.28125 14.015625 
Q 39.703125 17 39.703125 22.796875 
z
" id="ArialMT-97"/>
      <path d="M 6.203125 -19.96875 
L 5.21875 -11.71875 
Q 8.109375 -12.5 10.25 -12.5 
Q 13.1875 -12.5 14.9375 -11.515625 
Q 16.703125 -10.546875 17.828125 -8.796875 
Q 18.65625 -7.46875 20.515625 -2.25 
Q 20.75 -1.515625 21.296875 -0.09375 
L 1.609375 51.859375 
L 11.078125 51.859375 
L 21.875 21.828125 
Q 23.96875 16.109375 25.640625 9.8125 
Q 27.15625 15.875 29.25 21.625 
L 40.328125 51.859375 
L 49.125 51.859375 
L 29.390625 -0.875 
Q 26.21875 -9.421875 24.46875 -12.640625 
Q 22.125 -17 19.09375 -19.015625 
Q 16.0625 -21.046875 11.859375 -21.046875 
Q 9.328125 -21.046875 6.203125 -19.96875 
z
" id="ArialMT-121"/>
      <path d="M 3.078125 15.484375 
L 11.765625 16.84375 
Q 12.5 11.625 15.84375 8.84375 
Q 19.1875 6.0625 25.203125 6.0625 
Q 31.25 6.0625 34.171875 8.515625 
Q 37.109375 10.984375 37.109375 14.3125 
Q 37.109375 17.28125 34.515625 19 
Q 32.71875 20.171875 25.53125 21.96875 
Q 15.875 24.421875 12.140625 26.203125 
Q 8.40625 27.984375 6.46875 31.125 
Q 4.546875 34.28125 4.546875 38.09375 
Q 4.546875 41.546875 6.125 44.5 
Q 7.71875 47.46875 10.453125 49.421875 
Q 12.5 50.921875 16.03125 51.96875 
Q 19.578125 53.03125 23.640625 53.03125 
Q 29.734375 53.03125 34.34375 51.265625 
Q 38.96875 49.515625 41.15625 46.5 
Q 43.359375 43.5 44.1875 38.484375 
L 35.59375 37.3125 
Q 35.015625 41.3125 32.203125 43.546875 
Q 29.390625 45.796875 24.265625 45.796875 
Q 18.21875 45.796875 15.625 43.796875 
Q 13.03125 41.796875 13.03125 39.109375 
Q 13.03125 37.40625 14.109375 36.03125 
Q 15.1875 34.625 17.484375 33.6875 
Q 18.796875 33.203125 25.25 31.453125 
Q 34.578125 28.953125 38.25 27.359375 
Q 41.9375 25.78125 44.03125 22.75 
Q 46.140625 19.734375 46.140625 15.234375 
Q 46.140625 10.84375 43.578125 6.953125 
Q 41.015625 3.078125 36.171875 0.953125 
Q 31.34375 -1.171875 25.25 -1.171875 
Q 15.140625 -1.171875 9.84375 3.03125 
Q 4.546875 7.234375 3.078125 15.484375 
z
" id="ArialMT-115"/>
      <path d="M 6.640625 61.46875 
L 6.640625 71.578125 
L 15.4375 71.578125 
L 15.4375 61.46875 
z
M 6.640625 0 
L 6.640625 51.859375 
L 15.4375 51.859375 
L 15.4375 0 
z
" id="ArialMT-105"/>
      <path d="M 6.59375 0 
L 6.59375 51.859375 
L 14.5 51.859375 
L 14.5 44.484375 
Q 20.21875 53.03125 31 53.03125 
Q 35.6875 53.03125 39.625 51.34375 
Q 43.5625 49.65625 45.515625 46.921875 
Q 47.46875 44.1875 48.25 40.4375 
Q 48.734375 37.984375 48.734375 31.890625 
L 48.734375 0 
L 39.9375 0 
L 39.9375 31.546875 
Q 39.9375 36.921875 38.90625 39.578125 
Q 37.890625 42.234375 35.28125 43.8125 
Q 32.671875 45.40625 29.15625 45.40625 
Q 23.53125 45.40625 19.453125 41.84375 
Q 15.375 38.28125 15.375 28.328125 
L 15.375 0 
z
" id="ArialMT-110"/>
      <path d="M 28.171875 0 
L 0.4375 71.578125 
L 10.6875 71.578125 
L 29.296875 19.578125 
Q 31.546875 13.328125 33.0625 7.859375 
Q 34.71875 13.71875 36.921875 19.578125 
L 56.25 71.578125 
L 65.921875 71.578125 
L 37.890625 0 
z
" id="ArialMT-86"/>
      <path d="M 25.78125 7.859375 
L 27.046875 0.09375 
Q 23.34375 -0.6875 20.40625 -0.6875 
Q 15.625 -0.6875 12.984375 0.828125 
Q 10.359375 2.34375 9.28125 4.8125 
Q 8.203125 7.28125 8.203125 15.1875 
L 8.203125 45.015625 
L 1.765625 45.015625 
L 1.765625 51.859375 
L 8.203125 51.859375 
L 8.203125 64.703125 
L 16.9375 69.96875 
L 16.9375 51.859375 
L 25.78125 51.859375 
L 25.78125 45.015625 
L 16.9375 45.015625 
L 16.9375 14.703125 
Q 16.9375 10.9375 17.40625 9.859375 
Q 17.875 8.796875 18.921875 8.15625 
Q 19.96875 7.515625 21.921875 7.515625 
Q 23.390625 7.515625 25.78125 7.859375 
z
" id="ArialMT-116"/>
      <path d="M 3.328125 25.921875 
Q 3.328125 40.328125 11.328125 47.265625 
Q 18.015625 53.03125 27.640625 53.03125 
Q 38.328125 53.03125 45.109375 46.015625 
Q 51.90625 39.015625 51.90625 26.65625 
Q 51.90625 16.65625 48.90625 10.90625 
Q 45.90625 5.171875 40.15625 2 
Q 34.421875 -1.171875 27.640625 -1.171875 
Q 16.75 -1.171875 10.03125 5.8125 
Q 3.328125 12.796875 3.328125 25.921875 
z
M 12.359375 25.921875 
Q 12.359375 15.96875 16.703125 11.015625 
Q 21.046875 6.0625 27.640625 6.0625 
Q 34.1875 6.0625 38.53125 11.03125 
Q 42.875 16.015625 42.875 26.21875 
Q 42.875 35.84375 38.5 40.796875 
Q 34.125 45.75 27.640625 45.75 
Q 21.046875 45.75 16.703125 40.8125 
Q 12.359375 35.890625 12.359375 25.921875 
z
" id="ArialMT-111"/>
      <path d="M 23.390625 -21.046875 
Q 16.109375 -11.859375 11.078125 0.4375 
Q 6.0625 12.75 6.0625 25.921875 
Q 6.0625 37.546875 9.8125 48.1875 
Q 14.203125 60.546875 23.390625 72.796875 
L 29.6875 72.796875 
Q 23.78125 62.640625 21.875 58.296875 
Q 18.890625 51.5625 17.1875 44.234375 
Q 15.09375 35.109375 15.09375 25.875 
Q 15.09375 2.390625 29.6875 -21.046875 
z
" id="ArialMT-40"/>
      <path d="M 9.328125 0 
L 9.328125 71.578125 
L 18.796875 71.578125 
L 18.796875 0 
z
" id="ArialMT-73"/>
      <path d="M 12.359375 -21.046875 
L 6.0625 -21.046875 
Q 20.65625 2.390625 20.65625 25.875 
Q 20.65625 35.0625 18.5625 44.09375 
Q 16.890625 51.421875 13.921875 58.15625 
Q 12.015625 62.546875 6.0625 72.796875 
L 12.359375 72.796875 
Q 21.53125 60.546875 25.921875 48.1875 
Q 29.6875 37.546875 29.6875 25.921875 
Q 29.6875 12.75 24.625 0.4375 
Q 19.578125 -11.859375 12.359375 -21.046875 
z
" id="ArialMT-41"/>
     </defs>
     <g style="fill:#262626;opacity:0.7;" transform="translate(28.375 352.79125)rotate(-90)scale(0.16 -0.16)">
      <use xlink:href="#ArialMT-68"/>
      <use x="72.216797" xlink:href="#ArialMT-97"/>
      <use x="127.832031" xlink:href="#ArialMT-121"/>
      <use x="177.832031" xlink:href="#ArialMT-115"/>
      <use x="227.832031" xlink:href="#ArialMT-32"/>
      <use x="255.615234" xlink:href="#ArialMT-105"/>
      <use x="277.832031" xlink:href="#ArialMT-110"/>
      <use x="333.447266" xlink:href="#ArialMT-32"/>
      <use x="361.230469" xlink:href="#ArialMT-86"/>
      <use x="427.914062" xlink:href="#ArialMT-105"/>
      <use x="450.130859" xlink:href="#ArialMT-116"/>
      <use x="477.914062" xlink:href="#ArialMT-114"/>
      <use x="511.214844" xlink:href="#ArialMT-111"/>
      <use x="566.830078" xlink:href="#ArialMT-32"/>
      <use x="594.613281" xlink:href="#ArialMT-40"/>
      <use x="627.914062" xlink:href="#ArialMT-68"/>
      <use x="700.130859" xlink:href="#ArialMT-73"/>
      <use x="727.914062" xlink:href="#ArialMT-86"/>
      <use x="794.613281" xlink:href="#ArialMT-41"/>
     </g>
    </g>
   </g>
   <g id="PolyCollection_1">
    <defs>
     <path d="M 99.9 -451.729378 
L 99.9 -499.904908 
L 100.745455 -500.155822 
L 101.590909 -500.353902 
L 102.436364 -500.501181 
L 103.281818 -500.600314 
L 104.127273 -500.654507 
L 104.972727 -500.667429 
L 105.818182 -500.643123 
L 106.663636 -500.585906 
L 107.509091 -500.500257 
L 108.354545 -500.39071 
L 109.2 -500.261746 
L 110.045455 -500.11769 
L 110.890909 -499.962609 
L 111.736364 -499.800224 
L 112.581818 -499.633837 
L 113.427273 -499.466263 
L 114.272727 -499.299786 
L 115.118182 -499.136127 
L 115.963636 -498.976429 
L 116.809091 -498.821264 
L 117.654545 -498.670651 
L 118.5 -498.524094 
L 119.345455 -498.380634 
L 120.190909 -498.23891 
L 121.036364 -498.097233 
L 121.881818 -497.953673 
L 122.727273 -497.806136 
L 123.572727 -497.652461 
L 124.418182 -497.490505 
L 125.263636 -497.318226 
L 126.109091 -497.133761 
L 126.954545 -496.935498 
L 127.8 -496.722133 
L 128.645455 -496.492717 
L 129.490909 -496.246694 
L 130.336364 -495.983911 
L 131.181818 -495.704635 
L 132.027273 -495.409536 
L 132.872727 -495.099672 
L 133.718182 -494.776448 
L 134.563636 -494.44158 
L 135.409091 -494.097035 
L 136.254545 -493.744974 
L 137.1 -493.387691 
L 137.945455 -493.02754 
L 138.790909 -492.666874 
L 139.636364 -492.307977 
L 140.481818 -491.953009 
L 141.327273 -491.603947 
L 142.172727 -491.262541 
L 143.018182 -490.930281 
L 143.863636 -490.608362 
L 144.709091 -490.297676 
L 145.554545 -489.998798 
L 146.4 -489.711997 
L 147.245455 -489.437245 
L 148.090909 -489.174241 
L 148.936364 -488.922444 
L 149.781818 -488.681105 
L 150.627273 -488.449313 
L 151.472727 -488.226039 
L 152.318182 -488.010178 
L 153.163636 -487.800601 
L 154.009091 -487.596193 
L 154.854545 -487.395897 
L 155.7 -487.198751 
L 156.545455 -487.003915 
L 157.390909 -486.810697 
L 158.236364 -486.618569 
L 159.081818 -486.427174 
L 159.927273 -486.236334 
L 160.772727 -486.046036 
L 161.618182 -485.856427 
L 162.463636 -485.667794 
L 163.309091 -485.480536 
L 164.154545 -485.295146 
L 165 -485.112174 
L 165.845455 -484.932197 
L 166.690909 -484.75579 
L 167.536364 -484.58349 
L 168.381818 -484.415773 
L 169.227273 -484.253022 
L 170.072727 -484.095509 
L 170.918182 -483.943376 
L 171.763636 -483.796621 
L 172.609091 -483.655095 
L 173.454545 -483.518497 
L 174.3 -483.386378 
L 175.145455 -483.258153 
L 175.990909 -483.133115 
L 176.836364 -483.010451 
L 177.681818 -482.889267 
L 178.527273 -482.768608 
L 179.372727 -482.647493 
L 180.218182 -482.524932 
L 181.063636 -482.399963 
L 181.909091 -482.271674 
L 182.754545 -482.139228 
L 183.6 -482.001888 
L 183.6 -469.632398 
L 183.6 -469.632398 
L 182.754545 -469.495058 
L 181.909091 -469.362612 
L 181.063636 -469.234322 
L 180.218182 -469.109354 
L 179.372727 -468.986793 
L 178.527273 -468.865677 
L 177.681818 -468.745019 
L 176.836364 -468.623834 
L 175.990909 -468.501171 
L 175.145455 -468.376133 
L 174.3 -468.247908 
L 173.454545 -468.115789 
L 172.609091 -467.97919 
L 171.763636 -467.837664 
L 170.918182 -467.69091 
L 170.072727 -467.538776 
L 169.227273 -467.381264 
L 168.381818 -467.218513 
L 167.536364 -467.050795 
L 166.690909 -466.878496 
L 165.845455 -466.702089 
L 165 -466.522112 
L 164.154545 -466.33914 
L 163.309091 -466.15375 
L 162.463636 -465.966492 
L 161.618182 -465.777858 
L 160.772727 -465.58825 
L 159.927273 -465.397952 
L 159.081818 -465.207111 
L 158.236364 -465.015717 
L 157.390909 -464.823588 
L 156.545455 -464.63037 
L 155.7 -464.435535 
L 154.854545 -464.238389 
L 154.009091 -464.038093 
L 153.163636 -463.833685 
L 152.318182 -463.624107 
L 151.472727 -463.408247 
L 150.627273 -463.184972 
L 149.781818 -462.953181 
L 148.936364 -462.711842 
L 148.090909 -462.460045 
L 147.245455 -462.197041 
L 146.4 -461.922288 
L 145.554545 -461.635487 
L 144.709091 -461.33661 
L 143.863636 -461.025923 
L 143.018182 -460.704005 
L 142.172727 -460.371744 
L 141.327273 -460.030339 
L 140.481818 -459.681277 
L 139.636364 -459.326308 
L 138.790909 -458.967412 
L 137.945455 -458.606746 
L 137.1 -458.246595 
L 136.254545 -457.889311 
L 135.409091 -457.537251 
L 134.563636 -457.192706 
L 133.718182 -456.857837 
L 132.872727 -456.534614 
L 132.027273 -456.224749 
L 131.181818 -455.929651 
L 130.336364 -455.650375 
L 129.490909 -455.387592 
L 128.645455 -455.141568 
L 127.8 -454.912153 
L 126.954545 -454.698788 
L 126.109091 -454.500525 
L 125.263636 -454.31606 
L 124.418182 -454.143781 
L 123.572727 -453.981825 
L 122.727273 -453.82815 
L 121.881818 -453.680613 
L 121.036364 -453.537052 
L 120.190909 -453.395376 
L 119.345455 -453.253651 
L 118.5 -453.110191 
L 117.654545 -452.963635 
L 116.809091 -452.813022 
L 115.963636 -452.657857 
L 115.118182 -452.498159 
L 114.272727 -452.3345 
L 113.427273 -452.168023 
L 112.581818 -452.000449 
L 111.736364 -451.834062 
L 110.890909 -451.671677 
L 110.045455 -451.516595 
L 109.2 -451.372539 
L 108.354545 -451.243576 
L 107.509091 -451.134029 
L 106.663636 -451.048379 
L 105.818182 -450.991162 
L 104.972727 -450.966857 
L 104.127273 -450.979779 
L 103.281818 -451.033971 
L 102.436364 -451.133105 
L 101.590909 -451.280384 
L 100.745455 -451.478463 
L 99.9 -451.729378 
z
" id="m2397efdbd9" style="stroke:#494949;stroke-width:1.5;"/>
    </defs>
    <g clip-path="url(#p91db607b43)">
     <use style="fill:#5875a4;stroke:#494949;stroke-width:1.5;" x="0" xlink:href="#m2397efdbd9" y="576"/>
    </g>
   </g>
   <g id="PolyCollection_2">
    <defs>
     <path d="M 99.9 -391.748561 
L 99.9 -435.634296 
L 101.027273 -435.998424 
L 102.154545 -436.294549 
L 103.281818 -436.52617 
L 104.409091 -436.697927 
L 105.536364 -436.815379 
L 106.663636 -436.884742 
L 107.790909 -436.912612 
L 108.918182 -436.905674 
L 110.045455 -436.870423 
L 111.172727 -436.8129 
L 112.3 -436.738454 
L 113.427273 -436.651561 
L 114.554545 -436.555677 
L 115.681818 -436.453161 
L 116.809091 -436.345249 
L 117.936364 -436.232093 
L 119.063636 -436.112852 
L 120.190909 -435.985833 
L 121.318182 -435.848678 
L 122.445455 -435.69857 
L 123.572727 -435.532465 
L 124.7 -435.347327 
L 125.827273 -435.140347 
L 126.954545 -434.909152 
L 128.081818 -434.651975 
L 129.209091 -434.367784 
L 130.336364 -434.056374 
L 131.463636 -433.7184 
L 132.590909 -433.355368 
L 133.718182 -432.969572 
L 134.845455 -432.563995 
L 135.972727 -432.142175 
L 137.1 -431.70804 
L 138.227273 -431.265733 
L 139.354545 -430.819431 
L 140.481818 -430.373166 
L 141.609091 -429.930665 
L 142.736364 -429.495211 
L 143.863636 -429.069534 
L 144.990909 -428.65574 
L 146.118182 -428.255272 
L 147.245455 -427.868911 
L 148.372727 -427.49681 
L 149.5 -427.138562 
L 150.627273 -426.79329 
L 151.754545 -426.459758 
L 152.881818 -426.13649 
L 154.009091 -425.821895 
L 155.136364 -425.514388 
L 156.263636 -425.212494 
L 157.390909 -424.914946 
L 158.518182 -424.620748 
L 159.645455 -424.329227 
L 160.772727 -424.040052 
L 161.9 -423.753228 
L 163.027273 -423.469071 
L 164.154545 -423.188162 
L 165.281818 -422.911281 
L 166.409091 -422.63934 
L 167.536364 -422.3733 
L 168.663636 -422.114097 
L 169.790909 -421.862569 
L 170.918182 -421.619391 
L 172.045455 -421.385028 
L 173.172727 -421.159703 
L 174.3 -420.943374 
L 175.427273 -420.735743 
L 176.554545 -420.536267 
L 177.681818 -420.344193 
L 178.809091 -420.158601 
L 179.936364 -419.978457 
L 181.063636 -419.802672 
L 182.190909 -419.630159 
L 183.318182 -419.459892 
L 184.445455 -419.290955 
L 185.572727 -419.122588 
L 186.7 -418.954217 
L 187.827273 -418.785475 
L 188.954545 -418.616209 
L 190.081818 -418.446477 
L 191.209091 -418.276533 
L 192.336364 -418.106797 
L 193.463636 -417.937825 
L 194.590909 -417.770269 
L 195.718182 -417.604832 
L 196.845455 -417.442229 
L 197.972727 -417.283147 
L 199.1 -417.128202 
L 200.227273 -416.977918 
L 201.354545 -416.832695 
L 202.481818 -416.692801 
L 203.609091 -416.558361 
L 204.736364 -416.429361 
L 205.863636 -416.305657 
L 206.990909 -416.186988 
L 208.118182 -416.073002 
L 209.245455 -415.963274 
L 210.372727 -415.85734 
L 211.5 -415.754717 
L 211.5 -411.62814 
L 211.5 -411.62814 
L 210.372727 -411.525517 
L 209.245455 -411.419583 
L 208.118182 -411.309855 
L 206.990909 -411.195869 
L 205.863636 -411.0772 
L 204.736364 -410.953496 
L 203.609091 -410.824496 
L 202.481818 -410.690056 
L 201.354545 -410.550162 
L 200.227273 -410.404939 
L 199.1 -410.254655 
L 197.972727 -410.09971 
L 196.845455 -409.940628 
L 195.718182 -409.778025 
L 194.590909 -409.612588 
L 193.463636 -409.445032 
L 192.336364 -409.27606 
L 191.209091 -409.106324 
L 190.081818 -408.93638 
L 188.954545 -408.766648 
L 187.827273 -408.597382 
L 186.7 -408.42864 
L 185.572727 -408.260269 
L 184.445455 -408.091902 
L 183.318182 -407.922965 
L 182.190909 -407.752698 
L 181.063636 -407.580185 
L 179.936364 -407.4044 
L 178.809091 -407.224256 
L 177.681818 -407.038664 
L 176.554545 -406.84659 
L 175.427273 -406.647114 
L 174.3 -406.439483 
L 173.172727 -406.223154 
L 172.045455 -405.997829 
L 170.918182 -405.763466 
L 169.790909 -405.520288 
L 168.663636 -405.26876 
L 167.536364 -405.009557 
L 166.409091 -404.743517 
L 165.281818 -404.471576 
L 164.154545 -404.194695 
L 163.027273 -403.913786 
L 161.9 -403.629629 
L 160.772727 -403.342805 
L 159.645455 -403.05363 
L 158.518182 -402.762109 
L 157.390909 -402.467912 
L 156.263636 -402.170363 
L 155.136364 -401.86847 
L 154.009091 -401.560962 
L 152.881818 -401.246367 
L 151.754545 -400.923099 
L 150.627273 -400.589567 
L 149.5 -400.244295 
L 148.372727 -399.886047 
L 147.245455 -399.513946 
L 146.118182 -399.127585 
L 144.990909 -398.727117 
L 143.863636 -398.313323 
L 142.736364 -397.887647 
L 141.609091 -397.452192 
L 140.481818 -397.009691 
L 139.354545 -396.563426 
L 138.227273 -396.117124 
L 137.1 -395.674817 
L 135.972727 -395.240682 
L 134.845455 -394.818862 
L 133.718182 -394.413285 
L 132.590909 -394.027489 
L 131.463636 -393.664457 
L 130.336364 -393.326483 
L 129.209091 -393.015073 
L 128.081818 -392.730883 
L 126.954545 -392.473705 
L 125.827273 -392.24251 
L 124.7 -392.03553 
L 123.572727 -391.850392 
L 122.445455 -391.684288 
L 121.318182 -391.534179 
L 120.190909 -391.397024 
L 119.063636 -391.270005 
L 117.936364 -391.150764 
L 116.809091 -391.037608 
L 115.681818 -390.929696 
L 114.554545 -390.82718 
L 113.427273 -390.731296 
L 112.3 -390.644403 
L 111.172727 -390.569958 
L 110.045455 -390.512434 
L 108.918182 -390.477183 
L 107.790909 -390.470245 
L 106.663636 -390.498115 
L 105.536364 -390.567478 
L 104.409091 -390.68493 
L 103.281818 -390.856687 
L 102.154545 -391.088308 
L 101.027273 -391.384433 
L 99.9 -391.748561 
z
" id="m93edd329e2" style="stroke:#494949;stroke-width:1.5;"/>
    </defs>
    <g clip-path="url(#p91db607b43)">
     <use style="fill:#cc8963;stroke:#494949;stroke-width:1.5;" x="0" xlink:href="#m93edd329e2" y="576"/>
    </g>
   </g>
   <g id="PolyCollection_3">
    <defs>
     <path d="M 99.9 -336.299084 
L 99.9 -366.832344 
L 103.563636 -367.20366 
L 107.227273 -367.365537 
L 110.890909 -367.32681 
L 114.554545 -367.106273 
L 118.218182 -366.730494 
L 121.881818 -366.231082 
L 125.545455 -365.641757 
L 129.209091 -364.995575 
L 132.872727 -364.322603 
L 136.536364 -363.648227 
L 140.2 -362.992191 
L 143.863636 -362.368363 
L 147.527273 -361.78509 
L 151.190909 -361.24602 
L 154.854545 -360.751163 
L 158.518182 -360.298041 
L 162.181818 -359.882744 
L 165.845455 -359.500816 
L 169.509091 -359.147887 
L 173.172727 -358.820056 
L 176.836364 -358.514055 
L 180.5 -358.227232 
L 184.163636 -357.957434 
L 187.827273 -357.702826 
L 191.490909 -357.461733 
L 195.154545 -357.232499 
L 198.818182 -357.013412 
L 202.481818 -356.802688 
L 206.145455 -356.598503 
L 209.809091 -356.399055 
L 213.472727 -356.202651 
L 217.136364 -356.007787 
L 220.8 -355.81321 
L 224.463636 -355.617965 
L 228.127273 -355.421415 
L 231.790909 -355.223234 
L 235.454545 -355.023394 
L 239.118182 -354.822137 
L 242.781818 -354.619946 
L 246.445455 -354.417519 
L 250.109091 -354.215754 
L 253.772727 -354.015727 
L 257.436364 -353.818686 
L 261.1 -353.626033 
L 264.763636 -353.439298 
L 268.427273 -353.260103 
L 272.090909 -353.090102 
L 275.754545 -352.930907 
L 279.418182 -352.783989 
L 283.081818 -352.650577 
L 286.745455 -352.531549 
L 290.409091 -352.427338 
L 294.072727 -352.337863 
L 297.736364 -352.262498 
L 301.4 -352.200091 
L 305.063636 -352.149027 
L 308.727273 -352.107339 
L 312.390909 -352.072859 
L 316.054545 -352.043383 
L 319.718182 -352.016834 
L 323.381818 -351.991421 
L 327.045455 -351.965741 
L 330.709091 -351.938857 
L 334.372727 -351.910306 
L 338.036364 -351.880071 
L 341.7 -351.848508 
L 345.363636 -351.816241 
L 349.027273 -351.784051 
L 352.690909 -351.752765 
L 356.354545 -351.72316 
L 360.018182 -351.695888 
L 363.681818 -351.671436 
L 367.345455 -351.650104 
L 371.009091 -351.632019 
L 374.672727 -351.617164 
L 378.336364 -351.605414 
L 382 -351.596585 
L 385.663636 -351.59048 
L 389.327273 -351.586929 
L 392.990909 -351.585816 
L 396.654545 -351.587104 
L 400.318182 -351.590832 
L 403.981818 -351.597115 
L 407.645455 -351.606119 
L 411.309091 -351.618028 
L 414.972727 -351.633002 
L 418.636364 -351.651125 
L 422.3 -351.672355 
L 425.963636 -351.696475 
L 429.627273 -351.723056 
L 433.290909 -351.751437 
L 436.954545 -351.780728 
L 440.618182 -351.809838 
L 444.281818 -351.837535 
L 447.945455 -351.86252 
L 451.609091 -351.883533 
L 455.272727 -351.899447 
L 458.936364 -351.909375 
L 462.6 -351.91275 
L 462.6 -351.218679 
L 462.6 -351.218679 
L 458.936364 -351.222053 
L 455.272727 -351.231982 
L 451.609091 -351.247896 
L 447.945455 -351.268908 
L 444.281818 -351.293894 
L 440.618182 -351.32159 
L 436.954545 -351.350701 
L 433.290909 -351.379992 
L 429.627273 -351.408373 
L 425.963636 -351.434953 
L 422.3 -351.459073 
L 418.636364 -351.480303 
L 414.972727 -351.498426 
L 411.309091 -351.5134 
L 407.645455 -351.52531 
L 403.981818 -351.534314 
L 400.318182 -351.540597 
L 396.654545 -351.544325 
L 392.990909 -351.545612 
L 389.327273 -351.5445 
L 385.663636 -351.540948 
L 382 -351.534844 
L 378.336364 -351.526015 
L 374.672727 -351.514264 
L 371.009091 -351.499409 
L 367.345455 -351.481325 
L 363.681818 -351.459993 
L 360.018182 -351.43554 
L 356.354545 -351.408269 
L 352.690909 -351.378664 
L 349.027273 -351.347378 
L 345.363636 -351.315188 
L 341.7 -351.28292 
L 338.036364 -351.251357 
L 334.372727 -351.221123 
L 330.709091 -351.192572 
L 327.045455 -351.165687 
L 323.381818 -351.140008 
L 319.718182 -351.114594 
L 316.054545 -351.088046 
L 312.390909 -351.058569 
L 308.727273 -351.024089 
L 305.063636 -350.982402 
L 301.4 -350.931337 
L 297.736364 -350.86893 
L 294.072727 -350.793566 
L 290.409091 -350.704091 
L 286.745455 -350.59988 
L 283.081818 -350.480852 
L 279.418182 -350.34744 
L 275.754545 -350.200522 
L 272.090909 -350.041326 
L 268.427273 -349.871325 
L 264.763636 -349.69213 
L 261.1 -349.505396 
L 257.436364 -349.312743 
L 253.772727 -349.115702 
L 250.109091 -348.915675 
L 246.445455 -348.713909 
L 242.781818 -348.511483 
L 239.118182 -348.309291 
L 235.454545 -348.108034 
L 231.790909 -347.908195 
L 228.127273 -347.710014 
L 224.463636 -347.513463 
L 220.8 -347.318219 
L 217.136364 -347.123642 
L 213.472727 -346.928777 
L 209.809091 -346.732374 
L 206.145455 -346.532926 
L 202.481818 -346.32874 
L 198.818182 -346.118017 
L 195.154545 -345.89893 
L 191.490909 -345.669695 
L 187.827273 -345.428602 
L 184.163636 -345.173995 
L 180.5 -344.904196 
L 176.836364 -344.617374 
L 173.172727 -344.311373 
L 169.509091 -343.983542 
L 165.845455 -343.630612 
L 162.181818 -343.248684 
L 158.518182 -342.833388 
L 154.854545 -342.380265 
L 151.190909 -341.885409 
L 147.527273 -341.346339 
L 143.863636 -340.763066 
L 140.2 -340.139237 
L 136.536364 -339.483202 
L 132.872727 -338.808825 
L 129.209091 -338.135854 
L 125.545455 -337.489672 
L 121.881818 -336.900346 
L 118.218182 -336.400934 
L 114.554545 -336.025156 
L 110.890909 -335.804619 
L 107.227273 -335.765892 
L 103.563636 -335.927769 
L 99.9 -336.299084 
z
" id="mb6009501ae" style="stroke:#494949;stroke-width:1.5;"/>
    </defs>
    <g clip-path="url(#p91db607b43)">
     <use style="fill:#5f9e6e;stroke:#494949;stroke-width:1.5;" x="0" xlink:href="#mb6009501ae" y="576"/>
    </g>
   </g>
   <g id="PolyCollection_4">
    <defs>
     <path d="M 99.9 -275.911861 
L 99.9 -302.968139 
L 102.436364 -303.42698 
L 104.972727 -303.787669 
L 107.509091 -304.051116 
L 110.045455 -304.221507 
L 112.581818 -304.305796 
L 115.118182 -304.313065 
L 117.654545 -304.253806 
L 120.190909 -304.1392 
L 122.727273 -303.980436 
L 125.263636 -303.788122 
L 127.8 -303.571813 
L 130.336364 -303.339674 
L 132.872727 -303.098287 
L 135.409091 -302.85258 
L 137.945455 -302.605876 
L 140.481818 -302.360033 
L 143.018182 -302.115651 
L 145.554545 -301.872328 
L 148.090909 -301.628932 
L 150.627273 -301.383875 
L 153.163636 -301.135366 
L 155.7 -300.881635 
L 158.236364 -300.621103 
L 160.772727 -300.352515 
L 163.309091 -300.075014 
L 165.845455 -299.788174 
L 168.381818 -299.491998 
L 170.918182 -299.18689 
L 173.454545 -298.873605 
L 175.990909 -298.553207 
L 178.527273 -298.227024 
L 181.063636 -297.896603 
L 183.6 -297.563681 
L 186.136364 -297.230156 
L 188.672727 -296.898055 
L 191.209091 -296.569496 
L 193.745455 -296.246642 
L 196.281818 -295.931636 
L 198.818182 -295.626535 
L 201.354545 -295.333223 
L 203.890909 -295.053334 
L 206.427273 -294.788173 
L 208.963636 -294.538649 
L 211.5 -294.305234 
L 214.036364 -294.087937 
L 216.572727 -293.88631 
L 219.109091 -293.69948 
L 221.645455 -293.526202 
L 224.181818 -293.364941 
L 226.718182 -293.213959 
L 229.254545 -293.071422 
L 231.790909 -292.935503 
L 234.327273 -292.804481 
L 236.863636 -292.676832 
L 239.4 -292.551299 
L 241.936364 -292.426939 
L 244.472727 -292.303156 
L 247.009091 -292.179689 
L 249.545455 -292.0566 
L 252.081818 -291.93422 
L 254.618182 -291.813096 
L 257.154545 -291.693916 
L 259.690909 -291.577443 
L 262.227273 -291.464443 
L 264.763636 -291.355627 
L 267.3 -291.251602 
L 269.836364 -291.152843 
L 272.372727 -291.059671 
L 274.909091 -290.972256 
L 277.445455 -290.890627 
L 279.981818 -290.814693 
L 282.518182 -290.744275 
L 285.054545 -290.679135 
L 287.590909 -290.619017 
L 290.127273 -290.563676 
L 292.663636 -290.512906 
L 295.2 -290.466564 
L 297.736364 -290.424585 
L 300.272727 -290.38698 
L 302.809091 -290.353833 
L 305.345455 -290.325286 
L 307.881818 -290.301507 
L 310.418182 -290.282659 
L 312.954545 -290.268859 
L 315.490909 -290.260136 
L 318.027273 -290.256388 
L 320.563636 -290.257348 
L 323.1 -290.262554 
L 325.636364 -290.271337 
L 328.172727 -290.282819 
L 330.709091 -290.295932 
L 333.245455 -290.309447 
L 335.781818 -290.322031 
L 338.318182 -290.332308 
L 340.854545 -290.338929 
L 343.390909 -290.340653 
L 345.927273 -290.33642 
L 348.463636 -290.32542 
L 351 -290.307143 
L 351 -288.572857 
L 351 -288.572857 
L 348.463636 -288.55458 
L 345.927273 -288.54358 
L 343.390909 -288.539347 
L 340.854545 -288.541071 
L 338.318182 -288.547692 
L 335.781818 -288.557969 
L 333.245455 -288.570553 
L 330.709091 -288.584068 
L 328.172727 -288.597181 
L 325.636364 -288.608663 
L 323.1 -288.617446 
L 320.563636 -288.622652 
L 318.027273 -288.623612 
L 315.490909 -288.619864 
L 312.954545 -288.611141 
L 310.418182 -288.597341 
L 307.881818 -288.578493 
L 305.345455 -288.554714 
L 302.809091 -288.526167 
L 300.272727 -288.49302 
L 297.736364 -288.455415 
L 295.2 -288.413436 
L 292.663636 -288.367094 
L 290.127273 -288.316324 
L 287.590909 -288.260983 
L 285.054545 -288.200865 
L 282.518182 -288.135725 
L 279.981818 -288.065307 
L 277.445455 -287.989373 
L 274.909091 -287.907744 
L 272.372727 -287.820329 
L 269.836364 -287.727157 
L 267.3 -287.628398 
L 264.763636 -287.524373 
L 262.227273 -287.415557 
L 259.690909 -287.302557 
L 257.154545 -287.186084 
L 254.618182 -287.066904 
L 252.081818 -286.94578 
L 249.545455 -286.8234 
L 247.009091 -286.700311 
L 244.472727 -286.576844 
L 241.936364 -286.453061 
L 239.4 -286.328701 
L 236.863636 -286.203168 
L 234.327273 -286.075519 
L 231.790909 -285.944497 
L 229.254545 -285.808578 
L 226.718182 -285.666041 
L 224.181818 -285.515059 
L 221.645455 -285.353798 
L 219.109091 -285.18052 
L 216.572727 -284.99369 
L 214.036364 -284.792063 
L 211.5 -284.574766 
L 208.963636 -284.341351 
L 206.427273 -284.091827 
L 203.890909 -283.826666 
L 201.354545 -283.546777 
L 198.818182 -283.253465 
L 196.281818 -282.948364 
L 193.745455 -282.633358 
L 191.209091 -282.310504 
L 188.672727 -281.981945 
L 186.136364 -281.649844 
L 183.6 -281.316319 
L 181.063636 -280.983397 
L 178.527273 -280.652976 
L 175.990909 -280.326793 
L 173.454545 -280.006395 
L 170.918182 -279.69311 
L 168.381818 -279.388002 
L 165.845455 -279.091826 
L 163.309091 -278.804986 
L 160.772727 -278.527485 
L 158.236364 -278.258897 
L 155.7 -277.998365 
L 153.163636 -277.744634 
L 150.627273 -277.496125 
L 148.090909 -277.251068 
L 145.554545 -277.007672 
L 143.018182 -276.764349 
L 140.481818 -276.519967 
L 137.945455 -276.274124 
L 135.409091 -276.02742 
L 132.872727 -275.781713 
L 130.336364 -275.540326 
L 127.8 -275.308187 
L 125.263636 -275.091878 
L 122.727273 -274.899564 
L 120.190909 -274.7408 
L 117.654545 -274.626194 
L 115.118182 -274.566935 
L 112.581818 -274.574204 
L 110.045455 -274.658493 
L 107.509091 -274.828884 
L 104.972727 -275.092331 
L 102.436364 -275.45302 
L 99.9 -275.911861 
z
" id="mf92b02d01e" style="stroke:#494949;stroke-width:1.5;"/>
    </defs>
    <g clip-path="url(#p91db607b43)">
     <use style="fill:#b55d60;stroke:#494949;stroke-width:1.5;" x="0" xlink:href="#mf92b02d01e" y="576"/>
    </g>
   </g>
   <g id="PolyCollection_5">
    <defs>
     <path d="M 99.9 -221.255809 
L 99.9 -233.372762 
L 104.127273 -233.952372 
L 108.354545 -234.505574 
L 112.581818 -235.024651 
L 116.809091 -235.503438 
L 121.036364 -235.937157 
L 125.263636 -236.322156 
L 129.490909 -236.655633 
L 133.718182 -236.935427 
L 137.945455 -237.159912 
L 142.172727 -237.328027 
L 146.4 -237.439414 
L 150.627273 -237.494632 
L 154.854545 -237.495379 
L 159.081818 -237.444667 
L 163.309091 -237.346882 
L 167.536364 -237.207712 
L 171.763636 -237.033919 
L 175.990909 -236.832979 
L 180.218182 -236.612634 
L 184.445455 -236.380389 
L 188.672727 -236.143023 
L 192.9 -235.906155 
L 197.127273 -235.673901 
L 201.354545 -235.448664 
L 205.581818 -235.231067 
L 209.809091 -235.020035 
L 214.036364 -234.813044 
L 218.263636 -234.6065 
L 222.490909 -234.396244 
L 226.718182 -234.178118 
L 230.945455 -233.948554 
L 235.172727 -233.705096 
L 239.4 -233.446806 
L 243.627273 -233.174482 
L 247.854545 -232.890655 
L 252.081818 -232.599367 
L 256.309091 -232.305754 
L 260.536364 -232.015496 
L 264.763636 -231.73422 
L 268.990909 -231.466932 
L 273.218182 -231.217567 
L 277.445455 -230.988703 
L 281.672727 -230.78146 
L 285.9 -230.595578 
L 290.127273 -230.429649 
L 294.354545 -230.28143 
L 298.581818 -230.148211 
L 302.809091 -230.02716 
L 307.036364 -229.915622 
L 311.263636 -229.811341 
L 315.490909 -229.71259 
L 319.718182 -229.618218 
L 323.945455 -229.527615 
L 328.172727 -229.440614 
L 332.4 -229.357351 
L 336.627273 -229.278088 
L 340.854545 -229.20305 
L 345.081818 -229.132262 
L 349.309091 -229.065438 
L 353.536364 -229.001913 
L 357.763636 -228.940651 
L 361.990909 -228.880306 
L 366.218182 -228.819358 
L 370.445455 -228.756273 
L 374.672727 -228.689688 
L 378.9 -228.618591 
L 383.127273 -228.542451 
L 387.354545 -228.461305 
L 391.581818 -228.375777 
L 395.809091 -228.287027 
L 400.036364 -228.19665 
L 404.263636 -228.106535 
L 408.490909 -228.018702 
L 412.718182 -227.935137 
L 416.945455 -227.857648 
L 421.172727 -227.78774 
L 425.4 -227.726531 
L 429.627273 -227.674698 
L 433.854545 -227.632462 
L 438.081818 -227.599609 
L 442.309091 -227.575536 
L 446.536364 -227.559324 
L 450.763636 -227.549825 
L 454.990909 -227.545757 
L 459.218182 -227.545797 
L 463.445455 -227.548665 
L 467.672727 -227.553186 
L 471.9 -227.558336 
L 476.127273 -227.563263 
L 480.354545 -227.567288 
L 484.581818 -227.569889 
L 488.809091 -227.570683 
L 493.036364 -227.5694 
L 497.263636 -227.56586 
L 501.490909 -227.559968 
L 505.718182 -227.551702 
L 509.945455 -227.541122 
L 514.172727 -227.528372 
L 518.4 -227.51369 
L 518.4 -227.114881 
L 518.4 -227.114881 
L 514.172727 -227.100199 
L 509.945455 -227.08745 
L 505.718182 -227.076869 
L 501.490909 -227.068604 
L 497.263636 -227.062711 
L 493.036364 -227.059172 
L 488.809091 -227.057888 
L 484.581818 -227.058683 
L 480.354545 -227.061284 
L 476.127273 -227.065308 
L 471.9 -227.070235 
L 467.672727 -227.075385 
L 463.445455 -227.079906 
L 459.218182 -227.082774 
L 454.990909 -227.082815 
L 450.763636 -227.078747 
L 446.536364 -227.069248 
L 442.309091 -227.053036 
L 438.081818 -227.028963 
L 433.854545 -226.996109 
L 429.627273 -226.953873 
L 425.4 -226.90204 
L 421.172727 -226.840831 
L 416.945455 -226.770924 
L 412.718182 -226.693435 
L 408.490909 -226.60987 
L 404.263636 -226.522036 
L 400.036364 -226.431922 
L 395.809091 -226.341545 
L 391.581818 -226.252795 
L 387.354545 -226.167266 
L 383.127273 -226.086121 
L 378.9 -226.009981 
L 374.672727 -225.938883 
L 370.445455 -225.872299 
L 366.218182 -225.809213 
L 361.990909 -225.748265 
L 357.763636 -225.687921 
L 353.536364 -225.626658 
L 349.309091 -225.563134 
L 345.081818 -225.496309 
L 340.854545 -225.425522 
L 336.627273 -225.350484 
L 332.4 -225.271221 
L 328.172727 -225.187957 
L 323.945455 -225.100957 
L 319.718182 -225.010354 
L 315.490909 -224.915981 
L 311.263636 -224.81723 
L 307.036364 -224.712949 
L 302.809091 -224.601411 
L 298.581818 -224.48036 
L 294.354545 -224.347141 
L 290.127273 -224.198923 
L 285.9 -224.032993 
L 281.672727 -223.847112 
L 277.445455 -223.639868 
L 273.218182 -223.411004 
L 268.990909 -223.16164 
L 264.763636 -222.894352 
L 260.536364 -222.613075 
L 256.309091 -222.322818 
L 252.081818 -222.029205 
L 247.854545 -221.737917 
L 243.627273 -221.45409 
L 239.4 -221.181765 
L 235.172727 -220.923476 
L 230.945455 -220.680018 
L 226.718182 -220.450453 
L 222.490909 -220.232328 
L 218.263636 -220.022071 
L 214.036364 -219.815527 
L 209.809091 -219.608536 
L 205.581818 -219.397504 
L 201.354545 -219.179907 
L 197.127273 -218.954671 
L 192.9 -218.722417 
L 188.672727 -218.485548 
L 184.445455 -218.248183 
L 180.218182 -218.015938 
L 175.990909 -217.795593 
L 171.763636 -217.594653 
L 167.536364 -217.420859 
L 163.309091 -217.281689 
L 159.081818 -217.183905 
L 154.854545 -217.133192 
L 150.627273 -217.13394 
L 146.4 -217.189158 
L 142.172727 -217.300544 
L 137.945455 -217.468659 
L 133.718182 -217.693144 
L 129.490909 -217.972938 
L 125.263636 -218.306415 
L 121.036364 -218.691414 
L 116.809091 -219.125134 
L 112.581818 -219.603921 
L 108.354545 -220.122998 
L 104.127273 -220.6762 
L 99.9 -221.255809 
z
" id="me3bf029df3" style="stroke:#494949;stroke-width:1.5;"/>
    </defs>
    <g clip-path="url(#p91db607b43)">
     <use style="fill:#857aab;stroke:#494949;stroke-width:1.5;" x="0" xlink:href="#me3bf029df3" y="576"/>
    </g>
   </g>
   <g id="PolyCollection_6">
    <defs>
     <path d="M 99.9 -159.787247 
L 99.9 -170.589896 
L 103.845455 -170.975874 
L 107.790909 -171.342782 
L 111.736364 -171.687367 
L 115.681818 -172.007268 
L 119.627273 -172.300987 
L 123.572727 -172.567807 
L 127.518182 -172.807663 
L 131.463636 -173.020987 
L 135.409091 -173.208549 
L 139.354545 -173.371308 
L 143.3 -173.510269 
L 147.245455 -173.626391 
L 151.190909 -173.720511 
L 155.136364 -173.79331 
L 159.081818 -173.845317 
L 163.027273 -173.876929 
L 166.972727 -173.888462 
L 170.918182 -173.880213 
L 174.863636 -173.852529 
L 178.809091 -173.805874 
L 182.754545 -173.740894 
L 186.7 -173.658466 
L 190.645455 -173.559734 
L 194.590909 -173.446118 
L 198.536364 -173.319303 
L 202.481818 -173.181197 
L 206.427273 -173.033867 
L 210.372727 -172.879442 
L 214.318182 -172.720007 
L 218.263636 -172.557474 
L 222.209091 -172.393458 
L 226.154545 -172.229162 
L 230.1 -172.065283 
L 234.045455 -171.901958 
L 237.990909 -171.738751 
L 241.936364 -171.574693 
L 245.881818 -171.408377 
L 249.827273 -171.238092 
L 253.772727 -171.062003 
L 257.718182 -170.878341 
L 261.663636 -170.685604 
L 265.609091 -170.482732 
L 269.554545 -170.26925 
L 273.5 -170.045364 
L 277.445455 -169.811994 
L 281.390909 -169.570751 
L 285.336364 -169.323858 
L 289.281818 -169.074025 
L 293.227273 -168.824299 
L 297.172727 -168.577897 
L 301.118182 -168.338042 
L 305.063636 -168.107812 
L 309.009091 -167.89002 
L 312.954545 -167.687115 
L 316.9 -167.501121 
L 320.845455 -167.333597 
L 324.790909 -167.185618 
L 328.736364 -167.057776 
L 332.681818 -166.950184 
L 336.627273 -166.862491 
L 340.572727 -166.793897 
L 344.518182 -166.74318 
L 348.463636 -166.708717 
L 352.409091 -166.688536 
L 356.354545 -166.680363 
L 360.3 -166.681697 
L 364.245455 -166.689895 
L 368.190909 -166.702273 
L 372.136364 -166.716209 
L 376.081818 -166.729255 
L 380.027273 -166.739234 
L 383.972727 -166.744323 
L 387.918182 -166.743121 
L 391.863636 -166.73468 
L 395.809091 -166.718515 
L 399.754545 -166.694583 
L 403.7 -166.663239 
L 407.645455 -166.625162 
L 411.590909 -166.581282 
L 415.536364 -166.532689 
L 419.481818 -166.480544 
L 423.427273 -166.426 
L 427.372727 -166.37013 
L 431.318182 -166.313874 
L 435.263636 -166.258003 
L 439.209091 -166.203096 
L 443.154545 -166.149541 
L 447.1 -166.097549 
L 451.045455 -166.047172 
L 454.990909 -165.998344 
L 458.936364 -165.950912 
L 462.881818 -165.904678 
L 466.827273 -165.859438 
L 470.772727 -165.815006 
L 474.718182 -165.771249 
L 478.663636 -165.728095 
L 482.609091 -165.685549 
L 486.554545 -165.64369 
L 490.5 -165.602667 
L 490.5 -164.774476 
L 490.5 -164.774476 
L 486.554545 -164.733453 
L 482.609091 -164.691594 
L 478.663636 -164.649048 
L 474.718182 -164.605894 
L 470.772727 -164.562137 
L 466.827273 -164.517705 
L 462.881818 -164.472465 
L 458.936364 -164.426231 
L 454.990909 -164.378799 
L 451.045455 -164.329971 
L 447.1 -164.279594 
L 443.154545 -164.227602 
L 439.209091 -164.174047 
L 435.263636 -164.11914 
L 431.318182 -164.063269 
L 427.372727 -164.007013 
L 423.427273 -163.951143 
L 419.481818 -163.896599 
L 415.536364 -163.844454 
L 411.590909 -163.795861 
L 407.645455 -163.751981 
L 403.7 -163.713904 
L 399.754545 -163.682559 
L 395.809091 -163.658628 
L 391.863636 -163.642463 
L 387.918182 -163.634022 
L 383.972727 -163.63282 
L 380.027273 -163.637909 
L 376.081818 -163.647888 
L 372.136364 -163.660934 
L 368.190909 -163.67487 
L 364.245455 -163.687248 
L 360.3 -163.695446 
L 356.354545 -163.69678 
L 352.409091 -163.688607 
L 348.463636 -163.668426 
L 344.518182 -163.633963 
L 340.572727 -163.583245 
L 336.627273 -163.514652 
L 332.681818 -163.426959 
L 328.736364 -163.319367 
L 324.790909 -163.191525 
L 320.845455 -163.043546 
L 316.9 -162.876022 
L 312.954545 -162.690028 
L 309.009091 -162.487123 
L 305.063636 -162.269331 
L 301.118182 -162.039101 
L 297.172727 -161.799246 
L 293.227273 -161.552844 
L 289.281818 -161.303118 
L 285.336364 -161.053285 
L 281.390909 -160.806392 
L 277.445455 -160.565149 
L 273.5 -160.331779 
L 269.554545 -160.107893 
L 265.609091 -159.894411 
L 261.663636 -159.691539 
L 257.718182 -159.498801 
L 253.772727 -159.31514 
L 249.827273 -159.139051 
L 245.881818 -158.968766 
L 241.936364 -158.80245 
L 237.990909 -158.638392 
L 234.045455 -158.475185 
L 230.1 -158.311859 
L 226.154545 -158.147981 
L 222.209091 -157.983684 
L 218.263636 -157.819669 
L 214.318182 -157.657136 
L 210.372727 -157.497701 
L 206.427273 -157.343276 
L 202.481818 -157.195946 
L 198.536364 -157.05784 
L 194.590909 -156.931025 
L 190.645455 -156.817409 
L 186.7 -156.718677 
L 182.754545 -156.636249 
L 178.809091 -156.571269 
L 174.863636 -156.524614 
L 170.918182 -156.49693 
L 166.972727 -156.488681 
L 163.027273 -156.500214 
L 159.081818 -156.531826 
L 155.136364 -156.583833 
L 151.190909 -156.656632 
L 147.245455 -156.750752 
L 143.3 -156.866874 
L 139.354545 -157.005835 
L 135.409091 -157.168593 
L 131.463636 -157.356156 
L 127.518182 -157.56948 
L 123.572727 -157.809336 
L 119.627273 -158.076156 
L 115.681818 -158.369875 
L 111.736364 -158.689776 
L 107.790909 -159.03436 
L 103.845455 -159.401269 
L 99.9 -159.787247 
z
" id="m0071a08277" style="stroke:#494949;stroke-width:1.5;"/>
    </defs>
    <g clip-path="url(#p91db607b43)">
     <use style="fill:#8d7866;stroke:#494949;stroke-width:1.5;" x="0" xlink:href="#m0071a08277" y="576"/>
    </g>
   </g>
   <g id="PolyCollection_7">
    <defs>
     <path d="M 155.7 -100.652055 
L 155.7 -105.473659 
L 159.081818 -105.60856 
L 162.463636 -105.745843 
L 165.845455 -105.885273 
L 169.227273 -106.026608 
L 172.609091 -106.169602 
L 175.990909 -106.313998 
L 179.372727 -106.459535 
L 182.754545 -106.605942 
L 186.136364 -106.752943 
L 189.518182 -106.90025 
L 192.9 -107.047569 
L 196.281818 -107.194598 
L 199.663636 -107.341027 
L 203.045455 -107.486539 
L 206.427273 -107.630811 
L 209.809091 -107.773517 
L 213.190909 -107.914329 
L 216.572727 -108.052917 
L 219.954545 -108.188955 
L 223.336364 -108.322118 
L 226.718182 -108.45209 
L 230.1 -108.578563 
L 233.481818 -108.70124 
L 236.863636 -108.819836 
L 240.245455 -108.93408 
L 243.627273 -109.043717 
L 247.009091 -109.148508 
L 250.390909 -109.248229 
L 253.772727 -109.342672 
L 257.154545 -109.431644 
L 260.536364 -109.514967 
L 263.918182 -109.592471 
L 267.3 -109.663998 
L 270.681818 -109.729398 
L 274.063636 -109.788524 
L 277.445455 -109.841232 
L 280.827273 -109.887376 
L 284.209091 -109.926811 
L 287.590909 -109.959386 
L 290.972727 -109.984946 
L 294.354545 -110.003332 
L 297.736364 -110.01438 
L 301.118182 -110.017926 
L 304.5 -110.013804 
L 307.881818 -110.001855 
L 311.263636 -109.981929 
L 314.645455 -109.953892 
L 318.027273 -109.917632 
L 321.409091 -109.873066 
L 324.790909 -109.820152 
L 328.172727 -109.758889 
L 331.554545 -109.689334 
L 334.936364 -109.611603 
L 338.318182 -109.525881 
L 341.7 -109.432428 
L 345.081818 -109.33158 
L 348.463636 -109.223755 
L 351.845455 -109.109452 
L 355.227273 -108.989251 
L 358.609091 -108.863808 
L 361.990909 -108.733848 
L 365.372727 -108.600161 
L 368.754545 -108.463588 
L 372.136364 -108.325008 
L 375.518182 -108.185326 
L 378.9 -108.045459 
L 382.281818 -107.906316 
L 385.663636 -107.768782 
L 389.045455 -107.633703 
L 392.427273 -107.501868 
L 395.809091 -107.373993 
L 399.190909 -107.250708 
L 402.572727 -107.132543 
L 405.954545 -107.019918 
L 409.336364 -106.913137 
L 412.718182 -106.812379 
L 416.1 -106.717702 
L 419.481818 -106.629037 
L 422.863636 -106.546196 
L 426.245455 -106.468879 
L 429.627273 -106.396679 
L 433.009091 -106.329099 
L 436.390909 -106.265562 
L 439.772727 -106.20543 
L 443.154545 -106.148015 
L 446.536364 -106.092603 
L 449.918182 -106.038468 
L 453.3 -105.98489 
L 456.681818 -105.931173 
L 460.063636 -105.876661 
L 463.445455 -105.820751 
L 466.827273 -105.762908 
L 470.209091 -105.702675 
L 473.590909 -105.639681 
L 476.972727 -105.573645 
L 480.354545 -105.504385 
L 483.736364 -105.431814 
L 487.118182 -105.355942 
L 490.5 -105.276869 
L 490.5 -100.848845 
L 490.5 -100.848845 
L 487.118182 -100.769772 
L 483.736364 -100.6939 
L 480.354545 -100.621329 
L 476.972727 -100.552069 
L 473.590909 -100.486034 
L 470.209091 -100.423039 
L 466.827273 -100.362806 
L 463.445455 -100.304963 
L 460.063636 -100.249054 
L 456.681818 -100.194541 
L 453.3 -100.140824 
L 449.918182 -100.087246 
L 446.536364 -100.033111 
L 443.154545 -99.977699 
L 439.772727 -99.920284 
L 436.390909 -99.860152 
L 433.009091 -99.796615 
L 429.627273 -99.729035 
L 426.245455 -99.656836 
L 422.863636 -99.579518 
L 419.481818 -99.496677 
L 416.1 -99.408012 
L 412.718182 -99.313335 
L 409.336364 -99.212578 
L 405.954545 -99.105796 
L 402.572727 -98.993171 
L 399.190909 -98.875006 
L 395.809091 -98.751721 
L 392.427273 -98.623846 
L 389.045455 -98.492012 
L 385.663636 -98.356933 
L 382.281818 -98.219399 
L 378.9 -98.080255 
L 375.518182 -97.940388 
L 372.136364 -97.800707 
L 368.754545 -97.662126 
L 365.372727 -97.525553 
L 361.990909 -97.391866 
L 358.609091 -97.261907 
L 355.227273 -97.136463 
L 351.845455 -97.016262 
L 348.463636 -96.901959 
L 345.081818 -96.794134 
L 341.7 -96.693286 
L 338.318182 -96.599833 
L 334.936364 -96.514111 
L 331.554545 -96.436381 
L 328.172727 -96.366826 
L 324.790909 -96.305563 
L 321.409091 -96.252648 
L 318.027273 -96.208082 
L 314.645455 -96.171822 
L 311.263636 -96.143785 
L 307.881818 -96.123859 
L 304.5 -96.11191 
L 301.118182 -96.107788 
L 297.736364 -96.111334 
L 294.354545 -96.122382 
L 290.972727 -96.140768 
L 287.590909 -96.166328 
L 284.209091 -96.198903 
L 280.827273 -96.238338 
L 277.445455 -96.284483 
L 274.063636 -96.33719 
L 270.681818 -96.396316 
L 267.3 -96.461716 
L 263.918182 -96.533244 
L 260.536364 -96.610748 
L 257.154545 -96.69407 
L 253.772727 -96.783042 
L 250.390909 -96.877485 
L 247.009091 -96.977206 
L 243.627273 -97.081997 
L 240.245455 -97.191634 
L 236.863636 -97.305878 
L 233.481818 -97.424474 
L 230.1 -97.547151 
L 226.718182 -97.673624 
L 223.336364 -97.803597 
L 219.954545 -97.93676 
L 216.572727 -98.072797 
L 213.190909 -98.211385 
L 209.809091 -98.352197 
L 206.427273 -98.494903 
L 203.045455 -98.639176 
L 199.663636 -98.784687 
L 196.281818 -98.931116 
L 192.9 -99.078145 
L 189.518182 -99.225464 
L 186.136364 -99.372771 
L 182.754545 -99.519772 
L 179.372727 -99.66618 
L 175.990909 -99.811716 
L 172.609091 -99.956113 
L 169.227273 -100.099106 
L 165.845455 -100.240442 
L 162.463636 -100.379871 
L 159.081818 -100.517154 
L 155.7 -100.652055 
z
" id="mf48401bd96" style="stroke:#494949;stroke-width:1.5;"/>
    </defs>
    <g clip-path="url(#p91db607b43)">
     <use style="fill:#d095bf;stroke:#494949;stroke-width:1.5;" x="0" xlink:href="#mf48401bd96" y="576"/>
    </g>
   </g>
   <g id="line2d_13">
    <path clip-path="url(#p91db607b43)" d="M 99.9 76.33597 
L 99.9 124.029745 
" style="fill:none;stroke:#494949;stroke-dasharray:3.375,3.375;stroke-dashoffset:0;stroke-width:1.5;"/>
   </g>
   <g id="line2d_14">
    <path clip-path="url(#p91db607b43)" d="M 127.8 79.486917 
L 127.8 120.878797 
" style="fill:none;stroke:#494949;stroke-dasharray:6.75,6.75;stroke-dashoffset:0;stroke-width:1.5;"/>
   </g>
   <g id="line2d_15">
    <path clip-path="url(#p91db607b43)" d="M 141.75 84.553921 
L 141.75 115.811793 
" style="fill:none;stroke:#494949;stroke-dasharray:3.375,3.375;stroke-dashoffset:0;stroke-width:1.5;"/>
   </g>
   <g id="line2d_16">
    <path clip-path="url(#p91db607b43)" d="M 99.9 140.585133 
L 99.9 184.03201 
" style="fill:none;stroke:#494949;stroke-dasharray:3.375,3.375;stroke-dashoffset:0;stroke-width:1.5;"/>
   </g>
   <g id="line2d_17">
    <path clip-path="url(#p91db607b43)" d="M 127.8 141.557631 
L 127.8 183.059512 
" style="fill:none;stroke:#494949;stroke-dasharray:6.75,6.75;stroke-dashoffset:0;stroke-width:1.5;"/>
   </g>
   <g id="line2d_18">
    <path clip-path="url(#p91db607b43)" d="M 155.7 150.603842 
L 155.7 174.013301 
" style="fill:none;stroke:#494949;stroke-dasharray:3.375,3.375;stroke-dashoffset:0;stroke-width:1.5;"/>
   </g>
   <g id="line2d_19">
    <path clip-path="url(#p91db607b43)" d="M 99.9 209.320322 
L 99.9 239.54825 
" style="fill:none;stroke:#494949;stroke-dasharray:3.375,3.375;stroke-dashoffset:0;stroke-width:1.5;"/>
   </g>
   <g id="line2d_20">
    <path clip-path="url(#p91db607b43)" d="M 127.8 211.138724 
L 127.8 237.729848 
" style="fill:none;stroke:#494949;stroke-dasharray:6.75,6.75;stroke-dashoffset:0;stroke-width:1.5;"/>
   </g>
   <g id="line2d_21">
    <path clip-path="url(#p91db607b43)" d="M 183.6 218.106484 
L 183.6 230.762088 
" style="fill:none;stroke:#494949;stroke-dasharray:3.375,3.375;stroke-dashoffset:0;stroke-width:1.5;"/>
   </g>
   <g id="line2d_22">
    <path clip-path="url(#p91db607b43)" d="M 99.9 273.167143 
L 99.9 299.952857 
" style="fill:none;stroke:#494949;stroke-dasharray:3.375,3.375;stroke-dashoffset:0;stroke-width:1.5;"/>
   </g>
   <g id="line2d_23">
    <path clip-path="url(#p91db607b43)" d="M 127.8 272.569505 
L 127.8 300.550495 
" style="fill:none;stroke:#494949;stroke-dasharray:6.75,6.75;stroke-dashoffset:0;stroke-width:1.5;"/>
   </g>
   <g id="line2d_24">
    <path clip-path="url(#p91db607b43)" d="M 183.6 278.517556 
L 183.6 294.602444 
" style="fill:none;stroke:#494949;stroke-dasharray:3.375,3.375;stroke-dashoffset:0;stroke-width:1.5;"/>
   </g>
   <g id="line2d_25">
    <path clip-path="url(#p91db607b43)" d="M 127.8 339.43778 
L 127.8 357.933648 
" style="fill:none;stroke:#494949;stroke-dasharray:3.375,3.375;stroke-dashoffset:0;stroke-width:1.5;"/>
   </g>
   <g id="line2d_26">
    <path clip-path="url(#p91db607b43)" d="M 183.6 339.710272 
L 183.6 357.661156 
" style="fill:none;stroke:#494949;stroke-dasharray:6.75,6.75;stroke-dashoffset:0;stroke-width:1.5;"/>
   </g>
   <g id="line2d_27">
    <path clip-path="url(#p91db607b43)" d="M 239.4 342.614519 
L 239.4 354.756909 
" style="fill:none;stroke:#494949;stroke-dasharray:3.375,3.375;stroke-dashoffset:0;stroke-width:1.5;"/>
   </g>
   <g id="line2d_28">
    <path clip-path="url(#p91db607b43)" d="M 155.7 402.292737 
L 155.7 419.33012 
" style="fill:none;stroke:#494949;stroke-dasharray:3.375,3.375;stroke-dashoffset:0;stroke-width:1.5;"/>
   </g>
   <g id="line2d_29">
    <path clip-path="url(#p91db607b43)" d="M 183.6 402.344629 
L 183.6 419.278228 
" style="fill:none;stroke:#494949;stroke-dasharray:6.75,6.75;stroke-dashoffset:0;stroke-width:1.5;"/>
   </g>
   <g id="line2d_30">
    <path clip-path="url(#p91db607b43)" d="M 267.3 405.57021 
L 267.3 416.052647 
" style="fill:none;stroke:#494949;stroke-dasharray:3.375,3.375;stroke-dashoffset:0;stroke-width:1.5;"/>
   </g>
   <g id="line2d_31">
    <path clip-path="url(#p91db607b43)" d="M 239.4 467.124632 
L 239.4 478.749654 
" style="fill:none;stroke:#494949;stroke-dasharray:3.375,3.375;stroke-dashoffset:0;stroke-width:1.5;"/>
   </g>
   <g id="line2d_32">
    <path clip-path="url(#p91db607b43)" d="M 295.2 466.066073 
L 295.2 479.808213 
" style="fill:none;stroke:#494949;stroke-dasharray:6.75,6.75;stroke-dashoffset:0;stroke-width:1.5;"/>
   </g>
   <g id="line2d_33">
    <path clip-path="url(#p91db607b43)" d="M 351 466.951014 
L 351 478.923272 
" style="fill:none;stroke:#494949;stroke-dasharray:3.375,3.375;stroke-dashoffset:0;stroke-width:1.5;"/>
   </g>
   <g id="patch_3">
    <path d="M 72 504 
L 518.4 504 
" style="fill:none;stroke:#262626;stroke-linecap:square;stroke-linejoin:miter;stroke-width:1.25;"/>
   </g>
  </g>
 </g>
 <defs>
  <clipPath id="p91db607b43">
   <rect height="434.88" width="446.4" x="72" y="69.12"/>
  </clipPath>
 </defs>
</svg>
