<?xml version="1.0" encoding="utf-8" standalone="no"?>
<!DOCTYPE svg PUBLIC "-//W3C//DTD SVG 1.1//EN"
  "http://www.w3.org/Graphics/SVG/1.1/DTD/svg11.dtd">
<!-- Created with matplotlib (https://matplotlib.org/) -->
<svg height="576pt" version="1.1" viewBox="0 0 576 576" width="576pt" xmlns="http://www.w3.org/2000/svg" xmlns:xlink="http://www.w3.org/1999/xlink">
 <defs>
  <style type="text/css">
*{stroke-linecap:butt;stroke-linejoin:round;}
  </style>
 </defs>
 <g id="figure_1">
  <g id="patch_1">
   <path d="M 0 576 
L 576 576 
L 576 0 
L 0 0 
z
" style="fill:#ffffff;"/>
  </g>
  <g id="axes_1">
   <g id="patch_2">
    <path d="M 72 504 
L 518.4 504 
L 518.4 69.12 
L 72 69.12 
z
" style="fill:#ffffff;"/>
   </g>
   <g id="matplotlib.axis_1">
    <g id="xtick_1">
     <g id="line2d_1">
      <defs>
       <path d="M 0 0 
L 0 6 
" id="mf7ae4f51b2" style="stroke:#262626;stroke-width:1.25;"/>
      </defs>
      <g>
       <use style="fill:#262626;stroke:#262626;stroke-width:1.25;" x="72" xlink:href="#mf7ae4f51b2" y="504"/>
      </g>
     </g>
     <g id="text_1">
      <!-- 0 -->
      <defs>
       <path d="M 4.15625 35.296875 
Q 4.15625 48 6.765625 55.734375 
Q 9.375 63.484375 14.515625 67.671875 
Q 19.671875 71.875 27.484375 71.875 
Q 33.25 71.875 37.59375 69.546875 
Q 41.9375 67.234375 44.765625 62.859375 
Q 47.609375 58.5 49.21875 52.21875 
Q 50.828125 45.953125 50.828125 35.296875 
Q 50.828125 22.703125 48.234375 14.96875 
Q 45.65625 7.234375 40.5 3 
Q 35.359375 -1.21875 27.484375 -1.21875 
Q 17.140625 -1.21875 11.234375 6.203125 
Q 4.15625 15.140625 4.15625 35.296875 
z
M 13.1875 35.296875 
Q 13.1875 17.671875 17.3125 11.828125 
Q 21.4375 6 27.484375 6 
Q 33.546875 6 37.671875 11.859375 
Q 41.796875 17.71875 41.796875 35.296875 
Q 41.796875 52.984375 37.671875 58.78125 
Q 33.546875 64.59375 27.390625 64.59375 
Q 21.34375 64.59375 17.71875 59.46875 
Q 13.1875 52.9375 13.1875 35.296875 
z
" id="ArialMT-48"/>
      </defs>
      <g style="fill:#262626;" transform="translate(66.647598 527.278789)scale(0.1925 -0.1925)">
       <use xlink:href="#ArialMT-48"/>
      </g>
     </g>
    </g>
    <g id="xtick_2">
     <g id="line2d_2">
      <g>
       <use style="fill:#262626;stroke:#262626;stroke-width:1.25;" x="161.28" xlink:href="#mf7ae4f51b2" y="504"/>
      </g>
     </g>
     <g id="text_2">
      <!-- 250 -->
      <defs>
       <path d="M 50.34375 8.453125 
L 50.34375 0 
L 3.03125 0 
Q 2.9375 3.171875 4.046875 6.109375 
Q 5.859375 10.9375 9.828125 15.625 
Q 13.8125 20.3125 21.34375 26.46875 
Q 33.015625 36.03125 37.109375 41.625 
Q 41.21875 47.21875 41.21875 52.203125 
Q 41.21875 57.421875 37.46875 61 
Q 33.734375 64.59375 27.734375 64.59375 
Q 21.390625 64.59375 17.578125 60.78125 
Q 13.765625 56.984375 13.71875 50.25 
L 4.6875 51.171875 
Q 5.609375 61.28125 11.65625 66.578125 
Q 17.71875 71.875 27.9375 71.875 
Q 38.234375 71.875 44.234375 66.15625 
Q 50.25 60.453125 50.25 52 
Q 50.25 47.703125 48.484375 43.546875 
Q 46.734375 39.40625 42.65625 34.8125 
Q 38.578125 30.21875 29.109375 22.21875 
Q 21.1875 15.578125 18.9375 13.203125 
Q 16.703125 10.84375 15.234375 8.453125 
z
" id="ArialMT-50"/>
       <path d="M 4.15625 18.75 
L 13.375 19.53125 
Q 14.40625 12.796875 18.140625 9.390625 
Q 21.875 6 27.15625 6 
Q 33.5 6 37.890625 10.78125 
Q 42.28125 15.578125 42.28125 23.484375 
Q 42.28125 31 38.0625 35.34375 
Q 33.84375 39.703125 27 39.703125 
Q 22.75 39.703125 19.328125 37.765625 
Q 15.921875 35.84375 13.96875 32.765625 
L 5.71875 33.84375 
L 12.640625 70.609375 
L 48.25 70.609375 
L 48.25 62.203125 
L 19.671875 62.203125 
L 15.828125 42.96875 
Q 22.265625 47.46875 29.34375 47.46875 
Q 38.71875 47.46875 45.15625 40.96875 
Q 51.609375 34.46875 51.609375 24.265625 
Q 51.609375 14.546875 45.953125 7.46875 
Q 39.0625 -1.21875 27.15625 -1.21875 
Q 17.390625 -1.21875 11.203125 4.25 
Q 5.03125 9.71875 4.15625 18.75 
z
" id="ArialMT-53"/>
      </defs>
      <g style="fill:#262626;" transform="translate(145.222793 527.278789)scale(0.1925 -0.1925)">
       <use xlink:href="#ArialMT-50"/>
       <use x="55.615234" xlink:href="#ArialMT-53"/>
       <use x="111.230469" xlink:href="#ArialMT-48"/>
      </g>
     </g>
    </g>
    <g id="xtick_3">
     <g id="line2d_3">
      <g>
       <use style="fill:#262626;stroke:#262626;stroke-width:1.25;" x="250.56" xlink:href="#mf7ae4f51b2" y="504"/>
      </g>
     </g>
     <g id="text_3">
      <!-- 500 -->
      <g style="fill:#262626;" transform="translate(234.502793 527.278789)scale(0.1925 -0.1925)">
       <use xlink:href="#ArialMT-53"/>
       <use x="55.615234" xlink:href="#ArialMT-48"/>
       <use x="111.230469" xlink:href="#ArialMT-48"/>
      </g>
     </g>
    </g>
    <g id="xtick_4">
     <g id="line2d_4">
      <g>
       <use style="fill:#262626;stroke:#262626;stroke-width:1.25;" x="339.84" xlink:href="#mf7ae4f51b2" y="504"/>
      </g>
     </g>
     <g id="text_4">
      <!-- 750 -->
      <defs>
       <path d="M 4.734375 62.203125 
L 4.734375 70.65625 
L 51.078125 70.65625 
L 51.078125 63.8125 
Q 44.234375 56.546875 37.515625 44.484375 
Q 30.8125 32.421875 27.15625 19.671875 
Q 24.515625 10.6875 23.78125 0 
L 14.75 0 
Q 14.890625 8.453125 18.0625 20.40625 
Q 21.234375 32.375 27.171875 43.484375 
Q 33.109375 54.59375 39.796875 62.203125 
z
" id="ArialMT-55"/>
      </defs>
      <g style="fill:#262626;" transform="translate(323.782793 527.278789)scale(0.1925 -0.1925)">
       <use xlink:href="#ArialMT-55"/>
       <use x="55.615234" xlink:href="#ArialMT-53"/>
       <use x="111.230469" xlink:href="#ArialMT-48"/>
      </g>
     </g>
    </g>
    <g id="xtick_5">
     <g id="line2d_5">
      <g>
       <use style="fill:#262626;stroke:#262626;stroke-width:1.25;" x="429.12" xlink:href="#mf7ae4f51b2" y="504"/>
      </g>
     </g>
     <g id="text_5">
      <!-- 1000 -->
      <defs>
       <path d="M 37.25 0 
L 28.46875 0 
L 28.46875 56 
Q 25.296875 52.984375 20.140625 49.953125 
Q 14.984375 46.921875 10.890625 45.40625 
L 10.890625 53.90625 
Q 18.265625 57.375 23.78125 62.296875 
Q 29.296875 67.234375 31.59375 71.875 
L 37.25 71.875 
z
" id="ArialMT-49"/>
      </defs>
      <g style="fill:#262626;" transform="translate(407.710391 527.278789)scale(0.1925 -0.1925)">
       <use xlink:href="#ArialMT-49"/>
       <use x="55.615234" xlink:href="#ArialMT-48"/>
       <use x="111.230469" xlink:href="#ArialMT-48"/>
       <use x="166.845703" xlink:href="#ArialMT-48"/>
      </g>
     </g>
    </g>
    <g id="xtick_6">
     <g id="line2d_6">
      <g>
       <use style="fill:#262626;stroke:#262626;stroke-width:1.25;" x="518.4" xlink:href="#mf7ae4f51b2" y="504"/>
      </g>
     </g>
     <g id="text_6">
      <!-- 1250 -->
      <g style="fill:#262626;" transform="translate(496.990391 527.278789)scale(0.1925 -0.1925)">
       <use xlink:href="#ArialMT-49"/>
       <use x="55.615234" xlink:href="#ArialMT-50"/>
       <use x="111.230469" xlink:href="#ArialMT-53"/>
       <use x="166.845703" xlink:href="#ArialMT-48"/>
      </g>
     </g>
    </g>
    <g id="text_7">
     <!-- Total Length Per Cell (um) -->
     <defs>
      <path d="M 25.921875 0 
L 25.921875 63.140625 
L 2.34375 63.140625 
L 2.34375 71.578125 
L 59.078125 71.578125 
L 59.078125 63.140625 
L 35.40625 63.140625 
L 35.40625 0 
z
" id="ArialMT-84"/>
      <path d="M 3.328125 25.921875 
Q 3.328125 40.328125 11.328125 47.265625 
Q 18.015625 53.03125 27.640625 53.03125 
Q 38.328125 53.03125 45.109375 46.015625 
Q 51.90625 39.015625 51.90625 26.65625 
Q 51.90625 16.65625 48.90625 10.90625 
Q 45.90625 5.171875 40.15625 2 
Q 34.421875 -1.171875 27.640625 -1.171875 
Q 16.75 -1.171875 10.03125 5.8125 
Q 3.328125 12.796875 3.328125 25.921875 
z
M 12.359375 25.921875 
Q 12.359375 15.96875 16.703125 11.015625 
Q 21.046875 6.0625 27.640625 6.0625 
Q 34.1875 6.0625 38.53125 11.03125 
Q 42.875 16.015625 42.875 26.21875 
Q 42.875 35.84375 38.5 40.796875 
Q 34.125 45.75 27.640625 45.75 
Q 21.046875 45.75 16.703125 40.8125 
Q 12.359375 35.890625 12.359375 25.921875 
z
" id="ArialMT-111"/>
      <path d="M 25.78125 7.859375 
L 27.046875 0.09375 
Q 23.34375 -0.6875 20.40625 -0.6875 
Q 15.625 -0.6875 12.984375 0.828125 
Q 10.359375 2.34375 9.28125 4.8125 
Q 8.203125 7.28125 8.203125 15.1875 
L 8.203125 45.015625 
L 1.765625 45.015625 
L 1.765625 51.859375 
L 8.203125 51.859375 
L 8.203125 64.703125 
L 16.9375 69.96875 
L 16.9375 51.859375 
L 25.78125 51.859375 
L 25.78125 45.015625 
L 16.9375 45.015625 
L 16.9375 14.703125 
Q 16.9375 10.9375 17.40625 9.859375 
Q 17.875 8.796875 18.921875 8.15625 
Q 19.96875 7.515625 21.921875 7.515625 
Q 23.390625 7.515625 25.78125 7.859375 
z
" id="ArialMT-116"/>
      <path d="M 40.4375 6.390625 
Q 35.546875 2.25 31.03125 0.53125 
Q 26.515625 -1.171875 21.34375 -1.171875 
Q 12.796875 -1.171875 8.203125 3 
Q 3.609375 7.171875 3.609375 13.671875 
Q 3.609375 17.484375 5.34375 20.625 
Q 7.078125 23.78125 9.890625 25.6875 
Q 12.703125 27.59375 16.21875 28.5625 
Q 18.796875 29.25 24.03125 29.890625 
Q 34.671875 31.15625 39.703125 32.90625 
Q 39.75 34.71875 39.75 35.203125 
Q 39.75 40.578125 37.25 42.78125 
Q 33.890625 45.75 27.25 45.75 
Q 21.046875 45.75 18.09375 43.578125 
Q 15.140625 41.40625 13.71875 35.890625 
L 5.125 37.0625 
Q 6.296875 42.578125 8.984375 45.96875 
Q 11.671875 49.359375 16.75 51.1875 
Q 21.828125 53.03125 28.515625 53.03125 
Q 35.15625 53.03125 39.296875 51.46875 
Q 43.453125 49.90625 45.40625 47.53125 
Q 47.359375 45.171875 48.140625 41.546875 
Q 48.578125 39.3125 48.578125 33.453125 
L 48.578125 21.734375 
Q 48.578125 9.46875 49.140625 6.21875 
Q 49.703125 2.984375 51.375 0 
L 42.1875 0 
Q 40.828125 2.734375 40.4375 6.390625 
z
M 39.703125 26.03125 
Q 34.90625 24.078125 25.34375 22.703125 
Q 19.921875 21.921875 17.671875 20.9375 
Q 15.4375 19.96875 14.203125 18.09375 
Q 12.984375 16.21875 12.984375 13.921875 
Q 12.984375 10.40625 15.640625 8.0625 
Q 18.3125 5.71875 23.4375 5.71875 
Q 28.515625 5.71875 32.46875 7.9375 
Q 36.421875 10.15625 38.28125 14.015625 
Q 39.703125 17 39.703125 22.796875 
z
" id="ArialMT-97"/>
      <path d="M 6.390625 0 
L 6.390625 71.578125 
L 15.1875 71.578125 
L 15.1875 0 
z
" id="ArialMT-108"/>
      <path id="ArialMT-32"/>
      <path d="M 7.328125 0 
L 7.328125 71.578125 
L 16.796875 71.578125 
L 16.796875 8.453125 
L 52.046875 8.453125 
L 52.046875 0 
z
" id="ArialMT-76"/>
      <path d="M 42.09375 16.703125 
L 51.171875 15.578125 
Q 49.03125 7.625 43.21875 3.21875 
Q 37.40625 -1.171875 28.375 -1.171875 
Q 17 -1.171875 10.328125 5.828125 
Q 3.65625 12.84375 3.65625 25.484375 
Q 3.65625 38.578125 10.390625 45.796875 
Q 17.140625 53.03125 27.875 53.03125 
Q 38.28125 53.03125 44.875 45.953125 
Q 51.46875 38.875 51.46875 26.03125 
Q 51.46875 25.25 51.421875 23.6875 
L 12.75 23.6875 
Q 13.234375 15.140625 17.578125 10.59375 
Q 21.921875 6.0625 28.421875 6.0625 
Q 33.25 6.0625 36.671875 8.59375 
Q 40.09375 11.140625 42.09375 16.703125 
z
M 13.234375 30.90625 
L 42.1875 30.90625 
Q 41.609375 37.453125 38.875 40.71875 
Q 34.671875 45.796875 27.984375 45.796875 
Q 21.921875 45.796875 17.796875 41.75 
Q 13.671875 37.703125 13.234375 30.90625 
z
" id="ArialMT-101"/>
      <path d="M 6.59375 0 
L 6.59375 51.859375 
L 14.5 51.859375 
L 14.5 44.484375 
Q 20.21875 53.03125 31 53.03125 
Q 35.6875 53.03125 39.625 51.34375 
Q 43.5625 49.65625 45.515625 46.921875 
Q 47.46875 44.1875 48.25 40.4375 
Q 48.734375 37.984375 48.734375 31.890625 
L 48.734375 0 
L 39.9375 0 
L 39.9375 31.546875 
Q 39.9375 36.921875 38.90625 39.578125 
Q 37.890625 42.234375 35.28125 43.8125 
Q 32.671875 45.40625 29.15625 45.40625 
Q 23.53125 45.40625 19.453125 41.84375 
Q 15.375 38.28125 15.375 28.328125 
L 15.375 0 
z
" id="ArialMT-110"/>
      <path d="M 4.984375 -4.296875 
L 13.53125 -5.5625 
Q 14.0625 -9.515625 16.5 -11.328125 
Q 19.78125 -13.765625 25.4375 -13.765625 
Q 31.546875 -13.765625 34.859375 -11.328125 
Q 38.1875 -8.890625 39.359375 -4.5 
Q 40.046875 -1.8125 39.984375 6.78125 
Q 34.234375 0 25.640625 0 
Q 14.9375 0 9.078125 7.71875 
Q 3.21875 15.4375 3.21875 26.21875 
Q 3.21875 33.640625 5.90625 39.90625 
Q 8.59375 46.1875 13.6875 49.609375 
Q 18.796875 53.03125 25.6875 53.03125 
Q 34.859375 53.03125 40.828125 45.609375 
L 40.828125 51.859375 
L 48.921875 51.859375 
L 48.921875 7.03125 
Q 48.921875 -5.078125 46.453125 -10.125 
Q 44 -15.1875 38.640625 -18.109375 
Q 33.296875 -21.046875 25.484375 -21.046875 
Q 16.21875 -21.046875 10.5 -16.875 
Q 4.78125 -12.703125 4.984375 -4.296875 
z
M 12.25 26.859375 
Q 12.25 16.65625 16.296875 11.96875 
Q 20.359375 7.28125 26.46875 7.28125 
Q 32.515625 7.28125 36.609375 11.9375 
Q 40.71875 16.609375 40.71875 26.5625 
Q 40.71875 36.078125 36.5 40.90625 
Q 32.28125 45.75 26.3125 45.75 
Q 20.453125 45.75 16.34375 40.984375 
Q 12.25 36.234375 12.25 26.859375 
z
" id="ArialMT-103"/>
      <path d="M 6.59375 0 
L 6.59375 71.578125 
L 15.375 71.578125 
L 15.375 45.90625 
Q 21.53125 53.03125 30.90625 53.03125 
Q 36.671875 53.03125 40.921875 50.75 
Q 45.171875 48.484375 47 44.484375 
Q 48.828125 40.484375 48.828125 32.859375 
L 48.828125 0 
L 40.046875 0 
L 40.046875 32.859375 
Q 40.046875 39.453125 37.1875 42.453125 
Q 34.328125 45.453125 29.109375 45.453125 
Q 25.203125 45.453125 21.75 43.421875 
Q 18.3125 41.40625 16.84375 37.9375 
Q 15.375 34.46875 15.375 28.375 
L 15.375 0 
z
" id="ArialMT-104"/>
      <path d="M 7.71875 0 
L 7.71875 71.578125 
L 34.71875 71.578125 
Q 41.84375 71.578125 45.609375 70.90625 
Q 50.875 70.015625 54.4375 67.546875 
Q 58.015625 65.09375 60.1875 60.640625 
Q 62.359375 56.203125 62.359375 50.875 
Q 62.359375 41.75 56.546875 35.421875 
Q 50.734375 29.109375 35.546875 29.109375 
L 17.1875 29.109375 
L 17.1875 0 
z
M 17.1875 37.546875 
L 35.6875 37.546875 
Q 44.875 37.546875 48.734375 40.96875 
Q 52.59375 44.390625 52.59375 50.59375 
Q 52.59375 55.078125 50.3125 58.265625 
Q 48.046875 61.46875 44.34375 62.5 
Q 41.9375 63.140625 35.5 63.140625 
L 17.1875 63.140625 
z
" id="ArialMT-80"/>
      <path d="M 6.5 0 
L 6.5 51.859375 
L 14.40625 51.859375 
L 14.40625 44 
Q 17.4375 49.515625 20 51.265625 
Q 22.5625 53.03125 25.640625 53.03125 
Q 30.078125 53.03125 34.671875 50.203125 
L 31.640625 42.046875 
Q 28.421875 43.953125 25.203125 43.953125 
Q 22.3125 43.953125 20.015625 42.21875 
Q 17.71875 40.484375 16.75 37.40625 
Q 15.28125 32.71875 15.28125 27.15625 
L 15.28125 0 
z
" id="ArialMT-114"/>
      <path d="M 58.796875 25.09375 
L 68.265625 22.703125 
Q 65.28125 11.03125 57.546875 4.90625 
Q 49.8125 -1.21875 38.625 -1.21875 
Q 27.046875 -1.21875 19.796875 3.484375 
Q 12.546875 8.203125 8.765625 17.140625 
Q 4.984375 26.078125 4.984375 36.328125 
Q 4.984375 47.515625 9.25 55.828125 
Q 13.53125 64.15625 21.40625 68.46875 
Q 29.296875 72.796875 38.765625 72.796875 
Q 49.515625 72.796875 56.828125 67.328125 
Q 64.15625 61.859375 67.046875 51.953125 
L 57.71875 49.75 
Q 55.21875 57.5625 50.484375 61.125 
Q 45.75 64.703125 38.578125 64.703125 
Q 30.328125 64.703125 24.78125 60.734375 
Q 19.234375 56.78125 16.984375 50.109375 
Q 14.75 43.453125 14.75 36.375 
Q 14.75 27.25 17.40625 20.4375 
Q 20.0625 13.625 25.671875 10.25 
Q 31.296875 6.890625 37.84375 6.890625 
Q 45.796875 6.890625 51.3125 11.46875 
Q 56.84375 16.0625 58.796875 25.09375 
z
" id="ArialMT-67"/>
      <path d="M 23.390625 -21.046875 
Q 16.109375 -11.859375 11.078125 0.4375 
Q 6.0625 12.75 6.0625 25.921875 
Q 6.0625 37.546875 9.8125 48.1875 
Q 14.203125 60.546875 23.390625 72.796875 
L 29.6875 72.796875 
Q 23.78125 62.640625 21.875 58.296875 
Q 18.890625 51.5625 17.1875 44.234375 
Q 15.09375 35.109375 15.09375 25.875 
Q 15.09375 2.390625 29.6875 -21.046875 
z
" id="ArialMT-40"/>
      <path d="M 40.578125 0 
L 40.578125 7.625 
Q 34.515625 -1.171875 24.125 -1.171875 
Q 19.53125 -1.171875 15.546875 0.578125 
Q 11.578125 2.34375 9.640625 5 
Q 7.71875 7.671875 6.9375 11.53125 
Q 6.390625 14.109375 6.390625 19.734375 
L 6.390625 51.859375 
L 15.1875 51.859375 
L 15.1875 23.09375 
Q 15.1875 16.21875 15.71875 13.8125 
Q 16.546875 10.359375 19.234375 8.375 
Q 21.921875 6.390625 25.875 6.390625 
Q 29.828125 6.390625 33.296875 8.421875 
Q 36.765625 10.453125 38.203125 13.9375 
Q 39.65625 17.4375 39.65625 24.078125 
L 39.65625 51.859375 
L 48.4375 51.859375 
L 48.4375 0 
z
" id="ArialMT-117"/>
      <path d="M 6.59375 0 
L 6.59375 51.859375 
L 14.453125 51.859375 
L 14.453125 44.578125 
Q 16.890625 48.390625 20.9375 50.703125 
Q 25 53.03125 30.171875 53.03125 
Q 35.9375 53.03125 39.625 50.640625 
Q 43.3125 48.25 44.828125 43.953125 
Q 50.984375 53.03125 60.84375 53.03125 
Q 68.5625 53.03125 72.703125 48.75 
Q 76.859375 44.484375 76.859375 35.59375 
L 76.859375 0 
L 68.109375 0 
L 68.109375 32.671875 
Q 68.109375 37.9375 67.25 40.25 
Q 66.40625 42.578125 64.15625 43.984375 
Q 61.921875 45.40625 58.890625 45.40625 
Q 53.421875 45.40625 49.796875 41.765625 
Q 46.1875 38.140625 46.1875 30.125 
L 46.1875 0 
L 37.40625 0 
L 37.40625 33.6875 
Q 37.40625 39.546875 35.25 42.46875 
Q 33.109375 45.40625 28.21875 45.40625 
Q 24.515625 45.40625 21.359375 43.453125 
Q 18.21875 41.5 16.796875 37.734375 
Q 15.375 33.984375 15.375 26.90625 
L 15.375 0 
z
" id="ArialMT-109"/>
      <path d="M 12.359375 -21.046875 
L 6.0625 -21.046875 
Q 20.65625 2.390625 20.65625 25.875 
Q 20.65625 35.0625 18.5625 44.09375 
Q 16.890625 51.421875 13.921875 58.15625 
Q 12.015625 62.546875 6.0625 72.796875 
L 12.359375 72.796875 
Q 21.53125 60.546875 25.921875 48.1875 
Q 29.6875 37.546875 29.6875 25.921875 
Q 29.6875 12.75 24.625 0.4375 
Q 19.578125 -11.859375 12.359375 -21.046875 
z
" id="ArialMT-41"/>
     </defs>
     <g style="fill:#262626;opacity:0.7;" transform="translate(201.40375 546.752227)scale(0.16 -0.16)">
      <use xlink:href="#ArialMT-84"/>
      <use x="60.912109" xlink:href="#ArialMT-111"/>
      <use x="116.527344" xlink:href="#ArialMT-116"/>
      <use x="144.310547" xlink:href="#ArialMT-97"/>
      <use x="199.925781" xlink:href="#ArialMT-108"/>
      <use x="222.142578" xlink:href="#ArialMT-32"/>
      <use x="249.925781" xlink:href="#ArialMT-76"/>
      <use x="305.541016" xlink:href="#ArialMT-101"/>
      <use x="361.15625" xlink:href="#ArialMT-110"/>
      <use x="416.771484" xlink:href="#ArialMT-103"/>
      <use x="472.386719" xlink:href="#ArialMT-116"/>
      <use x="500.169922" xlink:href="#ArialMT-104"/>
      <use x="555.785156" xlink:href="#ArialMT-32"/>
      <use x="583.568359" xlink:href="#ArialMT-80"/>
      <use x="650.267578" xlink:href="#ArialMT-101"/>
      <use x="705.882812" xlink:href="#ArialMT-114"/>
      <use x="739.183594" xlink:href="#ArialMT-32"/>
      <use x="766.966797" xlink:href="#ArialMT-67"/>
      <use x="839.183594" xlink:href="#ArialMT-101"/>
      <use x="894.798828" xlink:href="#ArialMT-108"/>
      <use x="917.015625" xlink:href="#ArialMT-108"/>
      <use x="939.232422" xlink:href="#ArialMT-32"/>
      <use x="967.015625" xlink:href="#ArialMT-40"/>
      <use x="1000.316406" xlink:href="#ArialMT-117"/>
      <use x="1055.931641" xlink:href="#ArialMT-109"/>
      <use x="1139.232422" xlink:href="#ArialMT-41"/>
     </g>
    </g>
   </g>
   <g id="matplotlib.axis_2">
    <g id="ytick_1">
     <g id="line2d_7">
      <defs>
       <path d="M 0 0 
L -6 0 
" id="m2c64d2ec2f" style="stroke:#262626;stroke-width:1.25;"/>
      </defs>
      <g>
       <use style="fill:#262626;stroke:#262626;stroke-width:1.25;" x="72" xlink:href="#m2c64d2ec2f" y="100.182857"/>
      </g>
     </g>
     <g id="text_8">
      <!-- 0.5 -->
      <defs>
       <path d="M 9.078125 0 
L 9.078125 10.015625 
L 19.09375 10.015625 
L 19.09375 0 
z
" id="ArialMT-46"/>
      </defs>
      <g style="fill:#262626;" transform="translate(35.7425 107.072252)scale(0.1925 -0.1925)">
       <use xlink:href="#ArialMT-48"/>
       <use x="55.615234" xlink:href="#ArialMT-46"/>
       <use x="83.398438" xlink:href="#ArialMT-53"/>
      </g>
     </g>
    </g>
    <g id="ytick_2">
     <g id="line2d_8">
      <g>
       <use style="fill:#262626;stroke:#262626;stroke-width:1.25;" x="72" xlink:href="#m2c64d2ec2f" y="162.308571"/>
      </g>
     </g>
     <g id="text_9">
      <!-- 1.0 -->
      <g style="fill:#262626;" transform="translate(35.7425 169.197966)scale(0.1925 -0.1925)">
       <use xlink:href="#ArialMT-49"/>
       <use x="55.615234" xlink:href="#ArialMT-46"/>
       <use x="83.398438" xlink:href="#ArialMT-48"/>
      </g>
     </g>
    </g>
    <g id="ytick_3">
     <g id="line2d_9">
      <g>
       <use style="fill:#262626;stroke:#262626;stroke-width:1.25;" x="72" xlink:href="#m2c64d2ec2f" y="224.434286"/>
      </g>
     </g>
     <g id="text_10">
      <!-- 1.5 -->
      <g style="fill:#262626;" transform="translate(35.7425 231.32368)scale(0.1925 -0.1925)">
       <use xlink:href="#ArialMT-49"/>
       <use x="55.615234" xlink:href="#ArialMT-46"/>
       <use x="83.398438" xlink:href="#ArialMT-53"/>
      </g>
     </g>
    </g>
    <g id="ytick_4">
     <g id="line2d_10">
      <g>
       <use style="fill:#262626;stroke:#262626;stroke-width:1.25;" x="72" xlink:href="#m2c64d2ec2f" y="286.56"/>
      </g>
     </g>
     <g id="text_11">
      <!-- 2.0 -->
      <g style="fill:#262626;" transform="translate(35.7425 293.449395)scale(0.1925 -0.1925)">
       <use xlink:href="#ArialMT-50"/>
       <use x="55.615234" xlink:href="#ArialMT-46"/>
       <use x="83.398438" xlink:href="#ArialMT-48"/>
      </g>
     </g>
    </g>
    <g id="ytick_5">
     <g id="line2d_11">
      <g>
       <use style="fill:#262626;stroke:#262626;stroke-width:1.25;" x="72" xlink:href="#m2c64d2ec2f" y="348.685714"/>
      </g>
     </g>
     <g id="text_12">
      <!-- 3.0 -->
      <defs>
       <path d="M 4.203125 18.890625 
L 12.984375 20.0625 
Q 14.5 12.59375 18.140625 9.296875 
Q 21.78125 6 27 6 
Q 33.203125 6 37.46875 10.296875 
Q 41.75 14.59375 41.75 20.953125 
Q 41.75 27 37.796875 30.921875 
Q 33.84375 34.859375 27.734375 34.859375 
Q 25.25 34.859375 21.53125 33.890625 
L 22.515625 41.609375 
Q 23.390625 41.5 23.921875 41.5 
Q 29.546875 41.5 34.03125 44.421875 
Q 38.53125 47.359375 38.53125 53.46875 
Q 38.53125 58.296875 35.25 61.46875 
Q 31.984375 64.65625 26.8125 64.65625 
Q 21.6875 64.65625 18.265625 61.421875 
Q 14.84375 58.203125 13.875 51.765625 
L 5.078125 53.328125 
Q 6.6875 62.15625 12.390625 67.015625 
Q 18.109375 71.875 26.609375 71.875 
Q 32.46875 71.875 37.390625 69.359375 
Q 42.328125 66.84375 44.9375 62.5 
Q 47.5625 58.15625 47.5625 53.265625 
Q 47.5625 48.640625 45.0625 44.828125 
Q 42.578125 41.015625 37.703125 38.765625 
Q 44.046875 37.3125 47.5625 32.6875 
Q 51.078125 28.078125 51.078125 21.140625 
Q 51.078125 11.765625 44.234375 5.25 
Q 37.40625 -1.265625 26.953125 -1.265625 
Q 17.53125 -1.265625 11.296875 4.34375 
Q 5.078125 9.96875 4.203125 18.890625 
z
" id="ArialMT-51"/>
      </defs>
      <g style="fill:#262626;" transform="translate(35.7425 355.575109)scale(0.1925 -0.1925)">
       <use xlink:href="#ArialMT-51"/>
       <use x="55.615234" xlink:href="#ArialMT-46"/>
       <use x="83.398438" xlink:href="#ArialMT-48"/>
      </g>
     </g>
    </g>
    <g id="ytick_6">
     <g id="line2d_12">
      <g>
       <use style="fill:#262626;stroke:#262626;stroke-width:1.25;" x="72" xlink:href="#m2c64d2ec2f" y="410.811429"/>
      </g>
     </g>
     <g id="text_13">
      <!-- 4.0 -->
      <defs>
       <path d="M 32.328125 0 
L 32.328125 17.140625 
L 1.265625 17.140625 
L 1.265625 25.203125 
L 33.9375 71.578125 
L 41.109375 71.578125 
L 41.109375 25.203125 
L 50.78125 25.203125 
L 50.78125 17.140625 
L 41.109375 17.140625 
L 41.109375 0 
z
M 32.328125 25.203125 
L 32.328125 57.46875 
L 9.90625 25.203125 
z
" id="ArialMT-52"/>
      </defs>
      <g style="fill:#262626;" transform="translate(35.7425 417.700823)scale(0.1925 -0.1925)">
       <use xlink:href="#ArialMT-52"/>
       <use x="55.615234" xlink:href="#ArialMT-46"/>
       <use x="83.398438" xlink:href="#ArialMT-48"/>
      </g>
     </g>
    </g>
    <g id="ytick_7">
     <g id="line2d_13">
      <g>
       <use style="fill:#262626;stroke:#262626;stroke-width:1.25;" x="72" xlink:href="#m2c64d2ec2f" y="472.937143"/>
      </g>
     </g>
     <g id="text_14">
      <!-- 6.0 -->
      <defs>
       <path d="M 49.75 54.046875 
L 41.015625 53.375 
Q 39.84375 58.546875 37.703125 60.890625 
Q 34.125 64.65625 28.90625 64.65625 
Q 24.703125 64.65625 21.53125 62.3125 
Q 17.390625 59.28125 14.984375 53.46875 
Q 12.59375 47.65625 12.5 36.921875 
Q 15.671875 41.75 20.265625 44.09375 
Q 24.859375 46.4375 29.890625 46.4375 
Q 38.671875 46.4375 44.84375 39.96875 
Q 51.03125 33.5 51.03125 23.25 
Q 51.03125 16.5 48.125 10.71875 
Q 45.21875 4.9375 40.140625 1.859375 
Q 35.0625 -1.21875 28.609375 -1.21875 
Q 17.625 -1.21875 10.6875 6.859375 
Q 3.765625 14.9375 3.765625 33.5 
Q 3.765625 54.25 11.421875 63.671875 
Q 18.109375 71.875 29.4375 71.875 
Q 37.890625 71.875 43.28125 67.140625 
Q 48.6875 62.40625 49.75 54.046875 
z
M 13.875 23.1875 
Q 13.875 18.65625 15.796875 14.5 
Q 17.71875 10.359375 21.1875 8.171875 
Q 24.65625 6 28.46875 6 
Q 34.03125 6 38.03125 10.484375 
Q 42.046875 14.984375 42.046875 22.703125 
Q 42.046875 30.125 38.078125 34.390625 
Q 34.125 38.671875 28.125 38.671875 
Q 22.171875 38.671875 18.015625 34.390625 
Q 13.875 30.125 13.875 23.1875 
z
" id="ArialMT-54"/>
      </defs>
      <g style="fill:#262626;" transform="translate(35.7425 479.826537)scale(0.1925 -0.1925)">
       <use xlink:href="#ArialMT-54"/>
       <use x="55.615234" xlink:href="#ArialMT-46"/>
       <use x="83.398438" xlink:href="#ArialMT-48"/>
      </g>
     </g>
    </g>
    <g id="text_15">
     <!-- Days in Vitro (DIV) -->
     <defs>
      <path d="M 7.71875 0 
L 7.71875 71.578125 
L 32.375 71.578125 
Q 40.71875 71.578125 45.125 70.5625 
Q 51.265625 69.140625 55.609375 65.4375 
Q 61.28125 60.640625 64.078125 53.1875 
Q 66.890625 45.75 66.890625 36.1875 
Q 66.890625 28.03125 64.984375 21.734375 
Q 63.09375 15.4375 60.109375 11.296875 
Q 57.125 7.171875 53.578125 4.796875 
Q 50.046875 2.4375 45.046875 1.21875 
Q 40.046875 0 33.546875 0 
z
M 17.1875 8.453125 
L 32.46875 8.453125 
Q 39.546875 8.453125 43.578125 9.765625 
Q 47.609375 11.078125 50 13.484375 
Q 53.375 16.84375 55.25 22.53125 
Q 57.125 28.21875 57.125 36.328125 
Q 57.125 47.5625 53.4375 53.59375 
Q 49.75 59.625 44.484375 61.671875 
Q 40.671875 63.140625 32.234375 63.140625 
L 17.1875 63.140625 
z
" id="ArialMT-68"/>
      <path d="M 6.203125 -19.96875 
L 5.21875 -11.71875 
Q 8.109375 -12.5 10.25 -12.5 
Q 13.1875 -12.5 14.9375 -11.515625 
Q 16.703125 -10.546875 17.828125 -8.796875 
Q 18.65625 -7.46875 20.515625 -2.25 
Q 20.75 -1.515625 21.296875 -0.09375 
L 1.609375 51.859375 
L 11.078125 51.859375 
L 21.875 21.828125 
Q 23.96875 16.109375 25.640625 9.8125 
Q 27.15625 15.875 29.25 21.625 
L 40.328125 51.859375 
L 49.125 51.859375 
L 29.390625 -0.875 
Q 26.21875 -9.421875 24.46875 -12.640625 
Q 22.125 -17 19.09375 -19.015625 
Q 16.0625 -21.046875 11.859375 -21.046875 
Q 9.328125 -21.046875 6.203125 -19.96875 
z
" id="ArialMT-121"/>
      <path d="M 3.078125 15.484375 
L 11.765625 16.84375 
Q 12.5 11.625 15.84375 8.84375 
Q 19.1875 6.0625 25.203125 6.0625 
Q 31.25 6.0625 34.171875 8.515625 
Q 37.109375 10.984375 37.109375 14.3125 
Q 37.109375 17.28125 34.515625 19 
Q 32.71875 20.171875 25.53125 21.96875 
Q 15.875 24.421875 12.140625 26.203125 
Q 8.40625 27.984375 6.46875 31.125 
Q 4.546875 34.28125 4.546875 38.09375 
Q 4.546875 41.546875 6.125 44.5 
Q 7.71875 47.46875 10.453125 49.421875 
Q 12.5 50.921875 16.03125 51.96875 
Q 19.578125 53.03125 23.640625 53.03125 
Q 29.734375 53.03125 34.34375 51.265625 
Q 38.96875 49.515625 41.15625 46.5 
Q 43.359375 43.5 44.1875 38.484375 
L 35.59375 37.3125 
Q 35.015625 41.3125 32.203125 43.546875 
Q 29.390625 45.796875 24.265625 45.796875 
Q 18.21875 45.796875 15.625 43.796875 
Q 13.03125 41.796875 13.03125 39.109375 
Q 13.03125 37.40625 14.109375 36.03125 
Q 15.1875 34.625 17.484375 33.6875 
Q 18.796875 33.203125 25.25 31.453125 
Q 34.578125 28.953125 38.25 27.359375 
Q 41.9375 25.78125 44.03125 22.75 
Q 46.140625 19.734375 46.140625 15.234375 
Q 46.140625 10.84375 43.578125 6.953125 
Q 41.015625 3.078125 36.171875 0.953125 
Q 31.34375 -1.171875 25.25 -1.171875 
Q 15.140625 -1.171875 9.84375 3.03125 
Q 4.546875 7.234375 3.078125 15.484375 
z
" id="ArialMT-115"/>
      <path d="M 6.640625 61.46875 
L 6.640625 71.578125 
L 15.4375 71.578125 
L 15.4375 61.46875 
z
M 6.640625 0 
L 6.640625 51.859375 
L 15.4375 51.859375 
L 15.4375 0 
z
" id="ArialMT-105"/>
      <path d="M 28.171875 0 
L 0.4375 71.578125 
L 10.6875 71.578125 
L 29.296875 19.578125 
Q 31.546875 13.328125 33.0625 7.859375 
Q 34.71875 13.71875 36.921875 19.578125 
L 56.25 71.578125 
L 65.921875 71.578125 
L 37.890625 0 
z
" id="ArialMT-86"/>
      <path d="M 9.328125 0 
L 9.328125 71.578125 
L 18.796875 71.578125 
L 18.796875 0 
z
" id="ArialMT-73"/>
     </defs>
     <g style="fill:#262626;opacity:0.7;" transform="translate(28.375 352.79125)rotate(-90)scale(0.16 -0.16)">
      <use xlink:href="#ArialMT-68"/>
      <use x="72.216797" xlink:href="#ArialMT-97"/>
      <use x="127.832031" xlink:href="#ArialMT-121"/>
      <use x="177.832031" xlink:href="#ArialMT-115"/>
      <use x="227.832031" xlink:href="#ArialMT-32"/>
      <use x="255.615234" xlink:href="#ArialMT-105"/>
      <use x="277.832031" xlink:href="#ArialMT-110"/>
      <use x="333.447266" xlink:href="#ArialMT-32"/>
      <use x="361.230469" xlink:href="#ArialMT-86"/>
      <use x="427.914062" xlink:href="#ArialMT-105"/>
      <use x="450.130859" xlink:href="#ArialMT-116"/>
      <use x="477.914062" xlink:href="#ArialMT-114"/>
      <use x="511.214844" xlink:href="#ArialMT-111"/>
      <use x="566.830078" xlink:href="#ArialMT-32"/>
      <use x="594.613281" xlink:href="#ArialMT-40"/>
      <use x="627.914062" xlink:href="#ArialMT-68"/>
      <use x="700.130859" xlink:href="#ArialMT-73"/>
      <use x="727.914062" xlink:href="#ArialMT-86"/>
      <use x="794.613281" xlink:href="#ArialMT-41"/>
     </g>
    </g>
   </g>
   <g id="PolyCollection_1">
    <defs>
     <path d="M 73.913704 -465.763652 
L 73.913704 -485.870634 
L 74.1902 -486.840029 
L 74.466696 -487.842983 
L 74.743192 -488.872132 
L 75.019688 -489.919058 
L 75.296184 -490.974382 
L 75.57268 -492.02789 
L 75.849177 -493.068701 
L 76.125673 -494.085459 
L 76.402169 -495.066551 
L 76.678665 -496.000349 
L 76.955161 -496.875463 
L 77.231657 -497.680995 
L 77.508153 -498.406794 
L 77.784649 -499.043693 
L 78.061145 -499.583725 
L 78.337641 -500.020316 
L 78.614137 -500.348431 
L 78.890633 -500.564688 
L 79.167129 -500.667429 
L 79.443626 -500.656735 
L 79.720122 -500.534412 
L 79.996618 -500.303918 
L 80.273114 -499.97026 
L 80.54961 -499.539859 
L 80.826106 -499.020371 
L 81.102602 -498.420506 
L 81.379098 -497.749812 
L 81.655594 -497.018458 
L 81.93209 -496.237014 
L 82.208586 -495.416227 
L 82.485082 -494.566811 
L 82.761578 -493.699241 
L 83.038074 -492.82357 
L 83.314571 -491.949261 
L 83.591067 -491.085038 
L 83.867563 -490.23877 
L 84.144059 -489.417371 
L 84.420555 -488.626732 
L 84.697051 -487.871679 
L 84.973547 -487.155958 
L 85.250043 -486.482245 
L 85.526539 -485.852185 
L 85.803035 -485.266449 
L 86.079531 -484.724817 
L 86.356027 -484.226268 
L 86.632523 -483.769095 
L 86.90902 -483.351025 
L 87.185516 -482.969337 
L 87.462012 -482.62099 
L 87.738508 -482.302746 
L 88.015004 -482.011282 
L 88.2915 -481.743294 
L 88.567996 -481.495596 
L 88.844492 -481.265188 
L 89.120988 -481.04933 
L 89.397484 -480.845586 
L 89.67398 -480.651855 
L 89.950476 -480.466394 
L 90.226972 -480.287822 
L 90.503468 -480.115113 
L 90.779965 -479.947581 
L 91.056461 -479.784851 
L 91.332957 -479.626834 
L 91.609453 -479.47368 
L 91.885949 -479.325743 
L 92.162445 -479.183529 
L 92.438941 -479.047656 
L 92.715437 -478.918803 
L 92.991933 -478.797665 
L 93.268429 -478.684908 
L 93.544925 -478.581133 
L 93.821421 -478.486832 
L 94.097917 -478.402367 
L 94.374414 -478.327939 
L 94.65091 -478.263572 
L 94.927406 -478.209105 
L 95.203902 -478.16419 
L 95.480398 -478.128292 
L 95.756894 -478.100708 
L 96.03339 -478.080576 
L 96.309886 -478.066903 
L 96.586382 -478.058591 
L 96.862878 -478.054459 
L 97.139374 -478.053281 
L 97.41587 -478.053807 
L 97.692366 -478.054796 
L 97.968862 -478.055041 
L 98.245359 -478.053393 
L 98.521855 -478.048779 
L 98.798351 -478.040227 
L 99.074847 -478.026872 
L 99.351343 -478.007978 
L 99.627839 -477.98294 
L 99.904335 -477.951299 
L 100.180831 -477.91274 
L 100.457327 -477.867104 
L 100.733823 -477.814382 
L 101.010319 -477.754717 
L 101.286815 -477.6884 
L 101.286815 -473.945886 
L 101.286815 -473.945886 
L 101.010319 -473.879569 
L 100.733823 -473.819904 
L 100.457327 -473.767181 
L 100.180831 -473.721545 
L 99.904335 -473.682987 
L 99.627839 -473.651345 
L 99.351343 -473.626308 
L 99.074847 -473.607413 
L 98.798351 -473.594059 
L 98.521855 -473.585506 
L 98.245359 -473.580893 
L 97.968862 -473.579245 
L 97.692366 -473.57949 
L 97.41587 -473.580479 
L 97.139374 -473.581005 
L 96.862878 -473.579826 
L 96.586382 -473.575695 
L 96.309886 -473.567383 
L 96.03339 -473.55371 
L 95.756894 -473.533578 
L 95.480398 -473.505993 
L 95.203902 -473.470096 
L 94.927406 -473.42518 
L 94.65091 -473.370714 
L 94.374414 -473.306347 
L 94.097917 -473.231918 
L 93.821421 -473.147453 
L 93.544925 -473.053153 
L 93.268429 -472.949377 
L 92.991933 -472.836621 
L 92.715437 -472.715483 
L 92.438941 -472.58663 
L 92.162445 -472.450757 
L 91.885949 -472.308543 
L 91.609453 -472.160605 
L 91.332957 -472.007452 
L 91.056461 -471.849434 
L 90.779965 -471.686705 
L 90.503468 -471.519172 
L 90.226972 -471.346463 
L 89.950476 -471.167891 
L 89.67398 -470.982431 
L 89.397484 -470.7887 
L 89.120988 -470.584955 
L 88.844492 -470.369098 
L 88.567996 -470.13869 
L 88.2915 -469.890991 
L 88.015004 -469.623004 
L 87.738508 -469.33154 
L 87.462012 -469.013296 
L 87.185516 -468.664949 
L 86.90902 -468.283261 
L 86.632523 -467.86519 
L 86.356027 -467.408018 
L 86.079531 -466.909469 
L 85.803035 -466.367836 
L 85.526539 -465.782101 
L 85.250043 -465.152041 
L 84.973547 -464.478328 
L 84.697051 -463.762606 
L 84.420555 -463.007553 
L 84.144059 -462.216915 
L 83.867563 -461.395516 
L 83.591067 -460.549248 
L 83.314571 -459.685025 
L 83.038074 -458.810715 
L 82.761578 -457.935045 
L 82.485082 -457.067475 
L 82.208586 -456.218059 
L 81.93209 -455.397272 
L 81.655594 -454.615828 
L 81.379098 -453.884474 
L 81.102602 -453.213779 
L 80.826106 -452.613914 
L 80.54961 -452.094427 
L 80.273114 -451.664025 
L 79.996618 -451.330368 
L 79.720122 -451.099874 
L 79.443626 -450.97755 
L 79.167129 -450.966857 
L 78.890633 -451.069598 
L 78.614137 -451.285855 
L 78.337641 -451.61397 
L 78.061145 -452.05056 
L 77.784649 -452.590593 
L 77.508153 -453.227492 
L 77.231657 -453.953291 
L 76.955161 -454.758823 
L 76.678665 -455.633937 
L 76.402169 -456.567735 
L 76.125673 -457.548827 
L 75.849177 -458.565584 
L 75.57268 -459.606396 
L 75.296184 -460.659904 
L 75.019688 -461.715228 
L 74.743192 -462.762154 
L 74.466696 -463.791303 
L 74.1902 -464.794257 
L 73.913704 -465.763652 
z
" id="m79456947e4" style="stroke:#494949;stroke-width:1.5;"/>
    </defs>
    <g clip-path="url(#p8855a26ac5)">
     <use style="fill:#5875a4;stroke:#494949;stroke-width:1.5;" x="0" xlink:href="#m79456947e4" y="576"/>
    </g>
   </g>
   <g id="PolyCollection_2">
    <defs>
     <path d="M 75.546361 -401.839605 
L 75.546361 -425.543252 
L 75.896919 -426.012962 
L 76.247477 -426.447245 
L 76.598035 -426.842749 
L 76.948593 -427.19677 
L 77.299151 -427.507286 
L 77.649709 -427.772993 
L 78.000267 -427.993294 
L 78.350825 -428.168283 
L 78.701383 -428.298704 
L 79.051941 -428.385883 
L 79.402499 -428.431658 
L 79.753057 -428.438281 
L 80.103616 -428.408327 
L 80.454174 -428.344586 
L 80.804732 -428.249964 
L 81.15529 -428.127383 
L 81.505848 -427.979694 
L 81.856406 -427.8096 
L 82.206964 -427.619591 
L 82.557522 -427.411898 
L 82.90808 -427.188466 
L 83.258638 -426.950943 
L 83.609196 -426.700682 
L 83.959754 -426.438766 
L 84.310312 -426.166044 
L 84.66087 -425.883172 
L 85.011428 -425.59067 
L 85.361986 -425.288981 
L 85.712544 -424.978528 
L 86.063102 -424.65977 
L 86.41366 -424.333256 
L 86.764218 -423.999672 
L 87.114776 -423.659867 
L 87.465334 -423.314886 
L 87.815892 -422.965974 
L 88.16645 -422.614577 
L 88.517008 -422.262331 
L 88.867566 -421.911032 
L 89.218124 -421.562607 
L 89.568682 -421.219069 
L 89.91924 -420.88247 
L 90.269798 -420.554851 
L 90.620356 -420.238188 
L 90.970914 -419.934344 
L 91.321472 -419.64502 
L 91.67203 -419.37171 
L 92.022588 -419.115671 
L 92.373146 -418.877894 
L 92.723704 -418.659081 
L 93.074262 -418.45964 
L 93.42482 -418.279683 
L 93.775379 -418.119031 
L 94.125937 -417.977229 
L 94.476495 -417.85357 
L 94.827053 -417.747119 
L 95.177611 -417.656745 
L 95.528169 -417.581156 
L 95.878727 -417.51893 
L 96.229285 -417.468554 
L 96.579843 -417.428457 
L 96.930401 -417.397046 
L 97.280959 -417.372729 
L 97.631517 -417.35395 
L 97.982075 -417.339211 
L 98.332633 -417.32709 
L 98.683191 -417.316261 
L 99.033749 -417.305507 
L 99.384307 -417.29373 
L 99.734865 -417.279956 
L 100.085423 -417.263344 
L 100.435981 -417.243184 
L 100.786539 -417.218897 
L 101.137097 -417.190031 
L 101.487655 -417.156261 
L 101.838213 -417.117379 
L 102.188771 -417.073287 
L 102.539329 -417.023987 
L 102.889887 -416.969576 
L 103.240445 -416.91023 
L 103.591003 -416.846194 
L 103.941561 -416.777775 
L 104.292119 -416.705321 
L 104.642677 -416.629219 
L 104.993235 -416.549877 
L 105.343793 -416.467715 
L 105.694351 -416.383155 
L 106.044909 -416.296613 
L 106.395467 -416.20849 
L 106.746025 -416.119165 
L 107.096583 -416.028994 
L 107.447141 -415.938303 
L 107.7977 -415.847387 
L 108.148258 -415.756512 
L 108.498816 -415.665916 
L 108.849374 -415.57581 
L 109.199932 -415.486383 
L 109.55049 -415.397806 
L 109.901048 -415.310234 
L 110.251606 -415.223816 
L 110.251606 -412.159041 
L 110.251606 -412.159041 
L 109.901048 -412.072623 
L 109.55049 -411.985051 
L 109.199932 -411.896474 
L 108.849374 -411.807047 
L 108.498816 -411.716941 
L 108.148258 -411.626345 
L 107.7977 -411.53547 
L 107.447141 -411.444554 
L 107.096583 -411.353863 
L 106.746025 -411.263692 
L 106.395467 -411.174367 
L 106.044909 -411.086244 
L 105.694351 -410.999702 
L 105.343793 -410.915143 
L 104.993235 -410.83298 
L 104.642677 -410.753638 
L 104.292119 -410.677536 
L 103.941561 -410.605083 
L 103.591003 -410.536663 
L 103.240445 -410.472628 
L 102.889887 -410.413281 
L 102.539329 -410.35887 
L 102.188771 -410.30957 
L 101.838213 -410.265478 
L 101.487655 -410.226596 
L 101.137097 -410.192826 
L 100.786539 -410.163961 
L 100.435981 -410.139673 
L 100.085423 -410.119513 
L 99.734865 -410.102901 
L 99.384307 -410.089127 
L 99.033749 -410.07735 
L 98.683191 -410.066596 
L 98.332633 -410.055768 
L 97.982075 -410.043647 
L 97.631517 -410.028907 
L 97.280959 -410.010129 
L 96.930401 -409.985812 
L 96.579843 -409.9544 
L 96.229285 -409.914303 
L 95.878727 -409.863928 
L 95.528169 -409.801701 
L 95.177611 -409.726112 
L 94.827053 -409.635738 
L 94.476495 -409.529287 
L 94.125937 -409.405628 
L 93.775379 -409.263826 
L 93.42482 -409.103174 
L 93.074262 -408.923217 
L 92.723704 -408.723776 
L 92.373146 -408.504963 
L 92.022588 -408.267186 
L 91.67203 -408.011147 
L 91.321472 -407.737837 
L 90.970914 -407.448513 
L 90.620356 -407.144669 
L 90.269798 -406.828007 
L 89.91924 -406.500388 
L 89.568682 -406.163789 
L 89.218124 -405.82025 
L 88.867566 -405.471825 
L 88.517008 -405.120526 
L 88.16645 -404.76828 
L 87.815892 -404.416883 
L 87.465334 -404.067971 
L 87.114776 -403.72299 
L 86.764218 -403.383185 
L 86.41366 -403.049601 
L 86.063102 -402.723088 
L 85.712544 -402.404329 
L 85.361986 -402.093876 
L 85.011428 -401.792187 
L 84.66087 -401.499686 
L 84.310312 -401.216813 
L 83.959754 -400.944091 
L 83.609196 -400.682175 
L 83.258638 -400.431914 
L 82.90808 -400.194391 
L 82.557522 -399.970959 
L 82.206964 -399.763266 
L 81.856406 -399.573257 
L 81.505848 -399.403163 
L 81.15529 -399.255474 
L 80.804732 -399.132893 
L 80.454174 -399.038271 
L 80.103616 -398.97453 
L 79.753057 -398.944576 
L 79.402499 -398.951199 
L 79.051941 -398.996974 
L 78.701383 -399.084153 
L 78.350825 -399.214574 
L 78.000267 -399.389564 
L 77.649709 -399.609864 
L 77.299151 -399.875571 
L 76.948593 -400.186088 
L 76.598035 -400.540108 
L 76.247477 -400.935612 
L 75.896919 -401.369895 
L 75.546361 -401.839605 
z
" id="m108d859872" style="stroke:#494949;stroke-width:1.5;"/>
    </defs>
    <g clip-path="url(#p8855a26ac5)">
     <use style="fill:#cc8963;stroke:#494949;stroke-width:1.5;" x="0" xlink:href="#m108d859872" y="576"/>
    </g>
   </g>
   <g id="PolyCollection_3">
    <defs>
     <path d="M 75.215113 -344.381845 
L 75.215113 -358.749584 
L 76.023301 -359.39331 
L 76.831489 -359.999114 
L 77.639677 -360.553027 
L 78.447864 -361.04267 
L 79.256052 -361.457813 
L 80.06424 -361.790781 
L 80.872428 -362.036677 
L 81.680616 -362.193427 
L 82.488804 -362.261648 
L 83.296991 -362.244371 
L 84.105179 -362.146661 
L 84.913367 -361.97518 
L 85.721555 -361.737738 
L 86.529743 -361.442868 
L 87.337931 -361.099457 
L 88.146118 -360.716446 
L 88.954306 -360.302608 
L 89.762494 -359.866394 
L 90.570682 -359.415834 
L 91.37887 -358.958479 
L 92.187057 -358.501362 
L 92.995245 -358.050978 
L 93.803433 -357.613245 
L 94.611621 -357.19348 
L 95.419809 -356.796342 
L 96.227997 -356.425789 
L 97.036184 -356.085017 
L 97.844372 -355.776407 
L 98.65256 -355.501478 
L 99.460748 -355.26085 
L 100.268936 -355.05423 
L 101.077124 -354.88041 
L 101.885311 -354.737313 
L 102.693499 -354.62205 
L 103.501687 -354.531037 
L 104.309875 -354.460131 
L 105.118063 -354.404816 
L 105.926251 -354.360407 
L 106.734438 -354.322283 
L 107.542626 -354.286111 
L 108.350814 -354.248072 
L 109.159002 -354.205041 
L 109.96719 -354.154732 
L 110.775377 -354.095778 
L 111.583565 -354.027742 
L 112.391753 -353.951069 
L 113.199941 -353.866961 
L 114.008129 -353.777214 
L 114.816317 -353.684011 
L 115.624504 -353.589701 
L 116.432692 -353.496579 
L 117.24088 -353.406688 
L 118.049068 -353.321656 
L 118.857256 -353.242581 
L 119.665444 -353.169968 
L 120.473631 -353.103729 
L 121.281819 -353.043223 
L 122.090007 -352.987352 
L 122.898195 -352.934688 
L 123.706383 -352.883616 
L 124.51457 -352.832495 
L 125.322758 -352.779808 
L 126.130946 -352.724288 
L 126.939134 -352.66503 
L 127.747322 -352.601551 
L 128.55551 -352.533821 
L 129.363697 -352.462249 
L 130.171885 -352.387633 
L 130.980073 -352.311085 
L 131.788261 -352.233928 
L 132.596449 -352.157591 
L 133.404637 -352.083502 
L 134.212824 -352.012993 
L 135.021012 -351.947221 
L 135.8292 -351.887115 
L 136.637388 -351.833351 
L 137.445576 -351.786343 
L 138.253764 -351.746264 
L 139.061951 -351.713078 
L 139.870139 -351.686578 
L 140.678327 -351.666436 
L 141.486515 -351.652242 
L 142.294703 -351.643539 
L 143.10289 -351.639846 
L 143.911078 -351.640677 
L 144.719266 -351.645538 
L 145.527454 -351.653924 
L 146.335642 -351.665307 
L 147.14383 -351.679127 
L 147.952017 -351.694776 
L 148.760205 -351.711599 
L 149.568393 -351.728893 
L 150.376581 -351.745923 
L 151.184769 -351.761946 
L 151.992957 -351.776239 
L 152.801144 -351.788137 
L 153.609332 -351.797073 
L 154.41752 -351.802608 
L 155.225708 -351.804465 
L 155.225708 -351.326963 
L 155.225708 -351.326963 
L 154.41752 -351.328821 
L 153.609332 -351.334356 
L 152.801144 -351.343291 
L 151.992957 -351.355189 
L 151.184769 -351.369482 
L 150.376581 -351.385505 
L 149.568393 -351.402536 
L 148.760205 -351.41983 
L 147.952017 -351.436652 
L 147.14383 -351.452302 
L 146.335642 -351.466121 
L 145.527454 -351.477505 
L 144.719266 -351.485891 
L 143.911078 -351.490751 
L 143.10289 -351.491582 
L 142.294703 -351.48789 
L 141.486515 -351.479187 
L 140.678327 -351.464992 
L 139.870139 -351.444851 
L 139.061951 -351.418351 
L 138.253764 -351.385165 
L 137.445576 -351.345086 
L 136.637388 -351.298078 
L 135.8292 -351.244314 
L 135.021012 -351.184208 
L 134.212824 -351.118435 
L 133.404637 -351.047926 
L 132.596449 -350.973838 
L 131.788261 -350.897501 
L 130.980073 -350.820343 
L 130.171885 -350.743795 
L 129.363697 -350.669179 
L 128.55551 -350.597607 
L 127.747322 -350.529877 
L 126.939134 -350.466398 
L 126.130946 -350.40714 
L 125.322758 -350.351621 
L 124.51457 -350.298933 
L 123.706383 -350.247813 
L 122.898195 -350.196741 
L 122.090007 -350.144076 
L 121.281819 -350.088206 
L 120.473631 -350.0277 
L 119.665444 -349.96146 
L 118.857256 -349.888848 
L 118.049068 -349.809772 
L 117.24088 -349.72474 
L 116.432692 -349.634849 
L 115.624504 -349.541728 
L 114.816317 -349.447418 
L 114.008129 -349.354215 
L 113.199941 -349.264468 
L 112.391753 -349.18036 
L 111.583565 -349.103686 
L 110.775377 -349.035651 
L 109.96719 -348.976697 
L 109.159002 -348.926388 
L 108.350814 -348.883357 
L 107.542626 -348.845317 
L 106.734438 -348.809146 
L 105.926251 -348.771021 
L 105.118063 -348.726613 
L 104.309875 -348.671297 
L 103.501687 -348.600392 
L 102.693499 -348.509378 
L 101.885311 -348.394116 
L 101.077124 -348.251018 
L 100.268936 -348.077199 
L 99.460748 -347.870578 
L 98.65256 -347.629951 
L 97.844372 -347.355022 
L 97.036184 -347.046412 
L 96.227997 -346.705639 
L 95.419809 -346.335086 
L 94.611621 -345.937949 
L 93.803433 -345.518183 
L 92.995245 -345.080451 
L 92.187057 -344.630066 
L 91.37887 -344.17295 
L 90.570682 -343.715594 
L 89.762494 -343.265034 
L 88.954306 -342.828821 
L 88.146118 -342.414983 
L 87.337931 -342.031972 
L 86.529743 -341.68856 
L 85.721555 -341.39369 
L 84.913367 -341.156248 
L 84.105179 -340.984767 
L 83.296991 -340.887057 
L 82.488804 -340.86978 
L 81.680616 -340.938002 
L 80.872428 -341.094752 
L 80.06424 -341.340648 
L 79.256052 -341.673615 
L 78.447864 -342.088758 
L 77.639677 -342.578402 
L 76.831489 -343.132314 
L 76.023301 -343.738118 
L 75.215113 -344.381845 
z
" id="mc15b6692a4" style="stroke:#494949;stroke-width:1.5;"/>
    </defs>
    <g clip-path="url(#p8855a26ac5)">
     <use style="fill:#5f9e6e;stroke:#494949;stroke-width:1.5;" x="0" xlink:href="#mc15b6692a4" y="576"/>
    </g>
   </g>
   <g id="PolyCollection_4">
    <defs>
     <path d="M 76.631102 -285.30378 
L 76.631102 -293.57622 
L 78.075648 -294.081681 
L 79.520193 -294.558206 
L 80.964738 -294.990299 
L 82.409284 -295.364828 
L 83.853829 -295.671819 
L 85.298374 -295.904914 
L 86.74292 -296.061469 
L 88.187465 -296.142348 
L 89.63201 -296.151486 
L 91.076556 -296.09532 
L 92.521101 -295.982148 
L 93.965646 -295.821491 
L 95.410192 -295.62347 
L 96.854737 -295.398224 
L 98.299282 -295.155383 
L 99.743828 -294.903603 
L 101.188373 -294.650197 
L 102.632918 -294.400891 
L 104.077464 -294.159734 
L 105.522009 -293.929166 
L 106.966554 -293.710254 
L 108.4111 -293.503038 
L 109.855645 -293.306938 
L 111.300191 -293.121147 
L 112.744736 -292.944941 
L 114.189281 -292.777855 
L 115.633827 -292.619691 
L 117.078372 -292.470391 
L 118.522917 -292.329809 
L 119.967463 -292.197454 
L 121.412008 -292.072295 
L 122.856553 -291.952692 
L 124.301099 -291.836484 
L 125.745644 -291.721244 
L 127.190189 -291.604646 
L 128.634735 -291.484872 
L 130.07928 -291.360964 
L 131.523825 -291.23304 
L 132.968371 -291.102325 
L 134.412916 -290.970971 
L 135.857461 -290.841724 
L 137.302007 -290.717485 
L 138.746552 -290.600856 
L 140.191097 -290.493765 
L 141.635643 -290.397227 
L 143.080188 -290.311267 
L 144.524733 -290.235021 
L 145.969279 -290.166965 
L 147.413824 -290.105231 
L 148.858369 -290.047942 
L 150.302915 -289.993508 
L 151.74746 -289.940842 
L 153.192005 -289.889467 
L 154.636551 -289.839505 
L 156.081096 -289.791574 
L 157.525641 -289.746609 
L 158.970187 -289.705654 
L 160.414732 -289.66965 
L 161.859277 -289.639259 
L 163.303823 -289.614757 
L 164.748368 -289.595975 
L 166.192913 -289.58233 
L 167.637459 -289.572901 
L 169.082004 -289.566549 
L 170.52655 -289.562062 
L 171.971095 -289.558296 
L 173.41564 -289.554292 
L 174.860186 -289.549362 
L 176.304731 -289.543132 
L 177.749276 -289.535541 
L 179.193822 -289.526806 
L 180.638367 -289.517353 
L 182.082912 -289.507743 
L 183.527458 -289.498591 
L 184.972003 -289.490498 
L 186.416548 -289.483996 
L 187.861094 -289.479513 
L 189.305639 -289.477351 
L 190.750184 -289.477676 
L 192.19473 -289.48052 
L 193.639275 -289.485779 
L 195.08382 -289.493224 
L 196.528366 -289.502507 
L 197.972911 -289.513182 
L 199.417456 -289.524734 
L 200.862002 -289.536611 
L 202.306547 -289.548268 
L 203.751092 -289.559211 
L 205.195638 -289.569029 
L 206.640183 -289.577417 
L 208.084728 -289.584179 
L 209.529274 -289.589216 
L 210.973819 -289.592494 
L 212.418364 -289.594014 
L 213.86291 -289.593782 
L 215.307455 -289.591794 
L 216.752 -289.588041 
L 218.196546 -289.582521 
L 219.641091 -289.575271 
L 219.641091 -289.304729 
L 219.641091 -289.304729 
L 218.196546 -289.297479 
L 216.752 -289.291959 
L 215.307455 -289.288206 
L 213.86291 -289.286218 
L 212.418364 -289.285986 
L 210.973819 -289.287506 
L 209.529274 -289.290784 
L 208.084728 -289.295821 
L 206.640183 -289.302583 
L 205.195638 -289.310971 
L 203.751092 -289.320789 
L 202.306547 -289.331732 
L 200.862002 -289.343389 
L 199.417456 -289.355266 
L 197.972911 -289.366818 
L 196.528366 -289.377493 
L 195.08382 -289.386776 
L 193.639275 -289.394221 
L 192.19473 -289.39948 
L 190.750184 -289.402324 
L 189.305639 -289.402649 
L 187.861094 -289.400487 
L 186.416548 -289.396004 
L 184.972003 -289.389502 
L 183.527458 -289.381409 
L 182.082912 -289.372257 
L 180.638367 -289.362647 
L 179.193822 -289.353194 
L 177.749276 -289.344459 
L 176.304731 -289.336868 
L 174.860186 -289.330638 
L 173.41564 -289.325708 
L 171.971095 -289.321704 
L 170.52655 -289.317938 
L 169.082004 -289.313451 
L 167.637459 -289.307099 
L 166.192913 -289.29767 
L 164.748368 -289.284025 
L 163.303823 -289.265243 
L 161.859277 -289.240741 
L 160.414732 -289.21035 
L 158.970187 -289.174346 
L 157.525641 -289.133391 
L 156.081096 -289.088426 
L 154.636551 -289.040495 
L 153.192005 -288.990533 
L 151.74746 -288.939158 
L 150.302915 -288.886492 
L 148.858369 -288.832058 
L 147.413824 -288.774769 
L 145.969279 -288.713035 
L 144.524733 -288.644979 
L 143.080188 -288.568733 
L 141.635643 -288.482773 
L 140.191097 -288.386235 
L 138.746552 -288.279144 
L 137.302007 -288.162515 
L 135.857461 -288.038276 
L 134.412916 -287.909029 
L 132.968371 -287.777675 
L 131.523825 -287.64696 
L 130.07928 -287.519036 
L 128.634735 -287.395128 
L 127.190189 -287.275354 
L 125.745644 -287.158756 
L 124.301099 -287.043516 
L 122.856553 -286.927308 
L 121.412008 -286.807705 
L 119.967463 -286.682546 
L 118.522917 -286.550191 
L 117.078372 -286.409609 
L 115.633827 -286.260309 
L 114.189281 -286.102145 
L 112.744736 -285.935059 
L 111.300191 -285.758853 
L 109.855645 -285.573062 
L 108.4111 -285.376962 
L 106.966554 -285.169746 
L 105.522009 -284.950834 
L 104.077464 -284.720266 
L 102.632918 -284.479109 
L 101.188373 -284.229803 
L 99.743828 -283.976397 
L 98.299282 -283.724617 
L 96.854737 -283.481776 
L 95.410192 -283.25653 
L 93.965646 -283.058509 
L 92.521101 -282.897852 
L 91.076556 -282.78468 
L 89.63201 -282.728514 
L 88.187465 -282.737652 
L 86.74292 -282.818531 
L 85.298374 -282.975086 
L 83.853829 -283.208181 
L 82.409284 -283.515172 
L 80.964738 -283.889701 
L 79.520193 -284.321794 
L 78.075648 -284.798319 
L 76.631102 -285.30378 
z
" id="m8b4a871815" style="stroke:#494949;stroke-width:1.5;"/>
    </defs>
    <g clip-path="url(#p8855a26ac5)">
     <use style="fill:#b55d60;stroke:#494949;stroke-width:1.5;" x="0" xlink:href="#m8b4a871815" y="576"/>
    </g>
   </g>
   <g id="PolyCollection_5">
    <defs>
     <path d="M 75.875754 -225.855665 
L 75.875754 -228.772906 
L 77.817223 -228.964763 
L 79.758691 -229.157618 
L 81.70016 -229.348593 
L 83.641628 -229.535305 
L 85.583096 -229.715944 
L 87.524565 -229.889252 
L 89.466033 -230.054417 
L 91.407502 -230.210895 
L 93.34897 -230.358216 
L 95.290439 -230.49581 
L 97.231907 -230.62289 
L 99.173375 -230.738423 
L 101.114844 -230.841184 
L 103.056312 -230.929888 
L 104.997781 -231.003356 
L 106.939249 -231.060681 
L 108.880717 -231.101347 
L 110.822186 -231.125285 
L 112.763654 -231.132836 
L 114.705123 -231.124643 
L 116.646591 -231.101496 
L 118.588059 -231.064164 
L 120.529528 -231.01326 
L 122.470996 -230.949173 
L 124.412465 -230.872079 
L 126.353933 -230.782043 
L 128.295402 -230.679181 
L 130.23687 -230.563849 
L 132.178338 -230.436826 
L 134.119807 -230.299444 
L 136.061275 -230.153625 
L 138.002744 -230.001831 
L 139.944212 -229.846917 
L 141.88568 -229.691915 
L 143.827149 -229.539782 
L 145.768617 -229.393163 
L 147.710086 -229.254193 
L 149.651554 -229.124378 
L 151.593022 -229.004565 
L 153.534491 -228.894997 
L 155.475959 -228.795438 
L 157.417428 -228.705337 
L 159.358896 -228.624006 
L 161.300365 -228.550777 
L 163.241833 -228.485115 
L 165.183301 -228.426679 
L 167.12477 -228.375323 
L 169.066238 -228.331047 
L 171.007707 -228.29391 
L 172.949175 -228.263927 
L 174.890643 -228.240964 
L 176.832112 -228.224647 
L 178.77358 -228.214297 
L 180.715049 -228.208906 
L 182.656517 -228.207143 
L 184.597985 -228.207402 
L 186.539454 -228.207879 
L 188.480922 -228.206685 
L 190.422391 -228.201971 
L 192.363859 -228.192067 
L 194.305328 -228.175619 
L 196.246796 -228.151707 
L 198.188264 -228.119941 
L 200.129733 -228.080505 
L 202.071201 -228.034152 
L 204.01267 -227.98215 
L 205.954138 -227.926165 
L 207.895606 -227.868115 
L 209.837075 -227.809994 
L 211.778543 -227.753698 
L 213.720012 -227.700867 
L 215.66148 -227.652768 
L 217.602948 -227.610222 
L 219.544417 -227.573589 
L 221.485885 -227.542799 
L 223.427354 -227.517422 
L 225.368822 -227.496771 
L 227.310291 -227.480008 
L 229.251759 -227.466255 
L 231.193227 -227.454686 
L 233.134696 -227.444601 
L 235.076164 -227.435472 
L 237.017633 -227.426969 
L 238.959101 -227.418952 
L 240.900569 -227.411449 
L 242.842038 -227.404618 
L 244.783506 -227.398694 
L 246.724975 -227.393933 
L 248.666443 -227.390556 
L 250.607911 -227.388702 
L 252.54938 -227.388384 
L 254.490848 -227.389476 
L 256.432317 -227.391705 
L 258.373785 -227.394672 
L 260.315254 -227.397886 
L 262.256722 -227.400821 
L 264.19819 -227.402964 
L 266.139659 -227.403879 
L 268.081127 -227.403249 
L 268.081127 -227.225322 
L 268.081127 -227.225322 
L 266.139659 -227.224693 
L 264.19819 -227.225607 
L 262.256722 -227.22775 
L 260.315254 -227.230685 
L 258.373785 -227.2339 
L 256.432317 -227.236866 
L 254.490848 -227.239095 
L 252.54938 -227.240187 
L 250.607911 -227.23987 
L 248.666443 -227.238015 
L 246.724975 -227.234639 
L 244.783506 -227.229878 
L 242.842038 -227.223954 
L 240.900569 -227.217123 
L 238.959101 -227.20962 
L 237.017633 -227.201602 
L 235.076164 -227.193099 
L 233.134696 -227.183971 
L 231.193227 -227.173885 
L 229.251759 -227.162316 
L 227.310291 -227.148563 
L 225.368822 -227.1318 
L 223.427354 -227.111149 
L 221.485885 -227.085773 
L 219.544417 -227.054982 
L 217.602948 -227.018349 
L 215.66148 -226.975804 
L 213.720012 -226.927704 
L 211.778543 -226.874874 
L 209.837075 -226.818578 
L 207.895606 -226.760457 
L 205.954138 -226.702407 
L 204.01267 -226.646422 
L 202.071201 -226.594419 
L 200.129733 -226.548067 
L 198.188264 -226.50863 
L 196.246796 -226.476864 
L 194.305328 -226.452953 
L 192.363859 -226.436504 
L 190.422391 -226.4266 
L 188.480922 -226.421886 
L 186.539454 -226.420692 
L 184.597985 -226.42117 
L 182.656517 -226.421428 
L 180.715049 -226.419666 
L 178.77358 -226.414275 
L 176.832112 -226.403925 
L 174.890643 -226.387607 
L 172.949175 -226.364644 
L 171.007707 -226.334661 
L 169.066238 -226.297524 
L 167.12477 -226.253248 
L 165.183301 -226.201892 
L 163.241833 -226.143457 
L 161.300365 -226.077795 
L 159.358896 -226.004566 
L 157.417428 -225.923235 
L 155.475959 -225.833133 
L 153.534491 -225.733574 
L 151.593022 -225.624006 
L 149.651554 -225.504193 
L 147.710086 -225.374378 
L 145.768617 -225.235408 
L 143.827149 -225.088789 
L 141.88568 -224.936657 
L 139.944212 -224.781654 
L 138.002744 -224.62674 
L 136.061275 -224.474946 
L 134.119807 -224.329127 
L 132.178338 -224.191745 
L 130.23687 -224.064723 
L 128.295402 -223.949391 
L 126.353933 -223.846528 
L 124.412465 -223.756493 
L 122.470996 -223.679399 
L 120.529528 -223.615311 
L 118.588059 -223.564408 
L 116.646591 -223.527075 
L 114.705123 -223.503928 
L 112.763654 -223.495736 
L 110.822186 -223.503287 
L 108.880717 -223.527225 
L 106.939249 -223.567891 
L 104.997781 -223.625215 
L 103.056312 -223.698683 
L 101.114844 -223.787388 
L 99.173375 -223.890149 
L 97.231907 -224.005681 
L 95.290439 -224.132761 
L 93.34897 -224.270355 
L 91.407502 -224.417676 
L 89.466033 -224.574155 
L 87.524565 -224.73932 
L 85.583096 -224.912628 
L 83.641628 -225.093266 
L 81.70016 -225.279978 
L 79.758691 -225.470954 
L 77.817223 -225.663809 
L 75.875754 -225.855665 
z
" id="mc4b63872b3" style="stroke:#494949;stroke-width:1.5;"/>
    </defs>
    <g clip-path="url(#p8855a26ac5)">
     <use style="fill:#857aab;stroke:#494949;stroke-width:1.5;" x="0" xlink:href="#mc4b63872b3" y="576"/>
    </g>
   </g>
   <g id="PolyCollection_6">
    <defs>
     <path d="M 76.549377 -164.016908 
L 76.549377 -166.360235 
L 79.994665 -166.510511 
L 83.439952 -166.658054 
L 86.88524 -166.799685 
L 90.330527 -166.932703 
L 93.775815 -167.05504 
L 97.221102 -167.165328 
L 100.66639 -167.26289 
L 104.111678 -167.347662 
L 107.556965 -167.420057 
L 111.002253 -167.480798 
L 114.44754 -167.530746 
L 117.892828 -167.57074 
L 121.338116 -167.601471 
L 124.783403 -167.6234 
L 128.228691 -167.63671 
L 131.673978 -167.64131 
L 135.119266 -167.636852 
L 138.564554 -167.622794 
L 142.009841 -167.598462 
L 145.455129 -167.563148 
L 148.900416 -167.516212 
L 152.345704 -167.457209 
L 155.790992 -167.386018 
L 159.236279 -167.302963 
L 162.681567 -167.208909 
L 166.126854 -167.105311 
L 169.572142 -166.994193 
L 173.017429 -166.878057 
L 176.462717 -166.759723 
L 179.908005 -166.642116 
L 183.353292 -166.528026 
L 186.79858 -166.419885 
L 190.243867 -166.319585 
L 193.689155 -166.228356 
L 197.134443 -166.146738 
L 200.57973 -166.074615 
L 204.025018 -166.011327 
L 207.470305 -165.955814 
L 210.915593 -165.906781 
L 214.360881 -165.862856 
L 217.806168 -165.822719 
L 221.251456 -165.785201 
L 224.696743 -165.749349 
L 228.142031 -165.714463 
L 231.587319 -165.680101 
L 235.032606 -165.646075 
L 238.477894 -165.612424 
L 241.923181 -165.579374 
L 245.368469 -165.54729 
L 248.813757 -165.516606 
L 252.259044 -165.487764 
L 255.704332 -165.461144 
L 259.149619 -165.43702 
L 262.594907 -165.415526 
L 266.040194 -165.396665 
L 269.485482 -165.380332 
L 272.93077 -165.366365 
L 276.376057 -165.354599 
L 279.821345 -165.344914 
L 283.266632 -165.337258 
L 286.71192 -165.33165 
L 290.157208 -165.32815 
L 293.602495 -165.326806 
L 297.047783 -165.327592 
L 300.49307 -165.330352 
L 303.938358 -165.334761 
L 307.383646 -165.340318 
L 310.828933 -165.346365 
L 314.274221 -165.352141 
L 317.719508 -165.35686 
L 321.164796 -165.359791 
L 324.610084 -165.360339 
L 328.055371 -165.358106 
L 331.500659 -165.352933 
L 334.945946 -165.344906 
L 338.391234 -165.334337 
L 341.836522 -165.321724 
L 345.281809 -165.307687 
L 348.727097 -165.292906 
L 352.172384 -165.278056 
L 355.617672 -165.263755 
L 359.062959 -165.250519 
L 362.508247 -165.238742 
L 365.953535 -165.228691 
L 369.398822 -165.220505 
L 372.84411 -165.214218 
L 376.289397 -165.209777 
L 379.734685 -165.207058 
L 383.179973 -165.205891 
L 386.62526 -165.206065 
L 390.070548 -165.207344 
L 393.515835 -165.209464 
L 396.961123 -165.212145 
L 400.406411 -165.215094 
L 403.851698 -165.218017 
L 407.296986 -165.220634 
L 410.742273 -165.222697 
L 414.187561 -165.224008 
L 417.632849 -165.224439 
L 417.632849 -165.152704 
L 417.632849 -165.152704 
L 414.187561 -165.153135 
L 410.742273 -165.154446 
L 407.296986 -165.156509 
L 403.851698 -165.159126 
L 400.406411 -165.162048 
L 396.961123 -165.164998 
L 393.515835 -165.167679 
L 390.070548 -165.169799 
L 386.62526 -165.171078 
L 383.179973 -165.171252 
L 379.734685 -165.170085 
L 376.289397 -165.167366 
L 372.84411 -165.162925 
L 369.398822 -165.156638 
L 365.953535 -165.148452 
L 362.508247 -165.138401 
L 359.062959 -165.126624 
L 355.617672 -165.113388 
L 352.172384 -165.099087 
L 348.727097 -165.084237 
L 345.281809 -165.069456 
L 341.836522 -165.055419 
L 338.391234 -165.042805 
L 334.945946 -165.032237 
L 331.500659 -165.02421 
L 328.055371 -165.019037 
L 324.610084 -165.016804 
L 321.164796 -165.017352 
L 317.719508 -165.020283 
L 314.274221 -165.025002 
L 310.828933 -165.030778 
L 307.383646 -165.036825 
L 303.938358 -165.042381 
L 300.49307 -165.046791 
L 297.047783 -165.049551 
L 293.602495 -165.050337 
L 290.157208 -165.048993 
L 286.71192 -165.045493 
L 283.266632 -165.039885 
L 279.821345 -165.032229 
L 276.376057 -165.022543 
L 272.93077 -165.010778 
L 269.485482 -164.996811 
L 266.040194 -164.980478 
L 262.594907 -164.961617 
L 259.149619 -164.940123 
L 255.704332 -164.915998 
L 252.259044 -164.889379 
L 248.813757 -164.860537 
L 245.368469 -164.829853 
L 241.923181 -164.797769 
L 238.477894 -164.764719 
L 235.032606 -164.731068 
L 231.587319 -164.697042 
L 228.142031 -164.66268 
L 224.696743 -164.627794 
L 221.251456 -164.591942 
L 217.806168 -164.554424 
L 214.360881 -164.514286 
L 210.915593 -164.470362 
L 207.470305 -164.421329 
L 204.025018 -164.365816 
L 200.57973 -164.302528 
L 197.134443 -164.230405 
L 193.689155 -164.148786 
L 190.243867 -164.057558 
L 186.79858 -163.957258 
L 183.353292 -163.849117 
L 179.908005 -163.735027 
L 176.462717 -163.61742 
L 173.017429 -163.499086 
L 169.572142 -163.38295 
L 166.126854 -163.271832 
L 162.681567 -163.168233 
L 159.236279 -163.07418 
L 155.790992 -162.991125 
L 152.345704 -162.919934 
L 148.900416 -162.860931 
L 145.455129 -162.813995 
L 142.009841 -162.778681 
L 138.564554 -162.754349 
L 135.119266 -162.740291 
L 131.673978 -162.735833 
L 128.228691 -162.740433 
L 124.783403 -162.753743 
L 121.338116 -162.775672 
L 117.892828 -162.806403 
L 114.44754 -162.846397 
L 111.002253 -162.896344 
L 107.556965 -162.957086 
L 104.111678 -163.029481 
L 100.66639 -163.114253 
L 97.221102 -163.211815 
L 93.775815 -163.322103 
L 90.330527 -163.44444 
L 86.88524 -163.577458 
L 83.439952 -163.719088 
L 79.994665 -163.866632 
L 76.549377 -164.016908 
z
" id="m6735862a46" style="stroke:#494949;stroke-width:1.5;"/>
    </defs>
    <g clip-path="url(#p8855a26ac5)">
     <use style="fill:#8d7866;stroke:#494949;stroke-width:1.5;" x="0" xlink:href="#m6735862a46" y="576"/>
    </g>
   </g>
   <g id="PolyCollection_7">
    <defs>
     <path d="M 116.412456 -102.455235 
L 116.412456 -103.670479 
L 120.282012 -103.697181 
L 124.151568 -103.723706 
L 128.021124 -103.749963 
L 131.89068 -103.775863 
L 135.760236 -103.801314 
L 139.629792 -103.826229 
L 143.499348 -103.85052 
L 147.368904 -103.874103 
L 151.23846 -103.896894 
L 155.108016 -103.918815 
L 158.977572 -103.939786 
L 162.847128 -103.959733 
L 166.716684 -103.978584 
L 170.58624 -103.996271 
L 174.455796 -104.012726 
L 178.325352 -104.027889 
L 182.194907 -104.041699 
L 186.064463 -104.054103 
L 189.934019 -104.06505 
L 193.803575 -104.074493 
L 197.673131 -104.082392 
L 201.542687 -104.088709 
L 205.412243 -104.093414 
L 209.281799 -104.096484 
L 213.151355 -104.0979 
L 217.020911 -104.097653 
L 220.890467 -104.095738 
L 224.760023 -104.092161 
L 228.629579 -104.086937 
L 232.499135 -104.080086 
L 236.368691 -104.07164 
L 240.238247 -104.06164 
L 244.107803 -104.050136 
L 247.977359 -104.037187 
L 251.846915 -104.02286 
L 255.716471 -104.007233 
L 259.586027 -103.990391 
L 263.455583 -103.972427 
L 267.325138 -103.953441 
L 271.194694 -103.933539 
L 275.06425 -103.912835 
L 278.933806 -103.891445 
L 282.803362 -103.86949 
L 286.672918 -103.847093 
L 290.542474 -103.82438 
L 294.41203 -103.801475 
L 298.281586 -103.778504 
L 302.151142 -103.75559 
L 306.020698 -103.732853 
L 309.890254 -103.710411 
L 313.75981 -103.688376 
L 317.629366 -103.666855 
L 321.498922 -103.645949 
L 325.368478 -103.625752 
L 329.238034 -103.606351 
L 333.10759 -103.587824 
L 336.977146 -103.570242 
L 340.846702 -103.553665 
L 344.716258 -103.538146 
L 348.585814 -103.523728 
L 352.455369 -103.510443 
L 356.324925 -103.498316 
L 360.194481 -103.487359 
L 364.064037 -103.477577 
L 367.933593 -103.468964 
L 371.803149 -103.461504 
L 375.672705 -103.455173 
L 379.542261 -103.449935 
L 383.411817 -103.445748 
L 387.281373 -103.44256 
L 391.150929 -103.44031 
L 395.020485 -103.438931 
L 398.890041 -103.438346 
L 402.759597 -103.438474 
L 406.629153 -103.439226 
L 410.498709 -103.44051 
L 414.368265 -103.442227 
L 418.237821 -103.444278 
L 422.107377 -103.446559 
L 425.976933 -103.448966 
L 429.846489 -103.451394 
L 433.716045 -103.45374 
L 437.5856 -103.455904 
L 441.455156 -103.457787 
L 445.324712 -103.459297 
L 449.194268 -103.460347 
L 453.063824 -103.460855 
L 456.93338 -103.460751 
L 460.802936 -103.459969 
L 464.672492 -103.458456 
L 468.542048 -103.456167 
L 472.411604 -103.453068 
L 476.28116 -103.449136 
L 480.150716 -103.44436 
L 484.020272 -103.438738 
L 487.889828 -103.432279 
L 491.759384 -103.425005 
L 495.62894 -103.416946 
L 499.498496 -103.40814 
L 499.498496 -102.717575 
L 499.498496 -102.717575 
L 495.62894 -102.708768 
L 491.759384 -102.700709 
L 487.889828 -102.693435 
L 484.020272 -102.686977 
L 480.150716 -102.681354 
L 476.28116 -102.676578 
L 472.411604 -102.672646 
L 468.542048 -102.669547 
L 464.672492 -102.667258 
L 460.802936 -102.665745 
L 456.93338 -102.664963 
L 453.063824 -102.664859 
L 449.194268 -102.665368 
L 445.324712 -102.666417 
L 441.455156 -102.667927 
L 437.5856 -102.66981 
L 433.716045 -102.671974 
L 429.846489 -102.67432 
L 425.976933 -102.676748 
L 422.107377 -102.679155 
L 418.237821 -102.681436 
L 414.368265 -102.683487 
L 410.498709 -102.685205 
L 406.629153 -102.686488 
L 402.759597 -102.687241 
L 398.890041 -102.687369 
L 395.020485 -102.686784 
L 391.150929 -102.685404 
L 387.281373 -102.683154 
L 383.411817 -102.679966 
L 379.542261 -102.675779 
L 375.672705 -102.670542 
L 371.803149 -102.66421 
L 367.933593 -102.65675 
L 364.064037 -102.648137 
L 360.194481 -102.638355 
L 356.324925 -102.627398 
L 352.455369 -102.615271 
L 348.585814 -102.601986 
L 344.716258 -102.587568 
L 340.846702 -102.572049 
L 336.977146 -102.555472 
L 333.10759 -102.53789 
L 329.238034 -102.519363 
L 325.368478 -102.499962 
L 321.498922 -102.479765 
L 317.629366 -102.458859 
L 313.75981 -102.437338 
L 309.890254 -102.415303 
L 306.020698 -102.392861 
L 302.151142 -102.370124 
L 298.281586 -102.34721 
L 294.41203 -102.324239 
L 290.542474 -102.301334 
L 286.672918 -102.278621 
L 282.803362 -102.256224 
L 278.933806 -102.234269 
L 275.06425 -102.212879 
L 271.194694 -102.192175 
L 267.325138 -102.172274 
L 263.455583 -102.153287 
L 259.586027 -102.135323 
L 255.716471 -102.118481 
L 251.846915 -102.102854 
L 247.977359 -102.088527 
L 244.107803 -102.075578 
L 240.238247 -102.064074 
L 236.368691 -102.054074 
L 232.499135 -102.045629 
L 228.629579 -102.038778 
L 224.760023 -102.033553 
L 220.890467 -102.029976 
L 217.020911 -102.028062 
L 213.151355 -102.027814 
L 209.281799 -102.02923 
L 205.412243 -102.0323 
L 201.542687 -102.037005 
L 197.673131 -102.043323 
L 193.803575 -102.051221 
L 189.934019 -102.060664 
L 186.064463 -102.071611 
L 182.194907 -102.084015 
L 178.325352 -102.097826 
L 174.455796 -102.112988 
L 170.58624 -102.129444 
L 166.716684 -102.14713 
L 162.847128 -102.165981 
L 158.977572 -102.185928 
L 155.108016 -102.2069 
L 151.23846 -102.22882 
L 147.368904 -102.251612 
L 143.499348 -102.275194 
L 139.629792 -102.299486 
L 135.760236 -102.3244 
L 131.89068 -102.349852 
L 128.021124 -102.375751 
L 124.151568 -102.402009 
L 120.282012 -102.428534 
L 116.412456 -102.455235 
z
" id="m74a283af8a" style="stroke:#494949;stroke-width:1.5;"/>
    </defs>
    <g clip-path="url(#p8855a26ac5)">
     <use style="fill:#d095bf;stroke:#494949;stroke-width:1.5;" x="0" xlink:href="#m74a283af8a" y="576"/>
    </g>
   </g>
   <g id="line2d_14">
    <path clip-path="url(#p8855a26ac5)" d="M 78.042621 76.653941 
L 78.042621 123.711774 
" style="fill:none;stroke:#494949;stroke-dasharray:3.375,3.375;stroke-dashoffset:0;stroke-width:1.5;"/>
   </g>
   <g id="line2d_15">
    <path clip-path="url(#p8855a26ac5)" d="M 79.747832 75.712761 
L 79.747832 124.652954 
" style="fill:none;stroke:#494949;stroke-dasharray:6.75,6.75;stroke-dashoffset:0;stroke-width:1.5;"/>
   </g>
   <g id="line2d_16">
    <path clip-path="url(#p8855a26ac5)" d="M 82.627658 82.47958 
L 82.627658 117.886134 
" style="fill:none;stroke:#494949;stroke-dasharray:3.375,3.375;stroke-dashoffset:0;stroke-width:1.5;"/>
   </g>
   <g id="line2d_17">
    <path clip-path="url(#p8855a26ac5)" d="M 77.386197 148.630872 
L 77.386197 175.986271 
" style="fill:none;stroke:#494949;stroke-dasharray:3.375,3.375;stroke-dashoffset:0;stroke-width:1.5;"/>
   </g>
   <g id="line2d_18">
    <path clip-path="url(#p8855a26ac5)" d="M 82.828892 148.946504 
L 82.828892 175.670639 
" style="fill:none;stroke:#494949;stroke-dasharray:6.75,6.75;stroke-dashoffset:0;stroke-width:1.5;"/>
   </g>
   <g id="line2d_19">
    <path clip-path="url(#p8855a26ac5)" d="M 87.451072 152.781349 
L 87.451072 171.835794 
" style="fill:none;stroke:#494949;stroke-dasharray:3.375,3.375;stroke-dashoffset:0;stroke-width:1.5;"/>
   </g>
   <g id="line2d_20">
    <path clip-path="url(#p8855a26ac5)" d="M 80.310165 214.31147 
L 80.310165 234.557102 
" style="fill:none;stroke:#494949;stroke-dasharray:3.375,3.375;stroke-dashoffset:0;stroke-width:1.5;"/>
   </g>
   <g id="line2d_21">
    <path clip-path="url(#p8855a26ac5)" d="M 85.850312 214.363982 
L 85.850312 234.50459 
" style="fill:none;stroke:#494949;stroke-dasharray:6.75,6.75;stroke-dashoffset:0;stroke-width:1.5;"/>
   </g>
   <g id="line2d_22">
    <path clip-path="url(#p8855a26ac5)" d="M 95.883925 219.622812 
L 95.883925 229.24576 
" style="fill:none;stroke:#494949;stroke-dasharray:3.375,3.375;stroke-dashoffset:0;stroke-width:1.5;"/>
   </g>
   <g id="line2d_23">
    <path clip-path="url(#p8855a26ac5)" d="M 85.724514 280.159735 
L 85.724514 292.960265 
" style="fill:none;stroke:#494949;stroke-dasharray:3.375,3.375;stroke-dashoffset:0;stroke-width:1.5;"/>
   </g>
   <g id="line2d_24">
    <path clip-path="url(#p8855a26ac5)" d="M 95.165652 280.438364 
L 95.165652 292.681636 
" style="fill:none;stroke:#494949;stroke-dasharray:6.75,6.75;stroke-dashoffset:0;stroke-width:1.5;"/>
   </g>
   <g id="line2d_25">
    <path clip-path="url(#p8855a26ac5)" d="M 112.326802 283.090108 
L 112.326802 290.029892 
" style="fill:none;stroke:#494949;stroke-dasharray:3.375,3.375;stroke-dashoffset:0;stroke-width:1.5;"/>
   </g>
   <g id="line2d_26">
    <path clip-path="url(#p8855a26ac5)" d="M 102.718945 345.106268 
L 102.718945 352.265161 
" style="fill:none;stroke:#494949;stroke-dasharray:3.375,3.375;stroke-dashoffset:0;stroke-width:1.5;"/>
   </g>
   <g id="line2d_27">
    <path clip-path="url(#p8855a26ac5)" d="M 119.976688 345.02373 
L 119.976688 352.347699 
" style="fill:none;stroke:#494949;stroke-dasharray:6.75,6.75;stroke-dashoffset:0;stroke-width:1.5;"/>
   </g>
   <g id="line2d_28">
    <path clip-path="url(#p8855a26ac5)" d="M 142.159142 346.331862 
L 142.159142 351.039567 
" style="fill:none;stroke:#494949;stroke-dasharray:3.375,3.375;stroke-dashoffset:0;stroke-width:1.5;"/>
   </g>
   <g id="line2d_29">
    <path clip-path="url(#p8855a26ac5)" d="M 108.514533 408.602258 
L 108.514533 413.020599 
" style="fill:none;stroke:#494949;stroke-dasharray:3.375,3.375;stroke-dashoffset:0;stroke-width:1.5;"/>
   </g>
   <g id="line2d_30">
    <path clip-path="url(#p8855a26ac5)" d="M 136.734591 408.387631 
L 136.734591 413.235227 
" style="fill:none;stroke:#494949;stroke-dasharray:6.75,6.75;stroke-dashoffset:0;stroke-width:1.5;"/>
   </g>
   <g id="line2d_31">
    <path clip-path="url(#p8855a26ac5)" d="M 167.784799 408.913856 
L 167.784799 412.709001 
" style="fill:none;stroke:#494949;stroke-dasharray:3.375,3.375;stroke-dashoffset:0;stroke-width:1.5;"/>
   </g>
   <g id="line2d_32">
    <path clip-path="url(#p8855a26ac5)" d="M 183.426843 471.968089 
L 183.426843 473.906197 
" style="fill:none;stroke:#494949;stroke-dasharray:3.375,3.375;stroke-dashoffset:0;stroke-width:1.5;"/>
   </g>
   <g id="line2d_33">
    <path clip-path="url(#p8855a26ac5)" d="M 245.556017 471.959736 
L 245.556017 473.914549 
" style="fill:none;stroke:#494949;stroke-dasharray:6.75,6.75;stroke-dashoffset:0;stroke-width:1.5;"/>
   </g>
   <g id="line2d_34">
    <path clip-path="url(#p8855a26ac5)" d="M 328.94299 472.399084 
L 328.94299 473.475202 
" style="fill:none;stroke:#494949;stroke-dasharray:3.375,3.375;stroke-dashoffset:0;stroke-width:1.5;"/>
   </g>
   <g id="patch_3">
    <path d="M 72 504 
L 518.4 504 
" style="fill:none;stroke:#262626;stroke-linecap:square;stroke-linejoin:miter;stroke-width:1.25;"/>
   </g>
  </g>
 </g>
 <defs>
  <clipPath id="p8855a26ac5">
   <rect height="434.88" width="446.4" x="72" y="69.12"/>
  </clipPath>
 </defs>
</svg>
